<svg viewBox="0 0 1000 1000" xmlns="http://www.w3.org/2000/svg"><rect width="1000" height="1000" fill="#050a10"/>
<defs>
    <radialGradient id="corneaGrad" cx="50%" cy="50%" r="50%">
        <stop offset="0%" stop-color="#0a192f"/>
        <stop offset="100%" stop-color="#020508"/>
    </radialGradient>
    <filter id="glowForce" x="-20%" y="-20%" width="140%" height="140%">
        <feGaussianBlur stdDeviation="4" result="blur" />
        <feMerge>
            <feMergeNode in="blur"/>
            <feMergeNode in="SourceGraphic"/>
        </feMerge>
    </filter>
    <filter id="hyperGlow" x="-50%" y="-50%" width="200%" height="200%">
        <feGaussianBlur stdDeviation="8" result="blur" />
        <feMerge>
            <feMergeNode in="blur"/>
            <feMergeNode in="SourceGraphic"/>
        </feMerge>
    </filter>
</defs>
<circle cx="500" cy="500" r="400" fill="url(#corneaGrad)"/><circle cx="500" cy="500" r="400" fill="none" stroke="#37474f" stroke-width="3"/><line x1="500" y1="500" x2="900" y2="500" stroke="#1e3a5f" stroke-width="1" opacity="0.4"/><line x1="500" y1="500" x2="893.9231012048832" y2="569.4592710667721" stroke="#1e3a5f" stroke-width="1" opacity="0.4"/><line x1="500" y1="500" x2="875.8770483143634" y2="636.8080573302675" stroke="#1e3a5f" stroke-width="1" opacity="0.4"/><line x1="500" y1="500" x2="846.4101615137755" y2="700" stroke="#1e3a5f" stroke-width="1" opacity="0.4"/><line x1="500" y1="500" x2="806.4177772475912" y2="757.1150438746157" stroke="#1e3a5f" stroke-width="1" opacity="0.4"/><line x1="500" y1="500" x2="757.1150438746158" y2="806.4177772475912" stroke="#1e3a5f" stroke-width="1" opacity="0.4"/><line x1="500" y1="500" x2="700" y2="846.4101615137754" stroke="#1e3a5f" stroke-width="1" opacity="0.4"/><line x1="500" y1="500" x2="636.8080573302675" y2="875.8770483143633" stroke="#1e3a5f" stroke-width="1" opacity="0.4"/><line x1="500" y1="500" x2="569.4592710667722" y2="893.9231012048832" stroke="#1e3a5f" stroke-width="1" opacity="0.4"/><line x1="500" y1="500" x2="500" y2="900" stroke="#1e3a5f" stroke-width="1" opacity="0.4"/><line x1="500" y1="500" x2="430.5407289332279" y2="893.9231012048832" stroke="#1e3a5f" stroke-width="1" opacity="0.4"/><line x1="500" y1="500" x2="363.1919426697325" y2="875.8770483143634" stroke="#1e3a5f" stroke-width="1" opacity="0.4"/><line x1="500" y1="500" x2="300.0000000000001" y2="846.4101615137755" stroke="#1e3a5f" stroke-width="1" opacity="0.4"/><line x1="500" y1="500" x2="242.88495612538424" y2="806.4177772475912" stroke="#1e3a5f" stroke-width="1" opacity="0.4"/><line x1="500" y1="500" x2="193.58222275240882" y2="757.1150438746158" stroke="#1e3a5f" stroke-width="1" opacity="0.4"/><line x1="500" y1="500" x2="153.5898384862245" y2="700" stroke="#1e3a5f" stroke-width="1" opacity="0.4"/><line x1="500" y1="500" x2="124.12295168563668" y2="636.8080573302675" stroke="#1e3a5f" stroke-width="1" opacity="0.4"/><line x1="500" y1="500" x2="106.07689879511679" y2="569.4592710667721" stroke="#1e3a5f" stroke-width="1" opacity="0.4"/><line x1="500" y1="500" x2="100" y2="500.00000000000006" stroke="#1e3a5f" stroke-width="1" opacity="0.4"/><line x1="500" y1="500" x2="106.07689879511679" y2="430.5407289332278" stroke="#1e3a5f" stroke-width="1" opacity="0.4"/><line x1="500" y1="500" x2="124.12295168563662" y2="363.1919426697325" stroke="#1e3a5f" stroke-width="1" opacity="0.4"/><line x1="500" y1="500" x2="153.58983848622455" y2="299.99999999999994" stroke="#1e3a5f" stroke-width="1" opacity="0.4"/><line x1="500" y1="500" x2="193.58222275240877" y2="242.8849561253843" stroke="#1e3a5f" stroke-width="1" opacity="0.4"/><line x1="500" y1="500" x2="242.88495612538424" y2="193.58222275240882" stroke="#1e3a5f" stroke-width="1" opacity="0.4"/><line x1="500" y1="500" x2="299.99999999999983" y2="153.5898384862246" stroke="#1e3a5f" stroke-width="1" opacity="0.4"/><line x1="500" y1="500" x2="363.19194266973227" y2="124.12295168563674" stroke="#1e3a5f" stroke-width="1" opacity="0.4"/><line x1="500" y1="500" x2="430.54072893322785" y2="106.07689879511679" stroke="#1e3a5f" stroke-width="1" opacity="0.4"/><line x1="500" y1="500" x2="499.99999999999994" y2="100" stroke="#1e3a5f" stroke-width="1" opacity="0.4"/><line x1="500" y1="500" x2="569.459271066772" y2="106.07689879511673" stroke="#1e3a5f" stroke-width="1" opacity="0.4"/><line x1="500" y1="500" x2="636.8080573302673" y2="124.12295168563656" stroke="#1e3a5f" stroke-width="1" opacity="0.4"/><line x1="500" y1="500" x2="700" y2="153.58983848622455" stroke="#1e3a5f" stroke-width="1" opacity="0.4"/><line x1="500" y1="500" x2="757.1150438746157" y2="193.58222275240877" stroke="#1e3a5f" stroke-width="1" opacity="0.4"/><line x1="500" y1="500" x2="806.4177772475912" y2="242.88495612538418" stroke="#1e3a5f" stroke-width="1" opacity="0.4"/><line x1="500" y1="500" x2="846.4101615137754" y2="299.99999999999983" stroke="#1e3a5f" stroke-width="1" opacity="0.4"/><line x1="500" y1="500" x2="875.8770483143634" y2="363.19194266973255" stroke="#1e3a5f" stroke-width="1" opacity="0.4"/><line x1="500" y1="500" x2="893.9231012048831" y2="430.54072893322746" stroke="#1e3a5f" stroke-width="1" opacity="0.4"/><circle cx="500" cy="500" r="45" fill="none" stroke="#1e3a5f" stroke-width="1" stroke-dasharray="4,4" opacity="0.3"/><circle cx="500" cy="500" r="90" fill="none" stroke="#1e3a5f" stroke-width="1" stroke-dasharray="4,4" opacity="0.3"/><circle cx="500" cy="500" r="135" fill="none" stroke="#1e3a5f" stroke-width="1" stroke-dasharray="4,4" opacity="0.3"/><circle cx="500" cy="500" r="180" fill="none" stroke="#1e3a5f" stroke-width="1" stroke-dasharray="4,4" opacity="0.3"/><circle cx="500" cy="500" r="225" fill="none" stroke="#1e3a5f" stroke-width="1" stroke-dasharray="4,4" opacity="0.3"/><circle cx="500" cy="500" r="270" fill="none" stroke="#1e3a5f" stroke-width="1" stroke-dasharray="4,4" opacity="0.3"/><circle cx="500" cy="500" r="315" fill="none" stroke="#1e3a5f" stroke-width="1" stroke-dasharray="4,4" opacity="0.3"/><circle cx="500" cy="500" r="360" fill="none" stroke="#1e3a5f" stroke-width="1" stroke-dasharray="4,4" opacity="0.3"/><path d="M 448.23619097949586 306.81483474218635 
               A 200 200 0 0 0 448.23619097949586 693.1851652578137" fill="none" stroke="#cfd8dc" stroke-width="25" stroke-linecap="round"/><path d="M 551.7638090205041 693.1851652578137 
                A 200 200 0 0 0 551.7638090205043 306.81483474218635" fill="none" stroke="#cfd8dc" stroke-width="25" stroke-linecap="round"/><line x1="392.50000000000006" y1="686.1954618136543" x2="362.50000000000006" y2="738.1569860407207" stroke="#ff1744" stroke-width="6" filter="url(#glowForce)"/><polygon points="362.50000000000006,738.1569860407207 365.10472266500403,723.3848697455376 373.99066664678475,728.5151718954226" fill="#ff1744" filter="url(#glowForce)"/><line x1="313.80453818634567" y1="607.5" x2="261.84301395927935" y2="637.5" stroke="#ff1744" stroke-width="6" filter="url(#glowForce)"/><polygon points="261.84301395927935,637.5 271.48482810457745,626.0093333532153 276.6151302544625,634.8952773349961" fill="#ff1744" filter="url(#glowForce)"/><line x1="285" y1="500" x2="225" y2="500.00000000000006" stroke="#ff1744" stroke-width="6" filter="url(#glowForce)"/><polygon points="225,500.00000000000006 239.09538931178864,494.869697850115 239.09538931178864,505.1303021498851" fill="#ff1744" filter="url(#glowForce)"/><line x1="313.80453818634567" y1="392.5" x2="261.84301395927935" y2="362.5" stroke="#ff1744" stroke-width="6" filter="url(#glowForce)"/><polygon points="261.84301395927935,362.5 276.6151302544625,365.104722665004 271.48482810457745,373.9906666467847" fill="#ff1744" filter="url(#glowForce)"/><line x1="392.4999999999999" y1="313.8045381863457" x2="362.4999999999999" y2="261.8430139592794" stroke="#ff1744" stroke-width="6" filter="url(#glowForce)"/><polygon points="362.4999999999999,261.8430139592794 373.9906666467846,271.4848281045775 365.10472266500386,276.61513025446254" fill="#ff1744" filter="url(#glowForce)"/><line x1="607.5" y1="313.80453818634567" x2="637.5" y2="261.84301395927935" stroke="#ff1744" stroke-width="6" filter="url(#glowForce)"/><polygon points="637.5,261.84301395927935 634.8952773349961,276.6151302544625 626.0093333532153,271.48482810457745" fill="#ff1744" filter="url(#glowForce)"/><line x1="686.1954618136542" y1="392.4999999999999" x2="738.1569860407205" y2="362.4999999999999" stroke="#ff1744" stroke-width="6" filter="url(#glowForce)"/><polygon points="738.1569860407205,362.4999999999999 728.5151718954224,373.9906666467846 723.3848697455375,365.10472266500386" fill="#ff1744" filter="url(#glowForce)"/><line x1="715" y1="500" x2="775" y2="500" stroke="#ff1744" stroke-width="6" filter="url(#glowForce)"/><polygon points="775,500 760.9046106882114,505.13030214988504 760.9046106882114,494.86969785011496" fill="#ff1744" filter="url(#glowForce)"/><line x1="686.1954618136543" y1="607.5" x2="738.1569860407207" y2="637.5" stroke="#ff1744" stroke-width="6" filter="url(#glowForce)"/><polygon points="738.1569860407207,637.5 723.3848697455376,634.8952773349961 728.5151718954226,626.0093333532153" fill="#ff1744" filter="url(#glowForce)"/><line x1="607.5" y1="686.1954618136543" x2="637.5" y2="738.1569860407207" stroke="#ff1744" stroke-width="6" filter="url(#glowForce)"/><polygon points="637.5,738.1569860407207 626.0093333532153,728.5151718954226 634.8952773349961,723.3848697455376" fill="#ff1744" filter="url(#glowForce)"/><line x1="500" y1="500" x2="680" y2="500" stroke="#ffb74d" stroke-width="3" opacity="0.6" filter="url(#glowGold)"/><line x1="500" y1="500" x2="679.0139411662892" y2="518.8151233881777" stroke="#ffb74d" stroke-width="1" opacity="0.6" filter="url(#glowGold)"/><line x1="500" y1="500" x2="676.066568132085" y2="537.4241043471967" stroke="#ffb74d" stroke-width="1" opacity="0.6" filter="url(#glowGold)"/><line x1="500" y1="500" x2="671.1901729331277" y2="555.6230589874905" stroke="#ffb74d" stroke-width="1" opacity="0.6" filter="url(#glowGold)"/><line x1="500" y1="500" x2="664.4381823756681" y2="573.212595753644" stroke="#ffb74d" stroke-width="1" opacity="0.6" filter="url(#glowGold)"/><line x1="500" y1="500" x2="655.884572681199" y2="590" stroke="#ffb74d" stroke-width="3" opacity="0.6" filter="url(#glowGold)"/><line x1="500" y1="500" x2="645.6230589874906" y2="605.8013454126451" stroke="#ffb74d" stroke-width="1" opacity="0.6" filter="url(#glowGold)"/><line x1="500" y1="500" x2="633.766068585931" y2="620.4435091445945" stroke="#ffb74d" stroke-width="1" opacity="0.6" filter="url(#glowGold)"/><line x1="500" y1="500" x2="620.4435091445945" y2="633.766068585931" stroke="#ffb74d" stroke-width="1" opacity="0.6" filter="url(#glowGold)"/><line x1="500" y1="500" x2="605.8013454126451" y2="645.6230589874906" stroke="#ffb74d" stroke-width="1" opacity="0.6" filter="url(#glowGold)"/><line x1="500" y1="500" x2="590" y2="655.884572681199" stroke="#ffb74d" stroke-width="3" opacity="0.6" filter="url(#glowGold)"/><line x1="500" y1="500" x2="573.212595753644" y2="664.4381823756681" stroke="#ffb74d" stroke-width="1" opacity="0.6" filter="url(#glowGold)"/><line x1="500" y1="500" x2="555.6230589874906" y2="671.1901729331277" stroke="#ffb74d" stroke-width="1" opacity="0.6" filter="url(#glowGold)"/><line x1="500" y1="500" x2="537.4241043471967" y2="676.066568132085" stroke="#ffb74d" stroke-width="1" opacity="0.6" filter="url(#glowGold)"/><line x1="500" y1="500" x2="518.8151233881777" y2="679.0139411662892" stroke="#ffb74d" stroke-width="1" opacity="0.6" filter="url(#glowGold)"/><line x1="500" y1="500" x2="500" y2="680" stroke="#ffb74d" stroke-width="3" opacity="0.6" filter="url(#glowGold)"/><line x1="500" y1="500" x2="481.1848766118224" y2="679.0139411662892" stroke="#ffb74d" stroke-width="1" opacity="0.6" filter="url(#glowGold)"/><line x1="500" y1="500" x2="462.57589565280335" y2="676.066568132085" stroke="#ffb74d" stroke-width="1" opacity="0.6" filter="url(#glowGold)"/><line x1="500" y1="500" x2="444.37694101250946" y2="671.1901729331277" stroke="#ffb74d" stroke-width="1" opacity="0.6" filter="url(#glowGold)"/><line x1="500" y1="500" x2="426.787404246356" y2="664.4381823756681" stroke="#ffb74d" stroke-width="1" opacity="0.6" filter="url(#glowGold)"/><line x1="500" y1="500" x2="410.00000000000006" y2="655.884572681199" stroke="#ffb74d" stroke-width="3" opacity="0.6" filter="url(#glowGold)"/><line x1="500" y1="500" x2="394.19865458735484" y2="645.6230589874906" stroke="#ffb74d" stroke-width="1" opacity="0.6" filter="url(#glowGold)"/><line x1="500" y1="500" x2="379.5564908554055" y2="633.766068585931" stroke="#ffb74d" stroke-width="1" opacity="0.6" filter="url(#glowGold)"/><line x1="500" y1="500" x2="366.23393141406905" y2="620.4435091445945" stroke="#ffb74d" stroke-width="1" opacity="0.6" filter="url(#glowGold)"/><line x1="500" y1="500" x2="354.3769410125095" y2="605.8013454126452" stroke="#ffb74d" stroke-width="1" opacity="0.6" filter="url(#glowGold)"/><line x1="500" y1="500" x2="344.11542731880104" y2="590" stroke="#ffb74d" stroke-width="3" opacity="0.6" filter="url(#glowGold)"/><line x1="500" y1="500" x2="335.56181762433187" y2="573.2125957536441" stroke="#ffb74d" stroke-width="1" opacity="0.6" filter="url(#glowGold)"/><line x1="500" y1="500" x2="328.80982706687234" y2="555.6230589874906" stroke="#ffb74d" stroke-width="1" opacity="0.6" filter="url(#glowGold)"/><line x1="500" y1="500" x2="323.933431867915" y2="537.4241043471967" stroke="#ffb74d" stroke-width="1" opacity="0.6" filter="url(#glowGold)"/><line x1="500" y1="500" x2="320.9860588337108" y2="518.8151233881777" stroke="#ffb74d" stroke-width="1" opacity="0.6" filter="url(#glowGold)"/><line x1="500" y1="500" x2="320" y2="500" stroke="#ffb74d" stroke-width="3" opacity="0.6" filter="url(#glowGold)"/><line x1="500" y1="500" x2="320.9860588337108" y2="481.18487661182246" stroke="#ffb74d" stroke-width="1" opacity="0.6" filter="url(#glowGold)"/><line x1="500" y1="500" x2="323.933431867915" y2="462.57589565280335" stroke="#ffb74d" stroke-width="1" opacity="0.6" filter="url(#glowGold)"/><line x1="500" y1="500" x2="328.80982706687234" y2="444.3769410125094" stroke="#ffb74d" stroke-width="1" opacity="0.6" filter="url(#glowGold)"/><line x1="500" y1="500" x2="335.5618176243318" y2="426.787404246356" stroke="#ffb74d" stroke-width="1" opacity="0.6" filter="url(#glowGold)"/><line x1="500" y1="500" x2="344.11542731880104" y2="410" stroke="#ffb74d" stroke-width="3" opacity="0.6" filter="url(#glowGold)"/><line x1="500" y1="500" x2="354.37694101250946" y2="394.19865458735484" stroke="#ffb74d" stroke-width="1" opacity="0.6" filter="url(#glowGold)"/><line x1="500" y1="500" x2="366.23393141406905" y2="379.5564908554055" stroke="#ffb74d" stroke-width="1" opacity="0.6" filter="url(#glowGold)"/><line x1="500" y1="500" x2="379.55649085540546" y2="366.23393141406905" stroke="#ffb74d" stroke-width="1" opacity="0.6" filter="url(#glowGold)"/><line x1="500" y1="500" x2="394.1986545873548" y2="354.3769410125095" stroke="#ffb74d" stroke-width="1" opacity="0.6" filter="url(#glowGold)"/><line x1="500" y1="500" x2="409.9999999999999" y2="344.11542731880104" stroke="#ffb74d" stroke-width="3" opacity="0.6" filter="url(#glowGold)"/><line x1="500" y1="500" x2="426.787404246356" y2="335.56181762433187" stroke="#ffb74d" stroke-width="1" opacity="0.6" filter="url(#glowGold)"/><line x1="500" y1="500" x2="444.37694101250946" y2="328.80982706687234" stroke="#ffb74d" stroke-width="1" opacity="0.6" filter="url(#glowGold)"/><line x1="500" y1="500" x2="462.57589565280324" y2="323.93343186791503" stroke="#ffb74d" stroke-width="1" opacity="0.6" filter="url(#glowGold)"/><line x1="500" y1="500" x2="481.1848766118224" y2="320.9860588337108" stroke="#ffb74d" stroke-width="1" opacity="0.6" filter="url(#glowGold)"/><line x1="500" y1="500" x2="499.99999999999994" y2="320" stroke="#ffb74d" stroke-width="3" opacity="0.6" filter="url(#glowGold)"/><line x1="500" y1="500" x2="518.8151233881775" y2="320.9860588337108" stroke="#ffb74d" stroke-width="1" opacity="0.6" filter="url(#glowGold)"/><line x1="500" y1="500" x2="537.4241043471966" y2="323.9334318679149" stroke="#ffb74d" stroke-width="1" opacity="0.6" filter="url(#glowGold)"/><line x1="500" y1="500" x2="555.6230589874905" y2="328.80982706687234" stroke="#ffb74d" stroke-width="1" opacity="0.6" filter="url(#glowGold)"/><line x1="500" y1="500" x2="573.2125957536441" y2="335.56181762433187" stroke="#ffb74d" stroke-width="1" opacity="0.6" filter="url(#glowGold)"/><line x1="500" y1="500" x2="590" y2="344.11542731880104" stroke="#ffb74d" stroke-width="3" opacity="0.6" filter="url(#glowGold)"/><line x1="500" y1="500" x2="605.8013454126451" y2="354.3769410125094" stroke="#ffb74d" stroke-width="1" opacity="0.6" filter="url(#glowGold)"/><line x1="500" y1="500" x2="620.4435091445944" y2="366.23393141406893" stroke="#ffb74d" stroke-width="1" opacity="0.6" filter="url(#glowGold)"/><line x1="500" y1="500" x2="633.766068585931" y2="379.5564908554055" stroke="#ffb74d" stroke-width="1" opacity="0.6" filter="url(#glowGold)"/><line x1="500" y1="500" x2="645.6230589874905" y2="394.1986545873548" stroke="#ffb74d" stroke-width="1" opacity="0.6" filter="url(#glowGold)"/><line x1="500" y1="500" x2="655.884572681199" y2="409.9999999999999" stroke="#ffb74d" stroke-width="3" opacity="0.6" filter="url(#glowGold)"/><line x1="500" y1="500" x2="664.4381823756681" y2="426.787404246356" stroke="#ffb74d" stroke-width="1" opacity="0.6" filter="url(#glowGold)"/><line x1="500" y1="500" x2="671.1901729331277" y2="444.3769410125094" stroke="#ffb74d" stroke-width="1" opacity="0.6" filter="url(#glowGold)"/><line x1="500" y1="500" x2="676.066568132085" y2="462.57589565280324" stroke="#ffb74d" stroke-width="1" opacity="0.6" filter="url(#glowGold)"/><line x1="500" y1="500" x2="679.0139411662892" y2="481.1848766118224" stroke="#ffb74d" stroke-width="1" opacity="0.6" filter="url(#glowGold)"/><circle cx="500" cy="500" r="150" fill="none" stroke="#ffb74d" stroke-width="2" stroke-dasharray="8,4" filter="url(#glowGold)"/><circle cx="500" cy="500" r="75" fill="none" stroke="#ffb74d" stroke-width="2" stroke-dasharray="8,4" opacity="0.8"/><circle cx="500" cy="500" r="10" fill="#00e5ff" filter="url(#hyperGlow)"/><text x="500" y="335" fill="#ffb74d" font-family="Arial" font-size="20" font-weight="bold" text-anchor="middle" filter="url(#glowGold)">Zona Óptica Uniformemente Tencionada e Plana</text><text x="500" y="50" fill="#ffffff" font-family="Arial" font-size="28" font-weight="bold" text-anchor="middle">Figura 4.5: Mapa Top-Down de Tensão (Vetores VR Múltiplos)</text><text x="500" y="80" fill="#B0BEC5" font-family="Arial" font-size="18" text-anchor="middle">Os segmentos de PMMA atuam como âncoras focais na periferia; o VR puxa as fibras centrífugamente em +360 graus, achatando o centro.</text></svg>