<svg viewBox="0 0 1600 700" xmlns="http://www.w3.org/2000/svg">
    <rect width="1600" height="700" fill="#FFFFFF"/>
    <defs>
        <marker id="arrowB" viewBox="0 0 10 10" refX="5" refY="5" markerWidth="6" markerHeight="6" orient="auto-start-reverse">
            <path d="M 0 0 L 10 5 L 0 10 z" fill="#0055AA" />
        </marker>
        <marker id="arrowR" viewBox="0 0 10 10" refX="5" refY="5" markerWidth="6" markerHeight="6" orient="auto-start-reverse">
            <path d="M 0 0 L 10 5 L 0 10 z" fill="#CC2200" />
        </marker>
        <marker id="dimArrow" viewBox="0 0 10 10" refX="5" refY="5" markerWidth="5" markerHeight="5" orient="auto-start-reverse">
            <path d="M 0 0 L 10 5 L 0 10 z" fill="#667788" />
        </marker>
    </defs>
    <text x="800" y="50" fill="#112233" font-family="Arial, sans-serif" font-size="28" font-weight="bold" text-anchor="middle">Figure 22.1 — Radial Vector Amplification by Narrow Optical Zone</text>
<g transform="translate(50, 200)">
    <rect x="0" y="0" width="700" height="300" rx="10" fill="#FFFFFF" stroke="#CCCCCC"/><path d="M 50 230 Q 350 -30 650 230 L 650 239 Q 350 -24.60000000000001 50 239 Z" fill="#FFCDD2" opacity="0.8"/><path d="M 50 239 Q 350 -24.60000000000001 650 239 L 650 241 Q 350 -23.39999999999999 50 241 Z" fill="#8D6E63" opacity="0.8"/><path d="M 50 241 Q 350 -23.39999999999999 650 241 L 650 266 Q 350 -8.399999999999977 50 266 Z" fill="#F5E6C8" opacity="0.8"/><path d="M 50 266 Q 350 -8.399999999999977 650 266 L 650 326 Q 350 27.600000000000023 50 326 Z" fill="#EDD9A3" opacity="0.8"/><path d="M 50 326 Q 350 27.600000000000023 650 326 L 650 330 Q 350 30 50 330 Z" fill="#9E9E9E" opacity="0.8"/><polygon points="200,173.8 210,198.8 190,198.8" fill="#FF8800" stroke="#CC4400" stroke-width="2"/><polygon points="500,173.8 510,198.8 490,198.8" fill="#FF8800" stroke="#CC4400" stroke-width="2"/><line x1="200" y1="173.8" x2="100" y2="148.8" stroke="#0055AA" stroke-width="4" marker-end="url(#arrowB)"/><line x1="500" y1="173.8" x2="600" y2="148.8" stroke="#0055AA" stroke-width="4" marker-end="url(#arrowB)"/><text x="100" y="138.8" fill="#0055AA" font-family="Arial, sans-serif" font-size="20" font-weight="bold">VR</text><text x="600" y="138.8" fill="#0055AA" font-family="Arial, sans-serif" font-size="20" font-weight="bold">VR</text><line x1="200" y1="280" x2="500" y2="280" stroke="#667788" stroke-width="2" marker-start="url(#dimArrow)" marker-end="url(#dimArrow)"/><text x="350" y="295" fill="#667788" font-family="Arial, sans-serif" font-size="16" font-weight="bold" text-anchor="middle">Ø 5.0 mm</text>
    <text x="350" y="40" fill="#0055AA" font-family="Arial, sans-serif" font-size="22" font-weight="bold" text-anchor="middle">Ferrara Standard 5.0 mm</text>
    <rect x="250" y="50" width="200" height="40" rx="8" fill="#E3F2FD" stroke="#0055AA" stroke-width="3"/>
    <text x="350" y="80" fill="#0055AA" font-family="Arial, sans-serif" font-size="24" font-weight="bold" text-anchor="middle">| VR | = 1x</text>
    <text x="350" y="110" fill="#0055AA" font-family="Arial, sans-serif" font-size="14" font-weight="bold" text-anchor="middle">▼ Kmax</text>
</g><g transform="translate(800, 200)">
    <rect x="0" y="0" width="700" height="300" rx="10" fill="#FFFFFF" stroke="#CCCCCC"/><path d="M 50 230 Q 350 -30 650 230 L 650 239 Q 350 -24.60000000000001 50 239 Z" fill="#FFCDD2" opacity="0.8"/><path d="M 50 239 Q 350 -24.60000000000001 650 239 L 650 241 Q 350 -23.39999999999999 50 241 Z" fill="#8D6E63" opacity="0.8"/><path d="M 50 241 Q 350 -23.39999999999999 650 241 L 650 266 Q 350 -8.399999999999977 50 266 Z" fill="#F5E6C8" opacity="0.8"/><path d="M 50 266 Q 350 -8.399999999999977 650 266 L 650 326 Q 350 27.600000000000023 50 326 Z" fill="#EDD9A3" opacity="0.8"/><path d="M 50 326 Q 350 27.600000000000023 650 326 L 650 330 Q 350 30 50 330 Z" fill="#9E9E9E" opacity="0.8"/><polygon points="260,150.50400000000002 270,175.50400000000002 250,175.50400000000002" fill="#FF8800" stroke="#CC4400" stroke-width="2"/><polygon points="440,150.50400000000002 450,175.50400000000002 430,175.50400000000002" fill="#FF8800" stroke="#CC4400" stroke-width="2"/><line x1="260" y1="150.50400000000002" x2="120" y2="105.50400000000002" stroke="#CC2200" stroke-width="6" marker-end="url(#arrowR)"/><line x1="440" y1="150.50400000000002" x2="580" y2="105.50400000000002" stroke="#CC2200" stroke-width="6" marker-end="url(#arrowR)"/><text x="110" y="95.50400000000002" fill="#CC2200" font-family="Arial, sans-serif" font-size="24" font-weight="bold">VR</text><text x="590" y="95.50400000000002" fill="#CC2200" font-family="Arial, sans-serif" font-size="24" font-weight="bold">VR</text><line x1="260" y1="280" x2="440" y2="280" stroke="#667788" stroke-width="2" marker-start="url(#dimArrow)" marker-end="url(#dimArrow)"/><text x="350" y="295" fill="#667788" font-family="Arial, sans-serif" font-size="16" font-weight="bold" text-anchor="middle">Ø 3.5 mm</text>
    <text x="350" y="40" fill="#CC2200" font-family="Arial, sans-serif" font-size="22" font-weight="bold" text-anchor="middle">Ferrara 3.5 mm</text>
    <rect x="250" y="50" width="200" height="40" rx="8" fill="#FFEBEE" stroke="#CC2200" stroke-width="3"/>
    <text x="350" y="80" fill="#CC2200" font-family="Arial, sans-serif" font-size="24" font-weight="bold" text-anchor="middle">| VR | = 2x</text>
    <text x="350" y="110" fill="#CC2200" font-family="Arial, sans-serif" font-size="14" font-weight="bold" text-anchor="middle">▼ Kmax</text>
</g>
    <text x="60" y="520" fill="#FFAA00" font-family="Arial, sans-serif" font-size="14" font-style="italic">Epithelium</text>
    <text x="60" y="535" fill="#8D6E63" font-family="Arial, sans-serif" font-size="14" font-style="italic">Bowman</text>
    <text x="60" y="550" fill="#EDD9A3" font-family="Arial, sans-serif" font-size="14" font-style="italic">Stroma</text>
    <text x="60" y="565" fill="#00B4DC" font-family="Arial, sans-serif" font-size="14" font-style="italic">Endothelium</text>
<text x="800" y="650" fill="#667788" font-family="Arial, sans-serif" font-size="16" font-style="italic" text-anchor="middle">Arc-Shortening ∝ 1/r · Smaller radius = Larger centrifugal Radial Vector (VR) · (Kling &amp; Marcos, IOVS 2013)</text></svg>