<svg viewBox="0 0 1000 500" xmlns="http://www.w3.org/2000/svg"><rect width="1000" height="500" fill="#0A0E17"/><defs><marker id="aR" viewBox="0 0 10 10" refX="5" refY="5" markerWidth="6" markerHeight="6" orient="auto-start-reverse"><path d="M 0 0 L 10 5 L 0 10 z" fill="#ff1744"/></marker><marker id="aG" viewBox="0 0 10 10" refX="5" refY="5" markerWidth="6" markerHeight="6" orient="auto-start-reverse"><path d="M 0 0 L 10 5 L 0 10 z" fill="#00e676"/></marker></defs><text x="500" y="40" fill="#ffffff" font-family="Arial" font-size="24" font-weight="bold" text-anchor="middle">Figura 2.6: Triangular vs Flat (Interação com a Malha)</text><rect x="50" y="80" width="400" height="380" rx="10" fill="#111B24" stroke="#ff1744" stroke-width="2"/><text x="250" y="115" fill="#ff1744" font-family="Arial" font-size="18" font-weight="bold" text-anchor="middle">PERFIL TRIANGULAR (Cunha)</text><text x="250" y="135" fill="#cfd8dc" font-family="Arial" font-size="14" text-anchor="middle">Tenting Focal → Risco de Haze</text><path d="M 100 250 Q 250 170 400 250" fill="none" stroke="#0288d1" stroke-width="3"/><path d="M 100 265 Q 250 185 400 265" fill="none" stroke="#0288d1" stroke-width="3"/><path d="M 100 295 Q 250 315 400 295" fill="none" stroke="#0288d1" stroke-width="3"/><path d="M 100 310 Q 250 330 400 310" fill="none" stroke="#0288d1" stroke-width="3"/><polygon points="220,310 280,310 250,220" fill="#ff1744" stroke="#ffffff" stroke-width="2"/><line x1="250" y1="220" x2="250" y2="180" stroke="#ff1744" stroke-width="4" marker-end="url(#aR)"/><text x="250" y="170" fill="#ff1744" font-family="Arial" font-size="14" font-weight="bold" text-anchor="middle">Pico de Tensão (170 kPa)</text><rect x="550" y="80" width="400" height="380" rx="10" fill="#111B24" stroke="#00B4DC" stroke-width="2"/><text x="750" y="115" fill="#00B4DC" font-family="Arial" font-size="18" font-weight="bold" text-anchor="middle">PERFIL FLAT / ARREDONDADO</text><text x="750" y="135" fill="#cfd8dc" font-family="Arial" font-size="14" text-anchor="middle">Modulação Difusa → Menos Haze</text><path d="M 600 250 Q 750 200 900 250" fill="none" stroke="#0288d1" stroke-width="3"/><path d="M 600 265 Q 750 215 900 265" fill="none" stroke="#0288d1" stroke-width="3"/><path d="M 600 295 Q 750 315 900 295" fill="none" stroke="#0288d1" stroke-width="3"/><path d="M 600 310 Q 750 330 900 310" fill="none" stroke="#0288d1" stroke-width="3"/><path d="M 710 310 L 790 310 Q 800 280 750 260 Q 700 280 710 310" fill="#00B4DC" stroke="#ffffff" stroke-width="2"/><line x1="730" y1="260" x2="720" y2="220" stroke="#00B4DC" stroke-width="3" marker-end="url(#aC)"/><line x1="770" y1="260" x2="780" y2="220" stroke="#00B4DC" stroke-width="3" marker-end="url(#aC)"/><text x="750" y="200" fill="#00B4DC" font-family="Arial" font-size="14" font-weight="bold" text-anchor="middle">Tensão Distribuída (81 kPa)</text></svg>