<svg viewBox="0 0 1400 600" xmlns="http://www.w3.org/2000/svg"><rect width="1400" height="600" fill="#0a1118"/>
<defs>
    <linearGradient id="ringGrad" x1="0%" y1="0%" x2="0%" y2="100%">
        <stop offset="0%" stop-color="#ffffff"/>
        <stop offset="100%" stop-color="#90a4ae"/>
    </linearGradient>
    
</defs>
<path d="M 50 400 C 300 350, 500 100, 700 100 C 900 100, 1100 350, 1350 400" fill="none" stroke="#4e4135" stroke-width="2" stroke-dasharray="8,8" opacity="0.4"/><path d="M 50 425 C 300 375, 500 125, 700 125 C 900 125, 1100 375, 1350 425" fill="none" stroke="#4e4135" stroke-width="2" stroke-dasharray="8,8" opacity="0.4"/><path d="M 50 450 C 300 400, 500 150, 700 150 C 900 150, 1100 400, 1350 450" fill="none" stroke="#4e4135" stroke-width="2" stroke-dasharray="8,8" opacity="0.4"/><path d="M 50 475 C 300 425, 500 175, 700 175 C 900 175, 1100 425, 1350 475" fill="none" stroke="#4e4135" stroke-width="2" stroke-dasharray="8,8" opacity="0.4"/><path d="M 50 500 C 300 450, 500 200, 700 200 C 900 200, 1100 450, 1350 500" fill="none" stroke="#4e4135" stroke-width="2" stroke-dasharray="8,8" opacity="0.4"/><path d="M 50 525 C 300 475, 500 225, 700 225 C 900 225, 1100 475, 1350 525" fill="none" stroke="#4e4135" stroke-width="2" stroke-dasharray="8,8" opacity="0.4"/><path d="M 50 550 C 300 500, 500 250, 700 250 C 900 250, 1100 500, 1350 550" fill="none" stroke="#4e4135" stroke-width="2" stroke-dasharray="8,8" opacity="0.4"/><path d="M 50 575 C 300 525, 500 275, 700 275 C 900 275, 1100 525, 1350 575" fill="none" stroke="#4e4135" stroke-width="2" stroke-dasharray="8,8" opacity="0.4"/><path d="M 50 600 C 300 550, 500 300, 700 300 C 900 300, 1100 550, 1350 600" fill="none" stroke="#4e4135" stroke-width="2" stroke-dasharray="8,8" opacity="0.4"/><path d="M 50 625 C 300 575, 500 325, 700 325 C 900 325, 1100 575, 1350 625" fill="none" stroke="#4e4135" stroke-width="2" stroke-dasharray="8,8" opacity="0.4"/><path d="M 50 650 C 300 600, 500 350, 700 350 C 900 350, 1100 600, 1350 650" fill="none" stroke="#4e4135" stroke-width="2" stroke-dasharray="8,8" opacity="0.4"/><text x="700" y="80" fill="#4e4135" font-family="Arial" font-size="16" text-anchor="middle" font-style="italic">Perfil Original: Frouxo e Pontiagudo</text><path d="M 220 420 L 380 420 L 300 300 Z" fill="url(#ringGrad)" stroke="#FFFFFF" stroke-width="2"/><path d="M 1020 420 L 1180 420 L 1100 300 Z" fill="url(#ringGrad)" stroke="#FFFFFF" stroke-width="2"/><path d="M 50 300 C 150 300, 220 120, 300 120 C 420 120, 550 240, 700 240 C 850 240, 980 120, 1100 120 C 1180 120, 1250 300, 1350 300" fill="none" stroke="#ffb74d" stroke-width="3" opacity="0.9"/><circle cx="300" cy="120" r="3" fill="#ff1744"/><circle cx="1100" cy="120" r="3" fill="#ff1744"/><path d="M 50 320 C 150 320, 220 140, 300 140 C 420 140, 550 260, 700 260 C 850 260, 980 140, 1100 140 C 1180 140, 1250 320, 1350 320" fill="none" stroke="#ffb74d" stroke-width="3" opacity="0.9"/><circle cx="300" cy="140" r="3" fill="#ff1744"/><circle cx="1100" cy="140" r="3" fill="#ff1744"/><path d="M 50 340 C 150 340, 220 160, 300 160 C 420 160, 550 280, 700 280 C 850 280, 980 160, 1100 160 C 1180 160, 1250 340, 1350 340" fill="none" stroke="#ffb74d" stroke-width="3" opacity="0.9"/><circle cx="300" cy="160" r="3" fill="#ff1744"/><circle cx="1100" cy="160" r="3" fill="#ff1744"/><path d="M 50 360 C 150 360, 220 180, 300 180 C 420 180, 550 300, 700 300 C 850 300, 980 180, 1100 180 C 1180 180, 1250 360, 1350 360" fill="none" stroke="#ffb74d" stroke-width="3" opacity="0.9"/><circle cx="300" cy="180" r="3" fill="#ff1744"/><circle cx="1100" cy="180" r="3" fill="#ff1744"/><path d="M 50 380 C 150 380, 220 200, 300 200 C 420 200, 550 320, 700 320 C 850 320, 980 200, 1100 200 C 1180 200, 1250 380, 1350 380" fill="none" stroke="#ffb74d" stroke-width="3" opacity="0.9"/><circle cx="300" cy="200" r="3" fill="#ff1744"/><circle cx="1100" cy="200" r="3" fill="#ff1744"/><path d="M 50 400 C 150 400, 220 220, 300 220 C 420 220, 550 340, 700 340 C 850 340, 980 220, 1100 220 C 1180 220, 1250 400, 1350 400" fill="none" stroke="#ffb74d" stroke-width="3" opacity="0.9"/><circle cx="300" cy="220" r="3" fill="#ff1744"/><circle cx="1100" cy="220" r="3" fill="#ff1744"/><path d="M 50 420 C 150 420, 220 240, 300 240 C 420 240, 550 360, 700 360 C 850 360, 980 240, 1100 240 C 1180 240, 1250 420, 1350 420" fill="none" stroke="#ffb74d" stroke-width="3" opacity="0.9"/><circle cx="300" cy="240" r="3" fill="#ff1744"/><circle cx="1100" cy="240" r="3" fill="#ff1744"/><path d="M 50 440 C 150 440, 220 260, 300 260 C 420 260, 550 380, 700 380 C 850 380, 980 260, 1100 260 C 1180 260, 1250 440, 1350 440" fill="none" stroke="#ffb74d" stroke-width="3" opacity="0.9"/><circle cx="300" cy="260" r="3" fill="#ff1744"/><circle cx="1100" cy="260" r="3" fill="#ff1744"/><path d="M 50 460 C 150 460, 220 280, 300 280 C 420 280, 550 400, 700 400 C 850 400, 980 280, 1100 280 C 1180 280, 1250 460, 1350 460" fill="none" stroke="#ffb74d" stroke-width="3" opacity="0.9"/><circle cx="300" cy="280" r="3" fill="#ff1744"/><circle cx="1100" cy="280" r="3" fill="#ff1744"/><path d="M 50 480 C 150 480, 220 300, 300 300 C 420 300, 550 420, 700 420 C 850 420, 980 300, 1100 300 C 1180 300, 1250 480, 1350 480" fill="none" stroke="#ffb74d" stroke-width="3" opacity="0.9"/><circle cx="300" cy="300" r="3" fill="#ff1744"/><circle cx="1100" cy="300" r="3" fill="#ff1744"/><path d="M 50 500 C 150 500, 220 320, 300 320 C 420 320, 550 440, 700 440 C 850 440, 980 320, 1100 320 C 1180 320, 1250 500, 1350 500" fill="none" stroke="#ffb74d" stroke-width="3" opacity="0.9"/><circle cx="300" cy="320" r="3" fill="#ff1744"/><circle cx="1100" cy="320" r="3" fill="#ff1744"/><path d="M 50 470 C 300 440, 400 420, 700 420 C 1000 420, 1100 440, 1350 470" fill="none" stroke="#ffb74d" stroke-width="3" opacity="0.9"/><path d="M 50 490 C 300 460, 400 440, 700 440 C 1000 440, 1100 460, 1350 490" fill="none" stroke="#ffb74d" stroke-width="3" opacity="0.9"/><line x1="300" y1="450" x2="300" y2="300" stroke="#00e5ff" stroke-width="6"/><polygon points="285,310 315,310 300,285" fill="#00e5ff"/><text x="300" y="470" fill="#00e5ff" font-family="Arial" font-size="20" font-weight="bold" text-anchor="middle">1. TENTING</text><line x1="1100" y1="450" x2="1100" y2="300" stroke="#00e5ff" stroke-width="6"/><polygon points="1085,310 1115,310 1100,285" fill="#00e5ff"/><text x="1100" y="470" fill="#00e5ff" font-family="Arial" font-size="20" font-weight="bold" text-anchor="middle">1. TENTING</text><line x1="600" y1="240" x2="400" y2="210" stroke="#ff1744" stroke-width="8"/><polygon points="420,215 410,225 385,207" fill="#ff1744"/><line x1="800" y1="240" x2="1000" y2="210" stroke="#ff1744" stroke-width="8"/><polygon points="980,215 990,225 1015,207" fill="#ff1744"/><text x="500" y="200" fill="#ff1744" font-family="Arial" font-size="20" font-weight="bold" text-anchor="middle">2. ARC-SHORTENING</text><text x="900" y="200" fill="#ff1744" font-family="Arial" font-size="20" font-weight="bold" text-anchor="middle">2. ARC-SHORTENING</text><text x="700" y="200" fill="#d4e157" font-family="Arial" font-size="22" font-weight="bold" text-anchor="middle">3. APLAINAMENTO CENTRAL</text><line x1="550" y1="220" x2="850" y2="220" stroke="#d4e157" stroke-width="4" stroke-dasharray="10,5"/><path d="M 700 160 L 700 180" stroke="#d4e157" stroke-width="4" fill="none"/><polygon points="690,175 710,175 700,190" fill="#d4e157"/><text x="700" y="50" fill="#ffffff" font-family="Arial" font-size="32" font-weight="bold" text-anchor="middle">Figura 2.1: Efeito Físico das Fibras Tracionadas</text><text x="700" y="550" fill="#B0BEC5" font-family="Arial" font-size="18" text-anchor="middle">O Tenting elava o tecido focalmente, resultando no Encurtamento do Arco tracionando as fibras e achatando clinicamente a zona óptica.</text></svg>