<svg viewBox="0 0 1000 500" xmlns="http://www.w3.org/2000/svg"><rect width="1000" height="500" fill="#0A0E17"/><text x="500" y="40" fill="#ffffff" font-family="Arial" font-size="24" font-weight="bold" text-anchor="middle">Figura 2.8: Tenting Simétrico vs Assimétrico</text><rect x="50" y="80" width="400" height="380" rx="10" fill="#111B24"/><text x="250" y="115" fill="#00e676" font-family="Arial" font-size="18" font-weight="bold" text-anchor="middle">ANEL SIMÉTRICO (VR PURO)</text><rect x="170" y="300" width="40" height="60" rx="5" fill="#00e676"/><rect x="290" y="300" width="40" height="60" rx="5" fill="#00e676"/><line x1="190" y1="300" x2="190" y2="260" stroke="#00e676" stroke-width="4" marker-end="url(#aG)"/><line x1="310" y1="300" x2="310" y2="260" stroke="#00e676" stroke-width="4" marker-end="url(#aG)"/><path d="M 50 300 Q 250 220 450 300" fill="none" stroke="#cfd8dc" stroke-width="4"/><rect x="550" y="80" width="400" height="380" rx="10" fill="#111B24"/><text x="750" y="115" fill="#FFD700" font-family="Arial" font-size="18" font-weight="bold" text-anchor="middle">ANEL ASSIMÉTRICO (VT + Vτ)</text><rect x="670" y="300" width="40" height="80" rx="5" fill="#FFD700"/><rect x="790" y="300" width="40" height="30" rx="5" fill="#FFD700"/><path d="M 550 300 Q 750 180 950 320" fill="none" stroke="#cfd8dc" stroke-width="4"/><line x1="690" y1="300" x2="690" y2="240" stroke="#FFD700" stroke-width="5" marker-end="url(#aY)"/><line x1="810" y1="300" x2="810" y2="280" stroke="#FFD700" stroke-width="2" marker-end="url(#aY)"/><path d="M 690 220 Q 750 200 810 260" fill="none" stroke="#ff1744" stroke-width="4" marker-end="url(#aR)"/><text x="750" y="180" fill="#ff1744" font-family="Arial" font-size="16" font-weight="bold" text-anchor="middle">Torque Rotacional (Vτ)</text></svg>