<svg viewBox="0 0 1000 800" xmlns="http://www.w3.org/2000/svg"><rect width="1000" height="800" fill="#0a1118"/>
<defs>
    <filter id="glow" x="-20%" y="-20%" width="140%" height="140%">
        <feGaussianBlur stdDeviation="3" result="blur" />
        <feMerge>
            <feMergeNode in="blur"/>
            <feMergeNode in="SourceGraphic"/>
        </feMerge>
    </filter>
    <marker id="arrowR" viewBox="0 0 10 10" refX="5" refY="5" markerWidth="6" markerHeight="6" orient="auto-start-reverse">
        <path d="M 0 0 L 10 5 L 0 10 z" fill="#ff1744"/>
    </marker>
    <marker id="arrowT" viewBox="0 0 10 10" refX="5" refY="5" markerWidth="6" markerHeight="6" orient="auto-start-reverse">
        <path d="M 0 0 L 10 5 L 0 10 z" fill="#00e5ff"/>
    </marker>
    <marker id="arrowO" viewBox="0 0 10 10" refX="5" refY="5" markerWidth="6" markerHeight="6" orient="auto">
        <path d="M 0 0 L 10 5 L 0 10 z" fill="#00e676"/>
    </marker>
</defs>
<text x="500" y="50" fill="#ffffff" font-family="Arial" font-size="28" font-weight="bold" text-anchor="middle">Figura 2.5: Correção na Escala das Fibras</text><circle cx="500" cy="450" r="350" fill="#1e1711" stroke="#333" stroke-width="2"/><circle cx="480" cy="480" r="120" fill="none" stroke="#222" stroke-width="3" stroke-dasharray="8,8"/><text x="480" y="480" fill="#555" font-family="Arial" font-size="16" font-style="italic" text-anchor="middle">Zona Ectásica</text><path d="M 410.00000000000006 605.884572681199 Q 350 550 243.24131219789746 687.8549478950194" fill="none" stroke="#00e676" stroke-width="2" opacity="0.6"/><path d="M 410.00000000000006 605.884572681199 Q 350 550 422.3909166081406 791.2870202264883" fill="none" stroke="#00e676" stroke-width="2" opacity="0.6"/><path d="M 372.72077938642144 577.2792206135786 Q 350 550 190.4287618407584 613.2961986837236" fill="none" stroke="#00e676" stroke-width="2" opacity="0.6"/><path d="M 372.72077938642144 577.2792206135786 Q 350 550 336.70380131627655 759.5712381592416" fill="none" stroke="#00e676" stroke-width="2" opacity="0.6"/><path d="M 344.11542731880104 540 Q 350 550 158.71297977351173 527.6090833918595" fill="none" stroke="#00e676" stroke-width="2" opacity="0.6"/><path d="M 344.11542731880104 540 Q 350 550 262.14505210498055 706.7586878021025" fill="none" stroke="#00e676" stroke-width="2" opacity="0.6"/><path d="M 326.1333512679677 496.5874281184538 Q 350 550 150.2553441312324 436.63303732191486" fill="none" stroke="#00e676" stroke-width="2" opacity="0.6"/><path d="M 326.1333512679677 496.5874281184538 Q 350 550 203.79572451884366 636.4484571850442" fill="none" stroke="#00e676" stroke-width="2" opacity="0.6"/><path d="M 320 450 Q 350 550 165.63222880603786 346.56792766853124" fill="none" stroke="#00e676" stroke-width="2" opacity="0.6"/><path d="M 320 450 Q 350 550 165.63222880603786 553.4320723314688" fill="none" stroke="#00e676" stroke-width="2" opacity="0.6"/><path d="M 326.13335126796767 403.41257188154634 Q 350 550 203.79572451884354 263.55154281495606" fill="none" stroke="#00e676" stroke-width="2" opacity="0.6"/><path d="M 326.13335126796767 403.41257188154634 Q 350 550 150.2553441312324 463.3669626780854" fill="none" stroke="#00e676" stroke-width="2" opacity="0.6"/><path d="M 344.11542731880104 360 Q 350 550 262.1450521049806 193.24131219789734" fill="none" stroke="#00e676" stroke-width="2" opacity="0.6"/><path d="M 344.11542731880104 360 Q 350 550 158.7129797735118 372.3909166081404" fill="none" stroke="#00e676" stroke-width="2" opacity="0.6"/><path d="M 372.72077938642144 322.72077938642144 Q 350 550 336.70380131627644 140.4287618407584" fill="none" stroke="#00e676" stroke-width="2" opacity="0.6"/><path d="M 372.72077938642144 322.72077938642144 Q 350 550 190.42876184075834 286.70380131627655" fill="none" stroke="#00e676" stroke-width="2" opacity="0.6"/><line x1="500" y1="450" x2="655" y2="450" stroke="#ff1744" stroke-width="2" opacity="0.8"/><line x1="665" y1="450" x2="850" y2="450" stroke="#ff1744" stroke-width="3" opacity="0.5"/><line x1="500" y1="450" x2="652.6452017168922" y2="476.9154675383742" stroke="#ff1744" stroke-width="2" opacity="0.8"/><line x1="662.4932792470144" y1="478.6519493150435" x2="844.6827135542728" y2="510.77686218342564" stroke="#ff1744" stroke-width="3" opacity="0.5"/><line x1="500" y1="450" x2="645.6523562218158" y2="503.01312221547863" stroke="#ff1744" stroke-width="2" opacity="0.8"/><line x1="655.0492824296749" y1="506.4333236487353" x2="828.8924172750679" y2="569.707050163984" stroke="#ff1744" stroke-width="3" opacity="0.5"/><line x1="500" y1="450" x2="634.233937586588" y2="527.5" stroke="#ff1744" stroke-width="2" opacity="0.8"/><line x1="642.8941916244323" y1="532.5" x2="803.1088913245535" y2="625" stroke="#ff1744" stroke-width="3" opacity="0.5"/><line x1="500" y1="450" x2="618.7368886834416" y2="549.6320795014136" stroke="#ff1744" stroke-width="2" opacity="0.8"/><line x1="626.3973331146314" y1="556.059955598279" x2="768.1155550916424" y2="674.9756633902887" stroke="#ff1744" stroke-width="3" opacity="0.5"/><line x1="500" y1="450" x2="599.6320795014136" y2="568.7368886834416" stroke="#ff1744" stroke-width="2" opacity="0.8"/><line x1="606.059955598279" y1="576.3973331146314" x2="724.9756633902888" y2="718.1155550916424" stroke="#ff1744" stroke-width="3" opacity="0.5"/><line x1="500" y1="450" x2="577.5" y2="584.233937586588" stroke="#ff1744" stroke-width="2" opacity="0.8"/><line x1="582.5" y1="592.8941916244323" x2="675" y2="753.1088913245535" stroke="#ff1744" stroke-width="3" opacity="0.5"/><line x1="500" y1="450" x2="553.0131222154787" y2="595.6523562218158" stroke="#ff1744" stroke-width="2" opacity="0.8"/><line x1="556.4333236487354" y1="605.0492824296748" x2="619.7070501639841" y2="778.8924172750678" stroke="#ff1744" stroke-width="3" opacity="0.5"/><line x1="500" y1="450" x2="526.9154675383742" y2="602.6452017168922" stroke="#ff1744" stroke-width="2" opacity="0.8"/><line x1="528.6519493150436" y1="612.4932792470144" x2="560.7768621834257" y2="794.6827135542728" stroke="#ff1744" stroke-width="3" opacity="0.5"/><line x1="500" y1="450" x2="500" y2="605" stroke="#ff1744" stroke-width="2" opacity="0.8"/><line x1="500" y1="615" x2="500" y2="800" stroke="#ff1744" stroke-width="3" opacity="0.5"/><line x1="500" y1="450" x2="473.0845324616258" y2="602.6452017168922" stroke="#ff1744" stroke-width="2" opacity="0.8"/><line x1="471.3480506849565" y1="612.4932792470144" x2="439.2231378165744" y2="794.6827135542728" stroke="#ff1744" stroke-width="3" opacity="0.5"/><line x1="500" y1="450" x2="446.98687778452137" y2="595.6523562218158" stroke="#ff1744" stroke-width="2" opacity="0.8"/><line x1="443.5666763512647" y1="605.0492824296749" x2="380.29294983601596" y2="778.8924172750679" stroke="#ff1744" stroke-width="3" opacity="0.5"/><line x1="500" y1="450" x2="422.5" y2="584.233937586588" stroke="#ff1744" stroke-width="2" opacity="0.8"/><line x1="417.50000000000006" y1="592.8941916244323" x2="325.0000000000001" y2="753.1088913245535" stroke="#ff1744" stroke-width="3" opacity="0.5"/><line x1="500" y1="450" x2="400.3679204985864" y2="568.7368886834416" stroke="#ff1744" stroke-width="2" opacity="0.8"/><line x1="393.940044401721" y1="576.3973331146314" x2="275.0243366097112" y2="718.1155550916424" stroke="#ff1744" stroke-width="3" opacity="0.5"/><line x1="500" y1="450" x2="381.2631113165584" y2="549.6320795014136" stroke="#ff1744" stroke-width="2" opacity="0.8"/><line x1="373.60266688536865" y1="556.059955598279" x2="231.88444490835775" y2="674.9756633902888" stroke="#ff1744" stroke-width="3" opacity="0.5"/><line x1="500" y1="450" x2="365.766062413412" y2="527.5" stroke="#ff1744" stroke-width="2" opacity="0.8"/><line x1="357.1058083755676" y1="532.5" x2="196.89110867544645" y2="625" stroke="#ff1744" stroke-width="3" opacity="0.5"/><line x1="500" y1="450" x2="354.3476437781842" y2="503.0131222154787" stroke="#ff1744" stroke-width="2" opacity="0.8"/><line x1="344.95071757032514" y1="506.4333236487354" x2="171.10758272493212" y2="569.7070501639841" stroke="#ff1744" stroke-width="3" opacity="0.5"/><line x1="500" y1="450" x2="347.35479828310775" y2="476.9154675383742" stroke="#ff1744" stroke-width="2" opacity="0.8"/><line x1="337.50672075298564" y1="478.6519493150435" x2="155.31728644572718" y2="510.7768621834256" stroke="#ff1744" stroke-width="3" opacity="0.5"/><line x1="500" y1="450" x2="345" y2="450" stroke="#ff1744" stroke-width="2" opacity="0.8"/><line x1="335" y1="450" x2="150" y2="450.00000000000006" stroke="#ff1744" stroke-width="3" opacity="0.5"/><line x1="500" y1="450" x2="347.35479828310775" y2="423.08453246162577" stroke="#ff1744" stroke-width="2" opacity="0.8"/><line x1="337.50672075298564" y1="421.3480506849565" x2="155.31728644572718" y2="389.2231378165743" stroke="#ff1744" stroke-width="3" opacity="0.5"/><line x1="500" y1="450" x2="354.3476437781842" y2="396.98687778452137" stroke="#ff1744" stroke-width="2" opacity="0.8"/><line x1="344.9507175703251" y1="393.5666763512647" x2="171.10758272493206" y2="330.29294983601596" stroke="#ff1744" stroke-width="3" opacity="0.5"/><line x1="500" y1="450" x2="365.766062413412" y2="372.5" stroke="#ff1744" stroke-width="2" opacity="0.8"/><line x1="357.1058083755676" y1="367.5" x2="196.8911086754465" y2="275" stroke="#ff1744" stroke-width="3" opacity="0.5"/><line x1="500" y1="450" x2="381.26311131655837" y2="350.3679204985864" stroke="#ff1744" stroke-width="2" opacity="0.8"/><line x1="373.6026668853686" y1="343.940044401721" x2="231.88444490835764" y2="225.02433660971127" stroke="#ff1744" stroke-width="3" opacity="0.5"/><line x1="500" y1="450" x2="400.3679204985864" y2="331.2631113165584" stroke="#ff1744" stroke-width="2" opacity="0.8"/><line x1="393.94004440172097" y1="323.60266688536865" x2="275.0243366097112" y2="181.88444490835775" stroke="#ff1744" stroke-width="3" opacity="0.5"/><line x1="500" y1="450" x2="422.49999999999994" y2="315.76606241341204" stroke="#ff1744" stroke-width="2" opacity="0.8"/><line x1="417.49999999999994" y1="307.1058083755677" x2="324.9999999999999" y2="146.8911086754465" stroke="#ff1744" stroke-width="3" opacity="0.5"/><line x1="500" y1="450" x2="446.98687778452125" y2="304.3476437781842" stroke="#ff1744" stroke-width="2" opacity="0.8"/><line x1="443.56667635126456" y1="294.95071757032514" x2="380.29294983601574" y2="121.10758272493212" stroke="#ff1744" stroke-width="3" opacity="0.5"/><line x1="500" y1="450" x2="473.0845324616258" y2="297.35479828310775" stroke="#ff1744" stroke-width="2" opacity="0.8"/><line x1="471.3480506849565" y1="287.50672075298564" x2="439.22313781657436" y2="105.31728644572718" stroke="#ff1744" stroke-width="3" opacity="0.5"/><line x1="500" y1="450" x2="499.99999999999994" y2="295" stroke="#ff1744" stroke-width="2" opacity="0.8"/><line x1="499.99999999999994" y1="285" x2="499.99999999999994" y2="100" stroke="#ff1744" stroke-width="3" opacity="0.5"/><line x1="500" y1="450" x2="526.9154675383742" y2="297.3547982831077" stroke="#ff1744" stroke-width="2" opacity="0.8"/><line x1="528.6519493150435" y1="287.50672075298564" x2="560.7768621834255" y2="105.31728644572718" stroke="#ff1744" stroke-width="3" opacity="0.5"/><line x1="500" y1="450" x2="553.0131222154786" y2="304.3476437781842" stroke="#ff1744" stroke-width="2" opacity="0.8"/><line x1="556.4333236487353" y1="294.9507175703251" x2="619.7070501639838" y2="121.107582724932" stroke="#ff1744" stroke-width="3" opacity="0.5"/><line x1="500" y1="450" x2="577.5" y2="315.766062413412" stroke="#ff1744" stroke-width="2" opacity="0.8"/><line x1="582.5" y1="307.1058083755676" x2="675" y2="146.8911086754465" stroke="#ff1744" stroke-width="3" opacity="0.5"/><line x1="500" y1="450" x2="599.6320795014136" y2="331.26311131655837" stroke="#ff1744" stroke-width="2" opacity="0.8"/><line x1="606.059955598279" y1="323.6026668853686" x2="724.9756633902887" y2="181.88444490835764" stroke="#ff1744" stroke-width="3" opacity="0.5"/><line x1="500" y1="450" x2="618.7368886834415" y2="350.3679204985864" stroke="#ff1744" stroke-width="2" opacity="0.8"/><line x1="626.3973331146314" y1="343.94004440172097" x2="768.1155550916422" y2="225.02433660971116" stroke="#ff1744" stroke-width="3" opacity="0.5"/><line x1="500" y1="450" x2="634.2339375865879" y2="372.49999999999994" stroke="#ff1744" stroke-width="2" opacity="0.8"/><line x1="642.8941916244323" y1="367.49999999999994" x2="803.1088913245535" y2="274.9999999999999" stroke="#ff1744" stroke-width="3" opacity="0.5"/><line x1="500" y1="450" x2="645.6523562218158" y2="396.98687778452137" stroke="#ff1744" stroke-width="2" opacity="0.8"/><line x1="655.0492824296749" y1="393.5666763512647" x2="828.8924172750679" y2="330.29294983601596" stroke="#ff1744" stroke-width="3" opacity="0.5"/><line x1="500" y1="450" x2="652.6452017168922" y2="423.08453246162566" stroke="#ff1744" stroke-width="2" opacity="0.8"/><line x1="662.4932792470142" y1="421.3480506849563" x2="844.6827135542728" y2="389.2231378165741" stroke="#ff1744" stroke-width="3" opacity="0.5"/><path d="M 613.1370849898476 336.8629150101524 A 160 160 0 0 1 527.7837084267088 607.5692404819533" fill="none" stroke="#ffcc00" stroke-width="15" stroke-linecap="round" filter="url(#glow)"/><path d="M 420 588.5640646055102 A 160 160 0 0 1 472.21629157329113 292.4307595180467" fill="none" stroke="#ffcc00" stroke-width="22" stroke-linecap="round" filter="url(#glow)"/><path d="M 613.1370849898476 336.8629150101524 A 160 160 0 0 1 527.7837084267088 607.5692404819533" fill="none" stroke="#00e5ff" stroke-width="4" stroke-dasharray="5,5" opacity="0.9"/><path d="M 420 588.5640646055102 A 160 160 0 0 1 472.21629157329113 292.4307595180467" fill="none" stroke="#00e5ff" stroke-width="5" stroke-dasharray="5,5" opacity="0.9"/><line x1="540" y1="450" x2="645" y2="450" stroke="#ff1744" stroke-width="4" marker-end="url(#arrowR)" filter="url(#glow)"/><line x1="460" y1="450" x2="355" y2="450" stroke="#ff1744" stroke-width="4" marker-end="url(#arrowR)" filter="url(#glow)"/><path d="M 360 450 A 140 140 0 0 1 378.75644347017857 520" fill="none" stroke="#00e5ff" stroke-width="4" marker-end="url(#arrowT)" filter="url(#glow)"/><path d="M 460 570 Q 420 610 380 590" fill="none" stroke="#00e676" stroke-width="3" marker-end="url(#arrowO)" filter="url(#glow)"/><rect x="50" y="80" width="360" height="150" fill="#111B24" rx="8" stroke="#333"/><text x="70" y="110" fill="#ff1744" font-family="Arial" font-size="18" font-weight="bold">🔴 Radiais (VR) → Retesamento</text><text x="70" y="145" fill="#00e5ff" font-family="Arial" font-size="18" font-weight="bold">🔵 Tangenciais (VT) → Linha Fixa</text><text x="70" y="180" fill="#00e676" font-family="Arial" font-size="18" font-weight="bold">🟢 Oblíquas (Vτ) → Estabilizador</text><text x="70" y="210" fill="#ffffff" font-family="Arial" font-size="14">Implante gera nova estabilidade bio-tensegrida</text></svg>