<svg viewBox="0 0 1000 700" xmlns="http://www.w3.org/2000/svg"><rect width="1000" height="700" fill="#0a1118"/>
<defs>
    <marker id="arrowPio" viewBox="0 0 10 10" refX="5" refY="5" markerWidth="6" markerHeight="6" orient="auto-start-reverse">
        <path d="M 0 0 L 10 5 L 0 10 z" fill="#ffd600"/>
    </marker>
    <filter id="glowF" x="-20%" y="-20%" width="140%" height="140%">
        <feGaussianBlur stdDeviation="2" result="blur" />
        <feMerge>
            <feMergeNode in="blur"/>
            <feMergeNode in="SourceGraphic"/>
        </feMerge>
    </filter>
</defs>
<text x="500" y="50" fill="#ffffff" font-family="Arial" font-size="28" font-weight="bold" text-anchor="middle">Figura 1.6: Por Que Anterior e Posterior Não Concordam</text><rect x="200" y="220" width="600" height="100" fill="#111B24" stroke="#ff5252" stroke-width="2"/><text x="180" y="270" fill="#ff1744" font-family="Arial" font-size="18" font-weight="bold" text-anchor="end">Anterior (~120µm)</text><text x="180" y="290" fill="#cfd8dc" font-family="Arial" font-size="14" text-anchor="end">Alta Rigidez, Trama Densa</text><path d="M 200 230 L 200 230.6254858518758 L 215 227.622305680973 L 230 232.30141871538197 L 245 232.37865182130565 L 260 228.68005591811135 L 275 229.20628070562793 L 290 226.68462100139996 L 305 231.4231346807771 L 320 230.1425945645063 L 335 231.32280303278824 L 350 228.09388296965727 L 365 230.89492555693502 L 380 233.4896461368979 L 395 230.81888953311835 L 410 229.43100366120845 L 425 229.351111042352 L 440 232.97442231270463 L 455 229.95347384574023 L 470 233.87275252586429 L 485 230.89789114084178 L 500 226.09960307358153 L 515 227.68936983349582 L 530 231.5298352458749 L 545 230.20990657918384 L 560 227.92442803025313 L 575 229.43312343581215 L 590 229.96390169324422 L 605 233.66226472782918 L 620 232.61526140700795 L 635 226.9119846660117 L 650 226.85568126289718 L 665 227.64343280659912 L 680 229.38459421589792 L 695 227.26867145394866 L 710 231.58571048977944 L 725 226.156127567758 L 740 232.37682197357088 L 755 230.04675511106979 L 770 230.69647679932356 L 785 230.8211236500667 L 800 232.43426204441238" fill="none" stroke="#ff1744" stroke-width="2" opacity="0.8"/><path d="M 200 245 L 200 243.09499652930762 L 215 241.90450245931652 L 230 244.83735289122242 L 245 247.1201349716012 L 260 248.258730237669 L 275 248.15961056395028 L 290 248.55460070404368 L 305 242.9524614023733 L 320 247.32371713824037 L 335 241.57386961014967 L 350 248.78778470009476 L 365 248.1127777433029 L 380 247.1421564748006 L 395 242.8273602628435 L 410 243.21016380302726 L 425 247.94295753137877 L 440 241.82927466224984 L 455 243.6471486690105 L 470 241.56597076403452 L 485 245.73271066642164 L 500 247.2432758906886 L 515 242.21202608364487 L 530 244.46337658102198 L 545 241.30743247994278 L 560 247.0648922136991 L 575 245.44518210732252 L 590 242.2183670208549 L 605 244.41709305943672 L 620 243.12239650006123 L 635 243.72048709443072 L 650 242.2422706601821 L 665 248.75545075864716 L 680 245.11180339939176 L 695 242.04933104727212 L 710 243.8545894375912 L 725 241.88476409953847 L 740 246.5327090848718 L 755 244.88244611572952 L 770 246.6608919801863 L 785 241.9403284454851 L 800 244.06603602013726" fill="none" stroke="#ff1744" stroke-width="2" opacity="0.8"/><path d="M 200 260 L 200 261.6470706788705 L 215 260.22652751800933 L 230 262.12297529127744 L 245 258.3995333019415 L 260 256.40403510551636 L 275 260.4644105992258 L 290 261.8113033614334 L 305 261.8702855592598 L 320 260.5562186982111 L 335 256.7987710967786 L 350 258.7651680121057 L 365 256.1213505345215 L 380 258.0068026619527 L 395 262.374890834713 L 410 257.5616061470979 L 425 256.10352704429334 L 440 259.1106875581083 L 455 261.11130214979033 L 470 263.05882180442444 L 485 259.62584229711234 L 500 258.56741025973014 L 515 257.4560737934501 L 530 259.39574724473425 L 545 259.1986314222858 L 560 262.118675981633 L 575 263.0640108868713 L 590 263.3940723440098 L 605 262.3798577886711 L 620 258.8598856748982 L 635 256.6357264666068 L 650 260.2000215415213 L 665 262.5018045986042 L 680 259.1131765468647 L 695 257.6843905689776 L 710 263.921895667818 L 725 257.39685525311154 L 740 260.941289243001 L 755 258.164422958837 L 770 263.39945241654306 L 785 259.6115492362765 L 800 256.20255241220906" fill="none" stroke="#ff1744" stroke-width="2" opacity="0.8"/><path d="M 200 275 L 200 272.01329453857505 L 215 274.5169385322 L 230 271.84398107195597 L 245 275.40734949152204 L 260 274.33839701437023 L 275 271.4783705409688 L 290 273.3887598500047 L 305 278.1063019050128 L 320 275.57712291696174 L 335 272.458716749169 L 350 275.4672939262569 L 365 275.52393931379726 L 380 273.7284033652262 L 395 278.1396809963507 L 410 277.84831562665113 L 425 273.2128386258073 L 440 271.03963910296466 L 455 272.22747075855256 L 470 277.66210360516794 L 485 278.4362317309336 L 500 273.99358215580463 L 515 271.8043228816775 L 530 273.8557053696093 L 545 278.0279232346282 L 560 274.7374828312954 L 575 276.8135959411372 L 590 274.57301497377614 L 605 271.9505375258805 L 620 278.03711371514976 L 635 272.19410118991306 L 650 275.1239063923924 L 665 271.04819454362615 L 680 274.98557566834376 L 695 275.414017629759 L 710 273.07888287376 L 725 273.61939774610664 L 740 272.01328105189776 L 755 272.5441086398164 L 770 272.07463855818617 L 785 274.885895190112 L 800 271.9802649072996" fill="none" stroke="#ff1744" stroke-width="2" opacity="0.8"/><path d="M 200 290 L 200 290.1914967490534 L 215 293.50678483130747 L 230 288.40469477657916 L 245 290.8722173242966 L 260 287.69771755221416 L 275 292.88325638314495 L 290 293.6870166060461 L 305 290.35326350832946 L 320 287.24470267219664 L 335 289.5967177134214 L 350 291.17117685718 L 365 292.21654421299974 L 380 289.176375412197 L 395 287.7319436823812 L 410 292.5003666981922 L 425 286.6791667447667 L 440 292.032057779816 L 455 290.45637831895016 L 470 286.89849121630596 L 485 289.66550913105715 L 500 291.43376328206784 L 515 290.24802243437597 L 530 291.30885459454436 L 545 287.2114382117563 L 560 287.7961299060787 L 575 286.90516568456854 L 590 293.7845562569271 L 605 291.03858401184596 L 620 293.2228041874905 L 635 292.8889917742069 L 650 293.3186786822212 L 665 286.28737568648955 L 680 290.26218358943953 L 695 289.73119159863995 L 710 287.8631026916093 L 725 289.40643704675017 L 740 293.1186081965649 L 755 292.0487368675702 L 770 286.5264312722204 L 785 287.1195315812455 L 800 287.519088758502" fill="none" stroke="#ff1744" stroke-width="2" opacity="0.8"/><path d="M 200 305 L 200 307.9935405720653 L 215 301.50706672457284 L 230 304.78871413622556 L 245 303.60070822478076 L 260 305.32840979294843 L 275 306.8590196474424 L 290 304.31022962954364 L 305 306.14171548969125 L 320 306.47693289127926 L 335 303.8499043620182 L 350 306.1968577587641 L 365 305.0678963635951 L 380 303.43681470157645 L 395 307.3958339821055 L 410 301.7293058262289 L 425 303.71767096610813 L 440 305.95349871789944 L 455 301.6925829588127 L 470 308.94816156845985 L 485 307.0500947605597 L 500 303.25984236454735 L 515 305.6449175976694 L 530 308.2140524170009 L 545 305.7892131031793 L 560 307.5056120742443 L 575 304.5069038619463 L 590 301.1926161283162 L 605 301.0307974477341 L 620 308.58423037977826 L 635 308.3584910378405 L 650 305.8912072379321 L 665 304.99232772081604 L 680 303.66638823631547 L 695 304.59067663720526 L 710 308.9724901641521 L 725 305.1925430738106 L 740 303.8201190346393 L 755 305.3475078010468 L 770 308.9624006149128 L 785 303.4920437128146 L 800 306.72258284097285" fill="none" stroke="#ff1744" stroke-width="2" opacity="0.8"/><path d="M 220 220 L 218.18968374758933 220 L 218.04126104055806 235 L 219.2543929097386 250 L 221.2598425217256 265 L 220.00952756307024 280 L 223.9649948756798 295 L 218.6829760482669 310" fill="none" stroke="#ff1744" stroke-width="2" opacity="0.5"/><path d="M 245 220 L 245.43302081928633 220 L 246.78251799655487 235 L 244.86847204196516 250 L 248.0112546084463 265 L 245.04908355910058 280 L 248.26889947042298 295 L 247.77823637214127 310" fill="none" stroke="#ff1744" stroke-width="2" opacity="0.5"/><path d="M 270 220 L 274.06245583347777 220 L 270.0608797437995 235 L 271.9296858789879 250 L 266.53458725489276 265 L 268.5748980085788 280 L 273.8993425626521 295 L 269.5756933719866 310" fill="none" stroke="#ff1744" stroke-width="2" opacity="0.5"/><path d="M 295 220 L 295.487532739256 220 L 295.94534919326804 235 L 298.3757481078498 250 L 290.6519870409243 265 L 298.9369703925813 280 L 291.9728896346434 295 L 292.8860302253699 310" fill="none" stroke="#ff1744" stroke-width="2" opacity="0.5"/><path d="M 320 220 L 320.3859805432483 220 L 323.21778186771576 235 L 315.24176879643795 250 L 316.6032659884372 265 L 324.88200882336866 280 L 318.8494881591391 295 L 319.18632979209076 310" fill="none" stroke="#ff1744" stroke-width="2" opacity="0.5"/><path d="M 345 220 L 340.11606817772474 220 L 347.8550072050264 235 L 349.79130291041804 250 L 348.7228619164835 265 L 347.59721267785443 280 L 340.66997414493943 295 L 348.15168501789475 310" fill="none" stroke="#ff1744" stroke-width="2" opacity="0.5"/><path d="M 370 220 L 365.30467721758265 220 L 370.55920523218424 235 L 365.7140202627368 250 L 367.9101584413709 265 L 365.2290348573712 280 L 367.3563044660729 295 L 370.3299125376594 310" fill="none" stroke="#ff1744" stroke-width="2" opacity="0.5"/><path d="M 395 220 L 395.7088531834151 220 L 397.4312873390265 235 L 399.2102727657813 250 L 392.55551109378246 265 L 397.4492372016672 280 L 390.8089791770425 295 L 392.1706135458939 310" fill="none" stroke="#ff1744" stroke-width="2" opacity="0.5"/><path d="M 420 220 L 419.35767686304683 220 L 423.6712342775136 235 L 418.9337132441522 250 L 421.33087647777546 265 L 423.3318496677757 280 L 415.9883981108623 295 L 421.4820223020614 310" fill="none" stroke="#ff1744" stroke-width="2" opacity="0.5"/><path d="M 445 220 L 444.5226428633542 220 L 441.42722838904007 235 L 446.1761877374832 250 L 446.5419746838615 265 L 445.8866294466087 280 L 440.80343502272837 295 L 442.3336741031073 310" fill="none" stroke="#ff1744" stroke-width="2" opacity="0.5"/><path d="M 470 220 L 468.8370136036022 220 L 466.54851256934876 235 L 472.0145225061499 250 L 467.933639135147 265 L 471.89847458634665 280 L 472.17570394434387 295 L 468.9392046816031 310" fill="none" stroke="#ff1744" stroke-width="2" opacity="0.5"/><path d="M 495 220 L 495.75432568866154 220 L 496.56076707143563 235 L 494.6974877127336 250 L 492.10113753797003 265 L 494.7696366513466 280 L 495.15565132803187 295 L 498.7159015553821 310" fill="none" stroke="#ff1744" stroke-width="2" opacity="0.5"/><path d="M 520 220 L 522.8455109336371 220 L 521.7635699867503 235 L 516.605915189163 250 L 521.5297927105139 265 L 518.5136280571088 280 L 521.0777466245814 295 L 517.3640119977313 310" fill="none" stroke="#ff1744" stroke-width="2" opacity="0.5"/><path d="M 545 220 L 547.3911668087616 220 L 543.9699207436033 235 L 547.04916170279 250 L 540.4849730326918 265 L 543.5711549383362 280 L 540.5040816771746 295 L 547.3400174659722 310" fill="none" stroke="#ff1744" stroke-width="2" opacity="0.5"/><path d="M 570 220 L 569.2039154312552 220 L 569.450408972754 235 L 567.4181010182608 250 L 567.337389550503 265 L 566.9899060798363 280 L 574.8986279417476 295 L 566.0551081065944 310" fill="none" stroke="#ff1744" stroke-width="2" opacity="0.5"/><path d="M 595 220 L 599.2394066363789 220 L 591.8091390739851 235 L 598.5551584969705 250 L 594.4978875222733 265 L 598.8960066978103 280 L 596.7993178895597 295 L 595.0309321908262 310" fill="none" stroke="#ff1744" stroke-width="2" opacity="0.5"/><path d="M 620 220 L 618.5302525224232 220 L 616.2083086580199 235 L 621.6578399332124 250 L 615.4273900316684 265 L 619.1542456059178 280 L 624.387292344928 295 L 617.6804433697371 310" fill="none" stroke="#ff1744" stroke-width="2" opacity="0.5"/><path d="M 645 220 L 646.062880977914 220 L 645.2859525055343 235 L 646.346622398678 250 L 645.097504441295 265 L 647.5241683451221 280 L 645.5291137817194 295 L 646.3295005965641 310" fill="none" stroke="#ff1744" stroke-width="2" opacity="0.5"/><path d="M 670 220 L 668.7175004960147 220 L 665.4728519228341 235 L 670.6455049091832 250 L 672.9090813868285 265 L 665.6900302103274 280 L 667.2743867427173 295 L 674.0514109103972 310" fill="none" stroke="#ff1744" stroke-width="2" opacity="0.5"/><path d="M 695 220 L 695.7145372767375 220 L 691.0510366367397 235 L 699.6919577603634 250 L 697.046922848456 265 L 690.4042712139706 280 L 696.9095074890124 295 L 690.5655843840916 310" fill="none" stroke="#ff1744" stroke-width="2" opacity="0.5"/><path d="M 720 220 L 722.5702995030646 220 L 719.0398188348098 235 L 722.6375071943509 250 L 722.6393048814283 265 L 719.820449927112 280 L 715.717254479741 295 L 723.5769005988994 310" fill="none" stroke="#ff1744" stroke-width="2" opacity="0.5"/><path d="M 745 220 L 741.8120466530311 220 L 746.5396205456735 235 L 745.5153453546604 250 L 749.677156051174 265 L 746.9374725738496 280 L 746.9641267714431 295 L 747.872013795849 310" fill="none" stroke="#ff1744" stroke-width="2" opacity="0.5"/><path d="M 770 220 L 771.1037980372198 220 L 767.8822554464355 235 L 768.8054760773051 250 L 773.7333690710082 265 L 771.1680950369911 280 L 771.5554093087414 295 L 770.987982319138 310" fill="none" stroke="#ff1744" stroke-width="2" opacity="0.5"/><path d="M 795 220 L 791.9775808427046 220 L 794.4855282886168 235 L 798.6170215761512 250 L 798.4433131963777 265 L 792.3734452970534 280 L 791.3608643701168 295 L 790.5463875267164 310" fill="none" stroke="#ff1744" stroke-width="2" opacity="0.5"/><rect x="200" y="320" width="600" height="200" fill="#0A1118" stroke="#00e5ff" stroke-width="2"/><text x="180" y="420" fill="#00e5ff" font-family="Arial" font-size="18" font-weight="bold" text-anchor="end">Posterior (~330µm)</text><text x="180" y="440" fill="#cfd8dc" font-family="Arial" font-size="14" text-anchor="end">Baixa Rigidez, Lamelas Frouxas</text><path d="M 200 340 Q 350 350 500 340 T 800 345" fill="none" stroke="#00e5ff" stroke-width="3" opacity="0.6"/><path d="M 200 365 Q 350 375 500 365 T 800 370" fill="none" stroke="#00e5ff" stroke-width="3" opacity="0.6"/><path d="M 200 390 Q 350 400 500 390 T 800 395" fill="none" stroke="#00e5ff" stroke-width="3" opacity="0.6"/><path d="M 200 415 Q 350 425 500 415 T 800 420" fill="none" stroke="#00e5ff" stroke-width="3" opacity="0.6"/><path d="M 200 440 Q 350 450 500 440 T 800 445" fill="none" stroke="#00e5ff" stroke-width="3" opacity="0.6"/><path d="M 200 465 Q 350 475 500 465 T 800 470" fill="none" stroke="#00e5ff" stroke-width="3" opacity="0.6"/><path d="M 200 490 Q 350 500 500 490 T 800 495" fill="none" stroke="#00e5ff" stroke-width="3" opacity="0.6"/><path d="M 200 515 Q 350 525 500 515 T 800 520" fill="none" stroke="#00e5ff" stroke-width="3" opacity="0.6"/><line x1="350" y1="350" x2="400" y2="170" stroke="#ffffff" stroke-width="3" stroke-dasharray="5,5"/><text x="400" y="160" fill="#ffffff" font-family="Arial" font-size="16" font-weight="bold" text-anchor="middle">Eixo Ant. (Ex: 95°)</text><line x1="600" y1="510" x2="700" y2="170" stroke="#ffffff" stroke-width="3" stroke-dasharray="5,5"/><text x="700" y="160" fill="#ffffff" font-family="Arial" font-size="16" font-weight="bold" text-anchor="middle">Eixo Post. (Ex: 135°)</text><path d="M 400 180 Q 550 240 700 180" fill="none" stroke="#ffeb3b" stroke-width="2" /><text x="550" y="230" fill="#ffeb3b" font-family="Arial" font-size="14" font-weight="bold" text-anchor="middle">Rotacionado 15-40°</text><line x1="250" y1="580" x2="250" y2="530" stroke="#ffd600" stroke-width="4" marker-end="url(#arrowPio)"/><line x1="350" y1="580" x2="350" y2="530" stroke="#ffd600" stroke-width="4" marker-end="url(#arrowPio)"/><line x1="450" y1="580" x2="450" y2="530" stroke="#ffd600" stroke-width="4" marker-end="url(#arrowPio)"/><line x1="550" y1="580" x2="550" y2="530" stroke="#ffd600" stroke-width="4" marker-end="url(#arrowPio)"/><line x1="650" y1="580" x2="650" y2="530" stroke="#ffd600" stroke-width="4" marker-end="url(#arrowPio)"/><line x1="750" y1="580" x2="750" y2="530" stroke="#ffd600" stroke-width="4" marker-end="url(#arrowPio)"/><text x="500" y="610" fill="#ffd600" font-family="Arial" font-size="20" font-weight="bold" text-anchor="middle">Pressão Intraocular (PIO)</text><text x="500" y="650" fill="#cfd8dc" font-family="Arial" font-size="16" text-anchor="middle">Redes independentes reagem diferentemente à mesma força vetorial, gerando eixos de astigmatismo desalinhados.</text></svg>