<svg viewBox="0 0 1000 700" xmlns="http://www.w3.org/2000/svg"><rect width="1000" height="700" fill="#0a1118"/>
<defs>
    
</defs>
<text x="500" y="50" fill="#ffffff" font-family="Arial" font-size="28" font-weight="bold" text-anchor="middle">Figura 1.5: Astigmatismo na Linguagem das Fibras</text><circle cx="500" cy="350" r="250" fill="#111B24" stroke="#333" stroke-width="2"/><circle cx="500" cy="350" r="260" fill="none" stroke="#222" stroke-width="1" stroke-dasharray="4,4"/><path d="M 387.1937501731398 130 L 387.1937501731398 128.36081002367158 L 417.1937501731398 126.70220158594947 L 447.1937501731398 130.3168648176398 L 477.1937501731398 129.30286403714757 L 507.1937501731398 126.28373233425249 L 537.1937501731397 129.5520620981563 L 567.1937501731397 132.30652398408148 L 597.1937501731397 133.01508364126096" fill="none" stroke="#0288d1" stroke-width="3" opacity="0.6"/><path d="M 335.181160057474 170 L 335.181160057474 167.79416853511583 L 365.181160057474 167.80755126763495 L 395.181160057474 172.17802693340877 L 425.181160057474 169.99495364614674 L 455.181160057474 168.75160969202616 L 485.181160057474 172.92419812933912 L 515.181160057474 172.27723150423108 L 545.181160057474 171.36949610196373 L 575.181160057474 172.45245998153774 L 605.181160057474 166.7435030429997 L 635.181160057474 173.1793472619766" fill="none" stroke="#0288d1" stroke-width="3" opacity="0.6"/><path d="M 303.2330058165242 210 L 303.2330058165242 206.37180039871967 L 333.2330058165242 207.2689254535872 L 363.2330058165242 210.04083407740578 L 393.2330058165242 207.14384322356653 L 423.2330058165242 208.57754227402197 L 453.2330058165242 207.85197954488405 L 483.2330058165242 212.02535406488212 L 513.2330058165242 212.72659127711952 L 543.2330058165242 212.36272512406805 L 573.2330058165242 210.66677049380704 L 603.2330058165242 211.7043875764233 L 633.2330058165242 210.63615867319461 L 663.2330058165242 207.2073784040399 L 693.2330058165242 211.232666095892" fill="none" stroke="#0288d1" stroke-width="3" opacity="0.6"/><path d="M 282.32765448959765 250 L 282.32765448959765 248.99737536247855 L 312.32765448959765 252.18419670122896 L 342.32765448959765 250.10500535862178 L 372.32765448959765 251.83861254314337 L 402.32765448959765 247.6361752071287 L 432.32765448959765 252.48351789252547 L 462.32765448959765 246.14948272675275 L 492.32765448959765 251.54647300690183 L 522.3276544895976 252.3243908875889 L 552.3276544895976 248.41318341398699 L 582.3276544895976 247.52381202431513 L 612.3276544895976 246.2883791504649 L 642.3276544895976 248.46350618888945 L 672.3276544895976 247.22918069633653 L 702.3276544895976 251.7302283006472" fill="none" stroke="#0288d1" stroke-width="3" opacity="0.6"/><path d="M 269.4414391092797 290 L 269.4414391092797 293.4150233168168 L 299.4414391092797 293.20623563417115 L 329.4414391092797 289.2782853961848 L 359.4414391092797 287.1139542380557 L 389.4414391092797 288.283440598576 L 419.4414391092797 288.7241613775268 L 449.4414391092797 288.89468980808886 L 479.4414391092797 289.47165431307576 L 509.4414391092797 292.06951517448624 L 539.4414391092797 289.3528869390167 L 569.4414391092797 293.98630174616403 L 599.4414391092797 286.9961839137526 L 629.4414391092797 290.2614311285234 L 659.4414391092797 286.41027031323375 L 689.4414391092797 293.06858768798475 L 719.4414391092797 286.85528846201146" fill="none" stroke="#0288d1" stroke-width="3" opacity="0.6"/><path d="M 263.26121990683487 330 L 263.26121990683487 329.98065540788724 L 293.26121990683487 330.68345546884547 L 323.26121990683487 326.66660022706344 L 353.26121990683487 330.2473364151152 L 383.26121990683487 333.0438026929111 L 413.26121990683487 333.19152307761016 L 443.26121990683487 330.76039373529824 L 473.26121990683487 327.18523822574343 L 503.26121990683487 329.9446923863566 L 533.2612199068349 331.33830923221575 L 563.2612199068349 330.0071357072389 L 593.2612199068349 328.54325054416057 L 623.2612199068349 331.2557644600662 L 653.2612199068349 329.0640750946758 L 683.2612199068349 331.38547649406837 L 713.2612199068349 333.78263208016875" fill="none" stroke="#0288d1" stroke-width="3" opacity="0.6"/><path d="M 263.26121990683487 370 L 263.26121990683487 368.2710744065997 L 293.26121990683487 369.06812365181025 L 323.26121990683487 369.32804990184025 L 353.26121990683487 370.2501997959455 L 383.26121990683487 367.63793452862984 L 413.26121990683487 370.3867198826053 L 443.26121990683487 373.7278588386719 L 473.26121990683487 367.85114693674007 L 503.26121990683487 369.33959450822414 L 533.2612199068349 367.10261482992587 L 563.2612199068349 366.4617350374433 L 593.2612199068349 366.2825805117158 L 623.2612199068349 366.2717094998473 L 653.2612199068349 367.0606023084153 L 683.2612199068349 367.6687260722909 L 713.2612199068349 370.9932885593634" fill="none" stroke="#0288d1" stroke-width="3" opacity="0.6"/><path d="M 269.4414391092797 410 L 269.4414391092797 413.56028018616354 L 299.4414391092797 406.14004556228804 L 329.4414391092797 413.98803619311485 L 359.4414391092797 409.3171735471193 L 389.4414391092797 411.3141586769841 L 419.4414391092797 411.5066170100697 L 449.4414391092797 408.650254543715 L 479.4414391092797 406.28314011532166 L 509.4414391092797 412.98542929547085 L 539.4414391092797 413.37604067683003 L 569.4414391092797 413.8973005384698 L 599.4414391092797 407.0128404529397 L 629.4414391092797 409.43505257816304 L 659.4414391092797 407.2130731766171 L 689.4414391092797 408.28815747055694 L 719.4414391092797 410.0106686940232" fill="none" stroke="#0288d1" stroke-width="3" opacity="0.6"/><path d="M 282.32765448959765 450 L 282.32765448959765 452.0487575861768 L 312.32765448959765 450.3700263874985 L 342.32765448959765 450.95325549262776 L 372.32765448959765 451.0398737939686 L 402.32765448959765 452.6088999984159 L 432.32765448959765 450.9905003813425 L 462.32765448959765 451.2559050507598 L 492.32765448959765 453.2814606372822 L 522.3276544895976 450.90974222189635 L 552.3276544895976 452.95297876890737 L 582.3276544895976 449.47582833602127 L 612.3276544895976 446.3405635194293 L 642.3276544895976 448.00651564416034 L 672.3276544895976 448.5224429160513 L 702.3276544895976 446.7400141029575" fill="none" stroke="#0288d1" stroke-width="3" opacity="0.6"/><path d="M 303.2330058165242 490 L 303.2330058165242 493.2224556208758 L 333.2330058165242 487.06716328387216 L 363.2330058165242 489.33403645799615 L 393.2330058165242 492.6543460950214 L 423.2330058165242 492.61999361808796 L 453.2330058165242 489.08696117227345 L 483.2330058165242 490.8233911219285 L 513.2330058165242 488.0508086427744 L 543.2330058165242 490.2185329088145 L 573.2330058165242 488.321898985925 L 603.2330058165242 487.08042042749616 L 633.2330058165242 489.2515592605742 L 663.2330058165242 487.8514370382885 L 693.2330058165242 491.202211340112" fill="none" stroke="#0288d1" stroke-width="3" opacity="0.6"/><path d="M 335.181160057474 530 L 335.181160057474 529.571414884401 L 365.181160057474 532.4091969473781 L 395.181160057474 526.9666887586701 L 425.181160057474 529.9373146818423 L 455.181160057474 529.7235337056686 L 485.181160057474 530.5040460637599 L 515.181160057474 533.685562204428 L 545.181160057474 533.4318461716261 L 575.181160057474 530.261497082184 L 605.181160057474 527.4580033241111 L 635.181160057474 531.311422404115" fill="none" stroke="#0288d1" stroke-width="3" opacity="0.6"/><line x1="330" y1="175.8621235916781" x2="330" y2="524.1378764083219" stroke="#ff1744" stroke-width="3" opacity="0.85"/><line x1="342" y1="165.94500821765251" x2="342" y2="534.0549917823475" stroke="#ff1744" stroke-width="3" opacity="0.85"/><line x1="354" y1="157.2085064117195" x2="354" y2="542.7914935882804" stroke="#ff1744" stroke-width="3" opacity="0.85"/><line x1="366" y1="149.49822943425164" x2="366" y2="550.5017705657483" stroke="#ff1744" stroke-width="3" opacity="0.85"/><line x1="378" y1="142.699638205815" x2="378" y2="557.3003617941849" stroke="#ff1744" stroke-width="3" opacity="0.85"/><line x1="390" y1="136.72552895388534" x2="390" y2="563.2744710461146" stroke="#ff1744" stroke-width="3" opacity="0.85"/><line x1="402" y1="131.50826102573126" x2="402" y2="568.4917389742687" stroke="#ff1744" stroke-width="3" opacity="0.85"/><line x1="414" y1="126.99470858295763" x2="414" y2="573.0052914170424" stroke="#ff1744" stroke-width="3" opacity="0.85"/><line x1="426" y1="123.14286433969065" x2="426" y2="576.8571356603094" stroke="#ff1744" stroke-width="3" opacity="0.85"/><line x1="438" y1="119.91949235104684" x2="438" y2="580.0805076489531" stroke="#ff1744" stroke-width="3" opacity="0.85"/><line x1="450" y1="117.29847443559808" x2="450" y2="582.7015255644019" stroke="#ff1744" stroke-width="3" opacity="0.85"/><line x1="462" y1="115.2596327854964" x2="462" y2="584.7403672145036" stroke="#ff1744" stroke-width="3" opacity="0.85"/><line x1="474" y1="113.78789192761519" x2="474" y2="586.2121080723848" stroke="#ff1744" stroke-width="3" opacity="0.85"/><line x1="486" y1="112.87269242029504" x2="486" y2="587.127307579705" stroke="#ff1744" stroke-width="3" opacity="0.85"/><line x1="498" y1="112.5076001216039" x2="498" y2="587.4923998783961" stroke="#ff1744" stroke-width="3" opacity="0.85"/><line x1="510" y1="112.69007606086089" x2="510" y2="587.3099239391391" stroke="#ff1744" stroke-width="3" opacity="0.85"/><line x1="522" y1="113.42138727264464" x2="522" y2="586.5786127273553" stroke="#ff1744" stroke-width="3" opacity="0.85"/><line x1="534" y1="114.70665117772666" x2="534" y2="585.2933488222734" stroke="#ff1744" stroke-width="3" opacity="0.85"/><line x1="546" y1="116.55501718820344" x2="546" y2="583.4449828117965" stroke="#ff1744" stroke-width="3" opacity="0.85"/><line x1="558" y1="118.98000086572591" x2="558" y2="581.019999134274" stroke="#ff1744" stroke-width="3" opacity="0.85"/><line x1="570" y1="122" x2="570" y2="578" stroke="#ff1744" stroke-width="3" opacity="0.85"/><line x1="582" y1="125.63904082929224" x2="582" y2="574.3609591707077" stroke="#ff1744" stroke-width="3" opacity="0.85"/><line x1="594" y1="129.92783001933208" x2="594" y2="570.0721699806679" stroke="#ff1744" stroke-width="3" opacity="0.85"/><line x1="606" y1="134.90523018910943" x2="606" y2="565.0947698108905" stroke="#ff1744" stroke-width="3" opacity="0.85"/><line x1="618" y1="140.62034482787018" x2="618" y2="559.3796551721298" stroke="#ff1744" stroke-width="3" opacity="0.85"/><line x1="630" y1="147.1355132114051" x2="630" y2="552.8644867885948" stroke="#ff1744" stroke-width="3" opacity="0.85"/><line x1="642" y1="154.5307185259024" x2="642" y2="545.4692814740977" stroke="#ff1744" stroke-width="3" opacity="0.85"/><line x1="654" y1="162.91028889861423" x2="654" y2="537.0897111013858" stroke="#ff1744" stroke-width="3" opacity="0.85"/><line x1="666" y1="172.41351402767157" x2="666" y2="527.5864859723284" stroke="#ff1744" stroke-width="3" opacity="0.85"/><line x1="210" y1="350" x2="790" y2="350" stroke="#0288d1" stroke-width="4" stroke-dasharray="8,4"/><text x="200" y="355" fill="#0288d1" font-family="Arial" font-size="18" font-weight="bold" text-anchor="end">K-flat (180°)</text><text x="200" y="375" fill="#0288d1" font-family="Arial" font-size="14" text-anchor="end">Fibras Frouxas / Espaçadas</text><line x1="500" y1="60" x2="500" y2="640" stroke="#ff1744" stroke-width="4" stroke-dasharray="8,4"/><text x="500" y="40" fill="#ff1744" font-family="Arial" font-size="18" font-weight="bold" text-anchor="middle">K-steep (90°)</text><text x="500" y="55" fill="#ff1744" font-family="Arial" font-size="14" text-anchor="middle">Fibras Densas / Tensas</text><circle cx="500" cy="350" r="40" fill="#000" opacity="0.5" stroke="#444"/></svg>