<svg viewBox="0 0 1200 500" xmlns="http://www.w3.org/2000/svg"><rect width="1200" height="500" fill="#0a1118"/><text x="600" y="40" fill="#ffffff" font-family="Arial" font-size="28" font-weight="bold" text-anchor="middle">Figura 1.10: Cascata Patogênica do Ceratocone</text><rect x="40" y="80" width="260" height="300" rx="10" fill="#111B24" stroke="#00e676" stroke-width="2"/><rect x="40" y="80" width="260" height="40" rx="10" fill="#00e676" opacity="0.2"/><text x="170" y="108" fill="#00e676" font-family="Arial" font-size="20" font-weight="bold" text-anchor="middle">1. Normal</text><text x="170" y="410" fill="#cfd8dc" font-family="Arial" font-size="14" text-anchor="middle">Fibras intactas e tensionadas</text><line x1="90" y1="210" x2="250" y2="210" stroke="#cfd8dc" stroke-width="4"/><line x1="130" y1="210" x2="150" y2="230" stroke="#00e676" stroke-width="3"/><line x1="210" y1="210" x2="190" y2="230" stroke="#00e676" stroke-width="3"/><line x1="90" y1="230" x2="250" y2="230" stroke="#cfd8dc" stroke-width="4"/><line x1="130" y1="230" x2="150" y2="250" stroke="#00e676" stroke-width="3"/><line x1="210" y1="230" x2="190" y2="250" stroke="#00e676" stroke-width="3"/><line x1="90" y1="250" x2="250" y2="250" stroke="#cfd8dc" stroke-width="4"/><line x1="130" y1="250" x2="150" y2="270" stroke="#00e676" stroke-width="3"/><line x1="210" y1="250" x2="190" y2="270" stroke="#00e676" stroke-width="3"/><line x1="90" y1="270" x2="250" y2="270" stroke="#cfd8dc" stroke-width="4"/><line x1="130" y1="270" x2="150" y2="290" stroke="#00e676" stroke-width="3"/><line x1="210" y1="270" x2="190" y2="290" stroke="#00e676" stroke-width="3"/><line x1="90" y1="290" x2="250" y2="290" stroke="#cfd8dc" stroke-width="4"/><line x1="130" y1="290" x2="150" y2="310" stroke="#00e676" stroke-width="3"/><line x1="210" y1="290" x2="190" y2="310" stroke="#00e676" stroke-width="3"/><line x1="305" y1="250" x2="325" y2="250" stroke="#455a64" stroke-width="4"/><polygon points="325,250 315,245 315,255" fill="#455a64"/><rect x="330" y="80" width="260" height="300" rx="10" fill="#111B24" stroke="#ffb300" stroke-width="2"/><rect x="330" y="80" width="260" height="40" rx="10" fill="#ffb300" opacity="0.2"/><text x="460" y="108" fill="#ffb300" font-family="Arial" font-size="20" font-weight="bold" text-anchor="middle">2. Degradação</text><text x="460" y="410" fill="#cfd8dc" font-family="Arial" font-size="14" text-anchor="middle">MMPs degradam proteoglicanos</text><line x1="380" y1="210" x2="540" y2="210" stroke="#cfd8dc" stroke-width="4"/><circle cx="430" cy="220" r="3" fill="#ffb300"/><circle cx="490" cy="220" r="3" fill="#ffb300"/><line x1="380" y1="230" x2="540" y2="230" stroke="#cfd8dc" stroke-width="4"/><circle cx="430" cy="240" r="3" fill="#ffb300"/><circle cx="490" cy="240" r="3" fill="#ffb300"/><line x1="380" y1="250" x2="540" y2="250" stroke="#cfd8dc" stroke-width="4"/><circle cx="430" cy="260" r="3" fill="#ffb300"/><circle cx="490" cy="260" r="3" fill="#ffb300"/><line x1="380" y1="270" x2="540" y2="270" stroke="#cfd8dc" stroke-width="4"/><circle cx="430" cy="280" r="3" fill="#ffb300"/><circle cx="490" cy="280" r="3" fill="#ffb300"/><line x1="380" y1="290" x2="540" y2="290" stroke="#cfd8dc" stroke-width="4"/><circle cx="430" cy="300" r="3" fill="#ffb300"/><circle cx="490" cy="300" r="3" fill="#ffb300"/><text x="460" y="170" fill="#ffb300" font-family="Arial" font-size="14" font-weight="bold" text-anchor="middle">Ataque de MMPs</text><line x1="595" y1="250" x2="615" y2="250" stroke="#455a64" stroke-width="4"/><polygon points="615,250 605,245 605,255" fill="#455a64"/><rect x="620" y="80" width="260" height="300" rx="10" fill="#111B24" stroke="#ff7043" stroke-width="2"/><rect x="620" y="80" width="260" height="40" rx="10" fill="#ff7043" opacity="0.2"/><text x="750" y="108" fill="#ff7043" font-family="Arial" font-size="20" font-weight="bold" text-anchor="middle">3. Deslizamento</text><text x="750" y="410" fill="#cfd8dc" font-family="Arial" font-size="14" text-anchor="middle">Lamelas deslizam / radiais frouxas</text><line x1="670" y1="190" x2="830" y2="190" stroke="#ff7043" stroke-width="4"/><line x1="670" y1="220" x2="830" y2="220" stroke="#ff7043" stroke-width="4"/><line x1="690" y1="250" x2="850" y2="250" stroke="#ff7043" stroke-width="4"/><line x1="710" y1="280" x2="870" y2="280" stroke="#ff7043" stroke-width="4"/><line x1="670" y1="310" x2="830" y2="310" stroke="#ff7043" stroke-width="4"/><line x1="700" y1="250" x2="800" y2="250" stroke="#ff7043" stroke-width="3" stroke-dasharray="4,4"/><path d="M 680 270 L 650 270 L 660 260" fill="none" stroke="#ff7043" stroke-width="3"/><line x1="885" y1="250" x2="905" y2="250" stroke="#455a64" stroke-width="4"/><polygon points="905,250 895,245 895,255" fill="#455a64"/><rect x="910" y="80" width="260" height="300" rx="10" fill="#111B24" stroke="#ff1744" stroke-width="2"/><rect x="910" y="80" width="260" height="40" rx="10" fill="#ff1744" opacity="0.2"/><text x="1040" y="108" fill="#ff1744" font-family="Arial" font-size="20" font-weight="bold" text-anchor="middle">4. Ectasia</text><text x="1040" y="410" fill="#cfd8dc" font-family="Arial" font-size="14" text-anchor="middle">PIO vence focalmente / protrusão</text><path d="M 940 230 Q 1040 130 1140 230" fill="none" stroke="#ff1744" stroke-width="4"/><path d="M 940 250 Q 1040 150 1140 250" fill="none" stroke="#ff1744" stroke-width="4"/><path d="M 940 270 Q 1040 170 1140 270" fill="none" stroke="#ff1744" stroke-width="4"/><line x1="1000" y1="330" x2="1000" y2="270" stroke="#ffd600" stroke-width="4" marker-end="url(#arrowPio)"/><line x1="1040" y1="330" x2="1040" y2="270" stroke="#ffd600" stroke-width="4" marker-end="url(#arrowPio)"/><line x1="1080" y1="330" x2="1080" y2="270" stroke="#ffd600" stroke-width="4" marker-end="url(#arrowPio)"/><text x="1040" y="350" fill="#ffd600" font-family="Arial" font-size="14" font-weight="bold" text-anchor="middle">PIO Focal</text>
<defs>
    <marker id="arrowPio" viewBox="0 0 10 10" refX="5" refY="5" markerWidth="6" markerHeight="6" orient="auto-start-reverse">
        <path d="M 0 0 L 10 5 L 0 10 z" fill="#ffd600"/>
    </marker>
</defs>
<text x="600" y="480" fill="#cfd8dc" font-family="Arial" font-size="14" font-style="italic" text-anchor="middle">Em todos os estágios, o anel límbico de fibras tangenciais permanece amplamente preservado, contendo a ectasia na região central/paracentral.</text></svg>