<svg viewBox="0 0 1200 700" xmlns="http://www.w3.org/2000/svg"><rect width="1200" height="700" fill="#0a1118"/>
<defs>
    <filter id="pmmaGlow" x="-20%" y="-20%" width="140%" height="140%">
        <feGaussianBlur stdDeviation="5" result="blur" />
        <feMerge><feMergeNode in="blur"/><feMergeNode in="SourceGraphic"/></feMerge>
    </filter>
    <linearGradient id="pmmaGradient" x1="0%" y1="0%" x2="0%" y2="100%">
        <stop offset="0%" stop-color="#ffffff"/>
        <stop offset="50%" stop-color="#80deea"/>
        <stop offset="100%" stop-color="#006064"/>
    </linearGradient>
</defs>
<text x="600" y="50" fill="#ffffff" font-family="Arial" font-size="28" font-weight="bold" text-anchor="middle" paint-order="stroke" stroke="#0a1118" stroke-width="4">Figura 1.2: Visão Microscópica do Efeito Separador (PMMA)</text><rect x="50" y="150" width="1100" height="400" fill="#111B24" rx="20"/><path d="M 50 180 L 50 176.76946448585912 L 80 173.4690626177871 L 110 178.01975731535305 L 140 183.70624770868247 L 170 182.6299923117234 L 200 179.60417464337849 L 230 177.2716167897646 L 260 173.0255021945504 L 290 173.5952734236626 L 320 180.89591070811943 L 350 176.09400205786784 L 380 184.38124443066664 L 410 177.4370359896199 L 440 178.67406958608856" fill="none" stroke="#546e7a" stroke-width="3" opacity="0.6"/><path d="M 750 180 L 750 173.91063656468444 L 780 176.32554922274522 L 810 172.79067522153784 L 840 187.09132385946938 L 870 173.57223976227112 L 900 183.71260522925337 L 930 172.70866814039755 L 960 181.8126925237265 L 990 176.7969968836581 L 1020 180.71200911615853 L 1050 186.09719606222959 L 1080 174.56205060074754 L 1110 173.35403103620664 L 1140 178.24320550762522" fill="none" stroke="#546e7a" stroke-width="3" opacity="0.6"/><path d="M 50 210 L 50 214.0567064215537 L 80 206.4963106278812 L 110 203.12975861864513 L 140 206.28900299404785 L 170 213.68093125133825 L 200 214.16503290711404 L 230 212.4917396758025 L 260 203.45713822478925 L 290 216.55146598661622 L 320 213.9135990849377 L 350 210.7428764667761 L 380 215.58654350128694 L 410 207.77370400248404 L 440 205.31792826895463" fill="none" stroke="#546e7a" stroke-width="3" opacity="0.6"/><path d="M 750 210 L 750 206.7449429053389 L 780 206.26282671722794 L 810 204.72395034794974 L 840 208.92061120141253 L 870 208.21041433897878 L 900 214.01690623094825 L 930 205.36498471943753 L 960 215.7495851881852 L 990 203.00262246051366 L 1020 210.8040858551999 L 1050 212.6895299423295 L 1080 202.8090747802137 L 1110 211.60981035687402 L 1140 203.6142263740684" fill="none" stroke="#546e7a" stroke-width="3" opacity="0.6"/><path d="M 50 240 L 50 245.2104168797517 L 80 242.48699673636693 L 110 235.71666646146576 L 140 243.92848558460807 L 170 234.2963717920257 L 200 236.8594418636386 L 230 236.6033150077765 L 260 238.47418501214221 L 290 241.8402155209569 L 320 235.7904029402103 L 350 237.6080488068003 L 380 243.06360815137978 L 410 237.04425337897624 L 440 244.40852022015937" fill="none" stroke="#546e7a" stroke-width="3" opacity="0.6"/><path d="M 750 240 L 750 237.55525198504344 L 780 245.17518330245352 L 810 246.96139002815048 L 840 236.81674254491452 L 870 237.2760360236975 L 900 237.76319549878502 L 930 236.81543873135246 L 960 234.84647373083686 L 990 235.5788993822616 L 1020 238.2107815004235 L 1050 234.02966972370075 L 1080 241.1018709766699 L 1110 233.54118990523676 L 1140 237.14725756335542" fill="none" stroke="#546e7a" stroke-width="3" opacity="0.6"/><path d="M 50 270 L 50 268.2840572027977 L 80 270.995220670747 L 110 271.5834446155872 L 140 273.9213623741321 L 170 272.8681521008251 L 200 265.9759592169519 L 230 276.3487036337818 L 260 262.8870549534656 L 290 269.539996815567 L 320 271.333513691766 L 350 272.5008885862273 L 380 267.8036953246351 L 410 269.9339650126166 L 440 264.9567354683398" fill="none" stroke="#546e7a" stroke-width="3" opacity="0.6"/><path d="M 750 270 L 750 273.6188809593066 L 780 277.3545427550571 L 810 269.98382493848555 L 840 270.7839650988633 L 870 276.39833472611474 L 900 267.36970639306895 L 930 274.57594055830054 L 960 277.34690554723323 L 990 276.48281133159617 L 1020 269.64065625881886 L 1050 265.1728637158647 L 1080 272.74101193889896 L 1110 272.9588506078311 L 1140 265.4893902298159" fill="none" stroke="#546e7a" stroke-width="3" opacity="0.6"/><path d="M 50 300 L 50 302.67356009820156 L 80 292.5365506734255 L 110 296.55551238012396 L 140 300.49501562857466 L 170 293.2446701960519 L 200 305.7779724594915 L 230 304.33057157151234 L 260 298.33137503552496 L 290 294.81323996390785 L 320 300.12999911874687 L 350 297.16956481561465 L 380 299.8763066930502 L 410 303.2949105632413 L 440 293.86864153562624" fill="none" stroke="#546e7a" stroke-width="3" opacity="0.6"/><path d="M 750 300 L 750 300.9552566649771 L 780 296.2525512775037 L 810 301.58426729904147 L 840 306.26824703944396 L 870 298.1252576174324 L 900 304.9319983192773 L 930 293.3137709959784 L 960 298.7428784971241 L 990 305.06087903783333 L 1020 302.5523848972907 L 1050 300.41072484214834 L 1080 304.6288649163638 L 1110 302.6369224092221 L 1140 295.24679893482084" fill="none" stroke="#546e7a" stroke-width="3" opacity="0.6"/><path d="M 50 330 L 50 334.67719369706145 L 80 331.37668751855034 L 110 336.31304508357397 L 140 334.9918997237096 L 170 331.35206877448684 L 200 328.8569662232999 L 230 329.1519794630891 L 260 331.50783511993245 L 290 331.14527013883816 L 320 324.22047631413847 L 350 335.80986934206936 L 380 330.3976848211458 L 410 330.3312382867048 L 440 330.6160078146191" fill="none" stroke="#546e7a" stroke-width="3" opacity="0.6"/><path d="M 750 330 L 750 331.1611812349221 L 780 325.557439644945 L 810 323.08217289437454 L 840 323.2959941425129 L 870 337.42709931031277 L 900 331.1812902765242 L 930 325.8766943073374 L 960 332.8689052734449 L 990 334.93797069230095 L 1020 331.72920579928564 L 1050 335.43926521951914 L 1080 324.0057605753844 L 1110 335.78496364780466 L 1140 330.63044508306564" fill="none" stroke="#546e7a" stroke-width="3" opacity="0.6"/><path d="M 50 360 L 50 356.65287348392326 L 80 353.54701078021077 L 110 359.50301372024535 L 140 367.033504161461 L 170 353.5675131369465 L 200 361.99640264832334 L 230 354.2637431868522 L 260 362.3142369519199 L 290 355.9387555986526 L 320 360.7890362715327 L 350 354.6020696974811 L 380 360.6907710062601 L 410 354.721926844849 L 440 356.8598393650295" fill="none" stroke="#546e7a" stroke-width="3" opacity="0.6"/><path d="M 750 360 L 750 365.3603155140571 L 780 360.9760576607664 L 810 362.55862869652634 L 840 362.3455051916171 L 870 358.16174337911303 L 900 362.5484551013078 L 930 353.93500654704616 L 960 361.54784231500395 L 990 361.27840893185424 L 1020 353.83161860291443 L 1050 364.25816124691664 L 1080 357.1448321913626 L 1110 357.624438670088 L 1140 365.2745725368486" fill="none" stroke="#546e7a" stroke-width="3" opacity="0.6"/><path d="M 50 390 L 50 390.6561595639003 L 80 384.68229434476206 L 110 396.66786856775593 L 140 382.89349941261025 L 170 392.5024462338006 L 200 395.4279460429434 L 230 383.90456983306956 L 260 396.2319447915082 L 290 384.5299402556685 L 320 389.6320200428208 L 350 391.97209414121994 L 380 382.7798685955769 L 410 388.8686241898813 L 440 382.50316216016944" fill="none" stroke="#546e7a" stroke-width="3" opacity="0.6"/><path d="M 750 390 L 750 390.8654395663392 L 780 386.7023058895011 L 810 388.69187526977475 L 840 396.21177214260933 L 870 384.62255118127615 L 900 386.7017457557059 L 930 395.1677848101401 L 960 384.9844277688293 L 990 396.9444251396658 L 1020 396.7237636689322 L 1050 387.10941605456026 L 1080 389.276362916911 L 1110 384.63863807812663 L 1140 392.62383159565064" fill="none" stroke="#546e7a" stroke-width="3" opacity="0.6"/><path d="M 50 420 L 50 416.2468326973438 L 80 420.3196193342309 L 110 418.08326285666135 L 140 417.5817982237385 L 170 423.7357819885883 L 200 416.221131991924 L 230 424.23642089626696 L 260 418.5225061770735 L 290 421.60510935270526 L 320 425.6506939827976 L 350 419.05048742568 L 380 420.30474908557994 L 410 426.2599539769498 L 440 427.0570109941923" fill="none" stroke="#546e7a" stroke-width="3" opacity="0.6"/><path d="M 750 420 L 750 419.0087476212159 L 780 416.9982108913548 L 810 420.27195391799677 L 840 416.85853154869704 L 870 416.7771748143169 L 900 425.8341870530064 L 930 417.71036794998275 L 960 423.92575348849954 L 990 424.0736968041241 L 1020 414.9594429403312 L 1050 419.7261028120224 L 1080 418.0727292063684 L 1110 421.5364082048552 L 1140 421.95256303374305" fill="none" stroke="#546e7a" stroke-width="3" opacity="0.6"/><path d="M 50 450 L 50 453.6192539801027 L 80 455.2536405989578 L 110 446.6590907605357 L 140 451.9159452608559 L 170 447.8069420881945 L 200 451.30161667370777 L 230 445.37053403688276 L 260 445.97246578102585 L 290 446.0238561938532 L 320 455.6170818447751 L 350 447.70308982950894 L 380 447.90629957338695 L 410 446.7072563101759 L 440 446.12613227977175" fill="none" stroke="#546e7a" stroke-width="3" opacity="0.6"/><path d="M 750 450 L 750 451.8229738986223 L 780 446.49826151384167 L 810 457.25476407172164 L 840 452.24540966848855 L 870 442.81890096807854 L 900 450.20896755649295 L 930 444.22474910195376 L 960 444.3305477623003 L 990 451.69560424029794 L 1020 448.0633751110732 L 1050 444.02203892345267 L 1080 446.4938914994832 L 1110 449.7864195067044 L 1140 451.03117644261374" fill="none" stroke="#546e7a" stroke-width="3" opacity="0.6"/><path d="M 50 480 L 50 484.09260777830366 L 80 484.25297787060185 L 110 475.7041011463529 L 140 475.2997591855268 L 170 478.1051825462746 L 200 479.088987708603 L 230 485.4550122290184 L 260 485.53044935943774 L 290 481.8109374324113 L 320 484.2780367206211 L 350 482.099996126968 L 380 480.7972685758268 L 410 486.5072728781605 L 440 478.68012078984617" fill="none" stroke="#546e7a" stroke-width="3" opacity="0.6"/><path d="M 750 480 L 750 476.39467078303977 L 780 485.7292946435776 L 810 486.9296646163574 L 840 487.2743921050399 L 870 481.67042539601385 L 900 483.82009261465424 L 930 477.4936617017061 L 960 480.634403444203 L 990 483.2651378050896 L 1020 475.9955192084387 L 1050 482.74445975277484 L 1080 483.1819387748172 L 1110 484.3784484043434 L 1140 484.9946230588726" fill="none" stroke="#546e7a" stroke-width="3" opacity="0.6"/><path d="M 50 510 L 50 508.16877990423967 L 80 509.4222052648915 L 110 516.0631047694579 L 140 517.3240210324425 L 170 502.6132448373014 L 200 504.71781822468034 L 230 505.34400000757387 L 260 504.5147792380203 L 290 517.4400757350995 L 320 512.5755848881474 L 350 509.7778633136734 L 380 516.1802695603174 L 410 512.6074260126425 L 440 506.5486270449162" fill="none" stroke="#546e7a" stroke-width="3" opacity="0.6"/><path d="M 750 510 L 750 505.00232713650206 L 780 513.7074687768418 L 810 503.8797864492197 L 840 506.0650072906861 L 870 505.77641864791036 L 900 508.27625229254284 L 930 509.92526144566244 L 960 512.7304399575088 L 990 503.78704864886447 L 1020 503.35879989276293 L 1050 503.5312647380133 L 1080 505.11561548969365 L 1110 516.605534797013 L 1140 508.46481035806397" fill="none" stroke="#546e7a" stroke-width="3" opacity="0.6"/><path d="M 550 440 L 550 350 L 650 260 L 650 440 Z" fill="url(#pmmaGradient)" stroke="#00e5ff" stroke-width="3" filter="url(#pmmaGlow)"/><path d="M 50 180 Q 400 180 530 113.33333333333333 Q 600 -20 670 113.33333333333333 Q 800 180 1150 180" fill="none" stroke="#ff1744" stroke-width="4" filter="url(#pmmaGlow)"/><path d="M 50 205 Q 400 205 530 146.66666666666666 Q 600 30 670 146.66666666666666 Q 800 205 1150 205" fill="none" stroke="#ff1744" stroke-width="4" filter="url(#pmmaGlow)"/><path d="M 50 230 Q 400 230 530 180 Q 600 80 670 180 Q 800 230 1150 230" fill="none" stroke="#ff1744" stroke-width="4" filter="url(#pmmaGlow)"/><path d="M 50 255 Q 400 255 530 213.33333333333334 Q 600 130 670 213.33333333333334 Q 800 255 1150 255" fill="none" stroke="#ff1744" stroke-width="4" filter="url(#pmmaGlow)"/><path d="M 50 280 Q 400 280 530 246.66666666666666 Q 600 180 670 246.66666666666666 Q 800 280 1150 280" fill="none" stroke="#ff1744" stroke-width="4" filter="url(#pmmaGlow)"/><path d="M 50 305 Q 400 305 530 280 Q 600 230 670 280 Q 800 305 1150 305" fill="none" stroke="#ff1744" stroke-width="4" filter="url(#pmmaGlow)"/><path d="M 50 330 Q 400 330 530 313.3333333333333 Q 600 280 670 313.3333333333333 Q 800 330 1150 330" fill="none" stroke="#ff1744" stroke-width="4" filter="url(#pmmaGlow)"/><path d="M 50 360 Q 400 360 530 370 Q 600 380 670 370 Q 800 360 1150 360" fill="none" stroke="#ff1744" stroke-width="4" filter="url(#pmmaGlow)"/><path d="M 50 385 Q 400 385 530 401.25 Q 600 417.5 670 401.25 Q 800 385 1150 385" fill="none" stroke="#ff1744" stroke-width="4" filter="url(#pmmaGlow)"/><path d="M 50 410 Q 400 410 530 432.5 Q 600 455 670 432.5 Q 800 410 1150 410" fill="none" stroke="#ff1744" stroke-width="4" filter="url(#pmmaGlow)"/><path d="M 50 435 Q 400 435 530 463.75 Q 600 492.5 670 463.75 Q 800 435 1150 435" fill="none" stroke="#ff1744" stroke-width="4" filter="url(#pmmaGlow)"/><path d="M 50 460 Q 400 460 530 495 Q 600 530 670 495 Q 800 460 1150 460" fill="none" stroke="#ff1744" stroke-width="4" filter="url(#pmmaGlow)"/><path d="M 50 485 Q 400 485 530 526.25 Q 600 567.5 670 526.25 Q 800 485 1150 485" fill="none" stroke="#ff1744" stroke-width="4" filter="url(#pmmaGlow)"/><path d="M 50 510 Q 400 510 530 557.5 Q 600 605 670 557.5 Q 800 510 1150 510" fill="none" stroke="#ff1744" stroke-width="4" filter="url(#pmmaGlow)"/><path d="M 200 350 L 100 350" stroke="#ff1744" stroke-width="6" fill="none" marker-end="url(#arrowTense)"/><path d="M 1000 350 L 1100 350" stroke="#ff1744" stroke-width="6" fill="none" marker-end="url(#arrowTense)"/><text x="150" y="330" fill="#ff1744" font-family="Arial" font-size="18" font-weight="bold" text-anchor="middle">Tensão Radial (VR)</text><text x="1050" y="330" fill="#ff1744" font-family="Arial" font-size="18" font-weight="bold" text-anchor="middle">Tensão Radial (VR)</text>
<defs>
    <marker id="arrowTense" viewBox="0 0 10 10" refX="5" refY="5" markerWidth="6" markerHeight="6" orient="auto-start-reverse">
        <path d="M 0 0 L 10 5 L 0 10 z" fill="#ff1744"/>
    </marker>
</defs>
<rect x="100" y="580" width="1000" height="90" fill="#111B24" rx="8" stroke="#333"/><text x="600" y="615" fill="#00e5ff" font-family="Arial" font-size="22" font-weight="bold" text-anchor="middle" paint-order="stroke" stroke="#0a1118" stroke-width="4">O PMMA Atua como uma Cunha Expansora</text><text x="600" y="645" fill="#cfd8dc" font-family="Arial" font-size="16" text-anchor="middle" paint-order="stroke" stroke="#0a1118" stroke-width="4">Adicionar volume entre lamelas inextensíveis gera separação vertical, que o tecido tenta compensar gerando tração horizontal massiva nas fibras radiais.</text></svg>