<svg viewBox="0 0 1200 700" xmlns="http://www.w3.org/2000/svg"><rect width="1200" height="700" fill="#0a1118"/>
<defs>
    <filter id="pmmaGlow" x="-20%" y="-20%" width="140%" height="140%">
        <feGaussianBlur stdDeviation="5" result="blur" />
        <feMerge><feMergeNode in="blur"/><feMergeNode in="SourceGraphic"/></feMerge>
    </filter>
    <linearGradient id="pmmaGradient" x1="0%" y1="0%" x2="0%" y2="100%">
        <stop offset="0%" stop-color="#ffffff"/>
        <stop offset="50%" stop-color="#80deea"/>
        <stop offset="100%" stop-color="#006064"/>
    </linearGradient>
</defs>
<text x="600" y="50" fill="#ffffff" font-family="Arial" font-size="28" font-weight="bold" text-anchor="middle">Figura 1.2: Visão Microscópica do Efeito Separador (PMMA)</text><rect x="50" y="150" width="1100" height="400" fill="#111B24" rx="20"/><path d="M 50 180 L 50 172.634291720405 L 80 184.18727412234793 L 110 187.31624941724158 L 140 175.38821526021445 L 170 183.3839579602289 L 200 176.64601708493296 L 230 175.0241532834878 L 260 181.0690587752733 L 290 182.0371558233145 L 320 176.12695643523958 L 350 175.90619381294562 L 380 179.80033364598552 L 410 175.9354009951249 L 440 178.76418502676728" fill="none" stroke="#546e7a" stroke-width="3" opacity="0.6"/><path d="M 750 180 L 750 172.57221815255764 L 780 178.4172911512209 L 810 182.14677528523274 L 840 176.62828717963222 L 870 174.14918660382762 L 900 176.88925099133684 L 930 172.74850903269135 L 960 182.41689188347274 L 990 180.55417682369298 L 1020 186.94622726254624 L 1050 176.56296413403228 L 1080 184.71539209341347 L 1110 174.64106385812713 L 1140 179.5623288428427" fill="none" stroke="#546e7a" stroke-width="3" opacity="0.6"/><path d="M 50 210 L 50 206.86250225506728 L 80 212.9604837330399 L 110 204.67235302935777 L 140 210.76373595707608 L 170 212.92474347593557 L 200 208.3510840629997 L 230 209.32559367944188 L 260 204.06189868034042 L 290 216.58585063205248 L 320 211.66697048633188 L 350 206.59431367618228 L 380 217.44854119522793 L 410 214.16081874159562 L 440 214.5383029436728" fill="none" stroke="#546e7a" stroke-width="3" opacity="0.6"/><path d="M 750 210 L 750 204.0013988216773 L 780 203.69817093432454 L 810 205.6261132148769 L 840 203.56090164186486 L 870 216.37064837831 L 900 213.8562928101682 L 930 205.03196780365948 L 960 213.4771913039272 L 990 204.82563564463325 L 1020 216.07417252330285 L 1050 210.0024162237313 L 1080 211.97675187683487 L 1110 207.80438747623958 L 1140 212.74955451842868" fill="none" stroke="#546e7a" stroke-width="3" opacity="0.6"/><path d="M 50 240 L 50 243.97514680215127 L 80 243.16553388190292 L 110 237.5942035983028 L 140 233.84727709484542 L 170 238.75203460505176 L 200 235.93225886254376 L 230 244.39547110681295 L 260 243.92851209228735 L 290 246.58053494150613 L 320 238.295269092924 L 350 245.2412801318926 L 380 243.76023259750164 L 410 236.16965739055814 L 440 239.29162779866064" fill="none" stroke="#546e7a" stroke-width="3" opacity="0.6"/><path d="M 750 240 L 750 232.66553040318215 L 780 237.2244986259029 L 810 246.82982263380723 L 840 238.87430331370823 L 870 239.09607751875598 L 900 246.00362594828556 L 930 238.5481076445007 L 960 234.6593296172613 L 990 237.38641273601104 L 1020 236.5747657945083 L 1050 245.89319398499939 L 1080 240.3445174892187 L 1110 232.50722476346758 L 1140 239.8517649843789" fill="none" stroke="#546e7a" stroke-width="3" opacity="0.6"/><path d="M 50 270 L 50 277.19288443900336 L 80 265.2805417646174 L 110 274.2512782468867 L 140 272.86851049673305 L 170 272.5794389785504 L 200 267.3803996648661 L 230 277.3118216045678 L 260 262.84314512982144 L 290 272.4060475454482 L 320 267.5188403862437 L 350 266.08906702580043 L 380 266.5559795722835 L 410 273.9832605108069 L 440 269.42111302771445" fill="none" stroke="#546e7a" stroke-width="3" opacity="0.6"/><path d="M 750 270 L 750 275.86460766813843 L 780 264.97049460279226 L 810 270.15850120605984 L 840 264.6406237135008 L 870 265.91978897605577 L 900 264.6158323818044 L 930 271.48304437560796 L 960 273.70499791397094 L 990 272.5500057121594 L 1020 274.9736429776125 L 1050 268.2401885737031 L 1080 268.8133654650307 L 1110 268.6523140411494 L 1140 273.7216718269084" fill="none" stroke="#546e7a" stroke-width="3" opacity="0.6"/><path d="M 50 300 L 50 297.1593986707389 L 80 299.6479467255075 L 110 295.0949086588392 L 140 293.0024517128806 L 170 302.1693572531989 L 200 292.9098981671536 L 230 298.4796251772966 L 260 301.7695623549168 L 290 306.1575115925605 L 320 299.3892735432278 L 350 301.07341657507465 L 380 306.1219419147135 L 410 296.8548044967793 L 440 300.73764535655994" fill="none" stroke="#546e7a" stroke-width="3" opacity="0.6"/><path d="M 750 300 L 750 306.63240948663815 L 780 302.6313790397912 L 810 295.9537201299893 L 840 296.3582669276888 L 870 293.05960616079426 L 900 304.4310120012972 L 930 303.4353723612 L 960 298.5193939659754 L 990 298.29409673092005 L 1020 303.38169111358843 L 1050 305.12968370369754 L 1080 296.76292446663996 L 1110 303.83243388124913 L 1140 293.38884209171795" fill="none" stroke="#546e7a" stroke-width="3" opacity="0.6"/><path d="M 50 330 L 50 327.63190555738737 L 80 330.586294811785 L 110 336.4636806289129 L 140 327.96367625775497 L 170 332.08967518604 L 200 330.21343318649724 L 230 334.3213961958018 L 260 328.8904705419385 L 290 329.1400423658306 L 320 328.51603295840005 L 350 335.0307740421014 L 380 333.6351693618876 L 410 327.6079492060657 L 440 334.4387056881465" fill="none" stroke="#546e7a" stroke-width="3" opacity="0.6"/><path d="M 750 330 L 750 336.051979928567 L 780 332.8252344351279 L 810 327.2509932966398 L 840 329.7926752827856 L 870 328.47685449325826 L 900 326.1248984723179 L 930 337.04749638870413 L 960 331.9971377930324 L 990 331.25365163580443 L 1020 327.38268147321435 L 1050 323.35840126912916 L 1080 330.189072257724 L 1110 327.19129955547 L 1140 334.17494788124503" fill="none" stroke="#546e7a" stroke-width="3" opacity="0.6"/><path d="M 50 360 L 50 363.7197896664049 L 80 361.9093302124763 L 110 362.92392554268565 L 140 356.30198714483464 L 170 353.0106514252092 L 200 364.0822140360081 L 230 353.9004740513364 L 260 357.0021103970388 L 290 357.2140360665191 L 320 364.9172094043316 L 350 360.91792890008 L 380 360.70778098190937 L 410 366.0301170871342 L 440 355.96942362698627" fill="none" stroke="#546e7a" stroke-width="3" opacity="0.6"/><path d="M 750 360 L 750 357.5409445993737 L 780 356.1546909672799 L 810 366.42316196428425 L 840 355.4255996051933 L 870 358.72816928355604 L 900 358.87508729059147 L 930 365.0007852809719 L 960 363.57820454416077 L 990 365.44581897129467 L 1020 366.70613868798495 L 1050 357.1828674329241 L 1080 365.1470576431614 L 1110 361.3151104257191 L 1140 358.5926541385485" fill="none" stroke="#546e7a" stroke-width="3" opacity="0.6"/><path d="M 50 390 L 50 387.17774166521485 L 80 383.7746523176463 L 110 392.08870585328793 L 140 397.4351804552181 L 170 385.824582693058 L 200 394.2817820186592 L 230 390.0891985383707 L 260 383.2071344870777 L 290 397.4753155326558 L 320 389.60777796894496 L 350 387.0399924435075 L 380 392.683222177409 L 410 397.205450718441 L 440 385.44055651720697" fill="none" stroke="#546e7a" stroke-width="3" opacity="0.6"/><path d="M 750 390 L 750 384.8632422870422 L 780 390.098928109211 L 810 390.64293111053144 L 840 383.538211772281 L 870 390.0988789294558 L 900 393.2966890765391 L 930 393.08575192481004 L 960 391.0287927654041 L 990 390.92100560595054 L 1020 392.1972329584669 L 1050 382.7891031151168 L 1080 388.68915757296014 L 1110 385.96527696416115 L 1140 395.11942778149853" fill="none" stroke="#546e7a" stroke-width="3" opacity="0.6"/><path d="M 50 420 L 50 419.54045816552014 L 80 426.85195569552434 L 110 412.780205961778 L 140 416.6017282816125 L 170 418.4083667079902 L 200 416.46057375688497 L 230 417.4418135576254 L 260 417.384943248954 L 290 413.62887396688916 L 320 417.51849189682207 L 350 422.7376858728624 L 380 414.8514833900493 L 410 415.3792561013054 L 440 426.58321364790237" fill="none" stroke="#546e7a" stroke-width="3" opacity="0.6"/><path d="M 750 420 L 750 418.5465210369894 L 780 417.0487776779868 L 810 424.9116664654296 L 840 418.0876864575356 L 870 417.4696055266939 L 900 426.66211183821133 L 930 419.4795599381299 L 960 417.22689241640006 L 990 415.01422414571454 L 1020 417.0911393229663 L 1050 413.00124124798214 L 1080 424.81624707274915 L 1110 425.3825980522005 L 1140 419.1387345872719" fill="none" stroke="#546e7a" stroke-width="3" opacity="0.6"/><path d="M 50 450 L 50 449.48231017495846 L 80 455.666683140329 L 110 446.7989138427113 L 140 445.9111843901275 L 170 455.8761970139847 L 200 450.60857705487973 L 230 442.5746001635973 L 260 456.4919139113639 L 290 446.0035779998007 L 320 447.224059442208 L 350 453.38348476390286 L 380 449.23733283663967 L 410 452.54868753413945 L 440 456.6468915223701" fill="none" stroke="#546e7a" stroke-width="3" opacity="0.6"/><path d="M 750 450 L 750 457.31221792358366 L 780 456.2601826858379 L 810 445.1664970509225 L 840 451.0045003968633 L 870 448.5435119702696 L 900 449.65743103171127 L 930 452.83580781937604 L 960 457.30019369280717 L 990 449.12484569860555 L 1020 450.77910662256244 L 1050 445.82343358236415 L 1080 453.32743057907015 L 1110 455.84257076339867 L 1140 457.3177665258671" fill="none" stroke="#546e7a" stroke-width="3" opacity="0.6"/><path d="M 50 480 L 50 486.2214141348678 L 80 477.0181030489192 L 110 479.90823241893366 L 140 481.13745980044735 L 170 473.8959145184723 L 200 473.59023139435044 L 230 480.7016597224 L 260 477.7392192187348 L 290 483.1205953458702 L 320 486.6785361465801 L 350 475.24275615671786 L 380 482.43016266006634 L 410 473.07508270069064 L 440 475.3851030504798" fill="none" stroke="#546e7a" stroke-width="3" opacity="0.6"/><path d="M 750 480 L 750 484.61217277466903 L 780 486.9966585064903 L 810 487.0716185967784 L 840 475.97364343164566 L 870 485.8705493606377 L 900 478.1277908346628 L 930 482.4006936100819 L 960 486.39968660053137 L 990 482.0538101820461 L 1020 475.76086784881977 L 1050 479.7477667343577 L 1080 476.19818767794334 L 1110 479.18904342584773 L 1140 480.02996886417" fill="none" stroke="#546e7a" stroke-width="3" opacity="0.6"/><path d="M 50 510 L 50 508.6133419373055 L 80 515.9157086265933 L 110 505.8133859107218 L 140 504.08204516030725 L 170 516.7259928300576 L 200 517.00585863336 L 230 508.67664710753485 L 260 507.8615029539204 L 290 515.4416387030166 L 320 507.92127524403077 L 350 514.8569840012135 L 380 515.3216499046029 L 410 514.2629243361944 L 440 504.27294263045735" fill="none" stroke="#546e7a" stroke-width="3" opacity="0.6"/><path d="M 750 510 L 750 502.8719666287269 L 780 508.2276668715642 L 810 514.9539197079212 L 840 514.0082224165844 L 870 503.6691731428449 L 900 512.2436239326332 L 930 509.63942491729057 L 960 515.0440085599957 L 990 514.0593720963897 L 1020 513.9133694507831 L 1050 503.5483218805083 L 1080 507.99584905779244 L 1110 510.25095245152676 L 1140 508.0665877916393" fill="none" stroke="#546e7a" stroke-width="3" opacity="0.6"/><path d="M 550 440 L 550 350 L 650 260 L 650 440 Z" fill="url(#pmmaGradient)" stroke="#00e5ff" stroke-width="3" filter="url(#pmmaGlow)"/><path d="M 50 180 Q 400 180 530 113.33333333333333 Q 600 -20 670 113.33333333333333 Q 800 180 1150 180" fill="none" stroke="#ff1744" stroke-width="4" filter="url(#pmmaGlow)"/><path d="M 50 205 Q 400 205 530 146.66666666666666 Q 600 30 670 146.66666666666666 Q 800 205 1150 205" fill="none" stroke="#ff1744" stroke-width="4" filter="url(#pmmaGlow)"/><path d="M 50 230 Q 400 230 530 180 Q 600 80 670 180 Q 800 230 1150 230" fill="none" stroke="#ff1744" stroke-width="4" filter="url(#pmmaGlow)"/><path d="M 50 255 Q 400 255 530 213.33333333333334 Q 600 130 670 213.33333333333334 Q 800 255 1150 255" fill="none" stroke="#ff1744" stroke-width="4" filter="url(#pmmaGlow)"/><path d="M 50 280 Q 400 280 530 246.66666666666666 Q 600 180 670 246.66666666666666 Q 800 280 1150 280" fill="none" stroke="#ff1744" stroke-width="4" filter="url(#pmmaGlow)"/><path d="M 50 305 Q 400 305 530 280 Q 600 230 670 280 Q 800 305 1150 305" fill="none" stroke="#ff1744" stroke-width="4" filter="url(#pmmaGlow)"/><path d="M 50 330 Q 400 330 530 313.3333333333333 Q 600 280 670 313.3333333333333 Q 800 330 1150 330" fill="none" stroke="#ff1744" stroke-width="4" filter="url(#pmmaGlow)"/><path d="M 50 360 Q 400 360 530 370 Q 600 380 670 370 Q 800 360 1150 360" fill="none" stroke="#ff1744" stroke-width="4" filter="url(#pmmaGlow)"/><path d="M 50 385 Q 400 385 530 401.25 Q 600 417.5 670 401.25 Q 800 385 1150 385" fill="none" stroke="#ff1744" stroke-width="4" filter="url(#pmmaGlow)"/><path d="M 50 410 Q 400 410 530 432.5 Q 600 455 670 432.5 Q 800 410 1150 410" fill="none" stroke="#ff1744" stroke-width="4" filter="url(#pmmaGlow)"/><path d="M 50 435 Q 400 435 530 463.75 Q 600 492.5 670 463.75 Q 800 435 1150 435" fill="none" stroke="#ff1744" stroke-width="4" filter="url(#pmmaGlow)"/><path d="M 50 460 Q 400 460 530 495 Q 600 530 670 495 Q 800 460 1150 460" fill="none" stroke="#ff1744" stroke-width="4" filter="url(#pmmaGlow)"/><path d="M 50 485 Q 400 485 530 526.25 Q 600 567.5 670 526.25 Q 800 485 1150 485" fill="none" stroke="#ff1744" stroke-width="4" filter="url(#pmmaGlow)"/><path d="M 50 510 Q 400 510 530 557.5 Q 600 605 670 557.5 Q 800 510 1150 510" fill="none" stroke="#ff1744" stroke-width="4" filter="url(#pmmaGlow)"/><path d="M 200 350 L 100 350" stroke="#ff1744" stroke-width="6" fill="none" marker-end="url(#arrowTense)"/><path d="M 1000 350 L 1100 350" stroke="#ff1744" stroke-width="6" fill="none" marker-end="url(#arrowTense)"/><text x="150" y="330" fill="#ff1744" font-family="Arial" font-size="18" font-weight="bold" text-anchor="middle">Tensão Radial (VR)</text><text x="1050" y="330" fill="#ff1744" font-family="Arial" font-size="18" font-weight="bold" text-anchor="middle">Tensão Radial (VR)</text>
<defs>
    <marker id="arrowTense" viewBox="0 0 10 10" refX="5" refY="5" markerWidth="6" markerHeight="6" orient="auto-start-reverse">
        <path d="M 0 0 L 10 5 L 0 10 z" fill="#ff1744"/>
    </marker>
</defs>
<rect x="100" y="580" width="1000" height="90" fill="#111B24" rx="8" stroke="#333"/><text x="600" y="615" fill="#00e5ff" font-family="Arial" font-size="22" font-weight="bold" text-anchor="middle">O PMMA Atua como uma Cunha Expansora</text><text x="600" y="645" fill="#cfd8dc" font-family="Arial" font-size="16" text-anchor="middle">Adicionar volume entre lamelas inextensíveis gera separação vertical, que o tecido tenta compensar gerando tração horizontal massiva nas fibras radiais.</text></svg>