<svg viewBox="0 0 1200 800" xmlns="http://www.w3.org/2000/svg"><rect width="1200" height="800" fill="#0a1118"/><text x="600" y="50" fill="#ffffff" font-family="Arial" font-size="28" font-weight="bold" text-anchor="middle">Figura 1.1: Anatomia Estrutural da Córnea (6 Camadas)</text><rect x="100" y="100" width="800" height="80" fill="#291b2c" stroke="#e040fb" stroke-width="2"/><line x1="100" y1="100" x2="900" y2="100" stroke="#e040fb" stroke-width="1" opacity="0.3"/><line x1="100" y1="116" x2="900" y2="116" stroke="#e040fb" stroke-width="1" opacity="0.3"/><line x1="100" y1="132" x2="900" y2="132" stroke="#e040fb" stroke-width="1" opacity="0.3"/><line x1="100" y1="148" x2="900" y2="148" stroke="#e040fb" stroke-width="1" opacity="0.3"/><line x1="100" y1="164" x2="900" y2="164" stroke="#e040fb" stroke-width="1" opacity="0.3"/><text x="920" y="145" fill="#e040fb" font-family="Arial" font-size="22" font-weight="bold">1. Epitélio (50µm)</text><text x="920" y="165" fill="#cfd8dc" font-family="Arial" font-size="14">5-7 camadas de células descamativas</text><rect x="100" y="180" width="800" height="30" fill="#3e2723" stroke="#ff5252" stroke-width="2"/><text x="920" y="200" fill="#ff5252" font-family="Arial" font-size="22" font-weight="bold">2. MB de Bowman (15µm)</text><rect x="100" y="210" width="800" height="400" fill="#111B24" stroke="#00e5ff" stroke-width="2"/><rect x="100" y="210" width="800" height="100" fill="#00e5ff" opacity="0.1"/><text x="120" y="260" fill="#00e5ff" font-family="Arial" font-size="18" font-weight="bold">Estroma Anterior (Trama densa, oblíquas)</text><path d="M 100 220 L 100 221.94370467101604 L 130 220.74755118210624 L 160 220.97506609787655 L 190 223.9040206751896 L 220 216.86106721237363 L 250 218.90355788047472 L 280 221.9277226788705 L 310 216.42629022806221 L 340 224.44536613343618 L 370 220.12348930539397 L 400 219.6716106191807 L 430 224.0141976740707 L 460 221.58000138192327 L 490 219.65899732874868 L 520 219.05398097354484 L 550 219.53900622552763 L 580 223.6258289923863 L 610 222.2116792970119 L 640 219.39927826088731 L 670 224.09187689775595 L 700 220.96995473161573 L 730 224.01461433070162 L 760 222.12736580708733 L 790 215.43606443145396 L 820 217.96158309351912 L 850 217.41754351699353 L 880 218.03872494012853" fill="none" stroke="#00e5ff" stroke-width="2" opacity="0.6"/><path d="M 100 235 L 100 237.96299306652998 L 130 233.618864839446 L 160 232.39111025950425 L 190 232.69588249068835 L 220 238.732577151244 L 250 234.79763850744217 L 280 234.79822501325398 L 310 230.81569800571134 L 340 238.2835074990473 L 370 237.60414482221557 L 400 232.58314529675096 L 430 232.70306440872315 L 460 231.3551439607405 L 490 236.68855404819564 L 520 237.0994260730641 L 550 232.1863677049314 L 580 230.21789971655593 L 610 233.26809094180652 L 640 235.56441407794634 L 670 233.25038618842703 L 700 237.8585697171144 L 730 234.91928804649558 L 760 231.1059780818072 L 790 232.33146828629478 L 820 236.14719596986 L 850 237.8456251982519 L 880 230.87947757457655" fill="none" stroke="#00e5ff" stroke-width="2" opacity="0.6"/><path d="M 100 250 L 100 245.70616340397797 L 130 254.10149803588456 L 160 254.9656093397534 L 190 251.8795474245561 L 220 254.41679327782492 L 250 245.10018141759275 L 280 250.54574667697202 L 310 246.318964579471 L 340 251.9484354455653 L 370 251.16094357149728 L 400 253.16312417223338 L 430 247.9938340789385 L 460 249.91796121808267 L 490 245.44424203277737 L 520 251.3422749419575 L 550 245.85303990559552 L 580 246.47470303945784 L 610 247.1571791506668 L 640 253.14389438604948 L 670 253.19750692043758 L 700 246.8898501328965 L 730 253.27502870199558 L 760 248.11746439184424 L 790 252.19120042401596 L 820 252.53390695449644 L 850 249.2558527933831 L 880 245.16922790775916" fill="none" stroke="#00e5ff" stroke-width="2" opacity="0.6"/><path d="M 100 265 L 100 268.5603507771711 L 130 263.70242775287386 L 160 266.3382019460447 L 190 267.6452138984657 L 220 264.4151402308949 L 250 265.4019382269099 L 280 260.4204940123411 L 310 266.75757309639647 L 340 260.95927208056634 L 370 265.5150702287036 L 400 266.43270396183965 L 430 268.29745291690335 L 460 267.8411683090355 L 490 265.0670750318083 L 520 262.84296275021836 L 550 266.6607503776994 L 580 260.5049108651436 L 610 264.19119095961264 L 640 265.31913868872226 L 670 260.22614705686465 L 700 266.2417627227081 L 730 260.4054982232836 L 760 260.328464050611 L 790 262.8892854414675 L 820 269.75357737476855 L 850 263.7879035656451 L 880 262.8691051166214" fill="none" stroke="#00e5ff" stroke-width="2" opacity="0.6"/><path d="M 100 280 L 100 276.9173742487181 L 130 281.8423877251412 L 160 280.8089960112267 L 190 275.06434586936365 L 220 281.59499554787266 L 250 279.5210729297171 L 280 276.74562688847726 L 310 276.8134456192247 L 340 284.37555306996995 L 370 283.87773780694806 L 400 276.5349569360442 L 430 281.93467194929616 L 460 276.1877543136544 L 490 283.8076464021035 L 520 284.45956832372065 L 550 276.50619055080836 L 580 281.8684214141157 L 610 275.36229074052363 L 640 278.3234047308859 L 670 277.62072577732533 L 700 279.81087299239994 L 730 284.0385587015368 L 760 275.6123025152027 L 790 279.7306007977354 L 820 283.8171572566826 L 850 278.26899980685226 L 880 277.05320778579494" fill="none" stroke="#00e5ff" stroke-width="2" opacity="0.6"/><path d="M 100 295 L 100 299.98956393734204 L 130 297.7732289479669 L 160 291.85468445648394 L 190 296.003826187055 L 220 297.16175199310624 L 250 295.868826773222 L 280 291.7626214607509 L 310 294.7523185729167 L 340 292.5897682783247 L 370 299.77902144985507 L 400 294.283065599132 L 430 292.11163953871 L 460 299.4044288034519 L 490 290.2361783421242 L 520 290.59169885670985 L 550 299.3931364703314 L 580 297.1934333790983 L 610 295.6696842306117 L 640 293.61863191067084 L 670 294.4803401791065 L 700 292.36739882521994 L 730 295.1836523907529 L 760 291.63335033680414 L 790 295.5997718974182 L 820 293.3437942856706 L 850 295.5066100798145 L 880 291.45719049578975" fill="none" stroke="#00e5ff" stroke-width="2" opacity="0.6"/><text x="120" y="460" fill="#0091ea" font-family="Arial" font-size="18" font-weight="bold">Estroma Posterior (Lamelas frouxas organizadas)</text><path d="M 100 320 Q 130 330 160 320 Q 190 330 220 320 Q 250 330 280 320 Q 310 330 340 320 Q 370 330 400 320 Q 430 330 460 320 Q 490 330 520 320 Q 550 330 580 320 Q 610 330 640 320 Q 670 330 700 320 Q 730 330 760 320 Q 790 330 820 320 Q 850 330 880 320 Q 910 330 940 320" fill="none" stroke="#0091ea" stroke-width="3" opacity="0.4"/><path d="M 100 345 Q 130 355 160 345 Q 190 355 220 345 Q 250 355 280 345 Q 310 355 340 345 Q 370 355 400 345 Q 430 355 460 345 Q 490 355 520 345 Q 550 355 580 345 Q 610 355 640 345 Q 670 355 700 345 Q 730 355 760 345 Q 790 355 820 345 Q 850 355 880 345 Q 910 355 940 345" fill="none" stroke="#0091ea" stroke-width="3" opacity="0.4"/><path d="M 100 370 Q 130 380 160 370 Q 190 380 220 370 Q 250 380 280 370 Q 310 380 340 370 Q 370 380 400 370 Q 430 380 460 370 Q 490 380 520 370 Q 550 380 580 370 Q 610 380 640 370 Q 670 380 700 370 Q 730 380 760 370 Q 790 380 820 370 Q 850 380 880 370 Q 910 380 940 370" fill="none" stroke="#0091ea" stroke-width="3" opacity="0.4"/><path d="M 100 395 Q 130 405 160 395 Q 190 405 220 395 Q 250 405 280 395 Q 310 405 340 395 Q 370 405 400 395 Q 430 405 460 395 Q 490 405 520 395 Q 550 405 580 395 Q 610 405 640 395 Q 670 405 700 395 Q 730 405 760 395 Q 790 405 820 395 Q 850 405 880 395 Q 910 405 940 395" fill="none" stroke="#0091ea" stroke-width="3" opacity="0.4"/><path d="M 100 420 Q 130 430 160 420 Q 190 430 220 420 Q 250 430 280 420 Q 310 430 340 420 Q 370 430 400 420 Q 430 430 460 420 Q 490 430 520 420 Q 550 430 580 420 Q 610 430 640 420 Q 670 430 700 420 Q 730 430 760 420 Q 790 430 820 420 Q 850 430 880 420 Q 910 430 940 420" fill="none" stroke="#0091ea" stroke-width="3" opacity="0.4"/><path d="M 100 445 Q 130 455 160 445 Q 190 455 220 445 Q 250 455 280 445 Q 310 455 340 445 Q 370 455 400 445 Q 430 455 460 445 Q 490 455 520 445 Q 550 455 580 445 Q 610 455 640 445 Q 670 455 700 445 Q 730 455 760 445 Q 790 455 820 445 Q 850 455 880 445 Q 910 455 940 445" fill="none" stroke="#0091ea" stroke-width="3" opacity="0.4"/><path d="M 100 470 Q 130 480 160 470 Q 190 480 220 470 Q 250 480 280 470 Q 310 480 340 470 Q 370 480 400 470 Q 430 480 460 470 Q 490 480 520 470 Q 550 480 580 470 Q 610 480 640 470 Q 670 480 700 470 Q 730 480 760 470 Q 790 480 820 470 Q 850 480 880 470 Q 910 480 940 470" fill="none" stroke="#0091ea" stroke-width="3" opacity="0.4"/><path d="M 100 495 Q 130 505 160 495 Q 190 505 220 495 Q 250 505 280 495 Q 310 505 340 495 Q 370 505 400 495 Q 430 505 460 495 Q 490 505 520 495 Q 550 505 580 495 Q 610 505 640 495 Q 670 505 700 495 Q 730 505 760 495 Q 790 505 820 495 Q 850 505 880 495 Q 910 505 940 495" fill="none" stroke="#0091ea" stroke-width="3" opacity="0.4"/><path d="M 100 520 Q 130 530 160 520 Q 190 530 220 520 Q 250 530 280 520 Q 310 530 340 520 Q 370 530 400 520 Q 430 530 460 520 Q 490 530 520 520 Q 550 530 580 520 Q 610 530 640 520 Q 670 530 700 520 Q 730 530 760 520 Q 790 530 820 520 Q 850 530 880 520 Q 910 530 940 520" fill="none" stroke="#0091ea" stroke-width="3" opacity="0.4"/><path d="M 100 545 Q 130 555 160 545 Q 190 555 220 545 Q 250 555 280 545 Q 310 555 340 545 Q 370 555 400 545 Q 430 555 460 545 Q 490 555 520 545 Q 550 555 580 545 Q 610 555 640 545 Q 670 555 700 545 Q 730 555 760 545 Q 790 555 820 545 Q 850 555 880 545 Q 910 555 940 545" fill="none" stroke="#0091ea" stroke-width="3" opacity="0.4"/><path d="M 100 570 Q 130 580 160 570 Q 190 580 220 570 Q 250 580 280 570 Q 310 580 340 570 Q 370 580 400 570 Q 430 580 460 570 Q 490 580 520 570 Q 550 580 580 570 Q 610 580 640 570 Q 670 580 700 570 Q 730 580 760 570 Q 790 580 820 570 Q 850 580 880 570 Q 910 580 940 570" fill="none" stroke="#0091ea" stroke-width="3" opacity="0.4"/><path d="M 100 595 Q 130 605 160 595 Q 190 605 220 595 Q 250 605 280 595 Q 310 605 340 595 Q 370 605 400 595 Q 430 605 460 595 Q 490 605 520 595 Q 550 605 580 595 Q 610 605 640 595 Q 670 605 700 595 Q 730 605 760 595 Q 790 605 820 595 Q 850 605 880 595 Q 910 605 940 595" fill="none" stroke="#0091ea" stroke-width="3" opacity="0.4"/><text x="920" y="410" fill="#00e5ff" font-family="Arial" font-size="24" font-weight="bold">3. Estroma (~450µm)</text><text x="920" y="435" fill="#cfd8dc" font-family="Arial" font-size="14">90% da espessura. Colágeno I.</text><rect x="100" y="610" width="800" height="30" fill="#33691e" stroke="#76ff03" stroke-width="2"/><text x="920" y="630" fill="#76ff03" font-family="Arial" font-size="22" font-weight="bold">4. Camada de Dua (15µm)</text><rect x="100" y="640" width="800" height="20" fill="#263238" stroke="#ffeb3b" stroke-width="2"/><text x="920" y="655" fill="#ffeb3b" font-family="Arial" font-size="22" font-weight="bold">5. MB de Descemet (10µm)</text><rect x="100" y="660" width="800" height="15" fill="#1b0000" stroke="#ff3d00" stroke-width="2"/><circle cx="110" cy="667" r="4" fill="#ff3d00"/><circle cx="135" cy="667" r="4" fill="#ff3d00"/><circle cx="160" cy="667" r="4" fill="#ff3d00"/><circle cx="185" cy="667" r="4" fill="#ff3d00"/><circle cx="210" cy="667" r="4" fill="#ff3d00"/><circle cx="235" cy="667" r="4" fill="#ff3d00"/><circle cx="260" cy="667" r="4" fill="#ff3d00"/><circle cx="285" cy="667" r="4" fill="#ff3d00"/><circle cx="310" cy="667" r="4" fill="#ff3d00"/><circle cx="335" cy="667" r="4" fill="#ff3d00"/><circle cx="360" cy="667" r="4" fill="#ff3d00"/><circle cx="385" cy="667" r="4" fill="#ff3d00"/><circle cx="410" cy="667" r="4" fill="#ff3d00"/><circle cx="435" cy="667" r="4" fill="#ff3d00"/><circle cx="460" cy="667" r="4" fill="#ff3d00"/><circle cx="485" cy="667" r="4" fill="#ff3d00"/><circle cx="510" cy="667" r="4" fill="#ff3d00"/><circle cx="535" cy="667" r="4" fill="#ff3d00"/><circle cx="560" cy="667" r="4" fill="#ff3d00"/><circle cx="585" cy="667" r="4" fill="#ff3d00"/><circle cx="610" cy="667" r="4" fill="#ff3d00"/><circle cx="635" cy="667" r="4" fill="#ff3d00"/><circle cx="660" cy="667" r="4" fill="#ff3d00"/><circle cx="685" cy="667" r="4" fill="#ff3d00"/><circle cx="710" cy="667" r="4" fill="#ff3d00"/><circle cx="735" cy="667" r="4" fill="#ff3d00"/><circle cx="760" cy="667" r="4" fill="#ff3d00"/><circle cx="785" cy="667" r="4" fill="#ff3d00"/><circle cx="810" cy="667" r="4" fill="#ff3d00"/><circle cx="835" cy="667" r="4" fill="#ff3d00"/><circle cx="860" cy="667" r="4" fill="#ff3d00"/><circle cx="885" cy="667" r="4" fill="#ff3d00"/><text x="920" y="675" fill="#ff3d00" font-family="Arial" font-size="22" font-weight="bold">6. Endotélio (5µm)</text><text x="920" y="695" fill="#cfd8dc" font-family="Arial" font-size="14">Monocamada bomba atp-dependente</text></svg>