<svg viewBox="0 0 1000 600" xmlns="http://www.w3.org/2000/svg"><rect width="1000" height="600" fill="#0a1118"/><text x="500" y="50" fill="#ffffff" font-family="Arial" font-size="28" font-weight="bold" text-anchor="middle" paint-order="stroke" stroke="#0a1118" stroke-width="4">Figura 1.13b: Como o WAXS mapeia a Córnea</text><rect x="50" y="260" width="60" height="80" fill="#37474f" rx="10"/><rect x="110" y="280" width="20" height="40" fill="#cfd8dc"/><text x="80" y="360" fill="#00e5ff" font-family="Arial" font-size="16" font-weight="bold" text-anchor="middle" paint-order="stroke" stroke="#0a1118" stroke-width="4">Feixe de Raios-X</text><path d="M 130 300 L 410 270 L 410 330 Z" fill="#00e5ff" opacity="0.2"/><line x1="130" y1="300" x2="410" y2="300" stroke="#00e5ff" stroke-width="2" stroke-dasharray="5,5"/><rect x="410" y="150" width="40" height="300" fill="#111B24" stroke="#ffeb3b" stroke-width="2"/><text x="430" y="120" fill="#ffeb3b" font-family="Arial" font-size="18" font-weight="bold" text-anchor="middle" paint-order="stroke" stroke="#0a1118" stroke-width="4">Anterior (30%)</text><text x="430" y="140" fill="#cfd8dc" font-family="Arial" font-size="12" text-anchor="middle">Isotrópico / Oblíquas</text><rect x="450" y="150" width="100" height="300" fill="#0A1118" stroke="#ff5252" stroke-width="3"/><text x="500" y="90" fill="#ff5252" font-family="Arial" font-size="20" font-weight="bold" text-anchor="middle" paint-order="stroke" stroke="#0a1118" stroke-width="4">Posterior (70%)</text><text x="500" y="110" fill="#cfd8dc" font-family="Arial" font-size="14" text-anchor="middle">Lamelas Ortotrópicas (Sinal Dominante)</text><line x1="455" y1="160" x2="545" y2="160" stroke="#ff5252" stroke-width="4"/><line x1="455" y1="180" x2="545" y2="180" stroke="#ff5252" stroke-width="4"/><line x1="455" y1="200" x2="545" y2="200" stroke="#ff5252" stroke-width="4"/><line x1="455" y1="220" x2="545" y2="220" stroke="#ff5252" stroke-width="4"/><line x1="455" y1="240" x2="545" y2="240" stroke="#ff5252" stroke-width="4"/><line x1="455" y1="260" x2="545" y2="260" stroke="#ff5252" stroke-width="4"/><line x1="455" y1="280" x2="545" y2="280" stroke="#ff5252" stroke-width="4"/><line x1="455" y1="300" x2="545" y2="300" stroke="#ff5252" stroke-width="4"/><line x1="455" y1="320" x2="545" y2="320" stroke="#ff5252" stroke-width="4"/><line x1="455" y1="340" x2="545" y2="340" stroke="#ff5252" stroke-width="4"/><line x1="455" y1="360" x2="545" y2="360" stroke="#ff5252" stroke-width="4"/><line x1="455" y1="380" x2="545" y2="380" stroke="#ff5252" stroke-width="4"/><line x1="455" y1="400" x2="545" y2="400" stroke="#ff5252" stroke-width="4"/><line x1="455" y1="420" x2="545" y2="420" stroke="#ff5252" stroke-width="4"/><line x1="455" y1="440" x2="545" y2="440" stroke="#ff5252" stroke-width="4"/><path d="M 450 300 L 750 120 L 750 480 Z" fill="#ffeb3b" opacity="0.1"/><path d="M 550 300 L 800 240 L 800 360 Z" fill="#ff5252" opacity="0.4"/><line x1="550" y1="300" x2="800" y2="300" stroke="#ff5252" stroke-width="4" stroke-dasharray="10,5"/><rect x="800" y="100" width="80" height="400" fill="#263238" stroke="#cfd8dc" stroke-width="4" rx="5"/><ellipse cx="840" cy="300" rx="30" ry="80" fill="none" stroke="#ff5252" stroke-width="4"/><ellipse cx="840" cy="300" rx="80" ry="30" fill="none" stroke="#ffeb3b" stroke-width="2" opacity="0.5"/><text x="840" y="530" fill="#ffffff" font-family="Arial" font-size="18" font-weight="bold" text-anchor="middle" paint-order="stroke" stroke="#0a1118" stroke-width="4">Padrão de Difração (WAXS)</text><text x="500" y="570" fill="#cfd8dc" font-family="Arial" font-size="14" text-anchor="middle" paint-order="stroke" stroke="#0a1118" stroke-width="4">O sinal final lido pelo WAXS representa predominantemente (80% do sinal) a organização das lamelas do estroma posterior.</text></svg>