<svg viewBox="0 0 1200 700" xmlns="http://www.w3.org/2000/svg"><rect width="1200" height="700" fill="#0a1118"/><text x="600" y="50" fill="#ffffff" font-family="Arial" font-size="28" font-weight="bold" text-anchor="middle" paint-order="stroke" stroke="#0a1118" stroke-width="4">Figura 1.4: A Catástrofe Lamelar (4 Passos)</text><rect x="20" y="80" width="360" height="40" rx="8" fill="#00e676" opacity="0.15"/><text x="200" y="105" fill="#00e676" font-family="Arial" font-size="20" font-weight="bold" text-anchor="middle" paint-order="stroke" stroke="#0a1118" stroke-width="4">1. Malha Intacta (Normal)</text><rect x="0" y="150" width="400" height="120" fill="#111B24" rx="10" stroke="#333" stroke-width="2"/><line x1="20" y1="170" x2="380" y2="170" stroke="#cfd8dc" stroke-width="6"/><line x1="60" y1="170" x2="80" y2="190" stroke="#00e676" stroke-width="4"/><line x1="100" y1="170" x2="120" y2="190" stroke="#00e676" stroke-width="4"/><line x1="140" y1="170" x2="160" y2="190" stroke="#00e676" stroke-width="4"/><line x1="180" y1="170" x2="200" y2="190" stroke="#00e676" stroke-width="4"/><line x1="220" y1="170" x2="240" y2="190" stroke="#00e676" stroke-width="4"/><line x1="260" y1="170" x2="280" y2="190" stroke="#00e676" stroke-width="4"/><line x1="300" y1="170" x2="320" y2="190" stroke="#00e676" stroke-width="4"/><line x1="340" y1="170" x2="360" y2="190" stroke="#00e676" stroke-width="4"/><line x1="20" y1="190" x2="380" y2="190" stroke="#cfd8dc" stroke-width="6"/><line x1="60" y1="190" x2="80" y2="210" stroke="#00e676" stroke-width="4"/><line x1="100" y1="190" x2="120" y2="210" stroke="#00e676" stroke-width="4"/><line x1="140" y1="190" x2="160" y2="210" stroke="#00e676" stroke-width="4"/><line x1="180" y1="190" x2="200" y2="210" stroke="#00e676" stroke-width="4"/><line x1="220" y1="190" x2="240" y2="210" stroke="#00e676" stroke-width="4"/><line x1="260" y1="190" x2="280" y2="210" stroke="#00e676" stroke-width="4"/><line x1="300" y1="190" x2="320" y2="210" stroke="#00e676" stroke-width="4"/><line x1="340" y1="190" x2="360" y2="210" stroke="#00e676" stroke-width="4"/><line x1="20" y1="210" x2="380" y2="210" stroke="#cfd8dc" stroke-width="6"/><line x1="60" y1="210" x2="80" y2="230" stroke="#00e676" stroke-width="4"/><line x1="100" y1="210" x2="120" y2="230" stroke="#00e676" stroke-width="4"/><line x1="140" y1="210" x2="160" y2="230" stroke="#00e676" stroke-width="4"/><line x1="180" y1="210" x2="200" y2="230" stroke="#00e676" stroke-width="4"/><line x1="220" y1="210" x2="240" y2="230" stroke="#00e676" stroke-width="4"/><line x1="260" y1="210" x2="280" y2="230" stroke="#00e676" stroke-width="4"/><line x1="300" y1="210" x2="320" y2="230" stroke="#00e676" stroke-width="4"/><line x1="340" y1="210" x2="360" y2="230" stroke="#00e676" stroke-width="4"/><line x1="20" y1="230" x2="380" y2="230" stroke="#cfd8dc" stroke-width="6"/><line x1="60" y1="230" x2="80" y2="250" stroke="#00e676" stroke-width="4"/><line x1="100" y1="230" x2="120" y2="250" stroke="#00e676" stroke-width="4"/><line x1="140" y1="230" x2="160" y2="250" stroke="#00e676" stroke-width="4"/><line x1="180" y1="230" x2="200" y2="250" stroke="#00e676" stroke-width="4"/><line x1="220" y1="230" x2="240" y2="250" stroke="#00e676" stroke-width="4"/><line x1="260" y1="230" x2="280" y2="250" stroke="#00e676" stroke-width="4"/><line x1="300" y1="230" x2="320" y2="250" stroke="#00e676" stroke-width="4"/><line x1="340" y1="230" x2="360" y2="250" stroke="#00e676" stroke-width="4"/><line x1="20" y1="250" x2="380" y2="250" stroke="#cfd8dc" stroke-width="6"/><rect x="520" y="80" width="360" height="40" rx="8" fill="#ffb300" opacity="0.15"/><text x="700" y="105" fill="#ffb300" font-family="Arial" font-size="20" font-weight="bold" text-anchor="middle" paint-order="stroke" stroke="#0a1118" stroke-width="4">2. Degradação Enzimática</text><rect x="500" y="150" width="400" height="120" fill="#111B24" rx="10" stroke="#333" stroke-width="2"/><line x1="520" y1="170" x2="880" y2="170" stroke="#cfd8dc" stroke-width="6"/><line x1="560" y1="170" x2="570" y2="180" stroke="#ffb300" stroke-width="4" stroke-dasharray="2,2"/><circle cx="565" cy="175" r="4" fill="#ffb300"/><line x1="600" y1="170" x2="610" y2="180" stroke="#ffb300" stroke-width="4" stroke-dasharray="2,2"/><circle cx="605" cy="175" r="4" fill="#ffb300"/><line x1="640" y1="170" x2="650" y2="180" stroke="#ffb300" stroke-width="4" stroke-dasharray="2,2"/><circle cx="645" cy="175" r="4" fill="#ffb300"/><line x1="680" y1="170" x2="690" y2="180" stroke="#ffb300" stroke-width="4" stroke-dasharray="2,2"/><circle cx="685" cy="175" r="4" fill="#ffb300"/><line x1="720" y1="170" x2="730" y2="180" stroke="#ffb300" stroke-width="4" stroke-dasharray="2,2"/><circle cx="725" cy="175" r="4" fill="#ffb300"/><line x1="760" y1="170" x2="770" y2="180" stroke="#ffb300" stroke-width="4" stroke-dasharray="2,2"/><circle cx="765" cy="175" r="4" fill="#ffb300"/><line x1="800" y1="170" x2="810" y2="180" stroke="#ffb300" stroke-width="4" stroke-dasharray="2,2"/><circle cx="805" cy="175" r="4" fill="#ffb300"/><line x1="840" y1="170" x2="850" y2="180" stroke="#ffb300" stroke-width="4" stroke-dasharray="2,2"/><circle cx="845" cy="175" r="4" fill="#ffb300"/><line x1="520" y1="190" x2="880" y2="190" stroke="#cfd8dc" stroke-width="6"/><line x1="560" y1="190" x2="570" y2="200" stroke="#ffb300" stroke-width="4" stroke-dasharray="2,2"/><circle cx="565" cy="195" r="4" fill="#ffb300"/><line x1="600" y1="190" x2="610" y2="200" stroke="#ffb300" stroke-width="4" stroke-dasharray="2,2"/><circle cx="605" cy="195" r="4" fill="#ffb300"/><line x1="640" y1="190" x2="650" y2="200" stroke="#ffb300" stroke-width="4" stroke-dasharray="2,2"/><circle cx="645" cy="195" r="4" fill="#ffb300"/><line x1="680" y1="190" x2="690" y2="200" stroke="#ffb300" stroke-width="4" stroke-dasharray="2,2"/><circle cx="685" cy="195" r="4" fill="#ffb300"/><line x1="720" y1="190" x2="730" y2="200" stroke="#ffb300" stroke-width="4" stroke-dasharray="2,2"/><circle cx="725" cy="195" r="4" fill="#ffb300"/><line x1="760" y1="190" x2="770" y2="200" stroke="#ffb300" stroke-width="4" stroke-dasharray="2,2"/><circle cx="765" cy="195" r="4" fill="#ffb300"/><line x1="800" y1="190" x2="810" y2="200" stroke="#ffb300" stroke-width="4" stroke-dasharray="2,2"/><circle cx="805" cy="195" r="4" fill="#ffb300"/><line x1="840" y1="190" x2="850" y2="200" stroke="#ffb300" stroke-width="4" stroke-dasharray="2,2"/><circle cx="845" cy="195" r="4" fill="#ffb300"/><line x1="520" y1="210" x2="880" y2="210" stroke="#cfd8dc" stroke-width="6"/><line x1="560" y1="210" x2="570" y2="220" stroke="#ffb300" stroke-width="4" stroke-dasharray="2,2"/><circle cx="565" cy="215" r="4" fill="#ffb300"/><line x1="600" y1="210" x2="610" y2="220" stroke="#ffb300" stroke-width="4" stroke-dasharray="2,2"/><circle cx="605" cy="215" r="4" fill="#ffb300"/><line x1="640" y1="210" x2="650" y2="220" stroke="#ffb300" stroke-width="4" stroke-dasharray="2,2"/><circle cx="645" cy="215" r="4" fill="#ffb300"/><line x1="680" y1="210" x2="690" y2="220" stroke="#ffb300" stroke-width="4" stroke-dasharray="2,2"/><circle cx="685" cy="215" r="4" fill="#ffb300"/><line x1="720" y1="210" x2="730" y2="220" stroke="#ffb300" stroke-width="4" stroke-dasharray="2,2"/><circle cx="725" cy="215" r="4" fill="#ffb300"/><line x1="760" y1="210" x2="770" y2="220" stroke="#ffb300" stroke-width="4" stroke-dasharray="2,2"/><circle cx="765" cy="215" r="4" fill="#ffb300"/><line x1="800" y1="210" x2="810" y2="220" stroke="#ffb300" stroke-width="4" stroke-dasharray="2,2"/><circle cx="805" cy="215" r="4" fill="#ffb300"/><line x1="840" y1="210" x2="850" y2="220" stroke="#ffb300" stroke-width="4" stroke-dasharray="2,2"/><circle cx="845" cy="215" r="4" fill="#ffb300"/><line x1="520" y1="230" x2="880" y2="230" stroke="#cfd8dc" stroke-width="6"/><line x1="560" y1="230" x2="570" y2="240" stroke="#ffb300" stroke-width="4" stroke-dasharray="2,2"/><circle cx="565" cy="235" r="4" fill="#ffb300"/><line x1="600" y1="230" x2="610" y2="240" stroke="#ffb300" stroke-width="4" stroke-dasharray="2,2"/><circle cx="605" cy="235" r="4" fill="#ffb300"/><line x1="640" y1="230" x2="650" y2="240" stroke="#ffb300" stroke-width="4" stroke-dasharray="2,2"/><circle cx="645" cy="235" r="4" fill="#ffb300"/><line x1="680" y1="230" x2="690" y2="240" stroke="#ffb300" stroke-width="4" stroke-dasharray="2,2"/><circle cx="685" cy="235" r="4" fill="#ffb300"/><line x1="720" y1="230" x2="730" y2="240" stroke="#ffb300" stroke-width="4" stroke-dasharray="2,2"/><circle cx="725" cy="235" r="4" fill="#ffb300"/><line x1="760" y1="230" x2="770" y2="240" stroke="#ffb300" stroke-width="4" stroke-dasharray="2,2"/><circle cx="765" cy="235" r="4" fill="#ffb300"/><line x1="800" y1="230" x2="810" y2="240" stroke="#ffb300" stroke-width="4" stroke-dasharray="2,2"/><circle cx="805" cy="235" r="4" fill="#ffb300"/><line x1="840" y1="230" x2="850" y2="240" stroke="#ffb300" stroke-width="4" stroke-dasharray="2,2"/><circle cx="845" cy="235" r="4" fill="#ffb300"/><line x1="520" y1="250" x2="880" y2="250" stroke="#cfd8dc" stroke-width="6"/><rect x="20" y="380" width="360" height="40" rx="8" fill="#ff7043" opacity="0.15"/><text x="200" y="405" fill="#ff7043" font-family="Arial" font-size="20" font-weight="bold" text-anchor="middle" paint-order="stroke" stroke="#0a1118" stroke-width="4">3. Deslizamento (Slippage)</text><rect x="0" y="450" width="400" height="120" fill="#111B24" rx="10" stroke="#333" stroke-width="2"/><line x1="20" y1="470" x2="380" y2="470" stroke="#cfd8dc" stroke-width="6"/><line x1="50" y1="490" x2="410" y2="490" stroke="#cfd8dc" stroke-width="6"/><path d="M 420 490 L 400 480 L 400 500 Z" fill="#ff7043"/><line x1="20" y1="510" x2="380" y2="510" stroke="#cfd8dc" stroke-width="6"/><line x1="-10" y1="530" x2="350" y2="530" stroke="#cfd8dc" stroke-width="6"/><path d="M 360 530 L 340 520 L 340 540 Z" fill="#ff7043"/><line x1="20" y1="550" x2="380" y2="550" stroke="#cfd8dc" stroke-width="6"/><rect x="520" y="380" width="360" height="40" rx="8" fill="#ff1744" opacity="0.15"/><text x="700" y="405" fill="#ff1744" font-family="Arial" font-size="20" font-weight="bold" text-anchor="middle" paint-order="stroke" stroke="#0a1118" stroke-width="4">4. Protrusão (Ectasia)</text><rect x="500" y="450" width="400" height="120" fill="#111B24" rx="10" stroke="#333" stroke-width="2"/><path d="M 520 470 Q 700 450 880 470" fill="none" stroke="#cfd8dc" stroke-width="6"/><path d="M 520 490 Q 700 450 880 490" fill="none" stroke="#cfd8dc" stroke-width="6"/><path d="M 520 510 Q 700 450 880 510" fill="none" stroke="#cfd8dc" stroke-width="6"/><path d="M 520 530 Q 700 490 880 530" fill="none" stroke="#cfd8dc" stroke-width="6"/><path d="M 520 550 Q 700 530 880 550" fill="none" stroke="#cfd8dc" stroke-width="6"/><line x1="700" y1="600" x2="700" y2="550" stroke="#ff1744" stroke-width="6" marker-end="url(#arrowEctasia)"/><text x="700" y="620" fill="#ff1744" font-family="Arial" font-size="16" font-weight="bold" text-anchor="middle" paint-order="stroke" stroke="#0a1118" stroke-width="4">Força Ectásica (PIO focal)</text>
<defs>
    <marker id="arrowEctasia" viewBox="0 0 10 10" refX="5" refY="5" markerWidth="6" markerHeight="6" orient="auto-start-reverse">
        <path d="M 0 0 L 10 5 L 0 10 z" fill="#ff1744"/>
    </marker>
</defs>
</svg>