<svg viewBox="0 0 900 900" xmlns="http://www.w3.org/2000/svg"><rect width="900" height="900" fill="#0a1118"/>
<defs>
    <filter id="glow" x="-20%" y="-20%" width="140%" height="140%">
        <feGaussianBlur stdDeviation="3" result="blur" />
        <feMerge>
            <feMergeNode in="blur"/>
            <feMergeNode in="SourceGraphic"/>
        </feMerge>
    </filter>
</defs>
<text x="450" y="50" fill="#ffffff" font-family="Arial" font-size="28" font-weight="bold" text-anchor="middle">Figura 1.11: Ceratocone na Escala das Fibras</text><circle cx="450" cy="450" r="350" fill="#111B24" stroke="#333" stroke-width="2"/><circle cx="450" cy="570" r="100" fill="#ff1744" opacity="0.15" stroke="#ff1744" stroke-width="3" stroke-dasharray="8,4"/><text x="450" y="570" fill="#ff1744" font-family="Arial" font-size="20" font-weight="bold" text-anchor="middle" opacity="0.8">Zona do Cone</text><circle cx="450" cy="450" r="300" fill="none" stroke="#2196f3" stroke-width="3" opacity="0.8" filter="url(#glow)"/><circle cx="450" cy="450" r="315" fill="none" stroke="#2196f3" stroke-width="3" opacity="0.8" filter="url(#glow)"/><circle cx="450" cy="450" r="330" fill="none" stroke="#2196f3" stroke-width="3" opacity="0.8" filter="url(#glow)"/><circle cx="450" cy="450" r="345" fill="none" stroke="#2196f3" stroke-width="3" opacity="0.8" filter="url(#glow)"/><path d="M 500 450 Q 350 550 713.2747685671118 593.8276615812609" fill="none" stroke="#00e676" stroke-width="2" opacity="0.6"/><path d="M 498.2962913144534 462.94095225512604 Q 350 550 667.0785603394603 657.067377056231" fill="none" stroke="#00e676" stroke-width="2" opacity="0.6"/><path d="M 493.30127018922195 475 Q 350 550 606.0888069639573 706.1957929798389" fill="none" stroke="#00e676" stroke-width="1" stroke-dasharray="2,5" opacity="0.3"/><path d="M 485.3553390593274 485.3553390593274 Q 350 550 534.4618593428103 737.8648889954371" fill="none" stroke="#00e676" stroke-width="1" stroke-dasharray="2,5" opacity="0.3"/><path d="M 475 493.30127018922195 Q 350 550 457.07897558727285 749.9164685452181" fill="none" stroke="#00e676" stroke-width="1" stroke-dasharray="2,5" opacity="0.3"/><path d="M 462.94095225512604 498.2962913144534 Q 350 550 379.2136713440231 741.5292363990411" fill="none" stroke="#00e676" stroke-width="1" stroke-dasharray="2,5" opacity="0.3"/><path d="M 450 500 Q 350 550 306.1723384187391 713.2747685671118" fill="none" stroke="#00e676" stroke-width="1" stroke-dasharray="2,5" opacity="0.3"/><path d="M 437.05904774487396 498.2962913144534 Q 350 550 242.93262294376905 667.0785603394602" fill="none" stroke="#00e676" stroke-width="1" stroke-dasharray="2,5" opacity="0.3"/><path d="M 425 493.30127018922195 Q 350 550 193.80420702016107 606.0888069639573" fill="none" stroke="#00e676" stroke-width="2" opacity="0.6"/><path d="M 414.6446609406726 485.3553390593274 Q 350 550 162.13511100456287 534.4618593428103" fill="none" stroke="#00e676" stroke-width="2" opacity="0.6"/><path d="M 406.69872981077805 475 Q 350 550 150.0835314547819 457.07897558727285" fill="none" stroke="#00e676" stroke-width="2" opacity="0.6"/><path d="M 401.7037086855466 462.94095225512604 Q 350 550 158.47076360095883 379.21367134402317" fill="none" stroke="#00e676" stroke-width="2" opacity="0.6"/><path d="M 400 450 Q 350 550 186.72523143288817 306.1723384187392" fill="none" stroke="#00e676" stroke-width="2" opacity="0.6"/><path d="M 401.7037086855466 437.05904774487396 Q 350 550 232.92143966053968 242.93262294376913" fill="none" stroke="#00e676" stroke-width="2" opacity="0.6"/><path d="M 406.69872981077805 425 Q 350 550 293.91119303604285 193.80420702016102" fill="none" stroke="#00e676" stroke-width="2" opacity="0.6"/><path d="M 414.6446609406726 414.6446609406726 Q 350 550 365.53814065718973 162.13511100456287" fill="none" stroke="#00e676" stroke-width="2" opacity="0.6"/><path d="M 425 406.6987298107781 Q 350 550 442.92102441272704 150.0835314547819" fill="none" stroke="#00e676" stroke-width="2" opacity="0.6"/><path d="M 437.05904774487396 401.7037086855466 Q 350 550 520.786328655977 158.4707636009589" fill="none" stroke="#00e676" stroke-width="2" opacity="0.6"/><path d="M 450 400 Q 350 550 593.8276615812608 186.72523143288817" fill="none" stroke="#00e676" stroke-width="2" opacity="0.6"/><path d="M 462.94095225512604 401.7037086855466 Q 350 550 657.0673770562311 232.92143966053985" fill="none" stroke="#00e676" stroke-width="2" opacity="0.6"/><path d="M 475 406.69872981077805 Q 350 550 706.195792979839 293.91119303604285" fill="none" stroke="#00e676" stroke-width="2" opacity="0.6"/><path d="M 485.3553390593274 414.6446609406726 Q 350 550 737.8648889954371 365.53814065718973" fill="none" stroke="#00e676" stroke-width="2" opacity="0.6"/><path d="M 493.3012701892219 425 Q 350 550 749.9164685452181 442.921024412727" fill="none" stroke="#00e676" stroke-width="2" opacity="0.6"/><path d="M 498.2962913144534 437.05904774487396 Q 350 550 741.5292363990411 520.786328655977" fill="none" stroke="#00e676" stroke-width="2" opacity="0.6"/><line x1="450" y1="450" x2="750" y2="450" stroke="#ff1744" stroke-width="3"/><line x1="450" y1="450" x2="745.4423259036623" y2="502.0944533000791" stroke="#ff1744" stroke-width="3"/><line x1="450" y1="450" x2="731.9077862357725" y2="552.6060429977006" stroke="#ff1744" stroke-width="3"/><line x1="450" y1="450" x2="709.8076211353316" y2="600" stroke="#ff1744" stroke-width="3"/><line x1="450" y1="450" x2="679.8133329356934" y2="642.8362829059618" stroke="#ff1744" stroke-width="3"/><path d="M 450 450 L 473.4615435513346 477.15924855430774 L 490.8409493265447 498.236359332491 L 515.9426131115563 527.0357281204757 L 520.7821417772441 535.5729617891367 L 540.8777512913283 559.3662763061941 L 574.0759314320495 596.2621614498885 L 590.4670442819418 616.3509793027539 L 598.5337341466545 628.1153741704397 L 631.8372546451795 665.116599671938 L 633.7000563522298 670.6771063819614" fill="none" stroke="#ff1744" stroke-width="3" opacity="0.8"/><circle cx="546.4181414529809" cy="564.9066664678467" r="2" fill="#ff1744"/><path d="M 450 450 L 464.52242516825066 475.5031872817838 L 487.9473986415287 509.908922868595 L 488.04067070315705 520.9829570437565 L 500.69778155301697 544.6208300071496 L 531.8142532672641 586.7180638349299 L 536.6289867000612 602.5135593812602 L 558.7793259649137 635.6446607596458 L 564.7184749772999 652.5645718855652 L 576.845251578912 675.6721106007104 L 594.5454551450307 704.3530762803623" fill="none" stroke="#ff1744" stroke-width="3" opacity="0.8"/><circle cx="525" cy="579.9038105676658" r="2" fill="#ff1744"/><path d="M 450 450 L 461.9131996315734 479.84337395538057 L 476.85039812025565 512.71074676787 L 479.00480574229414 532.7953287137157 L 483.39955356795934 555.1202508631881 L 500.9914228273096 590.6422944463455 L 512.4879243569189 620.0689702997621 L 515.2814279022898 640.7926481689401 L 530.5451481864934 673.9865427769508 L 538.9107236133187 700.2822925275833 L 553.0718431424997 732.3735863805715" fill="none" stroke="#ff1744" stroke-width="3" opacity="0.8"/><circle cx="501.30302149885034" cy="590.9538931178863" r="2" fill="#ff1744"/><path d="M 450 450 L 455.21755947697676 479.5523467373351 L 467.86127407868855 516.5308485994052 L 462.5051551923395 535.5095169734145 L 463.96383676251054 561.3029858039439 L 472.07240326736974 593.7463395691614 L 480.6888259579983 626.6975495201482 L 477.39068606788294 647.7341968903912 L 490.5965040056754 685.274802088542 L 505.67737384735716 724.690459190582 L 503.45276942957264 746.8006420331558" fill="none" stroke="#ff1744" stroke-width="3" opacity="0.8"/><circle cx="476.04722665003953" cy="597.7211629518312" r="2" fill="#ff1744"/><path d="M 450 450 L 444.7814497059095 474.7814497059095 L 457.6145083936845 517.6145083936846 L 455.8257772664871 545.8257772664871 L 456.07593035454084 576.0759303545408 L 455.3471082741851 605.3471082741851 L 453.64805853944034 633.6480585394403 L 450.0616882186484 660.0616882186483 L 459.1458674838549 699.1458674838549 L 450.5640672416259 720.5640672416259 L 457.78201954167776 757.7820195416778" fill="none" stroke="#ff1744" stroke-width="3" opacity="0.8"/><circle cx="450" cy="600" r="2" fill="#ff1744"/><path d="M 450 450 L 450.35060858812966 485.1042865085038 L 444.97831202579016 514.4856678665384 L 430.75960424521713 535.0206380063396 L 428.4215734718631 567.4362851533598 L 427.9339835454763 601.702373147347 L 415.99817792206295 624.5202454443079 L 410.4817331890654 653.7574786316844 L 417.8540589404024 695.8834823033956 L 403.83900048871635 716.6221017720837 L 394.1586106832689 741.6953898870103" fill="none" stroke="#ff1744" stroke-width="3" opacity="0.8"/><circle cx="423.95277334996047" cy="597.7211629518312" r="2" fill="#ff1744"/><path d="M 450 450 L 440.2938103742997 478.74519329764706 L 426.9704361048211 503.8732019515157 L 418.4153689855397 533.7695177555817 L 415.38556219669243 569.1910938900817 L 399.5369428276863 591.7938574444229 L 389.28484760566744 619.9931451457513 L 386.4536341520503 655.6133146154815 L 370.0342322445865 677.645295631365 L 355.21626181500073 701.2787081251265 L 341.66046653978003 726.174295773253" fill="none" stroke="#ff1744" stroke-width="3" opacity="0.8"/><circle cx="398.6969785011497" cy="590.9538931178863" r="2" fill="#ff1744"/><path d="M 450 450 L 437.4118227561651 478.3925848696983 L 424.4971062412961 506.4586304683624 L 397.5978851882886 520.5401715288881 L 385.5846044390347 549.5076528931673 L 367.9907137200886 572.8945242877544 L 367.1817463153748 613.0663189965737 L 346.14201176171383 633.0073465564459 L 324.23901411884094 652.0851110271061 L 316.9104102315064 685.7372692533047 L 296.87257522535975 706.6801963606912" fill="none" stroke="#ff1744" stroke-width="3" opacity="0.8"/><circle cx="375" cy="579.9038105676658" r="2" fill="#ff1744"/><path d="M 450 450 L 423.68004080820225 465.94500239236777 L 405.28490163882964 489.81482480716073 L 388.1790436928622 514.9739284453588 L 368.9249407900814 537.9847871267435 L 346.95859559400753 558.2834035148351 L 333.77968683345944 587.3694563384526 L 320.8869221382633 616.741653227422 L 286.6268260566446 624.7465187299687 L 277.8464865035697 658.2311407610594 L 247.53751598540322 670.1871318270582" fill="none" stroke="#ff1744" stroke-width="3" opacity="0.8"/><circle cx="353.5818585470191" cy="564.9066664678467" r="2" fill="#ff1744"/><line x1="450" y1="450" x2="220.18666706430662" y2="642.8362829059619" stroke="#ff1744" stroke-width="3"/><line x1="450" y1="450" x2="190.1923788646684" y2="600" stroke="#ff1744" stroke-width="3"/><line x1="450" y1="450" x2="168.0922137642275" y2="552.6060429977007" stroke="#ff1744" stroke-width="3"/><line x1="450" y1="450" x2="154.55767409633762" y2="502.09445330007907" stroke="#ff1744" stroke-width="3"/><line x1="450" y1="450" x2="150" y2="450.00000000000006" stroke="#ff1744" stroke-width="3"/><line x1="450" y1="450" x2="154.55767409633762" y2="397.9055466999209" stroke="#ff1744" stroke-width="3"/><line x1="450" y1="450" x2="168.0922137642275" y2="347.39395700229943" stroke="#ff1744" stroke-width="3"/><line x1="450" y1="450" x2="190.1923788646684" y2="300" stroke="#ff1744" stroke-width="3"/><line x1="450" y1="450" x2="220.18666706430656" y2="257.16371709403825" stroke="#ff1744" stroke-width="3"/><line x1="450" y1="450" x2="257.16371709403813" y2="220.18666706430662" stroke="#ff1744" stroke-width="3"/><line x1="450" y1="450" x2="299.9999999999999" y2="190.19237886466846" stroke="#ff1744" stroke-width="3"/><line x1="450" y1="450" x2="347.3939570022992" y2="168.09221376422755" stroke="#ff1744" stroke-width="3"/><line x1="450" y1="450" x2="397.9055466999209" y2="154.55767409633762" stroke="#ff1744" stroke-width="3"/><line x1="450" y1="450" x2="449.99999999999994" y2="150" stroke="#ff1744" stroke-width="3"/><line x1="450" y1="450" x2="502.094453300079" y2="154.55767409633756" stroke="#ff1744" stroke-width="3"/><line x1="450" y1="450" x2="552.6060429977005" y2="168.09221376422744" stroke="#ff1744" stroke-width="3"/><line x1="450" y1="450" x2="600" y2="190.1923788646684" stroke="#ff1744" stroke-width="3"/><line x1="450" y1="450" x2="642.8362829059618" y2="220.18666706430656" stroke="#ff1744" stroke-width="3"/><line x1="450" y1="450" x2="679.8133329356933" y2="257.16371709403813" stroke="#ff1744" stroke-width="3"/><line x1="450" y1="450" x2="709.8076211353315" y2="299.9999999999999" stroke="#ff1744" stroke-width="3"/><line x1="450" y1="450" x2="731.9077862357725" y2="347.39395700229943" stroke="#ff1744" stroke-width="3"/><line x1="450" y1="450" x2="745.4423259036623" y2="397.9055466999206" stroke="#ff1744" stroke-width="3"/><rect x="50" y="800" width="800" height="60" fill="#111B24" rx="8" stroke="#333"/><text x="70" y="825" fill="#ff1744" font-family="Arial" font-size="16" font-weight="bold">🔴 Radiais: Frouxas no Cone</text><text x="320" y="825" fill="#00e676" font-family="Arial" font-size="16" font-weight="bold">🟢 Oblíquas: Ausentes/Degradadas</text><text x="600" y="825" fill="#2196f3" font-family="Arial" font-size="16" font-weight="bold">🔵 Tangenciais: Preservadas</text><text x="450" y="850" fill="#cfd8dc" font-family="Arial" font-size="14" text-anchor="middle">Isso explica por que o ceratocone central/paracentral NUNCA se estende ao limbo tangencial forte.</text></svg>