<svg viewBox="0 0 900 900" xmlns="http://www.w3.org/2000/svg"><rect width="900" height="900" fill="#0a1118"/>
<defs>
    <filter id="glow" x="-20%" y="-20%" width="140%" height="140%">
        <feGaussianBlur stdDeviation="3" result="blur" />
        <feMerge>
            <feMergeNode in="blur"/>
            <feMergeNode in="SourceGraphic"/>
        </feMerge>
    </filter>
</defs>
<text x="450" y="50" fill="#ffffff" font-family="Arial" font-size="28" font-weight="bold" text-anchor="middle" paint-order="stroke" stroke="#0a1118" stroke-width="4">Figura 1.11: Ceratocone na Escala das Fibras</text><circle cx="450" cy="450" r="350" fill="#111B24" stroke="#333" stroke-width="2"/><circle cx="450" cy="570" r="100" fill="#ff1744" opacity="0.15" stroke="#ff1744" stroke-width="3" stroke-dasharray="8,4"/><text x="450" y="570" fill="#ff1744" font-family="Arial" font-size="20" font-weight="bold" text-anchor="middle" opacity="0.8" paint-order="stroke" stroke="#0a1118" stroke-width="4">Zona do Cone</text><circle cx="450" cy="450" r="300" fill="none" stroke="#2196f3" stroke-width="3" opacity="0.8" filter="url(#glow)"/><circle cx="450" cy="450" r="315" fill="none" stroke="#2196f3" stroke-width="3" opacity="0.8" filter="url(#glow)"/><circle cx="450" cy="450" r="330" fill="none" stroke="#2196f3" stroke-width="3" opacity="0.8" filter="url(#glow)"/><circle cx="450" cy="450" r="345" fill="none" stroke="#2196f3" stroke-width="3" opacity="0.8" filter="url(#glow)"/><path d="M 500 450 Q 350 550 713.2747685671118 593.8276615812609" fill="none" stroke="#00e676" stroke-width="2" opacity="0.6"/><path d="M 498.2962913144534 462.94095225512604 Q 350 550 667.0785603394603 657.067377056231" fill="none" stroke="#00e676" stroke-width="2" opacity="0.6"/><path d="M 493.30127018922195 475 Q 350 550 606.0888069639573 706.1957929798389" fill="none" stroke="#00e676" stroke-width="1" stroke-dasharray="2,5" opacity="0.3"/><path d="M 485.3553390593274 485.3553390593274 Q 350 550 534.4618593428103 737.8648889954371" fill="none" stroke="#00e676" stroke-width="1" stroke-dasharray="2,5" opacity="0.3"/><path d="M 475 493.30127018922195 Q 350 550 457.07897558727285 749.9164685452181" fill="none" stroke="#00e676" stroke-width="1" stroke-dasharray="2,5" opacity="0.3"/><path d="M 462.94095225512604 498.2962913144534 Q 350 550 379.2136713440231 741.5292363990411" fill="none" stroke="#00e676" stroke-width="1" stroke-dasharray="2,5" opacity="0.3"/><path d="M 450 500 Q 350 550 306.1723384187391 713.2747685671118" fill="none" stroke="#00e676" stroke-width="1" stroke-dasharray="2,5" opacity="0.3"/><path d="M 437.05904774487396 498.2962913144534 Q 350 550 242.93262294376905 667.0785603394602" fill="none" stroke="#00e676" stroke-width="1" stroke-dasharray="2,5" opacity="0.3"/><path d="M 425 493.30127018922195 Q 350 550 193.80420702016107 606.0888069639573" fill="none" stroke="#00e676" stroke-width="2" opacity="0.6"/><path d="M 414.6446609406726 485.3553390593274 Q 350 550 162.13511100456287 534.4618593428103" fill="none" stroke="#00e676" stroke-width="2" opacity="0.6"/><path d="M 406.69872981077805 475 Q 350 550 150.0835314547819 457.07897558727285" fill="none" stroke="#00e676" stroke-width="2" opacity="0.6"/><path d="M 401.7037086855466 462.94095225512604 Q 350 550 158.47076360095883 379.21367134402317" fill="none" stroke="#00e676" stroke-width="2" opacity="0.6"/><path d="M 400 450 Q 350 550 186.72523143288817 306.1723384187392" fill="none" stroke="#00e676" stroke-width="2" opacity="0.6"/><path d="M 401.7037086855466 437.05904774487396 Q 350 550 232.92143966053968 242.93262294376913" fill="none" stroke="#00e676" stroke-width="2" opacity="0.6"/><path d="M 406.69872981077805 425 Q 350 550 293.91119303604285 193.80420702016102" fill="none" stroke="#00e676" stroke-width="2" opacity="0.6"/><path d="M 414.6446609406726 414.6446609406726 Q 350 550 365.53814065718973 162.13511100456287" fill="none" stroke="#00e676" stroke-width="2" opacity="0.6"/><path d="M 425 406.6987298107781 Q 350 550 442.92102441272704 150.0835314547819" fill="none" stroke="#00e676" stroke-width="2" opacity="0.6"/><path d="M 437.05904774487396 401.7037086855466 Q 350 550 520.786328655977 158.4707636009589" fill="none" stroke="#00e676" stroke-width="2" opacity="0.6"/><path d="M 450 400 Q 350 550 593.8276615812608 186.72523143288817" fill="none" stroke="#00e676" stroke-width="2" opacity="0.6"/><path d="M 462.94095225512604 401.7037086855466 Q 350 550 657.0673770562311 232.92143966053985" fill="none" stroke="#00e676" stroke-width="2" opacity="0.6"/><path d="M 475 406.69872981077805 Q 350 550 706.195792979839 293.91119303604285" fill="none" stroke="#00e676" stroke-width="2" opacity="0.6"/><path d="M 485.3553390593274 414.6446609406726 Q 350 550 737.8648889954371 365.53814065718973" fill="none" stroke="#00e676" stroke-width="2" opacity="0.6"/><path d="M 493.3012701892219 425 Q 350 550 749.9164685452181 442.921024412727" fill="none" stroke="#00e676" stroke-width="2" opacity="0.6"/><path d="M 498.2962913144534 437.05904774487396 Q 350 550 741.5292363990411 520.786328655977" fill="none" stroke="#00e676" stroke-width="2" opacity="0.6"/><line x1="450" y1="450" x2="750" y2="450" stroke="#ff1744" stroke-width="3"/><line x1="450" y1="450" x2="745.4423259036623" y2="502.0944533000791" stroke="#ff1744" stroke-width="3"/><line x1="450" y1="450" x2="731.9077862357725" y2="552.6060429977006" stroke="#ff1744" stroke-width="3"/><line x1="450" y1="450" x2="709.8076211353316" y2="600" stroke="#ff1744" stroke-width="3"/><line x1="450" y1="450" x2="679.8133329356934" y2="642.8362829059618" stroke="#ff1744" stroke-width="3"/><path d="M 450 450 L 467.34892976123825 471.0466347642114 L 489.9697840736619 497.3651940796082 L 512.2132182989742 523.3063333078936 L 519.4472406933363 534.2380607052289 L 553.8861324721811 572.3746574870469 L 570.507900863767 592.6941308816059 L 577.7624934860814 603.6464285068936 L 613.5568590852741 643.1384991090594 L 616.8873222959306 650.1666673226891 L 648.9184530794008 685.8955031091324" fill="none" stroke="#ff1744" stroke-width="3" opacity="0.8"/><circle cx="546.4181414529809" cy="564.9066664678467" r="2" fill="#ff1744"/><path d="M 450 450 L 465.0494656697041 476.03022778323725 L 486.4832940652666 508.4448182923329 L 504.4557468159061 537.3980331565056 L 505.22357084935487 549.1466193034875 L 527.8520730075977 582.7558835752635 L 532.5483245287294 598.4328972099283 L 551.2126750834441 628.0780098781762 L 560.0905047189484 647.9366016272137 L 580.2582861286413 679.0851451504398 L 594.8688637856914 704.676484921023" fill="none" stroke="#ff1744" stroke-width="3" opacity="0.8"/><circle cx="525" cy="579.9038105676658" r="2" fill="#ff1744"/><path d="M 450 450 L 453.6292903463187 471.5594646701259 L 474.55017896467945 510.4105276122938 L 482.11711677219984 535.9076397436214 L 486.95672720358806 558.6774244988168 L 506.7795012967487 596.4303729157847 L 519.3449035278707 626.9259494707138 L 514.5616116175426 640.0728318841929 L 532.0393173109896 675.4807119014471 L 533.5832682092756 694.9548371235402 L 543.8787747281426 723.1805179662144" fill="none" stroke="#ff1744" stroke-width="3" opacity="0.8"/><circle cx="501.30302149885034" cy="590.9538931178863" r="2" fill="#ff1744"/><path d="M 450 450 L 448.8163088149217 473.15109607528 L 452.41457374818464 501.0841482689013 L 470.66770119901577 543.6720629800908 L 478.6762909743841 576.0154400158174 L 470.8705944823587 592.5445307841503 L 486.93197607716775 632.9406996393177 L 489.57249997487924 659.9160107973875 L 501.411763397153 696.0900614800196 L 494.421665377447 713.4347507206719 L 502.23669648060024 745.5845690841835" fill="none" stroke="#ff1744" stroke-width="3" opacity="0.8"/><circle cx="476.04722665003953" cy="597.7211629518312" r="2" fill="#ff1744"/><path d="M 450 450 L 450.12302249878906 480.12302249878906 L 448.9337693350956 508.9337693350956 L 448.64493755095975 538.6449375509598 L 449.958067867374 569.958067867374 L 450.4299296841009 600.4299296841009 L 440.43593882940814 620.4359388294082 L 445.8270234847824 655.8270234847824 L 447.29048746000814 687.2904874600081 L 448.39634534661553 718.3963453466155 L 445.3638135129727 745.3638135129727" fill="none" stroke="#ff1744" stroke-width="3" opacity="0.8"/><circle cx="450" cy="600" r="2" fill="#ff1744"/><path d="M 450 450 L 453.3718348011108 488.12551272148494 L 438.50615830278684 508.01351414353513 L 436.8679422968745 541.128976057997 L 433.6617931729917 572.6765048544883 L 430.6845480102996 604.4529376121702 L 423.3589634881033 631.8810310103481 L 413.86602817125237 657.1417736138714 L 402.20104491573517 680.2304682787283 L 396.68534028179954 709.4684415651669 L 396.9520832340068 744.4888624377481" fill="none" stroke="#ff1744" stroke-width="3" opacity="0.8"/><circle cx="423.95277334996047" cy="597.7211629518312" r="2" fill="#ff1744"/><path d="M 450 450 L 434.5690131750362 473.02039609838357 L 427.2729335968949 504.1756994435895 L 411.6972426400272 527.0513914100691 L 412.09114400597707 565.8966756993664 L 392.6293818595345 584.886296476271 L 382.50188745613866 613.2101849962226 L 384.97857393682455 654.1382544002557 L 374.8106582314641 682.4217216182425 L 367.3207346569346 713.3831809670603 L 343.4942812262753 728.0081104597483" fill="none" stroke="#ff1744" stroke-width="3" opacity="0.8"/><circle cx="398.6969785011497" cy="590.9538931178863" r="2" fill="#ff1744"/><path d="M 450 450 L 439.7214318230178 480.70219393655094 L 428.4050920040701 510.36661623113645 L 409.6223900915516 532.564676432151 L 385.7697441558798 549.6927926100125 L 376.2609944011124 581.1648049687782 L 367.04527381646847 612.9298464976674 L 350.63135268272265 637.4966874774548 L 337.1026343928233 664.9487313010885 L 314.2494115661716 683.0762705879699 L 300.6861928503082 710.4938139856397" fill="none" stroke="#ff1744" stroke-width="3" opacity="0.8"/><circle cx="375" cy="579.9038105676658" r="2" fill="#ff1744"/><path d="M 450 450 L 437.45843465877937 479.7233962429449 L 402.4140321391556 486.9439553074867 L 382.57977030264783 509.3746550551444 L 367.11452135632004 536.1743676929822 L 357.93636293449737 569.261170855325 L 340.2328818450731 593.8226513500662 L 314.7670042772118 610.6217353663704 L 300.8109689771789 638.930661650503 L 268.64126511948393 649.0259193769735 L 261.3726356878535 684.0222515295086" fill="none" stroke="#ff1744" stroke-width="3" opacity="0.8"/><circle cx="353.5818585470191" cy="564.9066664678467" r="2" fill="#ff1744"/><line x1="450" y1="450" x2="220.18666706430662" y2="642.8362829059619" stroke="#ff1744" stroke-width="3"/><line x1="450" y1="450" x2="190.1923788646684" y2="600" stroke="#ff1744" stroke-width="3"/><line x1="450" y1="450" x2="168.0922137642275" y2="552.6060429977007" stroke="#ff1744" stroke-width="3"/><line x1="450" y1="450" x2="154.55767409633762" y2="502.09445330007907" stroke="#ff1744" stroke-width="3"/><line x1="450" y1="450" x2="150" y2="450.00000000000006" stroke="#ff1744" stroke-width="3"/><line x1="450" y1="450" x2="154.55767409633762" y2="397.9055466999209" stroke="#ff1744" stroke-width="3"/><line x1="450" y1="450" x2="168.0922137642275" y2="347.39395700229943" stroke="#ff1744" stroke-width="3"/><line x1="450" y1="450" x2="190.1923788646684" y2="300" stroke="#ff1744" stroke-width="3"/><line x1="450" y1="450" x2="220.18666706430656" y2="257.16371709403825" stroke="#ff1744" stroke-width="3"/><line x1="450" y1="450" x2="257.16371709403813" y2="220.18666706430662" stroke="#ff1744" stroke-width="3"/><line x1="450" y1="450" x2="299.9999999999999" y2="190.19237886466846" stroke="#ff1744" stroke-width="3"/><line x1="450" y1="450" x2="347.3939570022992" y2="168.09221376422755" stroke="#ff1744" stroke-width="3"/><line x1="450" y1="450" x2="397.9055466999209" y2="154.55767409633762" stroke="#ff1744" stroke-width="3"/><line x1="450" y1="450" x2="449.99999999999994" y2="150" stroke="#ff1744" stroke-width="3"/><line x1="450" y1="450" x2="502.094453300079" y2="154.55767409633756" stroke="#ff1744" stroke-width="3"/><line x1="450" y1="450" x2="552.6060429977005" y2="168.09221376422744" stroke="#ff1744" stroke-width="3"/><line x1="450" y1="450" x2="600" y2="190.1923788646684" stroke="#ff1744" stroke-width="3"/><line x1="450" y1="450" x2="642.8362829059618" y2="220.18666706430656" stroke="#ff1744" stroke-width="3"/><line x1="450" y1="450" x2="679.8133329356933" y2="257.16371709403813" stroke="#ff1744" stroke-width="3"/><line x1="450" y1="450" x2="709.8076211353315" y2="299.9999999999999" stroke="#ff1744" stroke-width="3"/><line x1="450" y1="450" x2="731.9077862357725" y2="347.39395700229943" stroke="#ff1744" stroke-width="3"/><line x1="450" y1="450" x2="745.4423259036623" y2="397.9055466999206" stroke="#ff1744" stroke-width="3"/><rect x="50" y="800" width="800" height="60" fill="#111B24" rx="8" stroke="#333"/><text x="70" y="825" fill="#ff1744" font-family="Arial" font-size="16" font-weight="bold">🔴 Radiais: Frouxas no Cone</text><text x="320" y="825" fill="#00e676" font-family="Arial" font-size="16" font-weight="bold">🟢 Oblíquas: Ausentes/Degradadas</text><text x="600" y="825" fill="#2196f3" font-family="Arial" font-size="16" font-weight="bold">🔵 Tangenciais: Preservadas</text><text x="450" y="850" fill="#cfd8dc" font-family="Arial" font-size="14" text-anchor="middle">Isso explica por que o ceratocone central/paracentral NUNCA se estende ao limbo tangencial forte.</text></svg>