<svg viewBox="0 0 1500 750" xmlns="http://www.w3.org/2000/svg"><rect width="1500" height="750" fill="#0A0E17"/>
<defs>
    
</defs>
<text x="750" y="60" fill="#ffffff" font-family="Arial" font-size="34" font-weight="bold" text-anchor="middle">Figura 6.2: O "Efeito de Volume Diferencial" (Bulking Effect)</text><text x="750" y="100" fill="#B0BEC5" font-family="Arial" font-size="20" text-anchor="middle">Corte longitudinal do estroma sendo forçado contra um segmento curvo progressivo.</text><rect x="50" y="150" width="1400" height="550" rx="15" fill="#111B24"/><path d="M 200 550 L 1100 550 L 1100 400 L 200 520 Z" fill="#cfd8dc" stroke="#fff" stroke-width="3"/><text x="180" y="505" fill="#cfd8dc" font-family="Arial" font-size="18" font-weight="bold" text-anchor="end">Ponta Fina (150 µm)</text><text x="1120" y="385" fill="#cfd8dc" font-family="Arial" font-size="24" font-weight="bold" text-anchor="start">Ponta Grossa (350 µm)</text><text x="650" y="475" fill="#455a64" font-family="Arial" font-size="24" font-weight="bold" text-anchor="middle">A N E L  P R O G R E S S I V O</text><path d="M 100 530 
                Q 150 525 200 500 
                L 1100 380 
                Q 1200 360 1300 530" fill="none" stroke="#78909c" stroke-width="60" stroke-linecap="round" opacity="0.6"/><path d="M 100 530 
                Q 150 525 200 500 
                L 1100 380 
                Q 1200 360 1300 530" fill="none" stroke="#ffb74d" stroke-width="8" stroke-dasharray="15,5"/><line x1="250" y1="520" x2="250" y2="460" stroke="#00e5ff" stroke-width="4"/><polygon points="250,450 245,460 255,460" fill="#00e5ff"/><line x1="650" y1="510" x2="650" y2="370" stroke="#00e5ff" stroke-width="8"/><polygon points="650,355 642,370 658,370" fill="#00e5ff"/><line x1="1050" y1="500" x2="1050" y2="280" stroke="#ff1744" stroke-width="15"/><polygon points="1050,255 1035,280 1065,280" fill="#ff1744"/><text x="250" y="430" fill="#00e5ff" font-family="Arial" font-size="16" font-weight="bold" text-anchor="middle">Base do Cone</text><text x="250" y="410" fill="#B0BEC5" font-family="Arial" font-size="14" font-style="italic" text-anchor="middle">Elevação Suave</text><text x="1050" y="240" fill="#ff1744" font-family="Arial" font-size="28" font-weight="bold" text-anchor="middle">ÁPICE DO CONE</text><text x="1050" y="210" fill="#ffffff" font-family="Arial" font-size="20" font-style="italic" text-anchor="middle">Elevação Massiva e Direcional</text><line x1="1000" y1="150" x2="300" y2="150" stroke="#ffb74d" stroke-width="12"/><polygon points="270,150 300,135 300,165" fill="#ffb74d"/><text x="650" y="130" fill="#ffb74d" font-family="Arial" font-size="22" font-weight="bold" text-anchor="middle">V_TORQUE (Momento Rotacional Resultante)</text><text x="650" y="190" fill="#ff9100" font-family="Arial" font-size="18" font-style="italic" text-anchor="middle">O Diferencial Geométrico empurra fisicamente a estrutura do paciente</text></svg>