<svg viewBox="0 0 1200 750" xmlns="http://www.w3.org/2000/svg"><rect width="1200" height="750" fill="#0A0E17"/>
<defs>
    <filter id="glowCenter" x="-20%" y="-20%" width="140%" height="140%">
        <feGaussianBlur stdDeviation="8" result="blur" />
        <feMerge>
            <feMergeNode in="blur"/>
            <feMergeNode in="SourceGraphic"/>
        </feMerge>
    </filter>
    <marker id="arrowG" viewBox="0 0 10 10" refX="8" refY="5" markerWidth="6" markerHeight="6" orient="auto-start-reverse">
      <path d="M 0 0 L 10 5 L 0 10 z" fill="#00e676" />
    </marker>
</defs>
<text x="600" y="60" fill="#ffffff" font-family="Arial" font-size="34" font-weight="bold" text-anchor="middle">Figura 6.3: A Cura do Cone "Sagging" (Descido)</text><text x="600" y="100" fill="#B0BEC5" font-family="Arial" font-size="20" text-anchor="middle">O Torque rotaciona massivamente o ápice da ectasia em direção ao Eixo Visual (Pupila).</text><circle cx="600" cy="430" r="250" fill="none" stroke="#263238" stroke-width="2"/><circle cx="600" cy="430" r="150" fill="none" stroke="#263238" stroke-width="2" stroke-dasharray="8,4"/><circle cx="600" cy="430" r="50" fill="none" stroke="#37474f" stroke-width="1" stroke-dasharray="2,2"/><line x1="330" y1="430" x2="870" y2="430" stroke="#263238" stroke-width="2"/><line x1="600" y1="160" x2="600" y2="700" stroke="#263238" stroke-width="2"/><path d="M 580 430 L 620 430 M 600 410 L 600 450" fill="none" stroke="#00e5ff" stroke-width="4"/><circle cx="600" cy="430" r="6" fill="#00e5ff" filter="url(#glowCenter)"/><text x="630" y="410" fill="#00e5ff" font-family="Arial" font-size="16" font-weight="bold">Centro Visual Ideal</text><ellipse cx="680" cy="550" rx="90" ry="70" fill="none" stroke="#ff1744" stroke-width="4" stroke-dasharray="6,4" opacity="0.4"/><ellipse cx="680" cy="550" rx="40" ry="30" fill="#ff1744" opacity="0.3"/><circle cx="680" cy="550" r="5" fill="#ff1744"/><text x="730" y="570" fill="#ff1744" font-family="Arial" font-size="16" font-weight="bold" opacity="0.6">Cone Sagging Antigo</text><path d="M 428.52697005068114 529 L 430.3808773127304 531.9174510567846 L 432.28435485013085 534.8003664898536 L 434.2367622455869 537.64790527072 L 436.23744483462747 540.4592381989215 L 438.28573392328155 543.2335481429691 L 440.3809470098229 545.970030277305 L 442.52238801050794 548.6678923151981 L 444.70934748923537 551.3263547375097 L 446.94110289104964 553.9446510172655 L 449.2169187794145 556.5220278399672 L 451.53604707717705 559.0577453195826 L 453.8977273111443 561.5510772101516 L 456.3011868601933 564.0013111129466 L 458.7456412068335 566.4077486791317 L 461.23029419214004 568.76970580786 L 463.75433827397535 571.0865128397542 L 466.31695478841596 573.3575147457177 L 468.91731421429967 575.5820713110215 L 471.55457644080843 577.759557314615 L 474.22789103800045 579.8893627036134 L 476.9363975302043 581.9708927629107 L 479.67922567218886 584.0035682798737 L 482.45549572801906 585.9868257040704 L 485.26431875250927 587.9201173019898 L 488.10479687518347 589.8029113067108 L 490.9760235866534 591.6346920624812 L 493.877084027322 593.4149601641659 L 496.8070552783206 595.143232591528 L 499.76500665458826 596.8190428383094 L 502.75000000000006 598.4419410360733 L 505.76108998444954 600.0114940727796 L 508.79732440279435 601.5272857060609 L 511.857744475567 602.9889166711716 L 514.9413851513593 604.3960047835817 L 518.0472754107827 605.7481850361904 L 521.17443857191 607.0451096911361 L 524.3218925971025 608.2864483661801 L 527.4886504011266 609.4718881156444 L 530.6737201604617 610.6011335058837 L 533.876105623704 611.6739066852756 L 537.0948064229698 612.6899474487146 L 540.3288183861977 613.6490132965941 L 543.5771338502572 614.5508794882664 L 546.8387419747614 615.3953390899704 L 550.1126290564891 616.182203017218 L 553.3977788443174 616.9113000716328 L 556.6931728545669 617.5824769722376 L 559.9977906866632 618.1955983811843 L 563.3106103390134 618.7505469239284 L 566.6306085250048 619.247223203846 L 569.9567609890237 619.6855458112962 L 573.2880428223981 620.0654513271321 L 576.6234287791693 620.3868943206662 L 579.9618935915909 620.649847342098 L 583.3024122852612 620.8543009094103 L 586.6439604937915 621.0002634897477 L 589.9855147729128 621.0877614752877 L 593.3260529139251 621.1168391536185 L 596.6645542563945 621.087558672639 L 600 621 L 603.3313735154368 620.8542608771024 L 606.6576606542804 620.6504567676761 L 609.9778500577173 620.3887208009595 L 613.2909334640474 620.0692037095051 L 616.5959060148666 619.6920737616365 L 619.8917665598344 619.2575166885824 L 623.1775179599356 618.7657356063187 L 626.4521673891431 618.2169509321478 L 629.7147266343918 617.6114002960464 L 632.9642123937723 616.9493384468175 L 636.1996465728535 616.2310371530793 L 639.4200565790472 615.4567850991295 L 642.6244756139233 614.6268877757224 L 645.8119429633905 613.7416673657979 L 648.981504285652 612.8014626252061 L 652.1322118968551 611.8066287584674 L 655.2631250543426 610.7575372896131 L 658.3733102374276 609.6545759281545 L 661.4618414256036 608.4981484302243 L 664.5278003741096 607.2886744549414 L 667.5702768867664 606.0265894160474 L 670.5883690860051 604.7123443288683 L 673.5811836800051 603.346405652652 L 676.5478362268656 601.9292551283374 L 679.4874513957299 600.4613896118099 L 682.3991632247869 598.9433209027001 L 685.2821153760739 597.3755755687848 L 688.1354613870046 595.7586947660492 L 690.9583649185503 594.0932340544696 L 693.75 592.3797632095823 L 696.509551270229 590.6188660298974 L 699.2362142154049 588.8111401402267 L 701.9291954030623 586.9571967909861 L 704.5877127124787 585.0576606535446 L 707.210995561283 583.113169611684 L 709.7982851282339 581.1243745492402 L 712.3488345721015 579.0919391339954 L 714.8619092465904 577.016539597894 L 717.3367869112421 574.8988645136521 L 719.7727579382586 572.7396145678363 L 722.1691255151823 570.5395023304839 L 724.5252058433836 568.299252021343 L 726.8403283322904 566.0195992728054 L 729.1138357893124 563.7012908896106 L 731.3450846054012 561.3450846054012 L 733.5334449361983 558.9517488362052 L 735.6783008787164 556.5220624309278 L 737.7790506435089 554.0568144189323 L 739.8351067222759 551.5568037547912 L 741.8458960508641 549.0228390602908 L 743.8108601676124 546.4557383637724 L 745.7294553670031 543.8563288368917 L 747.6011528485739 541.2254465288844 L 749.4254388610527 538.5639360984198 L 751.2018148416764 535.8726505431306 L 752.9297975506533 533.1524509269038 L 754.6089192007389 530.4042061050202 L 756.2387275818855 527.6287924472308 L 757.8187861809372 524.8270935588562 L 759.3486742963368 522 L 787.0614872174388 538 M 787.0614872174388 538 L 785.0481340999077 541.1881364051656 L 782.9805108806848 544.3389132460511 L 780.8593079774307 547.4514079009906 L 778.6852314713633 550.524710461395 L 776.4590028739203 553.5579239972878 L 774.1813588889262 556.5501648185694 L 771.8530511703433 559.5005627319349 L 769.4748460756857 562.4082612933715 L 767.0475244151759 565.2724180561626 L 764.5718811967271 568.0922048143249 L 762.0487253668329 570.8668078414117 L 759.4788795474487 573.595428124611 L 756.8631797689518 576.2772815940716 L 754.2024751992622 578.9115993473937 L 751.4976278692178 581.4976278692178 L 748.7495123942866 584.0346292458498 L 745.959015692709 586.5218813748628 L 743.1270367001598 588.9586781696146 L 740.2544860810206 591.344329758625 L 737.3422859363573 593.6781626797549 L 734.3913695086928 595.9595200691361 L 731.402680883673 598.1877618447947 L 728.3771746887178 600.3622648849216 L 725.3158157887552 602.4824232007388 L 722.2195789791353 604.5476481039127 L 719.08944867582 606.557368368472 L 715.9264186029485 608.5110303871835 L 712.7314914778772 610.4080983223437 L 709.5056786937928 612.2480542509475 L 706.25 614.0303983041932 L 702.9654831799845 615.7546488012887 L 699.6531637273517 617.4203423775216 L 696.3140845197448 619.0270341065623 L 692.9492954908441 620.5742976169668 L 689.5598533005499 622.0617252028501 L 686.1468210034545 623.4889279287029 L 682.7112677157045 624.8555357283241 L 679.2542682803597 626.1611974978466 L 675.7769029313538 627.4055811828333 L 672.280256956158 628.588373859422 L 668.7654203572591 629.7092818095024 L 665.2334875125514 630.7680305899069 L 661.6855568347521 631.7643650956011 L 658.1227304299446 632.6980496168602 L 654.5461137553563 633.5688678904212 L 650.9568152764767 634.3766231446007 L 647.3559461236226 635.1211381383717 L 643.7446197480566 635.8022551943927 L 640.1239515777645 636.4198362259863 L 636.4950586729999 636.9737627580657 L 632.8590593817005 637.4639359420087 L 629.2170729948831 637.8902765644804 L 625.5702194021234 638.2527250502101 L 621.9196187472269 638.551241458727 L 618.2663910841967 638.7858054750617 L 614.6116560336028 638.9564163944245 L 610.9565324394604 639.06309310087 L 607.30213802672 639.1058740399621 L 603.6495890594766 639.0848171854541 L 600 639 L 596.3544831686921 638.8515193899175 L 592.7141484050746 638.6394916540198 L 589.0801027299099 638.3640524265418 L 585.4534500085584 638.025356614182 L 581.8352906156756 637.623578327288 L 578.2267211013478 637.1589108052113 L 574.6288338587717 636.6315663358625 L 571.0427167935758 636.0417761694961 L 567.4694529948839 635.3897904267589 L 563.910120408223 634.6758780010373 L 560.3657915103687 633.9003264551372 L 556.8375329862332 633.063441912338 L 553.3264054078871 632.1655489418565 L 549.8334629158155 631.2069904387658 L 546.3597529025026 630.1881274984094 L 542.9063156984389 629.1093392853571 L 539.4741842606481 627.9710228969477 L 536.0643838638234 626.7735932214673 L 532.6779317941676 625.5174827910121 L 529.3158370460285 624.2031416290877 L 525.9791000214182 622.831037092997 L 522.6687122325086 621.4016537110705 L 519.385656007188 619.915493014796 L 516.1309041977701 618.3730733659042 L 512.9054198929375 616.7749297784696 L 509.71015613300966 615.1216137360851 L 506.5460556286143 613.4136930041755 L 503.41405048284946 611.6517514375099 L 500.31506191701567 609.8363887829788 L 497.25000000000006 607.9682204777022 L 494.21976338139 606.0478774425355 L 491.2252390283975 604.0760058710424 L 488.2673019666672 602.0532670140037 L 485.34681502504793 599.9803369595354 L 482.4646285843982 597.8579064088859 L 479.6215803305015 595.6866804479893 L 476.81849501116153 593.4673783148467 L 474.05618419754785 591.2007331628151 L 471.33544604986076 588.8874918198777 L 468.6570650873838 586.5284145439779 L 466.0218119629885 584.1242747744938 L 463.430443242157 581.6758588799362 L 460.88370118658474 579.1839659019505 L 458.3823135424258 576.6494072957064 L 455.92699333324094 574.073006666759 L 453.518438657706 571.455599504467 L 451.1573324921385 568.7980329120528 L 448.844342497898 566.1011653333918 L 446.5801208337142 563.3658662766203 L 444.3653039729943 560.5930160346486 L 442.20051252616213 557.7835054026696 L 440.0863510680759 554.9382353927537 L 438.0234079705749 552.0581169456212 L 436.0122552401982 549.1440706396843 L 434.0534483611218 546.1970263974495 L 432.1475261433559 543.2179231893772 L 430.2950105762434 540.2077087352907 L 428.4964066872988 537.1673392034285 L 426.7522024064248 534.0977789072372 L 425.06286843554335 531 Z" fill="#cfd8dc" stroke="#ffffff" stroke-width="2"/><text x="390.8141571295791" y="545" fill="#cfd8dc" font-family="Arial" font-size="18" font-weight="bold" text-anchor="end">Fino (150µm)</text><text x="817.8460969082653" y="550" fill="#cfd8dc" font-family="Arial" font-size="18" font-weight="bold" text-anchor="start">Espesso (350µm)</text><path d="M 680 540 Q 680 470 615 445" fill="none" stroke="#00e676" stroke-width="12" marker-end="url(#arrowG)"/><text x="660" y="480" fill="#00e676" font-family="Arial" font-size="20" font-weight="bold">Vetor de Torque (Vτ)</text><path d="M 800 380 A 200 200 0 0 0 750 280" fill="none" stroke="#00e676" stroke-width="4" stroke-dasharray="6,4" marker-end="url(#arrowG)"/><path d="M 400 480 A 200 200 0 0 0 450 580" fill="none" stroke="#00e676" stroke-width="4" stroke-dasharray="6,4" marker-end="url(#arrowG)"/><ellipse cx="600" cy="430" rx="60" ry="60" fill="none" stroke="#ff1744" stroke-width="4"/><ellipse cx="600" cy="430" rx="20" ry="20" fill="#ff1744" filter="url(#glowCenter)"/><rect x="50" y="550" width="400" height="150" rx="10" fill="#111B24" stroke="#00e676"/><text x="70" y="580" fill="#00e676" font-family="Arial" font-size="20" font-weight="bold">Terapia Assimétrica Otimizada:</text><text x="70" y="610" fill="#ffffff" font-family="Arial" font-size="16">1. A Base Grossa é disparada ALVEJANDO</text><text x="70" y="630" fill="#ffffff" font-family="Arial" font-size="16">o ápice doente (Cone Inferior).</text><text x="70" y="660" fill="#ffffff" font-family="Arial" font-size="16">2. O Torque expulsa passivamente o</text><text x="70" y="680" fill="#ffffff" font-family="Arial" font-size="16">cone de volta ao eixo central pupilar!</text></svg>