<?xml version="1.0" encoding="utf-8" standalone="no"?>
<!DOCTYPE svg PUBLIC "-//W3C//DTD SVG 1.1//EN"
  "http://www.w3.org/Graphics/SVG/1.1/DTD/svg11.dtd">
<svg font-family="Arial, Helvetica, sans-serif" xmlns:xlink="http://www.w3.org/1999/xlink" width="543.999419pt" height="266.48625pt" viewBox="0 0 543.999419 266.48625" xmlns="http://www.w3.org/2000/svg" version="1.1">
 <metadata>
  <rdf:RDF xmlns:dc="http://purl.org/dc/elements/1.1/" xmlns:cc="http://creativecommons.org/ns#" xmlns:rdf="http://www.w3.org/1999/02/22-rdf-syntax-ns#">
   <cc:Work>
    <dc:type rdf:resource="http://purl.org/dc/dcmitype/StillImage"/>
    <dc:date>2026-05-28T16:13:40.469007</dc:date>
    <dc:format>image/svg+xml</dc:format>
    <dc:creator>
     <cc:Agent>
      <dc:title>Matplotlib v3.9.4, https://matplotlib.org/</dc:title>
     </cc:Agent>
    </dc:creator>
   </cc:Work>
  </rdf:RDF>
 </metadata>
 <defs>
  <style type="text/css">*{stroke-linejoin: round; stroke-linecap: butt}</style>
 </defs>
 <g id="figure_1">
  <g id="patch_1">
   <path d="M 0 266.48625 
L 543.999419 266.48625 
L 543.999419 0 
L 0 0 
z
" style="fill: #ffffff"/>
  </g>
  <g id="axes_1">
   <g id="patch_2">
    <path d="M 83.200156 224.303594 
L 529.600156 224.303594 
L 529.600156 30.263594 
L 83.200156 30.263594 
z
" style="fill: #ffffff"/>
   </g>
   <g id="patch_3">
    <path d="M 83.200156 215.483594 
L 88.094023 215.483594 
L 88.094023 177.436535 
L 83.200156 177.436535 
z
" clip-path="url(#p998973ef99)" style="fill: #e6550d; stroke: #ffffff; stroke-linejoin: miter"/>
   </g>
   <g id="patch_4">
    <path d="M 83.200156 146.307123 
L 92.326556 146.307123 
L 92.326556 108.260064 
L 83.200156 108.260064 
z
" clip-path="url(#p998973ef99)" style="fill: #31a354; stroke: #ffffff; stroke-linejoin: miter"/>
   </g>
   <g id="patch_5">
    <path d="M 83.200156 77.130653 
L 475.635356 77.130653 
L 475.635356 39.083594 
L 83.200156 39.083594 
z
" clip-path="url(#p998973ef99)" style="fill: #2171b5; stroke: #ffffff; stroke-linejoin: miter"/>
   </g>
   <g id="matplotlib.axis_1">
    <g id="xtick_1">
     <g id="line2d_1">
      <path d="M 83.200156 224.303594 
L 83.200156 30.263594 
" clip-path="url(#p998973ef99)" style="fill: none; stroke: #b0b0b0; stroke-opacity: 0.3; stroke-width: 0.6; stroke-linecap: square"/>
     </g>
     <g id="line2d_2">
      <defs>
       <path id="mac3dc73430" d="M 0 0 
L 0 3.5 
" style="stroke: #636363; stroke-width: 0.8"/>
      </defs>
      <g>
       <use xlink:href="#mac3dc73430" x="83.200156" y="224.303594" style="fill: #636363; stroke: #636363; stroke-width: 0.8"/>
      </g>
     </g>
     <g id="text_1">
      <!-- 0 -->
      <g style="fill: #636363" transform="translate(80.141641 239.177187) scale(0.11 -0.11)">
       <defs>
        <path id="ArialMT-30" d="M 266 2259 
Q 266 3072 433 3567 
Q 600 4063 929 4331 
Q 1259 4600 1759 4600 
Q 2128 4600 2406 4451 
Q 2684 4303 2865 4023 
Q 3047 3744 3150 3342 
Q 3253 2941 3253 2259 
Q 3253 1453 3087 958 
Q 2922 463 2592 192 
Q 2263 -78 1759 -78 
Q 1097 -78 719 397 
Q 266 969 266 2259 
z
M 844 2259 
Q 844 1131 1108 757 
Q 1372 384 1759 384 
Q 2147 384 2411 759 
Q 2675 1134 2675 2259 
Q 2675 3391 2411 3762 
Q 2147 4134 1753 4134 
Q 1366 4134 1134 3806 
Q 844 3388 844 2259 
z
" transform="scale(0.015625)"/>
       </defs>
       <use xlink:href="#ArialMT-30"/>
      </g>
     </g>
    </g>
    <g id="xtick_2">
     <g id="line2d_3">
      <path d="M 149.33349 224.303594 
L 149.33349 30.263594 
" clip-path="url(#p998973ef99)" style="fill: none; stroke: #b0b0b0; stroke-opacity: 0.3; stroke-width: 0.6; stroke-linecap: square"/>
     </g>
     <g id="line2d_4">
      <g>
       <use xlink:href="#mac3dc73430" x="149.33349" y="224.303594" style="fill: #636363; stroke: #636363; stroke-width: 0.8"/>
      </g>
     </g>
     <g id="text_2">
      <!-- 200 -->
      <g style="fill: #636363" transform="translate(140.157943 239.177187) scale(0.11 -0.11)">
       <defs>
        <path id="ArialMT-32" d="M 3222 541 
L 3222 0 
L 194 0 
Q 188 203 259 391 
Q 375 700 629 1000 
Q 884 1300 1366 1694 
Q 2113 2306 2375 2664 
Q 2638 3022 2638 3341 
Q 2638 3675 2398 3904 
Q 2159 4134 1775 4134 
Q 1369 4134 1125 3890 
Q 881 3647 878 3216 
L 300 3275 
Q 359 3922 746 4261 
Q 1134 4600 1788 4600 
Q 2447 4600 2831 4234 
Q 3216 3869 3216 3328 
Q 3216 3053 3103 2787 
Q 2991 2522 2730 2228 
Q 2469 1934 1863 1422 
Q 1356 997 1212 845 
Q 1069 694 975 541 
L 3222 541 
z
" transform="scale(0.015625)"/>
       </defs>
       <use xlink:href="#ArialMT-32"/>
       <use xlink:href="#ArialMT-30" x="55.615234"/>
       <use xlink:href="#ArialMT-30" x="111.230469"/>
      </g>
     </g>
    </g>
    <g id="xtick_3">
     <g id="line2d_5">
      <path d="M 215.466823 224.303594 
L 215.466823 30.263594 
" clip-path="url(#p998973ef99)" style="fill: none; stroke: #b0b0b0; stroke-opacity: 0.3; stroke-width: 0.6; stroke-linecap: square"/>
     </g>
     <g id="line2d_6">
      <g>
       <use xlink:href="#mac3dc73430" x="215.466823" y="224.303594" style="fill: #636363; stroke: #636363; stroke-width: 0.8"/>
      </g>
     </g>
     <g id="text_3">
      <!-- 400 -->
      <g style="fill: #636363" transform="translate(206.291276 239.177187) scale(0.11 -0.11)">
       <defs>
        <path id="ArialMT-34" d="M 2069 0 
L 2069 1097 
L 81 1097 
L 81 1613 
L 2172 4581 
L 2631 4581 
L 2631 1613 
L 3250 1613 
L 3250 1097 
L 2631 1097 
L 2631 0 
L 2069 0 
z
M 2069 1613 
L 2069 3678 
L 634 1613 
L 2069 1613 
z
" transform="scale(0.015625)"/>
       </defs>
       <use xlink:href="#ArialMT-34"/>
       <use xlink:href="#ArialMT-30" x="55.615234"/>
       <use xlink:href="#ArialMT-30" x="111.230469"/>
      </g>
     </g>
    </g>
    <g id="xtick_4">
     <g id="line2d_7">
      <path d="M 281.600156 224.303594 
L 281.600156 30.263594 
" clip-path="url(#p998973ef99)" style="fill: none; stroke: #b0b0b0; stroke-opacity: 0.3; stroke-width: 0.6; stroke-linecap: square"/>
     </g>
     <g id="line2d_8">
      <g>
       <use xlink:href="#mac3dc73430" x="281.600156" y="224.303594" style="fill: #636363; stroke: #636363; stroke-width: 0.8"/>
      </g>
     </g>
     <g id="text_4">
      <!-- 600 -->
      <g style="fill: #636363" transform="translate(272.424609 239.177187) scale(0.11 -0.11)">
       <defs>
        <path id="ArialMT-36" d="M 3184 3459 
L 2625 3416 
Q 2550 3747 2413 3897 
Q 2184 4138 1850 4138 
Q 1581 4138 1378 3988 
Q 1113 3794 959 3422 
Q 806 3050 800 2363 
Q 1003 2672 1297 2822 
Q 1591 2972 1913 2972 
Q 2475 2972 2870 2558 
Q 3266 2144 3266 1488 
Q 3266 1056 3080 686 
Q 2894 316 2569 119 
Q 2244 -78 1831 -78 
Q 1128 -78 684 439 
Q 241 956 241 2144 
Q 241 3472 731 4075 
Q 1159 4600 1884 4600 
Q 2425 4600 2770 4297 
Q 3116 3994 3184 3459 
z
M 888 1484 
Q 888 1194 1011 928 
Q 1134 663 1356 523 
Q 1578 384 1822 384 
Q 2178 384 2434 671 
Q 2691 959 2691 1453 
Q 2691 1928 2437 2201 
Q 2184 2475 1800 2475 
Q 1419 2475 1153 2201 
Q 888 1928 888 1484 
z
" transform="scale(0.015625)"/>
       </defs>
       <use xlink:href="#ArialMT-36"/>
       <use xlink:href="#ArialMT-30" x="55.615234"/>
       <use xlink:href="#ArialMT-30" x="111.230469"/>
      </g>
     </g>
    </g>
    <g id="xtick_5">
     <g id="line2d_9">
      <path d="M 347.73349 224.303594 
L 347.73349 30.263594 
" clip-path="url(#p998973ef99)" style="fill: none; stroke: #b0b0b0; stroke-opacity: 0.3; stroke-width: 0.6; stroke-linecap: square"/>
     </g>
     <g id="line2d_10">
      <g>
       <use xlink:href="#mac3dc73430" x="347.73349" y="224.303594" style="fill: #636363; stroke: #636363; stroke-width: 0.8"/>
      </g>
     </g>
     <g id="text_5">
      <!-- 800 -->
      <g style="fill: #636363" transform="translate(338.557943 239.177187) scale(0.11 -0.11)">
       <defs>
        <path id="ArialMT-38" d="M 1131 2484 
Q 781 2613 612 2850 
Q 444 3088 444 3419 
Q 444 3919 803 4259 
Q 1163 4600 1759 4600 
Q 2359 4600 2725 4251 
Q 3091 3903 3091 3403 
Q 3091 3084 2923 2848 
Q 2756 2613 2416 2484 
Q 2838 2347 3058 2040 
Q 3278 1734 3278 1309 
Q 3278 722 2862 322 
Q 2447 -78 1769 -78 
Q 1091 -78 675 323 
Q 259 725 259 1325 
Q 259 1772 486 2073 
Q 713 2375 1131 2484 
z
M 1019 3438 
Q 1019 3113 1228 2906 
Q 1438 2700 1772 2700 
Q 2097 2700 2305 2904 
Q 2513 3109 2513 3406 
Q 2513 3716 2298 3927 
Q 2084 4138 1766 4138 
Q 1444 4138 1231 3931 
Q 1019 3725 1019 3438 
z
M 838 1322 
Q 838 1081 952 856 
Q 1066 631 1291 507 
Q 1516 384 1775 384 
Q 2178 384 2440 643 
Q 2703 903 2703 1303 
Q 2703 1709 2433 1975 
Q 2163 2241 1756 2241 
Q 1359 2241 1098 1978 
Q 838 1716 838 1322 
z
" transform="scale(0.015625)"/>
       </defs>
       <use xlink:href="#ArialMT-38"/>
       <use xlink:href="#ArialMT-30" x="55.615234"/>
       <use xlink:href="#ArialMT-30" x="111.230469"/>
      </g>
     </g>
    </g>
    <g id="xtick_6">
     <g id="line2d_11">
      <path d="M 413.866823 224.303594 
L 413.866823 30.263594 
" clip-path="url(#p998973ef99)" style="fill: none; stroke: #b0b0b0; stroke-opacity: 0.3; stroke-width: 0.6; stroke-linecap: square"/>
     </g>
     <g id="line2d_12">
      <g>
       <use xlink:href="#mac3dc73430" x="413.866823" y="224.303594" style="fill: #636363; stroke: #636363; stroke-width: 0.8"/>
      </g>
     </g>
     <g id="text_6">
      <!-- 1000 -->
      <g style="fill: #636363" transform="translate(401.63276 239.177187) scale(0.11 -0.11)">
       <defs>
        <path id="ArialMT-31" d="M 2384 0 
L 1822 0 
L 1822 3584 
Q 1619 3391 1289 3197 
Q 959 3003 697 2906 
L 697 3450 
Q 1169 3672 1522 3987 
Q 1875 4303 2022 4600 
L 2384 4600 
L 2384 0 
z
" transform="scale(0.015625)"/>
       </defs>
       <use xlink:href="#ArialMT-31"/>
       <use xlink:href="#ArialMT-30" x="55.615234"/>
       <use xlink:href="#ArialMT-30" x="111.230469"/>
       <use xlink:href="#ArialMT-30" x="166.845703"/>
      </g>
     </g>
    </g>
    <g id="xtick_7">
     <g id="line2d_13">
      <path d="M 480.000156 224.303594 
L 480.000156 30.263594 
" clip-path="url(#p998973ef99)" style="fill: none; stroke: #b0b0b0; stroke-opacity: 0.3; stroke-width: 0.6; stroke-linecap: square"/>
     </g>
     <g id="line2d_14">
      <g>
       <use xlink:href="#mac3dc73430" x="480.000156" y="224.303594" style="fill: #636363; stroke: #636363; stroke-width: 0.8"/>
      </g>
     </g>
     <g id="text_7">
      <!-- 1200 -->
      <g style="fill: #636363" transform="translate(467.766094 239.177187) scale(0.11 -0.11)">
       <use xlink:href="#ArialMT-31"/>
       <use xlink:href="#ArialMT-32" x="55.615234"/>
       <use xlink:href="#ArialMT-30" x="111.230469"/>
       <use xlink:href="#ArialMT-30" x="166.845703"/>
      </g>
     </g>
    </g>
    <g id="text_8">
     <!-- Range de δ_apex (μm) -->
     <g style="fill: #1a1a1a" transform="translate(247.743516 253.371094) scale(0.11 -0.11)">
      <defs>
       <path id="Arial-BoldMT-52" d="M 469 0 
L 469 4581 
L 2416 4581 
Q 3150 4581 3483 4457 
Q 3816 4334 4016 4018 
Q 4216 3703 4216 3297 
Q 4216 2781 3912 2445 
Q 3609 2109 3006 2022 
Q 3306 1847 3501 1637 
Q 3697 1428 4028 894 
L 4588 0 
L 3481 0 
L 2813 997 
Q 2456 1531 2325 1670 
Q 2194 1809 2047 1861 
Q 1900 1913 1581 1913 
L 1394 1913 
L 1394 0 
L 469 0 
z
M 1394 2644 
L 2078 2644 
Q 2744 2644 2909 2700 
Q 3075 2756 3169 2893 
Q 3263 3031 3263 3238 
Q 3263 3469 3139 3611 
Q 3016 3753 2791 3791 
Q 2678 3806 2116 3806 
L 1394 3806 
L 1394 2644 
z
" transform="scale(0.015625)"/>
       <path id="Arial-BoldMT-61" d="M 1116 2306 
L 319 2450 
Q 453 2931 781 3162 
Q 1109 3394 1756 3394 
Q 2344 3394 2631 3255 
Q 2919 3116 3036 2902 
Q 3153 2688 3153 2116 
L 3144 1091 
Q 3144 653 3186 445 
Q 3228 238 3344 0 
L 2475 0 
Q 2441 88 2391 259 
Q 2369 338 2359 363 
Q 2134 144 1878 34 
Q 1622 -75 1331 -75 
Q 819 -75 523 203 
Q 228 481 228 906 
Q 228 1188 362 1408 
Q 497 1628 739 1745 
Q 981 1863 1438 1950 
Q 2053 2066 2291 2166 
L 2291 2253 
Q 2291 2506 2166 2614 
Q 2041 2722 1694 2722 
Q 1459 2722 1328 2630 
Q 1197 2538 1116 2306 
z
M 2291 1594 
Q 2122 1538 1756 1459 
Q 1391 1381 1278 1306 
Q 1106 1184 1106 997 
Q 1106 813 1243 678 
Q 1381 544 1594 544 
Q 1831 544 2047 700 
Q 2206 819 2256 991 
Q 2291 1103 2291 1419 
L 2291 1594 
z
" transform="scale(0.015625)"/>
       <path id="Arial-BoldMT-6e" d="M 3478 0 
L 2600 0 
L 2600 1694 
Q 2600 2231 2544 2389 
Q 2488 2547 2361 2634 
Q 2234 2722 2056 2722 
Q 1828 2722 1647 2597 
Q 1466 2472 1398 2265 
Q 1331 2059 1331 1503 
L 1331 0 
L 453 0 
L 453 3319 
L 1269 3319 
L 1269 2831 
Q 1703 3394 2363 3394 
Q 2653 3394 2893 3289 
Q 3134 3184 3257 3021 
Q 3381 2859 3429 2653 
Q 3478 2447 3478 2063 
L 3478 0 
z
" transform="scale(0.015625)"/>
       <path id="Arial-BoldMT-67" d="M 378 -219 
L 1381 -341 
Q 1406 -516 1497 -581 
Q 1622 -675 1891 -675 
Q 2234 -675 2406 -572 
Q 2522 -503 2581 -350 
Q 2622 -241 2622 53 
L 2622 538 
Q 2228 0 1628 0 
Q 959 0 569 566 
Q 263 1013 263 1678 
Q 263 2513 664 2953 
Q 1066 3394 1663 3394 
Q 2278 3394 2678 2853 
L 2678 3319 
L 3500 3319 
L 3500 341 
Q 3500 -247 3403 -537 
Q 3306 -828 3131 -993 
Q 2956 -1159 2664 -1253 
Q 2372 -1347 1925 -1347 
Q 1081 -1347 728 -1058 
Q 375 -769 375 -325 
Q 375 -281 378 -219 
z
M 1163 1728 
Q 1163 1200 1367 954 
Q 1572 709 1872 709 
Q 2194 709 2416 961 
Q 2638 1213 2638 1706 
Q 2638 2222 2425 2472 
Q 2213 2722 1888 2722 
Q 1572 2722 1367 2476 
Q 1163 2231 1163 1728 
z
" transform="scale(0.015625)"/>
       <path id="Arial-BoldMT-65" d="M 2381 1056 
L 3256 909 
Q 3088 428 2723 176 
Q 2359 -75 1813 -75 
Q 947 -75 531 491 
Q 203 944 203 1634 
Q 203 2459 634 2926 
Q 1066 3394 1725 3394 
Q 2466 3394 2894 2905 
Q 3322 2416 3303 1406 
L 1103 1406 
Q 1113 1016 1316 798 
Q 1519 581 1822 581 
Q 2028 581 2168 693 
Q 2309 806 2381 1056 
z
M 2431 1944 
Q 2422 2325 2234 2523 
Q 2047 2722 1778 2722 
Q 1491 2722 1303 2513 
Q 1116 2303 1119 1944 
L 2431 1944 
z
" transform="scale(0.015625)"/>
       <path id="Arial-BoldMT-20" transform="scale(0.015625)"/>
       <path id="Arial-BoldMT-64" d="M 3503 0 
L 2688 0 
L 2688 488 
Q 2484 203 2207 64 
Q 1931 -75 1650 -75 
Q 1078 -75 670 386 
Q 263 847 263 1672 
Q 263 2516 659 2955 
Q 1056 3394 1663 3394 
Q 2219 3394 2625 2931 
L 2625 4581 
L 3503 4581 
L 3503 0 
z
M 1159 1731 
Q 1159 1200 1306 963 
Q 1519 619 1900 619 
Q 2203 619 2415 876 
Q 2628 1134 2628 1647 
Q 2628 2219 2422 2470 
Q 2216 2722 1894 2722 
Q 1581 2722 1370 2473 
Q 1159 2225 1159 1731 
z
" transform="scale(0.015625)"/>
       <path id="Arial-BoldMT-3b4" d="M 553 4581 
L 3356 4581 
L 3356 3853 
L 1791 3853 
Q 2056 3606 2688 3184 
Q 3091 2913 3262 2720 
Q 3434 2528 3537 2239 
Q 3641 1950 3641 1634 
Q 3641 931 3209 428 
Q 2778 -75 1950 -75 
Q 1384 -75 1046 134 
Q 709 344 476 748 
Q 244 1153 244 1669 
Q 244 2269 587 2723 
Q 931 3178 1475 3269 
Q 1125 3516 1003 3613 
L 553 3963 
L 553 4581 
z
M 1091 1569 
Q 1091 1100 1336 848 
Q 1581 597 1934 597 
Q 2288 597 2541 861 
Q 2794 1125 2794 1600 
Q 2794 2078 2547 2340 
Q 2300 2603 1956 2603 
Q 1556 2603 1323 2314 
Q 1091 2025 1091 1569 
z
" transform="scale(0.015625)"/>
       <path id="Arial-BoldMT-5f" d="M -59 -1266 
L -59 -697 
L 3591 -697 
L 3591 -1266 
L -59 -1266 
z
" transform="scale(0.015625)"/>
       <path id="Arial-BoldMT-70" d="M 434 3319 
L 1253 3319 
L 1253 2831 
Q 1413 3081 1684 3237 
Q 1956 3394 2288 3394 
Q 2866 3394 3269 2941 
Q 3672 2488 3672 1678 
Q 3672 847 3265 386 
Q 2859 -75 2281 -75 
Q 2006 -75 1782 34 
Q 1559 144 1313 409 
L 1313 -1263 
L 434 -1263 
L 434 3319 
z
M 1303 1716 
Q 1303 1156 1525 889 
Q 1747 622 2066 622 
Q 2372 622 2575 867 
Q 2778 1113 2778 1672 
Q 2778 2194 2568 2447 
Q 2359 2700 2050 2700 
Q 1728 2700 1515 2451 
Q 1303 2203 1303 1716 
z
" transform="scale(0.015625)"/>
       <path id="Arial-BoldMT-78" d="M 38 0 
L 1234 1709 
L 88 3319 
L 1159 3319 
L 1747 2406 
L 2366 3319 
L 3397 3319 
L 2272 1747 
L 3500 0 
L 2422 0 
L 1747 1028 
L 1066 0 
L 38 0 
z
" transform="scale(0.015625)"/>
       <path id="Arial-BoldMT-28" d="M 1916 -1347 
L 1313 -1347 
Q 834 -625 584 153 
Q 334 931 334 1659 
Q 334 2563 644 3369 
Q 913 4069 1325 4659 
L 1925 4659 
Q 1497 3713 1336 3048 
Q 1175 2384 1175 1641 
Q 1175 1128 1270 590 
Q 1366 53 1531 -431 
Q 1641 -750 1916 -1347 
z
" transform="scale(0.015625)"/>
       <path id="Arial-BoldMT-3bc" d="M 450 3319 
L 1328 3319 
L 1328 1809 
Q 1328 1388 1372 1150 
Q 1416 913 1570 766 
Q 1725 619 1941 619 
Q 2166 619 2330 772 
Q 2494 925 2541 1144 
Q 2588 1363 2588 1800 
L 2588 3319 
L 3466 3319 
L 3466 0 
L 2656 0 
L 2656 400 
Q 2409 -75 1988 -75 
Q 1538 -75 1328 400 
L 1328 -1263 
L 450 -1263 
L 450 3319 
z
" transform="scale(0.015625)"/>
       <path id="Arial-BoldMT-6d" d="M 394 3319 
L 1203 3319 
L 1203 2866 
Q 1638 3394 2238 3394 
Q 2556 3394 2790 3262 
Q 3025 3131 3175 2866 
Q 3394 3131 3647 3262 
Q 3900 3394 4188 3394 
Q 4553 3394 4806 3245 
Q 5059 3097 5184 2809 
Q 5275 2597 5275 2122 
L 5275 0 
L 4397 0 
L 4397 1897 
Q 4397 2391 4306 2534 
Q 4184 2722 3931 2722 
Q 3747 2722 3584 2609 
Q 3422 2497 3350 2280 
Q 3278 2063 3278 1594 
L 3278 0 
L 2400 0 
L 2400 1819 
Q 2400 2303 2353 2443 
Q 2306 2584 2207 2653 
Q 2109 2722 1941 2722 
Q 1738 2722 1575 2612 
Q 1413 2503 1342 2297 
Q 1272 2091 1272 1613 
L 1272 0 
L 394 0 
L 394 3319 
z
" transform="scale(0.015625)"/>
       <path id="Arial-BoldMT-29" d="M 216 -1347 
Q 475 -791 581 -494 
Q 688 -197 778 190 
Q 869 578 912 926 
Q 956 1275 956 1641 
Q 956 2384 797 3048 
Q 638 3713 209 4659 
L 806 4659 
Q 1278 3988 1539 3234 
Q 1800 2481 1800 1706 
Q 1800 1053 1594 306 
Q 1359 -531 822 -1347 
L 216 -1347 
z
" transform="scale(0.015625)"/>
      </defs>
      <use xlink:href="#Arial-BoldMT-52"/>
      <use xlink:href="#Arial-BoldMT-61" x="72.216797"/>
      <use xlink:href="#Arial-BoldMT-6e" x="127.832031"/>
      <use xlink:href="#Arial-BoldMT-67" x="188.916016"/>
      <use xlink:href="#Arial-BoldMT-65" x="250"/>
      <use xlink:href="#Arial-BoldMT-20" x="305.615234"/>
      <use xlink:href="#Arial-BoldMT-64" x="333.398438"/>
      <use xlink:href="#Arial-BoldMT-65" x="394.482422"/>
      <use xlink:href="#Arial-BoldMT-20" x="450.097656"/>
      <use xlink:href="#Arial-BoldMT-3b4" x="477.880859"/>
      <use xlink:href="#Arial-BoldMT-5f" x="538.525391"/>
      <use xlink:href="#Arial-BoldMT-61" x="594.140625"/>
      <use xlink:href="#Arial-BoldMT-70" x="649.755859"/>
      <use xlink:href="#Arial-BoldMT-65" x="710.839844"/>
      <use xlink:href="#Arial-BoldMT-78" x="766.455078"/>
      <use xlink:href="#Arial-BoldMT-20" x="822.070312"/>
      <use xlink:href="#Arial-BoldMT-28" x="849.853516"/>
      <use xlink:href="#Arial-BoldMT-3bc" x="883.154297"/>
      <use xlink:href="#Arial-BoldMT-6d" x="944.335938"/>
      <use xlink:href="#Arial-BoldMT-29" x="1033.251953"/>
     </g>
    </g>
   </g>
   <g id="matplotlib.axis_2">
    <g id="ytick_1">
     <g id="line2d_15">
      <path d="M 83.200156 196.460064 
L 529.600156 196.460064 
" clip-path="url(#p998973ef99)" style="fill: none; stroke: #b0b0b0; stroke-opacity: 0.3; stroke-width: 0.6; stroke-linecap: square"/>
     </g>
     <g id="line2d_16">
      <defs>
       <path id="m587eb20072" d="M 0 0 
L -3.5 0 
" style="stroke: #636363; stroke-width: 0.8"/>
      </defs>
      <g>
       <use xlink:href="#m587eb20072" x="83.200156" y="196.460064" style="fill: #636363; stroke: #636363; stroke-width: 0.8"/>
      </g>
     </g>
     <g id="text_9">
      <!-- k₁ (Fibras) -->
      <g style="fill: #636363" transform="translate(21.509531 200.463892) scale(0.11 -0.11)">
       <defs>
        <path id="ArialMT-6b" d="M 425 0 
L 425 4581 
L 988 4581 
L 988 1969 
L 2319 3319 
L 3047 3319 
L 1778 2088 
L 3175 0 
L 2481 0 
L 1384 1697 
L 988 1316 
L 988 0 
L 425 0 
z
" transform="scale(0.015625)"/>
        <path id="ArialMT-2081" d="M 800 0 
L 800 4000 
L 4000 4000 
L 4000 0 
L 800 0 
z
M 900 100 
L 3900 100 
L 3900 3900 
L 900 3900 
L 900 100 
z
" transform="scale(0.015625)"/>
        <path id="ArialMT-20" transform="scale(0.015625)"/>
        <path id="ArialMT-28" d="M 1497 -1347 
Q 1031 -759 709 28 
Q 388 816 388 1659 
Q 388 2403 628 3084 
Q 909 3875 1497 4659 
L 1900 4659 
Q 1522 4009 1400 3731 
Q 1209 3300 1100 2831 
Q 966 2247 966 1656 
Q 966 153 1900 -1347 
L 1497 -1347 
z
" transform="scale(0.015625)"/>
        <path id="ArialMT-46" d="M 525 0 
L 525 4581 
L 3616 4581 
L 3616 4041 
L 1131 4041 
L 1131 2622 
L 3281 2622 
L 3281 2081 
L 1131 2081 
L 1131 0 
L 525 0 
z
" transform="scale(0.015625)"/>
        <path id="ArialMT-69" d="M 425 3934 
L 425 4581 
L 988 4581 
L 988 3934 
L 425 3934 
z
M 425 0 
L 425 3319 
L 988 3319 
L 988 0 
L 425 0 
z
" transform="scale(0.015625)"/>
        <path id="ArialMT-62" d="M 941 0 
L 419 0 
L 419 4581 
L 981 4581 
L 981 2947 
Q 1338 3394 1891 3394 
Q 2197 3394 2470 3270 
Q 2744 3147 2920 2923 
Q 3097 2700 3197 2384 
Q 3297 2069 3297 1709 
Q 3297 856 2875 390 
Q 2453 -75 1863 -75 
Q 1275 -75 941 416 
L 941 0 
z
M 934 1684 
Q 934 1088 1097 822 
Q 1363 388 1816 388 
Q 2184 388 2453 708 
Q 2722 1028 2722 1663 
Q 2722 2313 2464 2622 
Q 2206 2931 1841 2931 
Q 1472 2931 1203 2611 
Q 934 2291 934 1684 
z
" transform="scale(0.015625)"/>
        <path id="ArialMT-72" d="M 416 0 
L 416 3319 
L 922 3319 
L 922 2816 
Q 1116 3169 1280 3281 
Q 1444 3394 1641 3394 
Q 1925 3394 2219 3213 
L 2025 2691 
Q 1819 2813 1613 2813 
Q 1428 2813 1281 2702 
Q 1134 2591 1072 2394 
Q 978 2094 978 1738 
L 978 0 
L 416 0 
z
" transform="scale(0.015625)"/>
        <path id="ArialMT-61" d="M 2588 409 
Q 2275 144 1986 34 
Q 1697 -75 1366 -75 
Q 819 -75 525 192 
Q 231 459 231 875 
Q 231 1119 342 1320 
Q 453 1522 633 1644 
Q 813 1766 1038 1828 
Q 1203 1872 1538 1913 
Q 2219 1994 2541 2106 
Q 2544 2222 2544 2253 
Q 2544 2597 2384 2738 
Q 2169 2928 1744 2928 
Q 1347 2928 1158 2789 
Q 969 2650 878 2297 
L 328 2372 
Q 403 2725 575 2942 
Q 747 3159 1072 3276 
Q 1397 3394 1825 3394 
Q 2250 3394 2515 3294 
Q 2781 3194 2906 3042 
Q 3031 2891 3081 2659 
Q 3109 2516 3109 2141 
L 3109 1391 
Q 3109 606 3145 398 
Q 3181 191 3288 0 
L 2700 0 
Q 2613 175 2588 409 
z
M 2541 1666 
Q 2234 1541 1622 1453 
Q 1275 1403 1131 1340 
Q 988 1278 909 1158 
Q 831 1038 831 891 
Q 831 666 1001 516 
Q 1172 366 1500 366 
Q 1825 366 2078 508 
Q 2331 650 2450 897 
Q 2541 1088 2541 1459 
L 2541 1666 
z
" transform="scale(0.015625)"/>
        <path id="ArialMT-73" d="M 197 991 
L 753 1078 
Q 800 744 1014 566 
Q 1228 388 1613 388 
Q 2000 388 2187 545 
Q 2375 703 2375 916 
Q 2375 1106 2209 1216 
Q 2094 1291 1634 1406 
Q 1016 1563 777 1677 
Q 538 1791 414 1992 
Q 291 2194 291 2438 
Q 291 2659 392 2848 
Q 494 3038 669 3163 
Q 800 3259 1026 3326 
Q 1253 3394 1513 3394 
Q 1903 3394 2198 3281 
Q 2494 3169 2634 2976 
Q 2775 2784 2828 2463 
L 2278 2388 
Q 2241 2644 2061 2787 
Q 1881 2931 1553 2931 
Q 1166 2931 1000 2803 
Q 834 2675 834 2503 
Q 834 2394 903 2306 
Q 972 2216 1119 2156 
Q 1203 2125 1616 2013 
Q 2213 1853 2448 1751 
Q 2684 1650 2818 1456 
Q 2953 1263 2953 975 
Q 2953 694 2789 445 
Q 2625 197 2315 61 
Q 2006 -75 1616 -75 
Q 969 -75 630 194 
Q 291 463 197 991 
z
" transform="scale(0.015625)"/>
        <path id="ArialMT-29" d="M 791 -1347 
L 388 -1347 
Q 1322 153 1322 1656 
Q 1322 2244 1188 2822 
Q 1081 3291 891 3722 
Q 769 4003 388 4659 
L 791 4659 
Q 1378 3875 1659 3084 
Q 1900 2403 1900 1659 
Q 1900 816 1576 28 
Q 1253 -759 791 -1347 
z
" transform="scale(0.015625)"/>
       </defs>
       <use xlink:href="#ArialMT-6b"/>
       <use xlink:href="#ArialMT-2081" x="50"/>
       <use xlink:href="#ArialMT-20" x="125"/>
       <use xlink:href="#ArialMT-28" x="152.783203"/>
       <use xlink:href="#ArialMT-46" x="186.083984"/>
       <use xlink:href="#ArialMT-69" x="247.167969"/>
       <use xlink:href="#ArialMT-62" x="269.384766"/>
       <use xlink:href="#ArialMT-72" x="325"/>
       <use xlink:href="#ArialMT-61" x="358.300781"/>
       <use xlink:href="#ArialMT-73" x="413.916016"/>
       <use xlink:href="#ArialMT-29" x="463.916016"/>
      </g>
     </g>
    </g>
    <g id="ytick_2">
     <g id="line2d_17">
      <path d="M 83.200156 127.283594 
L 529.600156 127.283594 
" clip-path="url(#p998973ef99)" style="fill: none; stroke: #b0b0b0; stroke-opacity: 0.3; stroke-width: 0.6; stroke-linecap: square"/>
     </g>
     <g id="line2d_18">
      <g>
       <use xlink:href="#m587eb20072" x="83.200156" y="127.283594" style="fill: #636363; stroke: #636363; stroke-width: 0.8"/>
      </g>
     </g>
     <g id="text_10">
      <!-- κ (Dispersão) -->
      <g style="fill: #636363" transform="translate(10.8 131.287422) scale(0.11 -0.11)">
       <defs>
        <path id="ArialMT-3ba" d="M 419 3319 
L 978 3319 
L 978 2016 
L 2325 3319 
L 3069 3319 
L 1584 1941 
L 3197 0 
L 2478 0 
L 1184 1563 
L 978 1372 
L 978 0 
L 419 0 
L 419 3319 
z
" transform="scale(0.015625)"/>
        <path id="ArialMT-44" d="M 494 0 
L 494 4581 
L 2072 4581 
Q 2606 4581 2888 4516 
Q 3281 4425 3559 4188 
Q 3922 3881 4101 3404 
Q 4281 2928 4281 2316 
Q 4281 1794 4159 1391 
Q 4038 988 3847 723 
Q 3656 459 3429 307 
Q 3203 156 2883 78 
Q 2563 0 2147 0 
L 494 0 
z
M 1100 541 
L 2078 541 
Q 2531 541 2789 625 
Q 3047 709 3200 863 
Q 3416 1078 3536 1442 
Q 3656 1806 3656 2325 
Q 3656 3044 3420 3430 
Q 3184 3816 2847 3947 
Q 2603 4041 2063 4041 
L 1100 4041 
L 1100 541 
z
" transform="scale(0.015625)"/>
        <path id="ArialMT-70" d="M 422 -1272 
L 422 3319 
L 934 3319 
L 934 2888 
Q 1116 3141 1344 3267 
Q 1572 3394 1897 3394 
Q 2322 3394 2647 3175 
Q 2972 2956 3137 2557 
Q 3303 2159 3303 1684 
Q 3303 1175 3120 767 
Q 2938 359 2589 142 
Q 2241 -75 1856 -75 
Q 1575 -75 1351 44 
Q 1128 163 984 344 
L 984 -1272 
L 422 -1272 
z
M 931 1641 
Q 931 1000 1190 694 
Q 1450 388 1819 388 
Q 2194 388 2461 705 
Q 2728 1022 2728 1688 
Q 2728 2322 2467 2637 
Q 2206 2953 1844 2953 
Q 1484 2953 1207 2617 
Q 931 2281 931 1641 
z
" transform="scale(0.015625)"/>
        <path id="ArialMT-65" d="M 2694 1069 
L 3275 997 
Q 3138 488 2766 206 
Q 2394 -75 1816 -75 
Q 1088 -75 661 373 
Q 234 822 234 1631 
Q 234 2469 665 2931 
Q 1097 3394 1784 3394 
Q 2450 3394 2872 2941 
Q 3294 2488 3294 1666 
Q 3294 1616 3291 1516 
L 816 1516 
Q 847 969 1125 678 
Q 1403 388 1819 388 
Q 2128 388 2347 550 
Q 2566 713 2694 1069 
z
M 847 1978 
L 2700 1978 
Q 2663 2397 2488 2606 
Q 2219 2931 1791 2931 
Q 1403 2931 1139 2672 
Q 875 2413 847 1978 
z
" transform="scale(0.015625)"/>
        <path id="ArialMT-e3" d="M 2588 409 
Q 2275 144 1986 34 
Q 1697 -75 1366 -75 
Q 819 -75 525 192 
Q 231 459 231 875 
Q 231 1119 342 1320 
Q 453 1522 633 1644 
Q 813 1766 1038 1828 
Q 1203 1872 1538 1913 
Q 2219 1994 2541 2106 
Q 2544 2222 2544 2253 
Q 2544 2597 2384 2738 
Q 2169 2928 1744 2928 
Q 1347 2928 1158 2789 
Q 969 2650 878 2297 
L 328 2372 
Q 403 2725 575 2942 
Q 747 3159 1072 3276 
Q 1397 3394 1825 3394 
Q 2250 3394 2515 3294 
Q 2781 3194 2906 3042 
Q 3031 2891 3081 2659 
Q 3109 2516 3109 2141 
L 3109 1391 
Q 3109 606 3145 398 
Q 3181 191 3288 0 
L 2700 0 
Q 2613 175 2588 409 
z
M 2541 1666 
Q 2234 1541 1622 1453 
Q 1275 1403 1131 1340 
Q 988 1278 909 1158 
Q 831 1038 831 891 
Q 831 666 1001 516 
Q 1172 366 1500 366 
Q 1825 366 2078 508 
Q 2331 650 2450 897 
Q 2541 1088 2541 1459 
L 2541 1666 
z
M 718 3809 
Q 715 4134 896 4328 
Q 1074 4522 1352 4522 
Q 1546 4522 1880 4353 
Q 2065 4259 2174 4259 
Q 2274 4259 2327 4314 
Q 2380 4369 2402 4531 
L 2809 4531 
Q 2799 4175 2629 3997 
Q 2459 3819 2196 3819 
Q 1999 3819 1677 3994 
Q 1468 4106 1371 4106 
Q 1265 4106 1199 4031 
Q 1130 3956 1134 3809 
L 718 3809 
z
" transform="scale(0.015625)"/>
        <path id="ArialMT-6f" d="M 213 1659 
Q 213 2581 725 3025 
Q 1153 3394 1769 3394 
Q 2453 3394 2887 2945 
Q 3322 2497 3322 1706 
Q 3322 1066 3130 698 
Q 2938 331 2570 128 
Q 2203 -75 1769 -75 
Q 1072 -75 642 372 
Q 213 819 213 1659 
z
M 791 1659 
Q 791 1022 1069 705 
Q 1347 388 1769 388 
Q 2188 388 2466 706 
Q 2744 1025 2744 1678 
Q 2744 2294 2464 2611 
Q 2184 2928 1769 2928 
Q 1347 2928 1069 2612 
Q 791 2297 791 1659 
z
" transform="scale(0.015625)"/>
       </defs>
       <use xlink:href="#ArialMT-3ba"/>
       <use xlink:href="#ArialMT-20" x="50"/>
       <use xlink:href="#ArialMT-28" x="77.783203"/>
       <use xlink:href="#ArialMT-44" x="111.083984"/>
       <use xlink:href="#ArialMT-69" x="183.300781"/>
       <use xlink:href="#ArialMT-73" x="205.517578"/>
       <use xlink:href="#ArialMT-70" x="255.517578"/>
       <use xlink:href="#ArialMT-65" x="311.132812"/>
       <use xlink:href="#ArialMT-72" x="366.748047"/>
       <use xlink:href="#ArialMT-73" x="400.048828"/>
       <use xlink:href="#ArialMT-e3" x="450.048828"/>
       <use xlink:href="#ArialMT-6f" x="505.664062"/>
       <use xlink:href="#ArialMT-29" x="561.279297"/>
      </g>
     </g>
    </g>
    <g id="ytick_3">
     <g id="line2d_19">
      <path d="M 83.200156 58.107123 
L 529.600156 58.107123 
" clip-path="url(#p998973ef99)" style="fill: none; stroke: #b0b0b0; stroke-opacity: 0.3; stroke-width: 0.6; stroke-linecap: square"/>
     </g>
     <g id="line2d_20">
      <g>
       <use xlink:href="#m587eb20072" x="83.200156" y="58.107123" style="fill: #636363; stroke: #636363; stroke-width: 0.8"/>
      </g>
     </g>
     <g id="text_11">
      <!-- c (Matriz) -->
      <g style="fill: #636363" transform="translate(30.376562 62.110951) scale(0.11 -0.11)">
       <defs>
        <path id="ArialMT-63" d="M 2588 1216 
L 3141 1144 
Q 3050 572 2676 248 
Q 2303 -75 1759 -75 
Q 1078 -75 664 370 
Q 250 816 250 1647 
Q 250 2184 428 2587 
Q 606 2991 970 3192 
Q 1334 3394 1763 3394 
Q 2303 3394 2647 3120 
Q 2991 2847 3088 2344 
L 2541 2259 
Q 2463 2594 2264 2762 
Q 2066 2931 1784 2931 
Q 1359 2931 1093 2626 
Q 828 2322 828 1663 
Q 828 994 1084 691 
Q 1341 388 1753 388 
Q 2084 388 2306 591 
Q 2528 794 2588 1216 
z
" transform="scale(0.015625)"/>
        <path id="ArialMT-4d" d="M 475 0 
L 475 4581 
L 1388 4581 
L 2472 1338 
Q 2622 884 2691 659 
Q 2769 909 2934 1394 
L 4031 4581 
L 4847 4581 
L 4847 0 
L 4263 0 
L 4263 3834 
L 2931 0 
L 2384 0 
L 1059 3900 
L 1059 0 
L 475 0 
z
" transform="scale(0.015625)"/>
        <path id="ArialMT-74" d="M 1650 503 
L 1731 6 
Q 1494 -44 1306 -44 
Q 1000 -44 831 53 
Q 663 150 594 308 
Q 525 466 525 972 
L 525 2881 
L 113 2881 
L 113 3319 
L 525 3319 
L 525 4141 
L 1084 4478 
L 1084 3319 
L 1650 3319 
L 1650 2881 
L 1084 2881 
L 1084 941 
Q 1084 700 1114 631 
Q 1144 563 1211 522 
Q 1278 481 1403 481 
Q 1497 481 1650 503 
z
" transform="scale(0.015625)"/>
        <path id="ArialMT-7a" d="M 125 0 
L 125 456 
L 2238 2881 
Q 1878 2863 1603 2863 
L 250 2863 
L 250 3319 
L 2963 3319 
L 2963 2947 
L 1166 841 
L 819 456 
Q 1197 484 1528 484 
L 3063 484 
L 3063 0 
L 125 0 
z
" transform="scale(0.015625)"/>
       </defs>
       <use xlink:href="#ArialMT-63"/>
       <use xlink:href="#ArialMT-20" x="50"/>
       <use xlink:href="#ArialMT-28" x="77.783203"/>
       <use xlink:href="#ArialMT-4d" x="111.083984"/>
       <use xlink:href="#ArialMT-61" x="194.384766"/>
       <use xlink:href="#ArialMT-74" x="250"/>
       <use xlink:href="#ArialMT-72" x="277.783203"/>
       <use xlink:href="#ArialMT-69" x="311.083984"/>
       <use xlink:href="#ArialMT-7a" x="333.300781"/>
       <use xlink:href="#ArialMT-29" x="383.300781"/>
      </g>
     </g>
    </g>
   </g>
   <g id="patch_6">
    <path d="M 83.200156 224.303594 
L 83.200156 30.263594 
" style="fill: none; stroke: #636363; stroke-width: 1.2; stroke-linejoin: miter; stroke-linecap: square"/>
   </g>
   <g id="patch_7">
    <path d="M 529.600156 224.303594 
L 529.600156 30.263594 
" style="fill: none; stroke: #636363; stroke-width: 1.2; stroke-linejoin: miter; stroke-linecap: square"/>
   </g>
   <g id="patch_8">
    <path d="M 83.200156 224.303594 
L 529.600156 224.303594 
" style="fill: none; stroke: #636363; stroke-width: 1.2; stroke-linejoin: miter; stroke-linecap: square"/>
   </g>
   <g id="patch_9">
    <path d="M 83.200156 30.263594 
L 529.600156 30.263594 
" style="fill: none; stroke: #636363; stroke-width: 1.2; stroke-linejoin: miter; stroke-linecap: square"/>
   </g>
   <g id="text_12">
    <!-- 14.8 μm -->
    <g style="fill: #636363" transform="translate(93.054023 199.327799) scale(0.11 -0.11)">
     <defs>
      <path id="Arial-BoldMT-31" d="M 2519 0 
L 1641 0 
L 1641 3309 
Q 1159 2859 506 2644 
L 506 3441 
Q 850 3553 1253 3867 
Q 1656 4181 1806 4600 
L 2519 4600 
L 2519 0 
z
" transform="scale(0.015625)"/>
      <path id="Arial-BoldMT-34" d="M 1994 0 
L 1994 922 
L 119 922 
L 119 1691 
L 2106 4600 
L 2844 4600 
L 2844 1694 
L 3413 1694 
L 3413 922 
L 2844 922 
L 2844 0 
L 1994 0 
z
M 1994 1694 
L 1994 3259 
L 941 1694 
L 1994 1694 
z
" transform="scale(0.015625)"/>
      <path id="Arial-BoldMT-2e" d="M 459 0 
L 459 878 
L 1338 878 
L 1338 0 
L 459 0 
z
" transform="scale(0.015625)"/>
      <path id="Arial-BoldMT-38" d="M 1025 2472 
Q 684 2616 529 2867 
Q 375 3119 375 3419 
Q 375 3931 733 4265 
Q 1091 4600 1750 4600 
Q 2403 4600 2764 4265 
Q 3125 3931 3125 3419 
Q 3125 3100 2959 2851 
Q 2794 2603 2494 2472 
Q 2875 2319 3073 2025 
Q 3272 1731 3272 1347 
Q 3272 713 2867 316 
Q 2463 -81 1791 -81 
Q 1166 -81 750 247 
Q 259 634 259 1309 
Q 259 1681 443 1992 
Q 628 2303 1025 2472 
z
M 1206 3356 
Q 1206 3094 1354 2947 
Q 1503 2800 1750 2800 
Q 2000 2800 2150 2948 
Q 2300 3097 2300 3359 
Q 2300 3606 2151 3754 
Q 2003 3903 1759 3903 
Q 1506 3903 1356 3753 
Q 1206 3603 1206 3356 
z
M 1125 1394 
Q 1125 1031 1311 828 
Q 1497 625 1775 625 
Q 2047 625 2225 820 
Q 2403 1016 2403 1384 
Q 2403 1706 2222 1901 
Q 2041 2097 1763 2097 
Q 1441 2097 1283 1875 
Q 1125 1653 1125 1394 
z
" transform="scale(0.015625)"/>
     </defs>
     <use xlink:href="#Arial-BoldMT-31"/>
     <use xlink:href="#Arial-BoldMT-34" x="55.615234"/>
     <use xlink:href="#Arial-BoldMT-2e" x="111.230469"/>
     <use xlink:href="#Arial-BoldMT-38" x="139.013672"/>
     <use xlink:href="#Arial-BoldMT-20" x="194.628906"/>
     <use xlink:href="#Arial-BoldMT-3bc" x="222.412109"/>
     <use xlink:href="#Arial-BoldMT-6d" x="283.59375"/>
    </g>
   </g>
   <g id="text_13">
    <!-- 27.6 μm -->
    <g style="fill: #636363" transform="translate(97.286556 130.151328) scale(0.11 -0.11)">
     <defs>
      <path id="Arial-BoldMT-32" d="M 3238 816 
L 3238 0 
L 159 0 
Q 209 463 459 877 
Q 709 1291 1447 1975 
Q 2041 2528 2175 2725 
Q 2356 2997 2356 3263 
Q 2356 3556 2198 3714 
Q 2041 3872 1763 3872 
Q 1488 3872 1325 3706 
Q 1163 3541 1138 3156 
L 263 3244 
Q 341 3969 753 4284 
Q 1166 4600 1784 4600 
Q 2463 4600 2850 4234 
Q 3238 3869 3238 3325 
Q 3238 3016 3127 2736 
Q 3016 2456 2775 2150 
Q 2616 1947 2200 1565 
Q 1784 1184 1673 1059 
Q 1563 934 1494 816 
L 3238 816 
z
" transform="scale(0.015625)"/>
      <path id="Arial-BoldMT-37" d="M 272 3703 
L 272 4519 
L 3275 4519 
L 3275 3881 
Q 2903 3516 2518 2831 
Q 2134 2147 1932 1376 
Q 1731 606 1734 0 
L 888 0 
Q 909 950 1279 1937 
Q 1650 2925 2269 3703 
L 272 3703 
z
" transform="scale(0.015625)"/>
      <path id="Arial-BoldMT-36" d="M 3247 3459 
L 2397 3366 
Q 2366 3628 2234 3753 
Q 2103 3878 1894 3878 
Q 1616 3878 1423 3628 
Q 1231 3378 1181 2588 
Q 1509 2975 1997 2975 
Q 2547 2975 2939 2556 
Q 3331 2138 3331 1475 
Q 3331 772 2918 347 
Q 2506 -78 1859 -78 
Q 1166 -78 719 461 
Q 272 1000 272 2228 
Q 272 3488 737 4044 
Q 1203 4600 1947 4600 
Q 2469 4600 2811 4308 
Q 3153 4016 3247 3459 
z
M 1256 1544 
Q 1256 1116 1453 883 
Q 1650 650 1903 650 
Q 2147 650 2309 840 
Q 2472 1031 2472 1466 
Q 2472 1913 2297 2120 
Q 2122 2328 1859 2328 
Q 1606 2328 1431 2129 
Q 1256 1931 1256 1544 
z
" transform="scale(0.015625)"/>
     </defs>
     <use xlink:href="#Arial-BoldMT-32"/>
     <use xlink:href="#Arial-BoldMT-37" x="55.615234"/>
     <use xlink:href="#Arial-BoldMT-2e" x="111.230469"/>
     <use xlink:href="#Arial-BoldMT-36" x="139.013672"/>
     <use xlink:href="#Arial-BoldMT-20" x="194.628906"/>
     <use xlink:href="#Arial-BoldMT-3bc" x="222.412109"/>
     <use xlink:href="#Arial-BoldMT-6d" x="283.59375"/>
    </g>
   </g>
   <g id="text_14">
    <!-- 1186.8 μm -->
    <g style="fill: #636363" transform="translate(480.595356 60.974858) scale(0.11 -0.11)">
     <use xlink:href="#Arial-BoldMT-31"/>
     <use xlink:href="#Arial-BoldMT-31" x="50.115234"/>
     <use xlink:href="#Arial-BoldMT-38" x="105.730469"/>
     <use xlink:href="#Arial-BoldMT-36" x="161.345703"/>
     <use xlink:href="#Arial-BoldMT-2e" x="216.960938"/>
     <use xlink:href="#Arial-BoldMT-38" x="244.744141"/>
     <use xlink:href="#Arial-BoldMT-20" x="300.359375"/>
     <use xlink:href="#Arial-BoldMT-3bc" x="328.142578"/>
     <use xlink:href="#Arial-BoldMT-6d" x="389.324219"/>
    </g>
   </g>
   <g id="text_15">
    <g id="patch_10">
     <path d="M 281.600156 76.920542 
L 399.797031 76.920542 
Q 402.797031 76.920542 402.797031 73.920542 
L 402.797031 64.754917 
Q 402.797031 61.754917 399.797031 61.754917 
L 281.600156 61.754917 
Q 278.600156 61.754917 278.600156 64.754917 
L 278.600156 73.920542 
Q 278.600156 76.920542 281.600156 76.920542 
z
" style="fill: #e8f4fd; opacity: 0.8; stroke: #2171b5; stroke-linejoin: miter"/>
    </g>
    <!-- c domina 43× mais que κ -->
    <g style="fill: #2171b5" transform="translate(281.600156 71.942417) scale(0.1 -0.1)">
     <defs>
      <path id="Arial-BoldItalicMT-63" d="M 2506 1250 
L 3378 1109 
Q 3163 528 2741 225 
Q 2319 -78 1763 -78 
Q 1128 -78 756 300 
Q 384 678 384 1341 
Q 384 1881 609 2362 
Q 834 2844 1287 3120 
Q 1741 3397 2281 3397 
Q 2869 3397 3219 3090 
Q 3569 2784 3613 2284 
L 2759 2194 
Q 2728 2472 2589 2603 
Q 2450 2734 2225 2734 
Q 1966 2734 1741 2540 
Q 1516 2347 1395 1961 
Q 1275 1575 1275 1238 
Q 1275 944 1419 784 
Q 1563 625 1778 625 
Q 1994 625 2194 781 
Q 2394 938 2506 1250 
z
" transform="scale(0.015625)"/>
      <path id="Arial-BoldItalicMT-20" transform="scale(0.015625)"/>
      <path id="Arial-BoldItalicMT-64" d="M 3322 0 
L 2472 0 
L 2547 359 
Q 2303 125 2067 23 
Q 1831 -78 1534 -78 
Q 1019 -78 698 273 
Q 378 625 378 1313 
Q 378 2109 828 2753 
Q 1278 3397 2019 3397 
Q 2688 3397 3022 2866 
L 3381 4581 
L 4278 4581 
L 3322 0 
z
M 1250 1350 
Q 1250 994 1429 794 
Q 1609 594 1872 594 
Q 2116 594 2327 761 
Q 2538 928 2664 1272 
Q 2791 1616 2791 1931 
Q 2791 2291 2597 2512 
Q 2403 2734 2150 2734 
Q 1756 2734 1503 2296 
Q 1250 1859 1250 1350 
z
" transform="scale(0.015625)"/>
      <path id="Arial-BoldItalicMT-6f" d="M 388 1378 
Q 388 2300 908 2848 
Q 1428 3397 2275 3397 
Q 3009 3397 3421 2992 
Q 3834 2588 3834 1903 
Q 3834 1097 3318 509 
Q 2803 -78 1938 -78 
Q 1469 -78 1106 109 
Q 744 297 566 640 
Q 388 984 388 1378 
z
M 2944 2019 
Q 2944 2338 2758 2530 
Q 2572 2722 2278 2722 
Q 1988 2722 1763 2542 
Q 1538 2363 1413 2020 
Q 1288 1678 1288 1391 
Q 1288 1034 1481 825 
Q 1675 616 1969 616 
Q 2338 616 2588 931 
Q 2944 1378 2944 2019 
z
" transform="scale(0.015625)"/>
      <path id="Arial-BoldItalicMT-6d" d="M 922 3319 
L 1766 3319 
L 1681 2916 
Q 2175 3397 2719 3397 
Q 3094 3397 3297 3240 
Q 3500 3084 3556 2809 
Q 3728 3059 4050 3228 
Q 4372 3397 4719 3397 
Q 5116 3397 5337 3184 
Q 5559 2972 5559 2622 
Q 5559 2450 5472 2028 
L 5047 0 
L 4150 0 
L 4575 2028 
Q 4653 2409 4653 2459 
Q 4653 2597 4570 2676 
Q 4488 2756 4322 2756 
Q 3988 2756 3725 2403 
Q 3534 2150 3400 1506 
L 3084 0 
L 2188 0 
L 2606 2006 
Q 2678 2353 2678 2456 
Q 2678 2588 2589 2672 
Q 2500 2756 2344 2756 
Q 2197 2756 2040 2668 
Q 1884 2581 1767 2428 
Q 1650 2275 1566 2034 
Q 1528 1922 1444 1525 
L 1125 0 
L 228 0 
L 922 3319 
z
" transform="scale(0.015625)"/>
      <path id="Arial-BoldItalicMT-69" d="M 1213 4581 
L 2109 4581 
L 1941 3769 
L 1044 3769 
L 1213 4581 
z
M 950 3319 
L 1847 3319 
L 1153 0 
L 256 0 
L 950 3319 
z
" transform="scale(0.015625)"/>
      <path id="Arial-BoldItalicMT-6e" d="M 963 3319 
L 1813 3319 
L 1725 2888 
Q 2044 3163 2320 3280 
Q 2597 3397 2903 3397 
Q 3313 3397 3548 3162 
Q 3784 2928 3784 2541 
Q 3784 2366 3681 1878 
L 3291 0 
L 2394 0 
L 2788 1884 
Q 2875 2306 2875 2388 
Q 2875 2559 2773 2657 
Q 2672 2756 2491 2756 
Q 2294 2756 2053 2590 
Q 1813 2425 1675 2153 
Q 1575 1959 1450 1363 
L 1166 0 
L 269 0 
L 963 3319 
z
" transform="scale(0.015625)"/>
      <path id="Arial-BoldItalicMT-61" d="M 1522 2378 
L 647 2453 
Q 797 2897 1170 3147 
Q 1544 3397 2159 3397 
Q 2800 3397 3106 3139 
Q 3413 2881 3413 2509 
Q 3413 2359 3386 2190 
Q 3359 2022 3200 1303 
Q 3069 709 3069 472 
Q 3069 259 3144 0 
L 2272 0 
Q 2219 181 2206 375 
Q 2009 156 1753 39 
Q 1497 -78 1238 -78 
Q 825 -78 556 192 
Q 288 463 288 888 
Q 288 1363 583 1647 
Q 878 1931 1638 1991 
Q 2278 2044 2494 2119 
Q 2550 2306 2550 2419 
Q 2550 2563 2434 2659 
Q 2319 2756 2091 2756 
Q 1850 2756 1711 2657 
Q 1572 2559 1522 2378 
z
M 2375 1547 
Q 2294 1525 2159 1506 
Q 1484 1425 1278 1269 
Q 1131 1156 1131 966 
Q 1131 809 1243 701 
Q 1356 594 1541 594 
Q 1744 594 1923 692 
Q 2103 791 2192 945 
Q 2281 1100 2350 1428 
L 2375 1547 
z
" transform="scale(0.015625)"/>
      <path id="Arial-BoldItalicMT-34" d="M 1978 934 
L 175 934 
L 331 1684 
L 2809 4581 
L 3584 4581 
L 2981 1697 
L 3538 1697 
L 3378 934 
L 2822 934 
L 2625 0 
L 1781 0 
L 1978 934 
z
M 2138 1697 
L 2434 3125 
L 1225 1697 
L 2138 1697 
z
" transform="scale(0.015625)"/>
      <path id="Arial-BoldItalicMT-33" d="M 325 1197 
L 1184 1300 
Q 1238 934 1377 793 
Q 1516 653 1747 653 
Q 2053 653 2254 859 
Q 2456 1066 2456 1388 
Q 2456 1669 2293 1833 
Q 2131 1997 1856 1997 
Q 1788 1997 1713 1984 
L 1869 2731 
Q 1916 2725 1959 2725 
Q 2319 2725 2506 2908 
Q 2694 3091 2694 3403 
Q 2694 3625 2567 3753 
Q 2441 3881 2234 3881 
Q 2041 3881 1887 3739 
Q 1734 3597 1644 3253 
L 825 3416 
Q 981 3922 1259 4194 
Q 1681 4600 2297 4600 
Q 2928 4600 3256 4248 
Q 3584 3897 3584 3406 
Q 3584 3050 3375 2762 
Q 3166 2475 2800 2341 
Q 3091 2188 3228 1944 
Q 3366 1700 3366 1434 
Q 3366 928 3006 503 
Q 2516 -78 1741 -78 
Q 1159 -78 782 255 
Q 406 588 325 1197 
z
" transform="scale(0.015625)"/>
      <path id="Arial-BoldItalicMT-d7" d="M 597 1313 
L 1541 2256 
L 591 3203 
L 1172 3784 
L 2122 2838 
L 3066 3781 
L 3631 3213 
L 2688 2269 
L 3641 1316 
L 3059 734 
L 2106 1688 
L 1163 744 
L 597 1313 
z
" transform="scale(0.015625)"/>
      <path id="Arial-BoldItalicMT-73" d="M 141 928 
L 1009 1066 
Q 1125 791 1297 677 
Q 1469 563 1766 563 
Q 2072 563 2256 700 
Q 2384 794 2384 928 
Q 2384 1019 2319 1091 
Q 2250 1159 1947 1259 
Q 1134 1528 941 1684 
Q 638 1928 638 2322 
Q 638 2716 931 3000 
Q 1341 3397 2147 3397 
Q 2788 3397 3116 3162 
Q 3444 2928 3531 2528 
L 2703 2384 
Q 2638 2566 2491 2656 
Q 2291 2778 2009 2778 
Q 1728 2778 1604 2684 
Q 1481 2591 1481 2469 
Q 1481 2344 1606 2263 
Q 1684 2213 2109 2088 
Q 2766 1897 2988 1713 
Q 3300 1453 3300 1088 
Q 3300 616 2903 269 
Q 2506 -78 1784 -78 
Q 1066 -78 673 186 
Q 281 450 141 928 
z
" transform="scale(0.015625)"/>
      <path id="Arial-BoldItalicMT-71" d="M 3175 3319 
L 4000 3319 
L 3044 -1266 
L 2147 -1266 
L 2469 281 
Q 2231 88 2022 5 
Q 1813 -78 1547 -78 
Q 1019 -78 700 275 
Q 381 628 381 1303 
Q 381 1838 597 2344 
Q 813 2850 1195 3123 
Q 1578 3397 2025 3397 
Q 2744 3397 3066 2797 
L 3175 3319 
z
M 1247 1319 
Q 1247 984 1428 787 
Q 1609 591 1866 591 
Q 2094 591 2306 745 
Q 2519 900 2651 1256 
Q 2784 1613 2784 1941 
Q 2784 2313 2593 2523 
Q 2403 2734 2153 2734 
Q 1947 2734 1733 2571 
Q 1519 2409 1383 2036 
Q 1247 1663 1247 1319 
z
" transform="scale(0.015625)"/>
      <path id="Arial-BoldItalicMT-75" d="M 944 3319 
L 1841 3319 
L 1431 1353 
Q 1356 1000 1356 913 
Q 1356 769 1462 666 
Q 1569 563 1734 563 
Q 1853 563 1968 608 
Q 2084 653 2206 745 
Q 2328 838 2425 956 
Q 2522 1075 2606 1269 
Q 2666 1413 2734 1738 
L 3066 3319 
L 3963 3319 
L 3269 0 
L 2431 0 
L 2525 450 
Q 1975 -78 1328 -78 
Q 919 -78 684 156 
Q 450 391 450 784 
Q 450 956 556 1469 
L 944 3319 
z
" transform="scale(0.015625)"/>
      <path id="Arial-BoldItalicMT-65" d="M 3488 1381 
L 1238 1381 
Q 1234 1328 1234 1300 
Q 1234 969 1423 766 
Q 1613 563 1884 563 
Q 2331 563 2581 1025 
L 3384 891 
Q 3150 406 2758 164 
Q 2366 -78 1878 -78 
Q 1209 -78 790 345 
Q 372 769 372 1466 
Q 372 2147 750 2678 
Q 1266 3397 2222 3397 
Q 2831 3397 3190 3020 
Q 3550 2644 3550 1966 
Q 3550 1641 3488 1381 
z
M 2731 1928 
Q 2734 1988 2734 2019 
Q 2734 2388 2568 2572 
Q 2403 2756 2125 2756 
Q 1847 2756 1626 2547 
Q 1406 2338 1328 1928 
L 2731 1928 
z
" transform="scale(0.015625)"/>
      <path id="Arial-BoldItalicMT-3ba" d="M 969 3319 
L 1866 3319 
L 1631 2234 
L 2791 3319 
L 3978 3319 
L 2284 1844 
L 3413 0 
L 2425 0 
L 1688 1319 
L 1378 1047 
L 1156 0 
L 263 0 
L 969 3319 
z
" transform="scale(0.015625)"/>
     </defs>
     <use xlink:href="#Arial-BoldItalicMT-63"/>
     <use xlink:href="#Arial-BoldItalicMT-20" x="55.615234"/>
     <use xlink:href="#Arial-BoldItalicMT-64" x="83.398438"/>
     <use xlink:href="#Arial-BoldItalicMT-6f" x="144.482422"/>
     <use xlink:href="#Arial-BoldItalicMT-6d" x="205.566406"/>
     <use xlink:href="#Arial-BoldItalicMT-69" x="294.482422"/>
     <use xlink:href="#Arial-BoldItalicMT-6e" x="322.265625"/>
     <use xlink:href="#Arial-BoldItalicMT-61" x="383.349609"/>
     <use xlink:href="#Arial-BoldItalicMT-20" x="438.964844"/>
     <use xlink:href="#Arial-BoldItalicMT-34" x="466.748047"/>
     <use xlink:href="#Arial-BoldItalicMT-33" x="522.363281"/>
     <use xlink:href="#Arial-BoldItalicMT-d7" x="577.978516"/>
     <use xlink:href="#Arial-BoldItalicMT-20" x="636.376953"/>
     <use xlink:href="#Arial-BoldItalicMT-6d" x="664.160156"/>
     <use xlink:href="#Arial-BoldItalicMT-61" x="753.076172"/>
     <use xlink:href="#Arial-BoldItalicMT-69" x="808.691406"/>
     <use xlink:href="#Arial-BoldItalicMT-73" x="836.474609"/>
     <use xlink:href="#Arial-BoldItalicMT-20" x="892.089844"/>
     <use xlink:href="#Arial-BoldItalicMT-71" x="919.873047"/>
     <use xlink:href="#Arial-BoldItalicMT-75" x="980.957031"/>
     <use xlink:href="#Arial-BoldItalicMT-65" x="1042.041016"/>
     <use xlink:href="#Arial-BoldItalicMT-20" x="1097.65625"/>
     <use xlink:href="#Arial-BoldItalicMT-3ba" x="1125.439453"/>
    </g>
   </g>
   <g id="text_16">
    <!-- Hierarquia de Sensibilidade Paramétrica -->
    <g transform="translate(182.132344 20.263594) scale(0.13 -0.13)">
     <defs>
      <path id="Arial-BoldMT-48" d="M 469 0 
L 469 4581 
L 1394 4581 
L 1394 2778 
L 3206 2778 
L 3206 4581 
L 4131 4581 
L 4131 0 
L 3206 0 
L 3206 2003 
L 1394 2003 
L 1394 0 
L 469 0 
z
" transform="scale(0.015625)"/>
      <path id="Arial-BoldMT-69" d="M 459 3769 
L 459 4581 
L 1338 4581 
L 1338 3769 
L 459 3769 
z
M 459 0 
L 459 3319 
L 1338 3319 
L 1338 0 
L 459 0 
z
" transform="scale(0.015625)"/>
      <path id="Arial-BoldMT-72" d="M 1300 0 
L 422 0 
L 422 3319 
L 1238 3319 
L 1238 2847 
Q 1447 3181 1614 3287 
Q 1781 3394 1994 3394 
Q 2294 3394 2572 3228 
L 2300 2463 
Q 2078 2606 1888 2606 
Q 1703 2606 1575 2504 
Q 1447 2403 1373 2137 
Q 1300 1872 1300 1025 
L 1300 0 
z
" transform="scale(0.015625)"/>
      <path id="Arial-BoldMT-71" d="M 2628 -1263 
L 2628 406 
Q 2456 184 2200 54 
Q 1944 -75 1647 -75 
Q 1081 -75 716 350 
Q 284 847 284 1697 
Q 284 2497 689 2945 
Q 1094 3394 1694 3394 
Q 2025 3394 2267 3253 
Q 2509 3113 2697 2828 
L 2697 3319 
L 3506 3319 
L 3506 -1263 
L 2628 -1263 
z
M 2656 1700 
Q 2656 2209 2448 2457 
Q 2241 2706 1928 2706 
Q 1609 2706 1395 2453 
Q 1181 2200 1181 1650 
Q 1181 1103 1387 861 
Q 1594 619 1897 619 
Q 2200 619 2428 891 
Q 2656 1163 2656 1700 
z
" transform="scale(0.015625)"/>
      <path id="Arial-BoldMT-75" d="M 2644 0 
L 2644 497 
Q 2463 231 2167 78 
Q 1872 -75 1544 -75 
Q 1209 -75 943 72 
Q 678 219 559 484 
Q 441 750 441 1219 
L 441 3319 
L 1319 3319 
L 1319 1794 
Q 1319 1094 1367 936 
Q 1416 778 1544 686 
Q 1672 594 1869 594 
Q 2094 594 2272 717 
Q 2450 841 2515 1023 
Q 2581 1206 2581 1919 
L 2581 3319 
L 3459 3319 
L 3459 0 
L 2644 0 
z
" transform="scale(0.015625)"/>
      <path id="Arial-BoldMT-53" d="M 231 1491 
L 1131 1578 
Q 1213 1125 1461 912 
Q 1709 700 2131 700 
Q 2578 700 2804 889 
Q 3031 1078 3031 1331 
Q 3031 1494 2936 1608 
Q 2841 1722 2603 1806 
Q 2441 1863 1863 2006 
Q 1119 2191 819 2459 
Q 397 2838 397 3381 
Q 397 3731 595 4036 
Q 794 4341 1167 4500 
Q 1541 4659 2069 4659 
Q 2931 4659 3367 4281 
Q 3803 3903 3825 3272 
L 2900 3231 
Q 2841 3584 2645 3739 
Q 2450 3894 2059 3894 
Q 1656 3894 1428 3728 
Q 1281 3622 1281 3444 
Q 1281 3281 1419 3166 
Q 1594 3019 2269 2859 
Q 2944 2700 3267 2529 
Q 3591 2359 3773 2064 
Q 3956 1769 3956 1334 
Q 3956 941 3737 597 
Q 3519 253 3119 86 
Q 2719 -81 2122 -81 
Q 1253 -81 787 320 
Q 322 722 231 1491 
z
" transform="scale(0.015625)"/>
      <path id="Arial-BoldMT-73" d="M 150 947 
L 1031 1081 
Q 1088 825 1259 692 
Q 1431 559 1741 559 
Q 2081 559 2253 684 
Q 2369 772 2369 919 
Q 2369 1019 2306 1084 
Q 2241 1147 2013 1200 
Q 950 1434 666 1628 
Q 272 1897 272 2375 
Q 272 2806 612 3100 
Q 953 3394 1669 3394 
Q 2350 3394 2681 3172 
Q 3013 2950 3138 2516 
L 2309 2363 
Q 2256 2556 2107 2659 
Q 1959 2763 1684 2763 
Q 1338 2763 1188 2666 
Q 1088 2597 1088 2488 
Q 1088 2394 1175 2328 
Q 1294 2241 1995 2081 
Q 2697 1922 2975 1691 
Q 3250 1456 3250 1038 
Q 3250 581 2869 253 
Q 2488 -75 1741 -75 
Q 1063 -75 667 200 
Q 272 475 150 947 
z
" transform="scale(0.015625)"/>
      <path id="Arial-BoldMT-62" d="M 422 0 
L 422 4581 
L 1300 4581 
L 1300 2931 
Q 1706 3394 2263 3394 
Q 2869 3394 3266 2955 
Q 3663 2516 3663 1694 
Q 3663 844 3258 384 
Q 2853 -75 2275 -75 
Q 1991 -75 1714 67 
Q 1438 209 1238 488 
L 1238 0 
L 422 0 
z
M 1294 1731 
Q 1294 1216 1456 969 
Q 1684 619 2063 619 
Q 2353 619 2558 867 
Q 2763 1116 2763 1650 
Q 2763 2219 2556 2470 
Q 2350 2722 2028 2722 
Q 1713 2722 1503 2476 
Q 1294 2231 1294 1731 
z
" transform="scale(0.015625)"/>
      <path id="Arial-BoldMT-6c" d="M 459 0 
L 459 4581 
L 1338 4581 
L 1338 0 
L 459 0 
z
" transform="scale(0.015625)"/>
      <path id="Arial-BoldMT-50" d="M 466 0 
L 466 4581 
L 1950 4581 
Q 2794 4581 3050 4513 
Q 3444 4409 3709 4064 
Q 3975 3719 3975 3172 
Q 3975 2750 3822 2462 
Q 3669 2175 3433 2011 
Q 3197 1847 2953 1794 
Q 2622 1728 1994 1728 
L 1391 1728 
L 1391 0 
L 466 0 
z
M 1391 3806 
L 1391 2506 
L 1897 2506 
Q 2444 2506 2628 2578 
Q 2813 2650 2917 2803 
Q 3022 2956 3022 3159 
Q 3022 3409 2875 3571 
Q 2728 3734 2503 3775 
Q 2338 3806 1838 3806 
L 1391 3806 
z
" transform="scale(0.015625)"/>
      <path id="Arial-BoldMT-e9" d="M 2381 1056 
L 3256 909 
Q 3088 428 2723 176 
Q 2359 -75 1813 -75 
Q 947 -75 531 491 
Q 203 944 203 1634 
Q 203 2459 634 2926 
Q 1066 3394 1725 3394 
Q 2466 3394 2894 2905 
Q 3322 2416 3303 1406 
L 1103 1406 
Q 1113 1016 1316 798 
Q 1519 581 1822 581 
Q 2028 581 2168 693 
Q 2309 806 2381 1056 
z
M 2431 1944 
Q 2422 2325 2234 2523 
Q 2047 2722 1778 2722 
Q 1491 2722 1303 2513 
Q 1116 2303 1119 1944 
L 2431 1944 
z
M 1312 3725 
L 1744 4659 
L 2728 4659 
L 1869 3725 
L 1312 3725 
z
" transform="scale(0.015625)"/>
      <path id="Arial-BoldMT-74" d="M 1981 3319 
L 1981 2619 
L 1381 2619 
L 1381 1281 
Q 1381 875 1398 808 
Q 1416 741 1477 697 
Q 1538 653 1625 653 
Q 1747 653 1978 738 
L 2053 56 
Q 1747 -75 1359 -75 
Q 1122 -75 931 4 
Q 741 84 652 211 
Q 563 338 528 553 
Q 500 706 500 1172 
L 500 2619 
L 97 2619 
L 97 3319 
L 500 3319 
L 500 3978 
L 1381 4491 
L 1381 3319 
L 1981 3319 
z
" transform="scale(0.015625)"/>
      <path id="Arial-BoldMT-63" d="M 3353 2338 
L 2488 2181 
Q 2444 2441 2289 2572 
Q 2134 2703 1888 2703 
Q 1559 2703 1364 2476 
Q 1169 2250 1169 1719 
Q 1169 1128 1367 884 
Q 1566 641 1900 641 
Q 2150 641 2309 783 
Q 2469 925 2534 1272 
L 3397 1125 
Q 3263 531 2881 228 
Q 2500 -75 1859 -75 
Q 1131 -75 698 384 
Q 266 844 266 1656 
Q 266 2478 700 2936 
Q 1134 3394 1875 3394 
Q 2481 3394 2839 3133 
Q 3197 2872 3353 2338 
z
" transform="scale(0.015625)"/>
     </defs>
     <use xlink:href="#Arial-BoldMT-48"/>
     <use xlink:href="#Arial-BoldMT-69" x="72.216797"/>
     <use xlink:href="#Arial-BoldMT-65" x="100"/>
     <use xlink:href="#Arial-BoldMT-72" x="155.615234"/>
     <use xlink:href="#Arial-BoldMT-61" x="194.53125"/>
     <use xlink:href="#Arial-BoldMT-72" x="250.146484"/>
     <use xlink:href="#Arial-BoldMT-71" x="289.0625"/>
     <use xlink:href="#Arial-BoldMT-75" x="350.146484"/>
     <use xlink:href="#Arial-BoldMT-69" x="411.230469"/>
     <use xlink:href="#Arial-BoldMT-61" x="439.013672"/>
     <use xlink:href="#Arial-BoldMT-20" x="494.628906"/>
     <use xlink:href="#Arial-BoldMT-64" x="522.412109"/>
     <use xlink:href="#Arial-BoldMT-65" x="583.496094"/>
     <use xlink:href="#Arial-BoldMT-20" x="639.111328"/>
     <use xlink:href="#Arial-BoldMT-53" x="666.894531"/>
     <use xlink:href="#Arial-BoldMT-65" x="733.59375"/>
     <use xlink:href="#Arial-BoldMT-6e" x="789.208984"/>
     <use xlink:href="#Arial-BoldMT-73" x="850.292969"/>
     <use xlink:href="#Arial-BoldMT-69" x="905.908203"/>
     <use xlink:href="#Arial-BoldMT-62" x="933.691406"/>
     <use xlink:href="#Arial-BoldMT-69" x="994.775391"/>
     <use xlink:href="#Arial-BoldMT-6c" x="1022.558594"/>
     <use xlink:href="#Arial-BoldMT-69" x="1050.341797"/>
     <use xlink:href="#Arial-BoldMT-64" x="1078.125"/>
     <use xlink:href="#Arial-BoldMT-61" x="1139.208984"/>
     <use xlink:href="#Arial-BoldMT-64" x="1194.824219"/>
     <use xlink:href="#Arial-BoldMT-65" x="1255.908203"/>
     <use xlink:href="#Arial-BoldMT-20" x="1311.523438"/>
     <use xlink:href="#Arial-BoldMT-50" x="1339.306641"/>
     <use xlink:href="#Arial-BoldMT-61" x="1406.005859"/>
     <use xlink:href="#Arial-BoldMT-72" x="1461.621094"/>
     <use xlink:href="#Arial-BoldMT-61" x="1500.537109"/>
     <use xlink:href="#Arial-BoldMT-6d" x="1556.152344"/>
     <use xlink:href="#Arial-BoldMT-e9" x="1645.068359"/>
     <use xlink:href="#Arial-BoldMT-74" x="1700.683594"/>
     <use xlink:href="#Arial-BoldMT-72" x="1733.984375"/>
     <use xlink:href="#Arial-BoldMT-69" x="1772.900391"/>
     <use xlink:href="#Arial-BoldMT-63" x="1800.683594"/>
     <use xlink:href="#Arial-BoldMT-61" x="1856.298828"/>
    </g>
   </g>
  </g>
 </g>
 <defs>
  <clipPath id="p998973ef99">
   <rect x="83.200156" y="30.263594" width="446.4" height="194.04"/>
  </clipPath>
 </defs>
  <text x="272.0" y="261.5" text-anchor="middle" font-size="8" fill="#CCC" font-family="Arial, Helvetica, sans-serif">Figura 12.2 — Sensibilidade ao Parâmetro c da Matriz · Dr. Miguel Reis · Dra. Jordana Sandes</text>
</svg>
