<?xml version="1.0" encoding="utf-8" standalone="no"?>
<!DOCTYPE svg PUBLIC "-//W3C//DTD SVG 1.1//EN"
  "http://www.w3.org/Graphics/SVG/1.1/DTD/svg11.dtd">
<svg font-family="Arial, Helvetica, sans-serif" xmlns:xlink="http://www.w3.org/1999/xlink" width="398.497812pt" height="405.08625pt" viewBox="0 0 398.497812 405.08625" xmlns="http://www.w3.org/2000/svg" version="1.1">
 <metadata>
  <rdf:RDF xmlns:dc="http://purl.org/dc/elements/1.1/" xmlns:cc="http://creativecommons.org/ns#" xmlns:rdf="http://www.w3.org/1999/02/22-rdf-syntax-ns#">
   <cc:Work>
    <dc:type rdf:resource="http://purl.org/dc/dcmitype/StillImage"/>
    <dc:date>2026-05-28T16:13:40.389152</dc:date>
    <dc:format>image/svg+xml</dc:format>
    <dc:creator>
     <cc:Agent>
      <dc:title>Matplotlib v3.9.4, https://matplotlib.org/</dc:title>
     </cc:Agent>
    </dc:creator>
   </cc:Work>
  </rdf:RDF>
 </metadata>
 <defs>
  <style type="text/css">*{stroke-linejoin: round; stroke-linecap: butt}</style>
 </defs>
 <g id="figure_1">
  <g id="patch_1">
   <path d="M 0 405.08625 
L 398.497812 405.08625 
L 398.497812 0 
L 0 0 
z
" style="fill: #ffffff"/>
  </g>
  <g id="axes_1">
   <g id="patch_2">
    <path d="M 47.412813 362.903594 
L 380.052812 362.903594 
L 380.052812 30.263594 
L 47.412813 30.263594 
z
" style="fill: #ffffff"/>
   </g>
   <g id="PolyCollection_1">
    <defs>
     <path id="m99e18da86c" d="M 47.412813 -42.182656 
L 47.412813 -42.182656 
L 49.08437 -42.182663 
L 50.755928 -42.182729 
L 52.427486 -42.182938 
L 54.099044 -42.183391 
L 55.770601 -42.184202 
L 57.442159 -42.185494 
L 59.113717 -42.1874 
L 60.785275 -42.19006 
L 62.456833 -42.193619 
L 64.12839 -42.198233 
L 65.799948 -42.204058 
L 67.471506 -42.211259 
L 69.143064 -42.220005 
L 70.814622 -42.230471 
L 72.486179 -42.242834 
L 74.157737 -42.257278 
L 75.829295 -42.273989 
L 77.500853 -42.293159 
L 79.17241 -42.314982 
L 80.843968 -42.339655 
L 82.515526 -42.367382 
L 84.187084 -42.398368 
L 85.858642 -42.43282 
L 87.530199 -42.47095 
L 89.201757 -42.512973 
L 90.873315 -42.559107 
L 92.544873 -42.609573 
L 94.216431 -42.664594 
L 95.887988 -42.724396 
L 97.559546 -42.789209 
L 99.231104 -42.859263 
L 100.902662 -42.934794 
L 102.57422 -43.016038 
L 104.245777 -43.103234 
L 105.917335 -43.196625 
L 107.588893 -43.296453 
L 109.260451 -43.402966 
L 110.932008 -43.516412 
L 112.603566 -43.637042 
L 114.275124 -43.765109 
L 115.946682 -43.90087 
L 117.61824 -44.04458 
L 119.289797 -44.1965 
L 120.961355 -44.356891 
L 122.632913 -44.526018 
L 124.304471 -44.704145 
L 125.976029 -44.89154 
L 127.647586 -45.088474 
L 129.319144 -45.295217 
L 130.990702 -45.512043 
L 132.66226 -45.739227 
L 134.333818 -45.977047 
L 136.005375 -46.225781 
L 137.676933 -46.48571 
L 139.348491 -46.757116 
L 141.020049 -47.040285 
L 142.691606 -47.335501 
L 144.363164 -47.643053 
L 146.034722 -47.96323 
L 147.70628 -48.296322 
L 149.377838 -48.642624 
L 151.049395 -49.002428 
L 152.720953 -49.376031 
L 154.392511 -49.763731 
L 156.064069 -50.165827 
L 157.735627 -50.582619 
L 159.407184 -51.014409 
L 161.078742 -51.461501 
L 162.7503 -51.924202 
L 164.421858 -52.402816 
L 166.093416 -52.897653 
L 167.764973 -53.409022 
L 169.436531 -53.937235 
L 171.108089 -54.482604 
L 172.779647 -55.045444 
L 174.451204 -55.626069 
L 176.122762 -56.224796 
L 177.79432 -56.841945 
L 179.465878 -57.477834 
L 181.137436 -58.132784 
L 182.808993 -58.807119 
L 184.480551 -59.501161 
L 186.152109 -60.215236 
L 187.823667 -60.94967 
L 189.495225 -61.704791 
L 191.166782 -62.480928 
L 192.83834 -63.278411 
L 194.509898 -64.097571 
L 196.181456 -64.938743 
L 197.853014 -65.802259 
L 199.524571 -66.688455 
L 201.196129 -67.597668 
L 202.867687 -68.530235 
L 204.539245 -69.486496 
L 206.210802 -70.466791 
L 207.88236 -71.471462 
L 209.553918 -72.500851 
L 211.225476 -73.555301 
L 212.897034 -74.635159 
L 214.568591 -75.740771 
L 216.240149 -76.872483 
L 217.911707 -78.030645 
L 219.583265 -79.215605 
L 221.254823 -80.427716 
L 222.92638 -81.667329 
L 224.597938 -82.934798 
L 226.269496 -84.230475 
L 227.941054 -85.554718 
L 229.612611 -86.907882 
L 231.284169 -88.290325 
L 232.955727 -89.702406 
L 234.627285 -91.144485 
L 236.298843 -92.616921 
L 237.9704 -94.120078 
L 239.641958 -95.654319 
L 241.313516 -97.220006 
L 242.985074 -98.817506 
L 244.656632 -100.447185 
L 246.328189 -102.10941 
L 247.999747 -103.80455 
L 249.671305 -105.532972 
L 251.342863 -107.295049 
L 253.014421 -109.09115 
L 254.685978 -110.92165 
L 256.357536 -112.78692 
L 258.029094 -114.687335 
L 259.700652 -116.623271 
L 261.372209 -118.595105 
L 263.043767 -120.603212 
L 264.715325 -122.647973 
L 266.386883 -124.729766 
L 268.058441 -126.848971 
L 269.729998 -129.005969 
L 271.401556 -131.201144 
L 273.073114 -133.434878 
L 274.744672 -135.707555 
L 276.41623 -138.01956 
L 278.087787 -140.37128 
L 279.759345 -142.763101 
L 281.430903 -145.195411 
L 283.102461 -147.6686 
L 284.774019 -150.183057 
L 286.445576 -152.739172 
L 288.117134 -155.337337 
L 289.788692 -157.977945 
L 291.46025 -160.66139 
L 293.131807 -163.388065 
L 294.803365 -166.158366 
L 296.474923 -168.972688 
L 298.146481 -171.83143 
L 299.818039 -174.734989 
L 301.489596 -177.683763 
L 303.161154 -180.678153 
L 304.832712 -183.718559 
L 306.50427 -186.805383 
L 308.175828 -189.939026 
L 309.847385 -193.119892 
L 311.518943 -196.348385 
L 313.190501 -199.62491 
L 314.862059 -202.949873 
L 316.533617 -206.32368 
L 318.205174 -209.746739 
L 319.876732 -213.219457 
L 321.54829 -216.742245 
L 323.219848 -220.315512 
L 324.891405 -223.939669 
L 326.562963 -227.615128 
L 328.234521 -231.342301 
L 329.906079 -235.121601 
L 331.577637 -238.953443 
L 333.249194 -242.838241 
L 334.920752 -246.776411 
L 336.59231 -250.768371 
L 338.263868 -254.814536 
L 339.935426 -258.915325 
L 341.606983 -263.071158 
L 343.278541 -267.282454 
L 344.950099 -271.549634 
L 346.621657 -275.873118 
L 348.293215 -280.25333 
L 349.964772 -284.690692 
L 351.63633 -289.185627 
L 353.307888 -293.738561 
L 354.979446 -298.349919 
L 356.651003 -303.020126 
L 358.322561 -307.74961 
L 359.994119 -312.538797 
L 361.665677 -317.388118 
L 363.337235 -322.298 
L 365.008792 -327.268873 
L 366.68035 -332.301168 
L 368.351908 -337.395317 
L 370.023466 -342.551752 
L 371.695024 -347.770906 
L 373.366581 -353.053211 
L 375.038139 -358.399104 
L 376.709697 -363.809018 
L 378.381255 -369.28339 
L 380.052812 -374.822656 
L 380.052812 -42.182656 
L 380.052812 -42.182656 
L 378.381255 -42.182656 
L 376.709697 -42.182656 
L 375.038139 -42.182656 
L 373.366581 -42.182656 
L 371.695024 -42.182656 
L 370.023466 -42.182656 
L 368.351908 -42.182656 
L 366.68035 -42.182656 
L 365.008792 -42.182656 
L 363.337235 -42.182656 
L 361.665677 -42.182656 
L 359.994119 -42.182656 
L 358.322561 -42.182656 
L 356.651003 -42.182656 
L 354.979446 -42.182656 
L 353.307888 -42.182656 
L 351.63633 -42.182656 
L 349.964772 -42.182656 
L 348.293215 -42.182656 
L 346.621657 -42.182656 
L 344.950099 -42.182656 
L 343.278541 -42.182656 
L 341.606983 -42.182656 
L 339.935426 -42.182656 
L 338.263868 -42.182656 
L 336.59231 -42.182656 
L 334.920752 -42.182656 
L 333.249194 -42.182656 
L 331.577637 -42.182656 
L 329.906079 -42.182656 
L 328.234521 -42.182656 
L 326.562963 -42.182656 
L 324.891405 -42.182656 
L 323.219848 -42.182656 
L 321.54829 -42.182656 
L 319.876732 -42.182656 
L 318.205174 -42.182656 
L 316.533617 -42.182656 
L 314.862059 -42.182656 
L 313.190501 -42.182656 
L 311.518943 -42.182656 
L 309.847385 -42.182656 
L 308.175828 -42.182656 
L 306.50427 -42.182656 
L 304.832712 -42.182656 
L 303.161154 -42.182656 
L 301.489596 -42.182656 
L 299.818039 -42.182656 
L 298.146481 -42.182656 
L 296.474923 -42.182656 
L 294.803365 -42.182656 
L 293.131807 -42.182656 
L 291.46025 -42.182656 
L 289.788692 -42.182656 
L 288.117134 -42.182656 
L 286.445576 -42.182656 
L 284.774019 -42.182656 
L 283.102461 -42.182656 
L 281.430903 -42.182656 
L 279.759345 -42.182656 
L 278.087787 -42.182656 
L 276.41623 -42.182656 
L 274.744672 -42.182656 
L 273.073114 -42.182656 
L 271.401556 -42.182656 
L 269.729998 -42.182656 
L 268.058441 -42.182656 
L 266.386883 -42.182656 
L 264.715325 -42.182656 
L 263.043767 -42.182656 
L 261.372209 -42.182656 
L 259.700652 -42.182656 
L 258.029094 -42.182656 
L 256.357536 -42.182656 
L 254.685978 -42.182656 
L 253.014421 -42.182656 
L 251.342863 -42.182656 
L 249.671305 -42.182656 
L 247.999747 -42.182656 
L 246.328189 -42.182656 
L 244.656632 -42.182656 
L 242.985074 -42.182656 
L 241.313516 -42.182656 
L 239.641958 -42.182656 
L 237.9704 -42.182656 
L 236.298843 -42.182656 
L 234.627285 -42.182656 
L 232.955727 -42.182656 
L 231.284169 -42.182656 
L 229.612611 -42.182656 
L 227.941054 -42.182656 
L 226.269496 -42.182656 
L 224.597938 -42.182656 
L 222.92638 -42.182656 
L 221.254823 -42.182656 
L 219.583265 -42.182656 
L 217.911707 -42.182656 
L 216.240149 -42.182656 
L 214.568591 -42.182656 
L 212.897034 -42.182656 
L 211.225476 -42.182656 
L 209.553918 -42.182656 
L 207.88236 -42.182656 
L 206.210802 -42.182656 
L 204.539245 -42.182656 
L 202.867687 -42.182656 
L 201.196129 -42.182656 
L 199.524571 -42.182656 
L 197.853014 -42.182656 
L 196.181456 -42.182656 
L 194.509898 -42.182656 
L 192.83834 -42.182656 
L 191.166782 -42.182656 
L 189.495225 -42.182656 
L 187.823667 -42.182656 
L 186.152109 -42.182656 
L 184.480551 -42.182656 
L 182.808993 -42.182656 
L 181.137436 -42.182656 
L 179.465878 -42.182656 
L 177.79432 -42.182656 
L 176.122762 -42.182656 
L 174.451204 -42.182656 
L 172.779647 -42.182656 
L 171.108089 -42.182656 
L 169.436531 -42.182656 
L 167.764973 -42.182656 
L 166.093416 -42.182656 
L 164.421858 -42.182656 
L 162.7503 -42.182656 
L 161.078742 -42.182656 
L 159.407184 -42.182656 
L 157.735627 -42.182656 
L 156.064069 -42.182656 
L 154.392511 -42.182656 
L 152.720953 -42.182656 
L 151.049395 -42.182656 
L 149.377838 -42.182656 
L 147.70628 -42.182656 
L 146.034722 -42.182656 
L 144.363164 -42.182656 
L 142.691606 -42.182656 
L 141.020049 -42.182656 
L 139.348491 -42.182656 
L 137.676933 -42.182656 
L 136.005375 -42.182656 
L 134.333818 -42.182656 
L 132.66226 -42.182656 
L 130.990702 -42.182656 
L 129.319144 -42.182656 
L 127.647586 -42.182656 
L 125.976029 -42.182656 
L 124.304471 -42.182656 
L 122.632913 -42.182656 
L 120.961355 -42.182656 
L 119.289797 -42.182656 
L 117.61824 -42.182656 
L 115.946682 -42.182656 
L 114.275124 -42.182656 
L 112.603566 -42.182656 
L 110.932008 -42.182656 
L 109.260451 -42.182656 
L 107.588893 -42.182656 
L 105.917335 -42.182656 
L 104.245777 -42.182656 
L 102.57422 -42.182656 
L 100.902662 -42.182656 
L 99.231104 -42.182656 
L 97.559546 -42.182656 
L 95.887988 -42.182656 
L 94.216431 -42.182656 
L 92.544873 -42.182656 
L 90.873315 -42.182656 
L 89.201757 -42.182656 
L 87.530199 -42.182656 
L 85.858642 -42.182656 
L 84.187084 -42.182656 
L 82.515526 -42.182656 
L 80.843968 -42.182656 
L 79.17241 -42.182656 
L 77.500853 -42.182656 
L 75.829295 -42.182656 
L 74.157737 -42.182656 
L 72.486179 -42.182656 
L 70.814622 -42.182656 
L 69.143064 -42.182656 
L 67.471506 -42.182656 
L 65.799948 -42.182656 
L 64.12839 -42.182656 
L 62.456833 -42.182656 
L 60.785275 -42.182656 
L 59.113717 -42.182656 
L 57.442159 -42.182656 
L 55.770601 -42.182656 
L 54.099044 -42.182656 
L 52.427486 -42.182656 
L 50.755928 -42.182656 
L 49.08437 -42.182656 
L 47.412813 -42.182656 
z
" style="stroke: #2171b5; stroke-opacity: 0.08"/>
    </defs>
    <g clip-path="url(#p88f2c434f5)">
     <use xlink:href="#m99e18da86c" x="0" y="405.08625" style="fill: #2171b5; fill-opacity: 0.08; stroke: #2171b5; stroke-opacity: 0.08"/>
    </g>
   </g>
   <g id="matplotlib.axis_1">
    <g id="xtick_1">
     <g id="line2d_1">
      <path d="M 47.412813 362.903594 
L 47.412813 30.263594 
" clip-path="url(#p88f2c434f5)" style="fill: none; stroke: #b0b0b0; stroke-opacity: 0.3; stroke-width: 0.6; stroke-linecap: square"/>
     </g>
     <g id="line2d_2">
      <defs>
       <path id="m2118d99c6d" d="M 0 0 
L 0 3.5 
" style="stroke: #636363; stroke-width: 0.8"/>
      </defs>
      <g>
       <use xlink:href="#m2118d99c6d" x="47.412813" y="362.903594" style="fill: #636363; stroke: #636363; stroke-width: 0.8"/>
      </g>
     </g>
     <g id="text_1">
      <!-- 0.0 -->
      <g style="fill: #636363" transform="translate(39.767813 377.777188) scale(0.11 -0.11)">
       <defs>
        <path id="ArialMT-30" d="M 266 2259 
Q 266 3072 433 3567 
Q 600 4063 929 4331 
Q 1259 4600 1759 4600 
Q 2128 4600 2406 4451 
Q 2684 4303 2865 4023 
Q 3047 3744 3150 3342 
Q 3253 2941 3253 2259 
Q 3253 1453 3087 958 
Q 2922 463 2592 192 
Q 2263 -78 1759 -78 
Q 1097 -78 719 397 
Q 266 969 266 2259 
z
M 844 2259 
Q 844 1131 1108 757 
Q 1372 384 1759 384 
Q 2147 384 2411 759 
Q 2675 1134 2675 2259 
Q 2675 3391 2411 3762 
Q 2147 4134 1753 4134 
Q 1366 4134 1134 3806 
Q 844 3388 844 2259 
z
" transform="scale(0.015625)"/>
        <path id="ArialMT-2e" d="M 581 0 
L 581 641 
L 1222 641 
L 1222 0 
L 581 0 
z
" transform="scale(0.015625)"/>
       </defs>
       <use xlink:href="#ArialMT-30"/>
       <use xlink:href="#ArialMT-2e" x="55.615234"/>
       <use xlink:href="#ArialMT-30" x="83.398438"/>
      </g>
     </g>
    </g>
    <g id="xtick_2">
     <g id="line2d_3">
      <path d="M 113.940812 362.903594 
L 113.940812 30.263594 
" clip-path="url(#p88f2c434f5)" style="fill: none; stroke: #b0b0b0; stroke-opacity: 0.3; stroke-width: 0.6; stroke-linecap: square"/>
     </g>
     <g id="line2d_4">
      <g>
       <use xlink:href="#m2118d99c6d" x="113.940812" y="362.903594" style="fill: #636363; stroke: #636363; stroke-width: 0.8"/>
      </g>
     </g>
     <g id="text_2">
      <!-- 0.2 -->
      <g style="fill: #636363" transform="translate(106.295812 377.777188) scale(0.11 -0.11)">
       <defs>
        <path id="ArialMT-32" d="M 3222 541 
L 3222 0 
L 194 0 
Q 188 203 259 391 
Q 375 700 629 1000 
Q 884 1300 1366 1694 
Q 2113 2306 2375 2664 
Q 2638 3022 2638 3341 
Q 2638 3675 2398 3904 
Q 2159 4134 1775 4134 
Q 1369 4134 1125 3890 
Q 881 3647 878 3216 
L 300 3275 
Q 359 3922 746 4261 
Q 1134 4600 1788 4600 
Q 2447 4600 2831 4234 
Q 3216 3869 3216 3328 
Q 3216 3053 3103 2787 
Q 2991 2522 2730 2228 
Q 2469 1934 1863 1422 
Q 1356 997 1212 845 
Q 1069 694 975 541 
L 3222 541 
z
" transform="scale(0.015625)"/>
       </defs>
       <use xlink:href="#ArialMT-30"/>
       <use xlink:href="#ArialMT-2e" x="55.615234"/>
       <use xlink:href="#ArialMT-32" x="83.398438"/>
      </g>
     </g>
    </g>
    <g id="xtick_3">
     <g id="line2d_5">
      <path d="M 180.468812 362.903594 
L 180.468812 30.263594 
" clip-path="url(#p88f2c434f5)" style="fill: none; stroke: #b0b0b0; stroke-opacity: 0.3; stroke-width: 0.6; stroke-linecap: square"/>
     </g>
     <g id="line2d_6">
      <g>
       <use xlink:href="#m2118d99c6d" x="180.468812" y="362.903594" style="fill: #636363; stroke: #636363; stroke-width: 0.8"/>
      </g>
     </g>
     <g id="text_3">
      <!-- 0.4 -->
      <g style="fill: #636363" transform="translate(172.823812 377.777188) scale(0.11 -0.11)">
       <defs>
        <path id="ArialMT-34" d="M 2069 0 
L 2069 1097 
L 81 1097 
L 81 1613 
L 2172 4581 
L 2631 4581 
L 2631 1613 
L 3250 1613 
L 3250 1097 
L 2631 1097 
L 2631 0 
L 2069 0 
z
M 2069 1613 
L 2069 3678 
L 634 1613 
L 2069 1613 
z
" transform="scale(0.015625)"/>
       </defs>
       <use xlink:href="#ArialMT-30"/>
       <use xlink:href="#ArialMT-2e" x="55.615234"/>
       <use xlink:href="#ArialMT-34" x="83.398438"/>
      </g>
     </g>
    </g>
    <g id="xtick_4">
     <g id="line2d_7">
      <path d="M 246.996812 362.903594 
L 246.996812 30.263594 
" clip-path="url(#p88f2c434f5)" style="fill: none; stroke: #b0b0b0; stroke-opacity: 0.3; stroke-width: 0.6; stroke-linecap: square"/>
     </g>
     <g id="line2d_8">
      <g>
       <use xlink:href="#m2118d99c6d" x="246.996812" y="362.903594" style="fill: #636363; stroke: #636363; stroke-width: 0.8"/>
      </g>
     </g>
     <g id="text_4">
      <!-- 0.6 -->
      <g style="fill: #636363" transform="translate(239.351812 377.777188) scale(0.11 -0.11)">
       <defs>
        <path id="ArialMT-36" d="M 3184 3459 
L 2625 3416 
Q 2550 3747 2413 3897 
Q 2184 4138 1850 4138 
Q 1581 4138 1378 3988 
Q 1113 3794 959 3422 
Q 806 3050 800 2363 
Q 1003 2672 1297 2822 
Q 1591 2972 1913 2972 
Q 2475 2972 2870 2558 
Q 3266 2144 3266 1488 
Q 3266 1056 3080 686 
Q 2894 316 2569 119 
Q 2244 -78 1831 -78 
Q 1128 -78 684 439 
Q 241 956 241 2144 
Q 241 3472 731 4075 
Q 1159 4600 1884 4600 
Q 2425 4600 2770 4297 
Q 3116 3994 3184 3459 
z
M 888 1484 
Q 888 1194 1011 928 
Q 1134 663 1356 523 
Q 1578 384 1822 384 
Q 2178 384 2434 671 
Q 2691 959 2691 1453 
Q 2691 1928 2437 2201 
Q 2184 2475 1800 2475 
Q 1419 2475 1153 2201 
Q 888 1928 888 1484 
z
" transform="scale(0.015625)"/>
       </defs>
       <use xlink:href="#ArialMT-30"/>
       <use xlink:href="#ArialMT-2e" x="55.615234"/>
       <use xlink:href="#ArialMT-36" x="83.398438"/>
      </g>
     </g>
    </g>
    <g id="xtick_5">
     <g id="line2d_9">
      <path d="M 313.524812 362.903594 
L 313.524812 30.263594 
" clip-path="url(#p88f2c434f5)" style="fill: none; stroke: #b0b0b0; stroke-opacity: 0.3; stroke-width: 0.6; stroke-linecap: square"/>
     </g>
     <g id="line2d_10">
      <g>
       <use xlink:href="#m2118d99c6d" x="313.524812" y="362.903594" style="fill: #636363; stroke: #636363; stroke-width: 0.8"/>
      </g>
     </g>
     <g id="text_5">
      <!-- 0.8 -->
      <g style="fill: #636363" transform="translate(305.879813 377.777188) scale(0.11 -0.11)">
       <defs>
        <path id="ArialMT-38" d="M 1131 2484 
Q 781 2613 612 2850 
Q 444 3088 444 3419 
Q 444 3919 803 4259 
Q 1163 4600 1759 4600 
Q 2359 4600 2725 4251 
Q 3091 3903 3091 3403 
Q 3091 3084 2923 2848 
Q 2756 2613 2416 2484 
Q 2838 2347 3058 2040 
Q 3278 1734 3278 1309 
Q 3278 722 2862 322 
Q 2447 -78 1769 -78 
Q 1091 -78 675 323 
Q 259 725 259 1325 
Q 259 1772 486 2073 
Q 713 2375 1131 2484 
z
M 1019 3438 
Q 1019 3113 1228 2906 
Q 1438 2700 1772 2700 
Q 2097 2700 2305 2904 
Q 2513 3109 2513 3406 
Q 2513 3716 2298 3927 
Q 2084 4138 1766 4138 
Q 1444 4138 1231 3931 
Q 1019 3725 1019 3438 
z
M 838 1322 
Q 838 1081 952 856 
Q 1066 631 1291 507 
Q 1516 384 1775 384 
Q 2178 384 2440 643 
Q 2703 903 2703 1303 
Q 2703 1709 2433 1975 
Q 2163 2241 1756 2241 
Q 1359 2241 1098 1978 
Q 838 1716 838 1322 
z
" transform="scale(0.015625)"/>
       </defs>
       <use xlink:href="#ArialMT-30"/>
       <use xlink:href="#ArialMT-2e" x="55.615234"/>
       <use xlink:href="#ArialMT-38" x="83.398438"/>
      </g>
     </g>
    </g>
    <g id="xtick_6">
     <g id="line2d_11">
      <path d="M 380.052812 362.903594 
L 380.052812 30.263594 
" clip-path="url(#p88f2c434f5)" style="fill: none; stroke: #b0b0b0; stroke-opacity: 0.3; stroke-width: 0.6; stroke-linecap: square"/>
     </g>
     <g id="line2d_12">
      <g>
       <use xlink:href="#m2118d99c6d" x="380.052812" y="362.903594" style="fill: #636363; stroke: #636363; stroke-width: 0.8"/>
      </g>
     </g>
     <g id="text_6">
      <!-- 1.0 -->
      <g style="fill: #636363" transform="translate(372.407812 377.777188) scale(0.11 -0.11)">
       <defs>
        <path id="ArialMT-31" d="M 2384 0 
L 1822 0 
L 1822 3584 
Q 1619 3391 1289 3197 
Q 959 3003 697 2906 
L 697 3450 
Q 1169 3672 1522 3987 
Q 1875 4303 2022 4600 
L 2384 4600 
L 2384 0 
z
" transform="scale(0.015625)"/>
       </defs>
       <use xlink:href="#ArialMT-31"/>
       <use xlink:href="#ArialMT-2e" x="55.615234"/>
       <use xlink:href="#ArialMT-30" x="83.398438"/>
      </g>
     </g>
    </g>
    <g id="text_7">
     <!-- 1 − Especificidade (Taxa de Falsos Positivos) -->
     <g style="fill: #1a1a1a" transform="translate(95.699375 391.971094) scale(0.11 -0.11)">
      <defs>
       <path id="Arial-BoldMT-31" d="M 2519 0 
L 1641 0 
L 1641 3309 
Q 1159 2859 506 2644 
L 506 3441 
Q 850 3553 1253 3867 
Q 1656 4181 1806 4600 
L 2519 4600 
L 2519 0 
z
" transform="scale(0.015625)"/>
       <path id="Arial-BoldMT-20" transform="scale(0.015625)"/>
       <path id="Arial-BoldMT-2212" d="M 266 1850 
L 266 2672 
L 3469 2672 
L 3469 1850 
L 266 1850 
z
" transform="scale(0.015625)"/>
       <path id="Arial-BoldMT-45" d="M 466 0 
L 466 4581 
L 3863 4581 
L 3863 3806 
L 1391 3806 
L 1391 2791 
L 3691 2791 
L 3691 2019 
L 1391 2019 
L 1391 772 
L 3950 772 
L 3950 0 
L 466 0 
z
" transform="scale(0.015625)"/>
       <path id="Arial-BoldMT-73" d="M 150 947 
L 1031 1081 
Q 1088 825 1259 692 
Q 1431 559 1741 559 
Q 2081 559 2253 684 
Q 2369 772 2369 919 
Q 2369 1019 2306 1084 
Q 2241 1147 2013 1200 
Q 950 1434 666 1628 
Q 272 1897 272 2375 
Q 272 2806 612 3100 
Q 953 3394 1669 3394 
Q 2350 3394 2681 3172 
Q 3013 2950 3138 2516 
L 2309 2363 
Q 2256 2556 2107 2659 
Q 1959 2763 1684 2763 
Q 1338 2763 1188 2666 
Q 1088 2597 1088 2488 
Q 1088 2394 1175 2328 
Q 1294 2241 1995 2081 
Q 2697 1922 2975 1691 
Q 3250 1456 3250 1038 
Q 3250 581 2869 253 
Q 2488 -75 1741 -75 
Q 1063 -75 667 200 
Q 272 475 150 947 
z
" transform="scale(0.015625)"/>
       <path id="Arial-BoldMT-70" d="M 434 3319 
L 1253 3319 
L 1253 2831 
Q 1413 3081 1684 3237 
Q 1956 3394 2288 3394 
Q 2866 3394 3269 2941 
Q 3672 2488 3672 1678 
Q 3672 847 3265 386 
Q 2859 -75 2281 -75 
Q 2006 -75 1782 34 
Q 1559 144 1313 409 
L 1313 -1263 
L 434 -1263 
L 434 3319 
z
M 1303 1716 
Q 1303 1156 1525 889 
Q 1747 622 2066 622 
Q 2372 622 2575 867 
Q 2778 1113 2778 1672 
Q 2778 2194 2568 2447 
Q 2359 2700 2050 2700 
Q 1728 2700 1515 2451 
Q 1303 2203 1303 1716 
z
" transform="scale(0.015625)"/>
       <path id="Arial-BoldMT-65" d="M 2381 1056 
L 3256 909 
Q 3088 428 2723 176 
Q 2359 -75 1813 -75 
Q 947 -75 531 491 
Q 203 944 203 1634 
Q 203 2459 634 2926 
Q 1066 3394 1725 3394 
Q 2466 3394 2894 2905 
Q 3322 2416 3303 1406 
L 1103 1406 
Q 1113 1016 1316 798 
Q 1519 581 1822 581 
Q 2028 581 2168 693 
Q 2309 806 2381 1056 
z
M 2431 1944 
Q 2422 2325 2234 2523 
Q 2047 2722 1778 2722 
Q 1491 2722 1303 2513 
Q 1116 2303 1119 1944 
L 2431 1944 
z
" transform="scale(0.015625)"/>
       <path id="Arial-BoldMT-63" d="M 3353 2338 
L 2488 2181 
Q 2444 2441 2289 2572 
Q 2134 2703 1888 2703 
Q 1559 2703 1364 2476 
Q 1169 2250 1169 1719 
Q 1169 1128 1367 884 
Q 1566 641 1900 641 
Q 2150 641 2309 783 
Q 2469 925 2534 1272 
L 3397 1125 
Q 3263 531 2881 228 
Q 2500 -75 1859 -75 
Q 1131 -75 698 384 
Q 266 844 266 1656 
Q 266 2478 700 2936 
Q 1134 3394 1875 3394 
Q 2481 3394 2839 3133 
Q 3197 2872 3353 2338 
z
" transform="scale(0.015625)"/>
       <path id="Arial-BoldMT-69" d="M 459 3769 
L 459 4581 
L 1338 4581 
L 1338 3769 
L 459 3769 
z
M 459 0 
L 459 3319 
L 1338 3319 
L 1338 0 
L 459 0 
z
" transform="scale(0.015625)"/>
       <path id="Arial-BoldMT-66" d="M 75 3319 
L 563 3319 
L 563 3569 
Q 563 3988 652 4194 
Q 741 4400 980 4529 
Q 1219 4659 1584 4659 
Q 1959 4659 2319 4547 
L 2200 3934 
Q 1991 3984 1797 3984 
Q 1606 3984 1523 3895 
Q 1441 3806 1441 3553 
L 1441 3319 
L 2097 3319 
L 2097 2628 
L 1441 2628 
L 1441 0 
L 563 0 
L 563 2628 
L 75 2628 
L 75 3319 
z
" transform="scale(0.015625)"/>
       <path id="Arial-BoldMT-64" d="M 3503 0 
L 2688 0 
L 2688 488 
Q 2484 203 2207 64 
Q 1931 -75 1650 -75 
Q 1078 -75 670 386 
Q 263 847 263 1672 
Q 263 2516 659 2955 
Q 1056 3394 1663 3394 
Q 2219 3394 2625 2931 
L 2625 4581 
L 3503 4581 
L 3503 0 
z
M 1159 1731 
Q 1159 1200 1306 963 
Q 1519 619 1900 619 
Q 2203 619 2415 876 
Q 2628 1134 2628 1647 
Q 2628 2219 2422 2470 
Q 2216 2722 1894 2722 
Q 1581 2722 1370 2473 
Q 1159 2225 1159 1731 
z
" transform="scale(0.015625)"/>
       <path id="Arial-BoldMT-61" d="M 1116 2306 
L 319 2450 
Q 453 2931 781 3162 
Q 1109 3394 1756 3394 
Q 2344 3394 2631 3255 
Q 2919 3116 3036 2902 
Q 3153 2688 3153 2116 
L 3144 1091 
Q 3144 653 3186 445 
Q 3228 238 3344 0 
L 2475 0 
Q 2441 88 2391 259 
Q 2369 338 2359 363 
Q 2134 144 1878 34 
Q 1622 -75 1331 -75 
Q 819 -75 523 203 
Q 228 481 228 906 
Q 228 1188 362 1408 
Q 497 1628 739 1745 
Q 981 1863 1438 1950 
Q 2053 2066 2291 2166 
L 2291 2253 
Q 2291 2506 2166 2614 
Q 2041 2722 1694 2722 
Q 1459 2722 1328 2630 
Q 1197 2538 1116 2306 
z
M 2291 1594 
Q 2122 1538 1756 1459 
Q 1391 1381 1278 1306 
Q 1106 1184 1106 997 
Q 1106 813 1243 678 
Q 1381 544 1594 544 
Q 1831 544 2047 700 
Q 2206 819 2256 991 
Q 2291 1103 2291 1419 
L 2291 1594 
z
" transform="scale(0.015625)"/>
       <path id="Arial-BoldMT-28" d="M 1916 -1347 
L 1313 -1347 
Q 834 -625 584 153 
Q 334 931 334 1659 
Q 334 2563 644 3369 
Q 913 4069 1325 4659 
L 1925 4659 
Q 1497 3713 1336 3048 
Q 1175 2384 1175 1641 
Q 1175 1128 1270 590 
Q 1366 53 1531 -431 
Q 1641 -750 1916 -1347 
z
" transform="scale(0.015625)"/>
       <path id="Arial-BoldMT-54" d="M 1497 0 
L 1497 3806 
L 138 3806 
L 138 4581 
L 3778 4581 
L 3778 3806 
L 2422 3806 
L 2422 0 
L 1497 0 
z
" transform="scale(0.015625)"/>
       <path id="Arial-BoldMT-78" d="M 38 0 
L 1234 1709 
L 88 3319 
L 1159 3319 
L 1747 2406 
L 2366 3319 
L 3397 3319 
L 2272 1747 
L 3500 0 
L 2422 0 
L 1747 1028 
L 1066 0 
L 38 0 
z
" transform="scale(0.015625)"/>
       <path id="Arial-BoldMT-46" d="M 472 0 
L 472 4581 
L 3613 4581 
L 3613 3806 
L 1397 3806 
L 1397 2722 
L 3309 2722 
L 3309 1947 
L 1397 1947 
L 1397 0 
L 472 0 
z
" transform="scale(0.015625)"/>
       <path id="Arial-BoldMT-6c" d="M 459 0 
L 459 4581 
L 1338 4581 
L 1338 0 
L 459 0 
z
" transform="scale(0.015625)"/>
       <path id="Arial-BoldMT-6f" d="M 256 1706 
Q 256 2144 472 2553 
Q 688 2963 1083 3178 
Q 1478 3394 1966 3394 
Q 2719 3394 3200 2905 
Q 3681 2416 3681 1669 
Q 3681 916 3195 420 
Q 2709 -75 1972 -75 
Q 1516 -75 1102 131 
Q 688 338 472 736 
Q 256 1134 256 1706 
z
M 1156 1659 
Q 1156 1166 1390 903 
Q 1625 641 1969 641 
Q 2313 641 2545 903 
Q 2778 1166 2778 1666 
Q 2778 2153 2545 2415 
Q 2313 2678 1969 2678 
Q 1625 2678 1390 2415 
Q 1156 2153 1156 1659 
z
" transform="scale(0.015625)"/>
       <path id="Arial-BoldMT-50" d="M 466 0 
L 466 4581 
L 1950 4581 
Q 2794 4581 3050 4513 
Q 3444 4409 3709 4064 
Q 3975 3719 3975 3172 
Q 3975 2750 3822 2462 
Q 3669 2175 3433 2011 
Q 3197 1847 2953 1794 
Q 2622 1728 1994 1728 
L 1391 1728 
L 1391 0 
L 466 0 
z
M 1391 3806 
L 1391 2506 
L 1897 2506 
Q 2444 2506 2628 2578 
Q 2813 2650 2917 2803 
Q 3022 2956 3022 3159 
Q 3022 3409 2875 3571 
Q 2728 3734 2503 3775 
Q 2338 3806 1838 3806 
L 1391 3806 
z
" transform="scale(0.015625)"/>
       <path id="Arial-BoldMT-74" d="M 1981 3319 
L 1981 2619 
L 1381 2619 
L 1381 1281 
Q 1381 875 1398 808 
Q 1416 741 1477 697 
Q 1538 653 1625 653 
Q 1747 653 1978 738 
L 2053 56 
Q 1747 -75 1359 -75 
Q 1122 -75 931 4 
Q 741 84 652 211 
Q 563 338 528 553 
Q 500 706 500 1172 
L 500 2619 
L 97 2619 
L 97 3319 
L 500 3319 
L 500 3978 
L 1381 4491 
L 1381 3319 
L 1981 3319 
z
" transform="scale(0.015625)"/>
       <path id="Arial-BoldMT-76" d="M 1372 0 
L 34 3319 
L 956 3319 
L 1581 1625 
L 1763 1059 
Q 1834 1275 1853 1344 
Q 1897 1484 1947 1625 
L 2578 3319 
L 3481 3319 
L 2163 0 
L 1372 0 
z
" transform="scale(0.015625)"/>
       <path id="Arial-BoldMT-29" d="M 216 -1347 
Q 475 -791 581 -494 
Q 688 -197 778 190 
Q 869 578 912 926 
Q 956 1275 956 1641 
Q 956 2384 797 3048 
Q 638 3713 209 4659 
L 806 4659 
Q 1278 3988 1539 3234 
Q 1800 2481 1800 1706 
Q 1800 1053 1594 306 
Q 1359 -531 822 -1347 
L 216 -1347 
z
" transform="scale(0.015625)"/>
      </defs>
      <use xlink:href="#Arial-BoldMT-31"/>
      <use xlink:href="#Arial-BoldMT-20" x="55.615234"/>
      <use xlink:href="#Arial-BoldMT-2212" x="83.398438"/>
      <use xlink:href="#Arial-BoldMT-20" x="141.796875"/>
      <use xlink:href="#Arial-BoldMT-45" x="169.580078"/>
      <use xlink:href="#Arial-BoldMT-73" x="236.279297"/>
      <use xlink:href="#Arial-BoldMT-70" x="291.894531"/>
      <use xlink:href="#Arial-BoldMT-65" x="352.978516"/>
      <use xlink:href="#Arial-BoldMT-63" x="408.59375"/>
      <use xlink:href="#Arial-BoldMT-69" x="464.208984"/>
      <use xlink:href="#Arial-BoldMT-66" x="491.992188"/>
      <use xlink:href="#Arial-BoldMT-69" x="525.292969"/>
      <use xlink:href="#Arial-BoldMT-63" x="553.076172"/>
      <use xlink:href="#Arial-BoldMT-69" x="608.691406"/>
      <use xlink:href="#Arial-BoldMT-64" x="636.474609"/>
      <use xlink:href="#Arial-BoldMT-61" x="697.558594"/>
      <use xlink:href="#Arial-BoldMT-64" x="753.173828"/>
      <use xlink:href="#Arial-BoldMT-65" x="814.257812"/>
      <use xlink:href="#Arial-BoldMT-20" x="869.873047"/>
      <use xlink:href="#Arial-BoldMT-28" x="897.65625"/>
      <use xlink:href="#Arial-BoldMT-54" x="930.957031"/>
      <use xlink:href="#Arial-BoldMT-61" x="984.666016"/>
      <use xlink:href="#Arial-BoldMT-78" x="1040.28125"/>
      <use xlink:href="#Arial-BoldMT-61" x="1095.896484"/>
      <use xlink:href="#Arial-BoldMT-20" x="1151.511719"/>
      <use xlink:href="#Arial-BoldMT-64" x="1179.294922"/>
      <use xlink:href="#Arial-BoldMT-65" x="1240.378906"/>
      <use xlink:href="#Arial-BoldMT-20" x="1295.994141"/>
      <use xlink:href="#Arial-BoldMT-46" x="1323.777344"/>
      <use xlink:href="#Arial-BoldMT-61" x="1384.861328"/>
      <use xlink:href="#Arial-BoldMT-6c" x="1440.476562"/>
      <use xlink:href="#Arial-BoldMT-73" x="1468.259766"/>
      <use xlink:href="#Arial-BoldMT-6f" x="1523.875"/>
      <use xlink:href="#Arial-BoldMT-73" x="1584.958984"/>
      <use xlink:href="#Arial-BoldMT-20" x="1640.574219"/>
      <use xlink:href="#Arial-BoldMT-50" x="1668.357422"/>
      <use xlink:href="#Arial-BoldMT-6f" x="1735.056641"/>
      <use xlink:href="#Arial-BoldMT-73" x="1796.140625"/>
      <use xlink:href="#Arial-BoldMT-69" x="1851.755859"/>
      <use xlink:href="#Arial-BoldMT-74" x="1879.539062"/>
      <use xlink:href="#Arial-BoldMT-69" x="1912.839844"/>
      <use xlink:href="#Arial-BoldMT-76" x="1940.623047"/>
      <use xlink:href="#Arial-BoldMT-6f" x="1996.238281"/>
      <use xlink:href="#Arial-BoldMT-73" x="2057.322266"/>
      <use xlink:href="#Arial-BoldMT-29" x="2112.9375"/>
     </g>
    </g>
   </g>
   <g id="matplotlib.axis_2">
    <g id="ytick_1">
     <g id="line2d_13">
      <path d="M 47.412813 362.903594 
L 380.052812 362.903594 
" clip-path="url(#p88f2c434f5)" style="fill: none; stroke: #b0b0b0; stroke-opacity: 0.3; stroke-width: 0.6; stroke-linecap: square"/>
     </g>
     <g id="line2d_14">
      <defs>
       <path id="me428330a4d" d="M 0 0 
L -3.5 0 
" style="stroke: #636363; stroke-width: 0.8"/>
      </defs>
      <g>
       <use xlink:href="#me428330a4d" x="47.412813" y="362.903594" style="fill: #636363; stroke: #636363; stroke-width: 0.8"/>
      </g>
     </g>
     <g id="text_8">
      <!-- 0.0 -->
      <g style="fill: #636363" transform="translate(25.122813 366.840391) scale(0.11 -0.11)">
       <use xlink:href="#ArialMT-30"/>
       <use xlink:href="#ArialMT-2e" x="55.615234"/>
       <use xlink:href="#ArialMT-30" x="83.398438"/>
      </g>
     </g>
    </g>
    <g id="ytick_2">
     <g id="line2d_15">
      <path d="M 47.412813 296.375594 
L 380.052812 296.375594 
" clip-path="url(#p88f2c434f5)" style="fill: none; stroke: #b0b0b0; stroke-opacity: 0.3; stroke-width: 0.6; stroke-linecap: square"/>
     </g>
     <g id="line2d_16">
      <g>
       <use xlink:href="#me428330a4d" x="47.412813" y="296.375594" style="fill: #636363; stroke: #636363; stroke-width: 0.8"/>
      </g>
     </g>
     <g id="text_9">
      <!-- 0.2 -->
      <g style="fill: #636363" transform="translate(25.122813 300.312391) scale(0.11 -0.11)">
       <use xlink:href="#ArialMT-30"/>
       <use xlink:href="#ArialMT-2e" x="55.615234"/>
       <use xlink:href="#ArialMT-32" x="83.398438"/>
      </g>
     </g>
    </g>
    <g id="ytick_3">
     <g id="line2d_17">
      <path d="M 47.412813 229.847594 
L 380.052812 229.847594 
" clip-path="url(#p88f2c434f5)" style="fill: none; stroke: #b0b0b0; stroke-opacity: 0.3; stroke-width: 0.6; stroke-linecap: square"/>
     </g>
     <g id="line2d_18">
      <g>
       <use xlink:href="#me428330a4d" x="47.412813" y="229.847594" style="fill: #636363; stroke: #636363; stroke-width: 0.8"/>
      </g>
     </g>
     <g id="text_10">
      <!-- 0.4 -->
      <g style="fill: #636363" transform="translate(25.122813 233.784391) scale(0.11 -0.11)">
       <use xlink:href="#ArialMT-30"/>
       <use xlink:href="#ArialMT-2e" x="55.615234"/>
       <use xlink:href="#ArialMT-34" x="83.398438"/>
      </g>
     </g>
    </g>
    <g id="ytick_4">
     <g id="line2d_19">
      <path d="M 47.412813 163.319594 
L 380.052812 163.319594 
" clip-path="url(#p88f2c434f5)" style="fill: none; stroke: #b0b0b0; stroke-opacity: 0.3; stroke-width: 0.6; stroke-linecap: square"/>
     </g>
     <g id="line2d_20">
      <g>
       <use xlink:href="#me428330a4d" x="47.412813" y="163.319594" style="fill: #636363; stroke: #636363; stroke-width: 0.8"/>
      </g>
     </g>
     <g id="text_11">
      <!-- 0.6 -->
      <g style="fill: #636363" transform="translate(25.122813 167.256391) scale(0.11 -0.11)">
       <use xlink:href="#ArialMT-30"/>
       <use xlink:href="#ArialMT-2e" x="55.615234"/>
       <use xlink:href="#ArialMT-36" x="83.398438"/>
      </g>
     </g>
    </g>
    <g id="ytick_5">
     <g id="line2d_21">
      <path d="M 47.412813 96.791594 
L 380.052812 96.791594 
" clip-path="url(#p88f2c434f5)" style="fill: none; stroke: #b0b0b0; stroke-opacity: 0.3; stroke-width: 0.6; stroke-linecap: square"/>
     </g>
     <g id="line2d_22">
      <g>
       <use xlink:href="#me428330a4d" x="47.412813" y="96.791594" style="fill: #636363; stroke: #636363; stroke-width: 0.8"/>
      </g>
     </g>
     <g id="text_12">
      <!-- 0.8 -->
      <g style="fill: #636363" transform="translate(25.122813 100.728391) scale(0.11 -0.11)">
       <use xlink:href="#ArialMT-30"/>
       <use xlink:href="#ArialMT-2e" x="55.615234"/>
       <use xlink:href="#ArialMT-38" x="83.398438"/>
      </g>
     </g>
    </g>
    <g id="ytick_6">
     <g id="line2d_23">
      <path d="M 47.412813 30.263594 
L 380.052812 30.263594 
" clip-path="url(#p88f2c434f5)" style="fill: none; stroke: #b0b0b0; stroke-opacity: 0.3; stroke-width: 0.6; stroke-linecap: square"/>
     </g>
     <g id="line2d_24">
      <g>
       <use xlink:href="#me428330a4d" x="47.412813" y="30.263594" style="fill: #636363; stroke: #636363; stroke-width: 0.8"/>
      </g>
     </g>
     <g id="text_13">
      <!-- 1.0 -->
      <g style="fill: #636363" transform="translate(25.122813 34.200391) scale(0.11 -0.11)">
       <use xlink:href="#ArialMT-31"/>
       <use xlink:href="#ArialMT-2e" x="55.615234"/>
       <use xlink:href="#ArialMT-30" x="83.398438"/>
      </g>
     </g>
    </g>
    <g id="text_14">
     <!-- Sensibilidade (Taxa de Verdadeiros Positivos) -->
     <g style="fill: #1a1a1a" transform="translate(18.807656 316.294531) rotate(-90) scale(0.11 -0.11)">
      <defs>
       <path id="Arial-BoldMT-53" d="M 231 1491 
L 1131 1578 
Q 1213 1125 1461 912 
Q 1709 700 2131 700 
Q 2578 700 2804 889 
Q 3031 1078 3031 1331 
Q 3031 1494 2936 1608 
Q 2841 1722 2603 1806 
Q 2441 1863 1863 2006 
Q 1119 2191 819 2459 
Q 397 2838 397 3381 
Q 397 3731 595 4036 
Q 794 4341 1167 4500 
Q 1541 4659 2069 4659 
Q 2931 4659 3367 4281 
Q 3803 3903 3825 3272 
L 2900 3231 
Q 2841 3584 2645 3739 
Q 2450 3894 2059 3894 
Q 1656 3894 1428 3728 
Q 1281 3622 1281 3444 
Q 1281 3281 1419 3166 
Q 1594 3019 2269 2859 
Q 2944 2700 3267 2529 
Q 3591 2359 3773 2064 
Q 3956 1769 3956 1334 
Q 3956 941 3737 597 
Q 3519 253 3119 86 
Q 2719 -81 2122 -81 
Q 1253 -81 787 320 
Q 322 722 231 1491 
z
" transform="scale(0.015625)"/>
       <path id="Arial-BoldMT-6e" d="M 3478 0 
L 2600 0 
L 2600 1694 
Q 2600 2231 2544 2389 
Q 2488 2547 2361 2634 
Q 2234 2722 2056 2722 
Q 1828 2722 1647 2597 
Q 1466 2472 1398 2265 
Q 1331 2059 1331 1503 
L 1331 0 
L 453 0 
L 453 3319 
L 1269 3319 
L 1269 2831 
Q 1703 3394 2363 3394 
Q 2653 3394 2893 3289 
Q 3134 3184 3257 3021 
Q 3381 2859 3429 2653 
Q 3478 2447 3478 2063 
L 3478 0 
z
" transform="scale(0.015625)"/>
       <path id="Arial-BoldMT-62" d="M 422 0 
L 422 4581 
L 1300 4581 
L 1300 2931 
Q 1706 3394 2263 3394 
Q 2869 3394 3266 2955 
Q 3663 2516 3663 1694 
Q 3663 844 3258 384 
Q 2853 -75 2275 -75 
Q 1991 -75 1714 67 
Q 1438 209 1238 488 
L 1238 0 
L 422 0 
z
M 1294 1731 
Q 1294 1216 1456 969 
Q 1684 619 2063 619 
Q 2353 619 2558 867 
Q 2763 1116 2763 1650 
Q 2763 2219 2556 2470 
Q 2350 2722 2028 2722 
Q 1713 2722 1503 2476 
Q 1294 2231 1294 1731 
z
" transform="scale(0.015625)"/>
       <path id="Arial-BoldMT-56" d="M 1634 0 
L -3 4581 
L 1000 4581 
L 2159 1191 
L 3281 4581 
L 4263 4581 
L 2622 0 
L 1634 0 
z
" transform="scale(0.015625)"/>
       <path id="Arial-BoldMT-72" d="M 1300 0 
L 422 0 
L 422 3319 
L 1238 3319 
L 1238 2847 
Q 1447 3181 1614 3287 
Q 1781 3394 1994 3394 
Q 2294 3394 2572 3228 
L 2300 2463 
Q 2078 2606 1888 2606 
Q 1703 2606 1575 2504 
Q 1447 2403 1373 2137 
Q 1300 1872 1300 1025 
L 1300 0 
z
" transform="scale(0.015625)"/>
      </defs>
      <use xlink:href="#Arial-BoldMT-53"/>
      <use xlink:href="#Arial-BoldMT-65" x="66.699219"/>
      <use xlink:href="#Arial-BoldMT-6e" x="122.314453"/>
      <use xlink:href="#Arial-BoldMT-73" x="183.398438"/>
      <use xlink:href="#Arial-BoldMT-69" x="239.013672"/>
      <use xlink:href="#Arial-BoldMT-62" x="266.796875"/>
      <use xlink:href="#Arial-BoldMT-69" x="327.880859"/>
      <use xlink:href="#Arial-BoldMT-6c" x="355.664062"/>
      <use xlink:href="#Arial-BoldMT-69" x="383.447266"/>
      <use xlink:href="#Arial-BoldMT-64" x="411.230469"/>
      <use xlink:href="#Arial-BoldMT-61" x="472.314453"/>
      <use xlink:href="#Arial-BoldMT-64" x="527.929688"/>
      <use xlink:href="#Arial-BoldMT-65" x="589.013672"/>
      <use xlink:href="#Arial-BoldMT-20" x="644.628906"/>
      <use xlink:href="#Arial-BoldMT-28" x="672.412109"/>
      <use xlink:href="#Arial-BoldMT-54" x="705.712891"/>
      <use xlink:href="#Arial-BoldMT-61" x="759.421875"/>
      <use xlink:href="#Arial-BoldMT-78" x="815.037109"/>
      <use xlink:href="#Arial-BoldMT-61" x="870.652344"/>
      <use xlink:href="#Arial-BoldMT-20" x="926.267578"/>
      <use xlink:href="#Arial-BoldMT-64" x="954.050781"/>
      <use xlink:href="#Arial-BoldMT-65" x="1015.134766"/>
      <use xlink:href="#Arial-BoldMT-20" x="1070.75"/>
      <use xlink:href="#Arial-BoldMT-56" x="1098.533203"/>
      <use xlink:href="#Arial-BoldMT-65" x="1159.732422"/>
      <use xlink:href="#Arial-BoldMT-72" x="1215.347656"/>
      <use xlink:href="#Arial-BoldMT-64" x="1254.263672"/>
      <use xlink:href="#Arial-BoldMT-61" x="1315.347656"/>
      <use xlink:href="#Arial-BoldMT-64" x="1370.962891"/>
      <use xlink:href="#Arial-BoldMT-65" x="1432.046875"/>
      <use xlink:href="#Arial-BoldMT-69" x="1487.662109"/>
      <use xlink:href="#Arial-BoldMT-72" x="1515.445312"/>
      <use xlink:href="#Arial-BoldMT-6f" x="1554.361328"/>
      <use xlink:href="#Arial-BoldMT-73" x="1615.445312"/>
      <use xlink:href="#Arial-BoldMT-20" x="1671.060547"/>
      <use xlink:href="#Arial-BoldMT-50" x="1698.84375"/>
      <use xlink:href="#Arial-BoldMT-6f" x="1765.542969"/>
      <use xlink:href="#Arial-BoldMT-73" x="1826.626953"/>
      <use xlink:href="#Arial-BoldMT-69" x="1882.242188"/>
      <use xlink:href="#Arial-BoldMT-74" x="1910.025391"/>
      <use xlink:href="#Arial-BoldMT-69" x="1943.326172"/>
      <use xlink:href="#Arial-BoldMT-76" x="1971.109375"/>
      <use xlink:href="#Arial-BoldMT-6f" x="2026.724609"/>
      <use xlink:href="#Arial-BoldMT-73" x="2087.808594"/>
      <use xlink:href="#Arial-BoldMT-29" x="2143.423828"/>
     </g>
    </g>
   </g>
   <g id="line2d_25">
    <path d="M 47.412813 362.903594 
L 77.500853 362.793091 
L 90.873315 362.527143 
L 102.57422 362.070212 
L 112.603566 361.449208 
L 120.961355 360.729359 
L 129.319144 359.791033 
L 137.676933 358.60054 
L 144.363164 357.443197 
L 151.049395 356.083822 
L 157.735627 354.503631 
L 164.421858 352.683434 
L 171.108089 350.603646 
L 177.79432 348.244305 
L 184.480551 345.585089 
L 189.495225 343.381459 
L 194.509898 340.988679 
L 199.524571 338.397795 
L 204.539245 335.599754 
L 209.553918 332.585399 
L 214.568591 329.345479 
L 219.583265 325.870645 
L 224.597938 322.151452 
L 229.612611 318.178368 
L 234.627285 313.941765 
L 239.641958 309.431931 
L 244.656632 304.639065 
L 249.671305 299.553278 
L 254.685978 294.1646 
L 259.700652 288.462979 
L 264.715325 282.438277 
L 269.729998 276.080281 
L 274.744672 269.378695 
L 279.759345 262.323149 
L 284.774019 254.903193 
L 289.788692 247.108305 
L 294.803365 238.927884 
L 299.818039 230.351261 
L 304.832712 221.367691 
L 309.847385 211.966358 
L 314.862059 202.136377 
L 319.876732 191.866793 
L 324.891405 181.146581 
L 329.906079 169.964649 
L 334.920752 158.309839 
L 339.935426 146.170925 
L 344.950099 133.536616 
L 349.964772 120.395558 
L 354.979446 106.736331 
L 359.994119 92.547453 
L 365.008792 77.817377 
L 370.023466 62.534498 
L 375.038139 46.687146 
L 380.052812 30.263594 
L 380.052812 30.263594 
" clip-path="url(#p88f2c434f5)" style="fill: none; stroke: #2171b5; stroke-width: 2.5; stroke-linecap: square"/>
   </g>
   <g id="line2d_26">
    <path d="M 47.412813 362.903594 
L 52.427486 362.726666 
L 57.442159 362.288654 
L 62.456833 361.629152 
L 67.471506 360.766267 
L 72.486179 359.711716 
L 77.500853 358.474061 
L 82.515526 357.059991 
L 89.201757 354.909435 
L 95.887988 352.46547 
L 102.57422 349.73683 
L 109.260451 346.7309 
L 115.946682 343.454052 
L 122.632913 339.911878 
L 129.319144 336.109347 
L 136.005375 332.05092 
L 142.691606 327.740641 
L 149.377838 323.182201 
L 156.064069 318.378991 
L 162.7503 313.334147 
L 169.436531 308.050576 
L 176.122762 302.530992 
L 184.480551 295.303474 
L 192.83834 287.71577 
L 201.196129 279.772179 
L 209.553918 271.476712 
L 217.911707 262.833125 
L 226.269496 253.84495 
L 234.627285 244.515514 
L 242.985074 234.847964 
L 251.342863 224.84528 
L 259.700652 214.510296 
L 268.058441 203.845706 
L 276.41623 192.854081 
L 284.774019 181.537876 
L 293.131807 169.899444 
L 303.161154 155.51115 
L 313.190501 140.665809 
L 323.219848 125.366973 
L 333.249194 109.618035 
L 343.278541 93.422242 
L 353.307888 76.78271 
L 363.337235 59.702425 
L 373.366581 42.184264 
L 380.052812 30.263594 
L 380.052812 30.263594 
" clip-path="url(#p88f2c434f5)" style="fill: none; stroke-dasharray: 7.4,3.2; stroke-dashoffset: 0; stroke: #e6550d; stroke-width: 2"/>
   </g>
   <g id="line2d_27">
    <path d="M 47.412813 362.903594 
L 50.755928 362.641128 
L 54.099044 362.133375 
L 59.113717 361.066689 
L 64.12839 359.707118 
L 69.143064 358.099167 
L 74.157737 356.270767 
L 79.17241 354.241652 
L 85.858642 351.249298 
L 92.544873 347.953617 
L 99.231104 344.375711 
L 105.917335 340.53255 
L 112.603566 336.438187 
L 119.289797 332.104512 
L 125.976029 327.541766 
L 134.333818 321.529723 
L 142.691606 315.188886 
L 151.049395 308.532497 
L 159.407184 301.572213 
L 167.764973 294.318399 
L 176.122762 286.780358 
L 184.480551 278.966499 
L 192.83834 270.884475 
L 202.867687 260.841894 
L 212.897034 250.434269 
L 222.92638 239.671668 
L 232.955727 228.563309 
L 242.985074 217.117679 
L 253.014421 205.342625 
L 263.043767 193.245432 
L 273.073114 180.832886 
L 283.102461 168.111332 
L 294.803365 152.886886 
L 306.50427 137.258769 
L 318.205174 121.235237 
L 329.906079 104.824022 
L 341.606983 88.032386 
L 353.307888 70.867169 
L 365.008792 53.334828 
L 376.709697 35.441472 
L 380.052812 30.263594 
L 380.052812 30.263594 
" clip-path="url(#p88f2c434f5)" style="fill: none; stroke-dasharray: 1.8,2.97; stroke-dashoffset: 0; stroke: #636363; stroke-width: 1.8"/>
   </g>
   <g id="line2d_28">
    <path d="M 47.412813 362.903594 
L 380.052812 30.263594 
" clip-path="url(#p88f2c434f5)" style="fill: none; stroke-dasharray: 0.8,1.32; stroke-dashoffset: 0; stroke: #000000; stroke-opacity: 0.5; stroke-width: 0.8"/>
   </g>
   <g id="patch_3">
    <path d="M 47.412813 362.903594 
L 47.412813 30.263594 
" style="fill: none; stroke: #636363; stroke-width: 1.2; stroke-linejoin: miter; stroke-linecap: square"/>
   </g>
   <g id="patch_4">
    <path d="M 380.052812 362.903594 
L 380.052812 30.263594 
" style="fill: none; stroke: #636363; stroke-width: 1.2; stroke-linejoin: miter; stroke-linecap: square"/>
   </g>
   <g id="patch_5">
    <path d="M 47.412813 362.903594 
L 380.052812 362.903594 
" style="fill: none; stroke: #636363; stroke-width: 1.2; stroke-linejoin: miter; stroke-linecap: square"/>
   </g>
   <g id="patch_6">
    <path d="M 47.412813 30.263594 
L 380.052812 30.263594 
" style="fill: none; stroke: #636363; stroke-width: 1.2; stroke-linejoin: miter; stroke-linecap: square"/>
   </g>
   <g id="text_15">
    <!-- p = 0,012 -->
    <g style="fill: #2171b5" transform="translate(230.364812 103.772781) scale(0.09 -0.09)">
     <defs>
      <path id="Arial-ItalicMT-70" d="M -66 -1272 
L 894 3319 
L 1416 3319 
L 1319 2856 
Q 1609 3159 1839 3276 
Q 2069 3394 2325 3394 
Q 2800 3394 3112 3048 
Q 3425 2703 3425 2059 
Q 3425 1541 3253 1114 
Q 3081 688 2831 428 
Q 2581 169 2325 47 
Q 2069 -75 1800 -75 
Q 1203 -75 875 531 
L 500 -1272 
L -66 -1272 
z
M 1053 1356 
Q 1053 984 1106 841 
Q 1184 638 1362 513 
Q 1541 388 1775 388 
Q 2263 388 2563 936 
Q 2863 1484 2863 2056 
Q 2863 2478 2661 2708 
Q 2459 2938 2159 2938 
Q 1944 2938 1759 2823 
Q 1575 2709 1417 2482 
Q 1259 2256 1156 1928 
Q 1053 1600 1053 1356 
z
" transform="scale(0.015625)"/>
      <path id="Arial-ItalicMT-20" transform="scale(0.015625)"/>
      <path id="Arial-ItalicMT-3d" d="M 3600 2694 
L 575 2694 
L 575 3219 
L 3600 3219 
L 3600 2694 
z
M 3600 1303 
L 575 1303 
L 575 1828 
L 3600 1828 
L 3600 1303 
z
" transform="scale(0.015625)"/>
      <path id="Arial-ItalicMT-30" d="M 453 1503 
Q 453 2084 626 2684 
Q 800 3284 1012 3643 
Q 1225 4003 1453 4206 
Q 1681 4409 1901 4504 
Q 2122 4600 2391 4600 
Q 2916 4600 3267 4209 
Q 3619 3819 3619 3081 
Q 3619 2322 3375 1578 
Q 3088 697 2575 256 
Q 2181 -78 1678 -78 
Q 1163 -78 808 326 
Q 453 731 453 1503 
z
M 1000 1359 
Q 1000 938 1141 700 
Q 1331 372 1706 372 
Q 2034 372 2303 669 
Q 2691 1088 2886 1895 
Q 3081 2703 3081 3216 
Q 3081 3709 2892 3928 
Q 2703 4147 2394 4147 
Q 2169 4147 1973 4031 
Q 1778 3916 1600 3634 
Q 1347 3238 1159 2447 
Q 1000 1772 1000 1359 
z
" transform="scale(0.015625)"/>
      <path id="Arial-ItalicMT-2c" d="M 347 0 
L 481 641 
L 1125 641 
L 1009 81 
Q 903 -422 679 -656 
Q 456 -891 153 -925 
L 206 -678 
Q 578 -575 697 0 
L 347 0 
z
" transform="scale(0.015625)"/>
      <path id="Arial-ItalicMT-31" d="M 1541 0 
L 2266 3459 
Q 1797 3091 947 2869 
L 1053 3381 
Q 1475 3550 1886 3822 
Q 2297 4094 2503 4297 
Q 2628 4422 2741 4600 
L 3069 4600 
L 2109 0 
L 1541 0 
z
" transform="scale(0.015625)"/>
      <path id="Arial-ItalicMT-32" d="M 375 0 
Q 463 409 617 686 
Q 772 963 1028 1211 
Q 1284 1459 2016 2044 
Q 2459 2397 2622 2566 
Q 2856 2809 2963 3044 
Q 3034 3203 3034 3391 
Q 3034 3706 2811 3926 
Q 2588 4147 2263 4147 
Q 1941 4147 1700 3923 
Q 1459 3700 1356 3206 
L 803 3288 
Q 884 3897 1276 4248 
Q 1669 4600 2253 4600 
Q 2644 4600 2961 4437 
Q 3278 4275 3437 3981 
Q 3597 3688 3597 3375 
Q 3597 2919 3272 2497 
Q 3072 2234 2097 1463 
Q 1678 1131 1473 918 
Q 1269 706 1166 519 
L 3216 519 
L 3106 0 
L 375 0 
z
" transform="scale(0.015625)"/>
     </defs>
     <use xlink:href="#Arial-ItalicMT-70"/>
     <use xlink:href="#Arial-ItalicMT-20" x="55.615234"/>
     <use xlink:href="#Arial-ItalicMT-3d" x="83.398438"/>
     <use xlink:href="#Arial-ItalicMT-20" x="141.796875"/>
     <use xlink:href="#Arial-ItalicMT-30" x="169.580078"/>
     <use xlink:href="#Arial-ItalicMT-2c" x="225.195312"/>
     <use xlink:href="#Arial-ItalicMT-30" x="252.978516"/>
     <use xlink:href="#Arial-ItalicMT-31" x="308.59375"/>
     <use xlink:href="#Arial-ItalicMT-32" x="364.208984"/>
    </g>
    <!-- (DeLong) -->
    <g style="fill: #2171b5" transform="translate(230.364812 113.423594) scale(0.09 -0.09)">
     <defs>
      <path id="Arial-ItalicMT-28" d="M 1031 -1347 
Q 541 -272 541 863 
Q 541 1619 739 2270 
Q 938 2922 1344 3559 
Q 1613 3984 2203 4659 
L 2644 4659 
Q 2278 4269 1870 3559 
Q 1463 2850 1278 2165 
Q 1094 1481 1094 791 
Q 1094 -241 1453 -1347 
L 1031 -1347 
z
" transform="scale(0.015625)"/>
      <path id="Arial-ItalicMT-44" d="M 284 0 
L 1241 4581 
L 2622 4581 
Q 3119 4581 3381 4509 
Q 3756 4413 4022 4164 
Q 4288 3916 4422 3544 
Q 4556 3172 4556 2709 
Q 4556 2156 4389 1701 
Q 4222 1247 3951 901 
Q 3681 556 3386 361 
Q 3091 166 2688 72 
Q 2381 0 1934 0 
L 284 0 
z
M 1006 519 
L 1731 519 
Q 2222 519 2603 609 
Q 2841 666 3009 775 
Q 3231 916 3413 1147 
Q 3650 1453 3792 1845 
Q 3934 2238 3934 2738 
Q 3934 3294 3740 3592 
Q 3547 3891 3247 3988 
Q 3025 4059 2556 4059 
L 1747 4059 
L 1006 519 
z
" transform="scale(0.015625)"/>
      <path id="Arial-ItalicMT-65" d="M 2650 1128 
L 3200 1072 
Q 3081 663 2654 294 
Q 2228 -75 1638 -75 
Q 1269 -75 961 95 
Q 653 266 492 591 
Q 331 916 331 1331 
Q 331 1875 582 2386 
Q 834 2897 1234 3145 
Q 1634 3394 2100 3394 
Q 2694 3394 3048 3025 
Q 3403 2656 3403 2019 
Q 3403 1775 3359 1519 
L 916 1519 
Q 903 1422 903 1344 
Q 903 878 1117 633 
Q 1331 388 1641 388 
Q 1931 388 2212 578 
Q 2494 769 2650 1128 
z
M 1006 1950 
L 2869 1950 
Q 2872 2038 2872 2075 
Q 2872 2500 2659 2726 
Q 2447 2953 2113 2953 
Q 1750 2953 1451 2703 
Q 1153 2453 1006 1950 
z
" transform="scale(0.015625)"/>
      <path id="Arial-ItalicMT-4c" d="M 256 0 
L 1213 4581 
L 1825 4581 
L 978 519 
L 3356 519 
L 3247 0 
L 256 0 
z
" transform="scale(0.015625)"/>
      <path id="Arial-ItalicMT-6f" d="M 313 1259 
Q 313 2231 884 2869 
Q 1356 3394 2122 3394 
Q 2722 3394 3089 3019 
Q 3456 2644 3456 2006 
Q 3456 1434 3225 942 
Q 2994 450 2567 187 
Q 2141 -75 1669 -75 
Q 1281 -75 964 90 
Q 647 256 480 559 
Q 313 863 313 1259 
z
M 878 1316 
Q 878 847 1103 605 
Q 1328 363 1675 363 
Q 1856 363 2034 436 
Q 2213 509 2366 659 
Q 2519 809 2626 1001 
Q 2734 1194 2800 1416 
Q 2897 1725 2897 2009 
Q 2897 2459 2670 2707 
Q 2444 2956 2100 2956 
Q 1834 2956 1615 2829 
Q 1397 2703 1220 2459 
Q 1044 2216 961 1892 
Q 878 1569 878 1316 
z
" transform="scale(0.015625)"/>
      <path id="Arial-ItalicMT-6e" d="M 213 0 
L 906 3319 
L 1419 3319 
L 1297 2741 
Q 1631 3081 1922 3237 
Q 2213 3394 2516 3394 
Q 2919 3394 3148 3175 
Q 3378 2956 3378 2591 
Q 3378 2406 3297 2009 
L 2875 0 
L 2309 0 
L 2750 2103 
Q 2816 2409 2816 2556 
Q 2816 2722 2702 2825 
Q 2588 2928 2372 2928 
Q 1938 2928 1598 2615 
Q 1259 2303 1100 1544 
L 778 0 
L 213 0 
z
" transform="scale(0.015625)"/>
      <path id="Arial-ItalicMT-67" d="M 181 -300 
L 753 -353 
Q 747 -547 800 -644 
Q 853 -741 969 -794 
Q 1122 -863 1366 -863 
Q 1878 -863 2103 -597 
Q 2250 -419 2375 178 
L 2431 447 
Q 1991 0 1494 0 
Q 991 0 652 370 
Q 313 741 313 1419 
Q 313 1978 580 2447 
Q 847 2916 1215 3155 
Q 1584 3394 1975 3394 
Q 2628 3394 2981 2775 
L 3094 3319 
L 3613 3319 
L 2944 116 
Q 2834 -413 2656 -708 
Q 2478 -1003 2161 -1165 
Q 1844 -1328 1428 -1328 
Q 1028 -1328 739 -1225 
Q 450 -1122 308 -923 
Q 166 -725 166 -469 
Q 166 -391 181 -300 
z
M 888 1469 
Q 888 1128 953 956 
Q 1047 716 1220 589 
Q 1394 463 1606 463 
Q 1884 463 2159 658 
Q 2434 853 2604 1262 
Q 2775 1672 2775 2044 
Q 2775 2453 2548 2695 
Q 2322 2938 1988 2938 
Q 1781 2938 1587 2827 
Q 1394 2716 1226 2489 
Q 1059 2263 973 1947 
Q 888 1631 888 1469 
z
" transform="scale(0.015625)"/>
      <path id="Arial-ItalicMT-29" d="M 1269 4659 
Q 1763 3584 1763 2453 
Q 1763 1694 1564 1044 
Q 1366 394 959 -247 
Q 688 -672 100 -1347 
L -341 -1347 
Q 22 -953 431 -243 
Q 841 466 1023 1148 
Q 1206 1831 1206 2525 
Q 1206 3556 847 4659 
L 1269 4659 
z
" transform="scale(0.015625)"/>
     </defs>
     <use xlink:href="#Arial-ItalicMT-28"/>
     <use xlink:href="#Arial-ItalicMT-44" x="33.300781"/>
     <use xlink:href="#Arial-ItalicMT-65" x="105.517578"/>
     <use xlink:href="#Arial-ItalicMT-4c" x="161.132812"/>
     <use xlink:href="#Arial-ItalicMT-6f" x="216.748047"/>
     <use xlink:href="#Arial-ItalicMT-6e" x="272.363281"/>
     <use xlink:href="#Arial-ItalicMT-67" x="327.978516"/>
     <use xlink:href="#Arial-ItalicMT-29" x="383.59375"/>
    </g>
   </g>
   <g id="text_16">
    <!-- Curva ROC: ICE_min vs K_max vs Paquimetria -->
    <g transform="translate(68.878281 20.263594) scale(0.13 -0.13)">
     <defs>
      <path id="Arial-BoldMT-43" d="M 3397 1684 
L 4294 1400 
Q 4088 650 3608 286 
Q 3128 -78 2391 -78 
Q 1478 -78 890 545 
Q 303 1169 303 2250 
Q 303 3394 893 4026 
Q 1484 4659 2447 4659 
Q 3288 4659 3813 4163 
Q 4125 3869 4281 3319 
L 3366 3100 
Q 3284 3456 3026 3662 
Q 2769 3869 2400 3869 
Q 1891 3869 1573 3503 
Q 1256 3138 1256 2319 
Q 1256 1450 1568 1081 
Q 1881 713 2381 713 
Q 2750 713 3015 947 
Q 3281 1181 3397 1684 
z
" transform="scale(0.015625)"/>
      <path id="Arial-BoldMT-75" d="M 2644 0 
L 2644 497 
Q 2463 231 2167 78 
Q 1872 -75 1544 -75 
Q 1209 -75 943 72 
Q 678 219 559 484 
Q 441 750 441 1219 
L 441 3319 
L 1319 3319 
L 1319 1794 
Q 1319 1094 1367 936 
Q 1416 778 1544 686 
Q 1672 594 1869 594 
Q 2094 594 2272 717 
Q 2450 841 2515 1023 
Q 2581 1206 2581 1919 
L 2581 3319 
L 3459 3319 
L 3459 0 
L 2644 0 
z
" transform="scale(0.015625)"/>
      <path id="Arial-BoldMT-52" d="M 469 0 
L 469 4581 
L 2416 4581 
Q 3150 4581 3483 4457 
Q 3816 4334 4016 4018 
Q 4216 3703 4216 3297 
Q 4216 2781 3912 2445 
Q 3609 2109 3006 2022 
Q 3306 1847 3501 1637 
Q 3697 1428 4028 894 
L 4588 0 
L 3481 0 
L 2813 997 
Q 2456 1531 2325 1670 
Q 2194 1809 2047 1861 
Q 1900 1913 1581 1913 
L 1394 1913 
L 1394 0 
L 469 0 
z
M 1394 2644 
L 2078 2644 
Q 2744 2644 2909 2700 
Q 3075 2756 3169 2893 
Q 3263 3031 3263 3238 
Q 3263 3469 3139 3611 
Q 3016 3753 2791 3791 
Q 2678 3806 2116 3806 
L 1394 3806 
L 1394 2644 
z
" transform="scale(0.015625)"/>
      <path id="Arial-BoldMT-4f" d="M 278 2263 
Q 278 2963 488 3438 
Q 644 3788 914 4066 
Q 1184 4344 1506 4478 
Q 1934 4659 2494 4659 
Q 3506 4659 4114 4031 
Q 4722 3403 4722 2284 
Q 4722 1175 4119 548 
Q 3516 -78 2506 -78 
Q 1484 -78 881 545 
Q 278 1169 278 2263 
z
M 1231 2294 
Q 1231 1516 1590 1114 
Q 1950 713 2503 713 
Q 3056 713 3411 1111 
Q 3766 1509 3766 2306 
Q 3766 3094 3420 3481 
Q 3075 3869 2503 3869 
Q 1931 3869 1581 3476 
Q 1231 3084 1231 2294 
z
" transform="scale(0.015625)"/>
      <path id="Arial-BoldMT-3a" d="M 628 2441 
L 628 3319 
L 1506 3319 
L 1506 2441 
L 628 2441 
z
M 628 0 
L 628 878 
L 1506 878 
L 1506 0 
L 628 0 
z
" transform="scale(0.015625)"/>
      <path id="Arial-BoldMT-49" d="M 438 0 
L 438 4581 
L 1363 4581 
L 1363 0 
L 438 0 
z
" transform="scale(0.015625)"/>
      <path id="Arial-BoldMT-5f" d="M -59 -1266 
L -59 -697 
L 3591 -697 
L 3591 -1266 
L -59 -1266 
z
" transform="scale(0.015625)"/>
      <path id="Arial-BoldMT-6d" d="M 394 3319 
L 1203 3319 
L 1203 2866 
Q 1638 3394 2238 3394 
Q 2556 3394 2790 3262 
Q 3025 3131 3175 2866 
Q 3394 3131 3647 3262 
Q 3900 3394 4188 3394 
Q 4553 3394 4806 3245 
Q 5059 3097 5184 2809 
Q 5275 2597 5275 2122 
L 5275 0 
L 4397 0 
L 4397 1897 
Q 4397 2391 4306 2534 
Q 4184 2722 3931 2722 
Q 3747 2722 3584 2609 
Q 3422 2497 3350 2280 
Q 3278 2063 3278 1594 
L 3278 0 
L 2400 0 
L 2400 1819 
Q 2400 2303 2353 2443 
Q 2306 2584 2207 2653 
Q 2109 2722 1941 2722 
Q 1738 2722 1575 2612 
Q 1413 2503 1342 2297 
Q 1272 2091 1272 1613 
L 1272 0 
L 394 0 
L 394 3319 
z
" transform="scale(0.015625)"/>
      <path id="Arial-BoldMT-4b" d="M 478 0 
L 478 4581 
L 1403 4581 
L 1403 2547 
L 3272 4581 
L 4516 4581 
L 2791 2797 
L 4609 0 
L 3413 0 
L 2153 2150 
L 1403 1384 
L 1403 0 
L 478 0 
z
" transform="scale(0.015625)"/>
      <path id="Arial-BoldMT-71" d="M 2628 -1263 
L 2628 406 
Q 2456 184 2200 54 
Q 1944 -75 1647 -75 
Q 1081 -75 716 350 
Q 284 847 284 1697 
Q 284 2497 689 2945 
Q 1094 3394 1694 3394 
Q 2025 3394 2267 3253 
Q 2509 3113 2697 2828 
L 2697 3319 
L 3506 3319 
L 3506 -1263 
L 2628 -1263 
z
M 2656 1700 
Q 2656 2209 2448 2457 
Q 2241 2706 1928 2706 
Q 1609 2706 1395 2453 
Q 1181 2200 1181 1650 
Q 1181 1103 1387 861 
Q 1594 619 1897 619 
Q 2200 619 2428 891 
Q 2656 1163 2656 1700 
z
" transform="scale(0.015625)"/>
     </defs>
     <use xlink:href="#Arial-BoldMT-43"/>
     <use xlink:href="#Arial-BoldMT-75" x="72.216797"/>
     <use xlink:href="#Arial-BoldMT-72" x="133.300781"/>
     <use xlink:href="#Arial-BoldMT-76" x="172.216797"/>
     <use xlink:href="#Arial-BoldMT-61" x="227.832031"/>
     <use xlink:href="#Arial-BoldMT-20" x="283.447266"/>
     <use xlink:href="#Arial-BoldMT-52" x="311.230469"/>
     <use xlink:href="#Arial-BoldMT-4f" x="383.447266"/>
     <use xlink:href="#Arial-BoldMT-43" x="461.230469"/>
     <use xlink:href="#Arial-BoldMT-3a" x="533.447266"/>
     <use xlink:href="#Arial-BoldMT-20" x="566.748047"/>
     <use xlink:href="#Arial-BoldMT-49" x="594.53125"/>
     <use xlink:href="#Arial-BoldMT-43" x="622.314453"/>
     <use xlink:href="#Arial-BoldMT-45" x="694.53125"/>
     <use xlink:href="#Arial-BoldMT-5f" x="761.230469"/>
     <use xlink:href="#Arial-BoldMT-6d" x="816.845703"/>
     <use xlink:href="#Arial-BoldMT-69" x="905.761719"/>
     <use xlink:href="#Arial-BoldMT-6e" x="933.544922"/>
     <use xlink:href="#Arial-BoldMT-20" x="994.628906"/>
     <use xlink:href="#Arial-BoldMT-76" x="1022.412109"/>
     <use xlink:href="#Arial-BoldMT-73" x="1078.027344"/>
     <use xlink:href="#Arial-BoldMT-20" x="1133.642578"/>
     <use xlink:href="#Arial-BoldMT-4b" x="1161.425781"/>
     <use xlink:href="#Arial-BoldMT-5f" x="1233.642578"/>
     <use xlink:href="#Arial-BoldMT-6d" x="1289.257812"/>
     <use xlink:href="#Arial-BoldMT-61" x="1378.173828"/>
     <use xlink:href="#Arial-BoldMT-78" x="1433.789062"/>
     <use xlink:href="#Arial-BoldMT-20" x="1489.404297"/>
     <use xlink:href="#Arial-BoldMT-76" x="1517.1875"/>
     <use xlink:href="#Arial-BoldMT-73" x="1572.802734"/>
     <use xlink:href="#Arial-BoldMT-20" x="1628.417969"/>
     <use xlink:href="#Arial-BoldMT-50" x="1656.201172"/>
     <use xlink:href="#Arial-BoldMT-61" x="1722.900391"/>
     <use xlink:href="#Arial-BoldMT-71" x="1778.515625"/>
     <use xlink:href="#Arial-BoldMT-75" x="1839.599609"/>
     <use xlink:href="#Arial-BoldMT-69" x="1900.683594"/>
     <use xlink:href="#Arial-BoldMT-6d" x="1928.466797"/>
     <use xlink:href="#Arial-BoldMT-65" x="2017.382812"/>
     <use xlink:href="#Arial-BoldMT-74" x="2072.998047"/>
     <use xlink:href="#Arial-BoldMT-72" x="2106.298828"/>
     <use xlink:href="#Arial-BoldMT-69" x="2145.214844"/>
     <use xlink:href="#Arial-BoldMT-61" x="2172.998047"/>
    </g>
   </g>
   <g id="legend_1">
    <g id="patch_7">
     <path d="M 241.66375 358.403594 
L 373.752812 358.403594 
Q 375.552812 358.403594 375.552812 356.603594 
L 375.552812 305.719844 
Q 375.552812 303.919844 373.752812 303.919844 
L 241.66375 303.919844 
Q 239.86375 303.919844 239.86375 305.719844 
L 239.86375 356.603594 
Q 239.86375 358.403594 241.66375 358.403594 
z
" style="fill: #ffffff; opacity: 0.95; stroke: #cccccc; stroke-linejoin: miter"/>
    </g>
    <g id="line2d_29">
     <path d="M 243.46375 310.921563 
L 252.46375 310.921563 
L 261.46375 310.921563 
" style="fill: none; stroke: #2171b5; stroke-width: 2.5; stroke-linecap: square"/>
    </g>
    <g id="text_17">
     <!-- ICE_min (AUC = 0,82) -->
     <g transform="translate(268.66375 314.071563) scale(0.09 -0.09)">
      <defs>
       <path id="ArialMT-49" d="M 597 0 
L 597 4581 
L 1203 4581 
L 1203 0 
L 597 0 
z
" transform="scale(0.015625)"/>
       <path id="ArialMT-43" d="M 3763 1606 
L 4369 1453 
Q 4178 706 3683 314 
Q 3188 -78 2472 -78 
Q 1731 -78 1267 223 
Q 803 525 561 1097 
Q 319 1669 319 2325 
Q 319 3041 592 3573 
Q 866 4106 1370 4382 
Q 1875 4659 2481 4659 
Q 3169 4659 3637 4309 
Q 4106 3959 4291 3325 
L 3694 3184 
Q 3534 3684 3231 3912 
Q 2928 4141 2469 4141 
Q 1941 4141 1586 3887 
Q 1231 3634 1087 3207 
Q 944 2781 944 2328 
Q 944 1744 1114 1308 
Q 1284 872 1643 656 
Q 2003 441 2422 441 
Q 2931 441 3284 734 
Q 3638 1028 3763 1606 
z
" transform="scale(0.015625)"/>
       <path id="ArialMT-45" d="M 506 0 
L 506 4581 
L 3819 4581 
L 3819 4041 
L 1113 4041 
L 1113 2638 
L 3647 2638 
L 3647 2100 
L 1113 2100 
L 1113 541 
L 3925 541 
L 3925 0 
L 506 0 
z
" transform="scale(0.015625)"/>
       <path id="ArialMT-5f" d="M -97 -1272 
L -97 -866 
L 3631 -866 
L 3631 -1272 
L -97 -1272 
z
" transform="scale(0.015625)"/>
       <path id="ArialMT-6d" d="M 422 0 
L 422 3319 
L 925 3319 
L 925 2853 
Q 1081 3097 1340 3245 
Q 1600 3394 1931 3394 
Q 2300 3394 2536 3241 
Q 2772 3088 2869 2813 
Q 3263 3394 3894 3394 
Q 4388 3394 4653 3120 
Q 4919 2847 4919 2278 
L 4919 0 
L 4359 0 
L 4359 2091 
Q 4359 2428 4304 2576 
Q 4250 2725 4106 2815 
Q 3963 2906 3769 2906 
Q 3419 2906 3187 2673 
Q 2956 2441 2956 1928 
L 2956 0 
L 2394 0 
L 2394 2156 
Q 2394 2531 2256 2718 
Q 2119 2906 1806 2906 
Q 1569 2906 1367 2781 
Q 1166 2656 1075 2415 
Q 984 2175 984 1722 
L 984 0 
L 422 0 
z
" transform="scale(0.015625)"/>
       <path id="ArialMT-69" d="M 425 3934 
L 425 4581 
L 988 4581 
L 988 3934 
L 425 3934 
z
M 425 0 
L 425 3319 
L 988 3319 
L 988 0 
L 425 0 
z
" transform="scale(0.015625)"/>
       <path id="ArialMT-6e" d="M 422 0 
L 422 3319 
L 928 3319 
L 928 2847 
Q 1294 3394 1984 3394 
Q 2284 3394 2536 3286 
Q 2788 3178 2913 3003 
Q 3038 2828 3088 2588 
Q 3119 2431 3119 2041 
L 3119 0 
L 2556 0 
L 2556 2019 
Q 2556 2363 2490 2533 
Q 2425 2703 2258 2804 
Q 2091 2906 1866 2906 
Q 1506 2906 1245 2678 
Q 984 2450 984 1813 
L 984 0 
L 422 0 
z
" transform="scale(0.015625)"/>
       <path id="ArialMT-20" transform="scale(0.015625)"/>
       <path id="ArialMT-28" d="M 1497 -1347 
Q 1031 -759 709 28 
Q 388 816 388 1659 
Q 388 2403 628 3084 
Q 909 3875 1497 4659 
L 1900 4659 
Q 1522 4009 1400 3731 
Q 1209 3300 1100 2831 
Q 966 2247 966 1656 
Q 966 153 1900 -1347 
L 1497 -1347 
z
" transform="scale(0.015625)"/>
       <path id="ArialMT-41" d="M -9 0 
L 1750 4581 
L 2403 4581 
L 4278 0 
L 3588 0 
L 3053 1388 
L 1138 1388 
L 634 0 
L -9 0 
z
M 1313 1881 
L 2866 1881 
L 2388 3150 
Q 2169 3728 2063 4100 
Q 1975 3659 1816 3225 
L 1313 1881 
z
" transform="scale(0.015625)"/>
       <path id="ArialMT-55" d="M 3500 4581 
L 4106 4581 
L 4106 1934 
Q 4106 1244 3950 837 
Q 3794 431 3386 176 
Q 2978 -78 2316 -78 
Q 1672 -78 1262 144 
Q 853 366 678 786 
Q 503 1206 503 1934 
L 503 4581 
L 1109 4581 
L 1109 1938 
Q 1109 1341 1220 1058 
Q 1331 775 1601 622 
Q 1872 469 2263 469 
Q 2931 469 3215 772 
Q 3500 1075 3500 1938 
L 3500 4581 
z
" transform="scale(0.015625)"/>
       <path id="ArialMT-3d" d="M 3381 2694 
L 356 2694 
L 356 3219 
L 3381 3219 
L 3381 2694 
z
M 3381 1303 
L 356 1303 
L 356 1828 
L 3381 1828 
L 3381 1303 
z
" transform="scale(0.015625)"/>
       <path id="ArialMT-2c" d="M 569 0 
L 569 641 
L 1209 641 
L 1209 0 
Q 1209 -353 1084 -570 
Q 959 -788 688 -906 
L 531 -666 
Q 709 -588 793 -436 
Q 878 -284 888 0 
L 569 0 
z
" transform="scale(0.015625)"/>
       <path id="ArialMT-29" d="M 791 -1347 
L 388 -1347 
Q 1322 153 1322 1656 
Q 1322 2244 1188 2822 
Q 1081 3291 891 3722 
Q 769 4003 388 4659 
L 791 4659 
Q 1378 3875 1659 3084 
Q 1900 2403 1900 1659 
Q 1900 816 1576 28 
Q 1253 -759 791 -1347 
z
" transform="scale(0.015625)"/>
      </defs>
      <use xlink:href="#ArialMT-49"/>
      <use xlink:href="#ArialMT-43" x="27.783203"/>
      <use xlink:href="#ArialMT-45" x="100"/>
      <use xlink:href="#ArialMT-5f" x="166.699219"/>
      <use xlink:href="#ArialMT-6d" x="222.314453"/>
      <use xlink:href="#ArialMT-69" x="305.615234"/>
      <use xlink:href="#ArialMT-6e" x="327.832031"/>
      <use xlink:href="#ArialMT-20" x="383.447266"/>
      <use xlink:href="#ArialMT-28" x="411.230469"/>
      <use xlink:href="#ArialMT-41" x="444.53125"/>
      <use xlink:href="#ArialMT-55" x="511.230469"/>
      <use xlink:href="#ArialMT-43" x="583.447266"/>
      <use xlink:href="#ArialMT-20" x="655.664062"/>
      <use xlink:href="#ArialMT-3d" x="683.447266"/>
      <use xlink:href="#ArialMT-20" x="741.845703"/>
      <use xlink:href="#ArialMT-30" x="769.628906"/>
      <use xlink:href="#ArialMT-2c" x="825.244141"/>
      <use xlink:href="#ArialMT-38" x="853.027344"/>
      <use xlink:href="#ArialMT-32" x="908.642578"/>
      <use xlink:href="#ArialMT-29" x="964.257812"/>
     </g>
    </g>
    <g id="line2d_30">
     <path d="M 243.46375 323.8675 
L 252.46375 323.8675 
L 261.46375 323.8675 
" style="fill: none; stroke-dasharray: 7.4,3.2; stroke-dashoffset: 0; stroke: #e6550d; stroke-width: 2"/>
    </g>
    <g id="text_18">
     <!-- K_max (AUC = 0,68) -->
     <g transform="translate(268.66375 327.0175) scale(0.09 -0.09)">
      <defs>
       <path id="ArialMT-4b" d="M 469 0 
L 469 4581 
L 1075 4581 
L 1075 2309 
L 3350 4581 
L 4172 4581 
L 2250 2725 
L 4256 0 
L 3456 0 
L 1825 2319 
L 1075 1588 
L 1075 0 
L 469 0 
z
" transform="scale(0.015625)"/>
       <path id="ArialMT-61" d="M 2588 409 
Q 2275 144 1986 34 
Q 1697 -75 1366 -75 
Q 819 -75 525 192 
Q 231 459 231 875 
Q 231 1119 342 1320 
Q 453 1522 633 1644 
Q 813 1766 1038 1828 
Q 1203 1872 1538 1913 
Q 2219 1994 2541 2106 
Q 2544 2222 2544 2253 
Q 2544 2597 2384 2738 
Q 2169 2928 1744 2928 
Q 1347 2928 1158 2789 
Q 969 2650 878 2297 
L 328 2372 
Q 403 2725 575 2942 
Q 747 3159 1072 3276 
Q 1397 3394 1825 3394 
Q 2250 3394 2515 3294 
Q 2781 3194 2906 3042 
Q 3031 2891 3081 2659 
Q 3109 2516 3109 2141 
L 3109 1391 
Q 3109 606 3145 398 
Q 3181 191 3288 0 
L 2700 0 
Q 2613 175 2588 409 
z
M 2541 1666 
Q 2234 1541 1622 1453 
Q 1275 1403 1131 1340 
Q 988 1278 909 1158 
Q 831 1038 831 891 
Q 831 666 1001 516 
Q 1172 366 1500 366 
Q 1825 366 2078 508 
Q 2331 650 2450 897 
Q 2541 1088 2541 1459 
L 2541 1666 
z
" transform="scale(0.015625)"/>
       <path id="ArialMT-78" d="M 47 0 
L 1259 1725 
L 138 3319 
L 841 3319 
L 1350 2541 
Q 1494 2319 1581 2169 
Q 1719 2375 1834 2534 
L 2394 3319 
L 3066 3319 
L 1919 1756 
L 3153 0 
L 2463 0 
L 1781 1031 
L 1600 1309 
L 728 0 
L 47 0 
z
" transform="scale(0.015625)"/>
      </defs>
      <use xlink:href="#ArialMT-4b"/>
      <use xlink:href="#ArialMT-5f" x="66.699219"/>
      <use xlink:href="#ArialMT-6d" x="122.314453"/>
      <use xlink:href="#ArialMT-61" x="205.615234"/>
      <use xlink:href="#ArialMT-78" x="261.230469"/>
      <use xlink:href="#ArialMT-20" x="311.230469"/>
      <use xlink:href="#ArialMT-28" x="339.013672"/>
      <use xlink:href="#ArialMT-41" x="372.314453"/>
      <use xlink:href="#ArialMT-55" x="439.013672"/>
      <use xlink:href="#ArialMT-43" x="511.230469"/>
      <use xlink:href="#ArialMT-20" x="583.447266"/>
      <use xlink:href="#ArialMT-3d" x="611.230469"/>
      <use xlink:href="#ArialMT-20" x="669.628906"/>
      <use xlink:href="#ArialMT-30" x="697.412109"/>
      <use xlink:href="#ArialMT-2c" x="753.027344"/>
      <use xlink:href="#ArialMT-36" x="780.810547"/>
      <use xlink:href="#ArialMT-38" x="836.425781"/>
      <use xlink:href="#ArialMT-29" x="892.041016"/>
     </g>
    </g>
    <g id="line2d_31">
     <path d="M 243.46375 336.813438 
L 252.46375 336.813438 
L 261.46375 336.813438 
" style="fill: none; stroke-dasharray: 1.8,2.97; stroke-dashoffset: 0; stroke: #636363; stroke-width: 1.8"/>
    </g>
    <g id="text_19">
     <!-- Paquimetria (AUC = 0,64) -->
     <g transform="translate(268.66375 339.963437) scale(0.09 -0.09)">
      <defs>
       <path id="ArialMT-50" d="M 494 0 
L 494 4581 
L 2222 4581 
Q 2678 4581 2919 4538 
Q 3256 4481 3484 4323 
Q 3713 4166 3852 3881 
Q 3991 3597 3991 3256 
Q 3991 2672 3619 2267 
Q 3247 1863 2275 1863 
L 1100 1863 
L 1100 0 
L 494 0 
z
M 1100 2403 
L 2284 2403 
Q 2872 2403 3119 2622 
Q 3366 2841 3366 3238 
Q 3366 3525 3220 3729 
Q 3075 3934 2838 4000 
Q 2684 4041 2272 4041 
L 1100 4041 
L 1100 2403 
z
" transform="scale(0.015625)"/>
       <path id="ArialMT-71" d="M 2538 -1272 
L 2538 353 
Q 2406 169 2170 47 
Q 1934 -75 1669 -75 
Q 1078 -75 651 397 
Q 225 869 225 1691 
Q 225 2191 398 2587 
Q 572 2984 901 3189 
Q 1231 3394 1625 3394 
Q 2241 3394 2594 2875 
L 2594 3319 
L 3100 3319 
L 3100 -1272 
L 2538 -1272 
z
M 803 1669 
Q 803 1028 1072 708 
Q 1341 388 1716 388 
Q 2075 388 2334 692 
Q 2594 997 2594 1619 
Q 2594 2281 2320 2615 
Q 2047 2950 1678 2950 
Q 1313 2950 1058 2639 
Q 803 2328 803 1669 
z
" transform="scale(0.015625)"/>
       <path id="ArialMT-75" d="M 2597 0 
L 2597 488 
Q 2209 -75 1544 -75 
Q 1250 -75 995 37 
Q 741 150 617 320 
Q 494 491 444 738 
Q 409 903 409 1263 
L 409 3319 
L 972 3319 
L 972 1478 
Q 972 1038 1006 884 
Q 1059 663 1231 536 
Q 1403 409 1656 409 
Q 1909 409 2131 539 
Q 2353 669 2445 892 
Q 2538 1116 2538 1541 
L 2538 3319 
L 3100 3319 
L 3100 0 
L 2597 0 
z
" transform="scale(0.015625)"/>
       <path id="ArialMT-65" d="M 2694 1069 
L 3275 997 
Q 3138 488 2766 206 
Q 2394 -75 1816 -75 
Q 1088 -75 661 373 
Q 234 822 234 1631 
Q 234 2469 665 2931 
Q 1097 3394 1784 3394 
Q 2450 3394 2872 2941 
Q 3294 2488 3294 1666 
Q 3294 1616 3291 1516 
L 816 1516 
Q 847 969 1125 678 
Q 1403 388 1819 388 
Q 2128 388 2347 550 
Q 2566 713 2694 1069 
z
M 847 1978 
L 2700 1978 
Q 2663 2397 2488 2606 
Q 2219 2931 1791 2931 
Q 1403 2931 1139 2672 
Q 875 2413 847 1978 
z
" transform="scale(0.015625)"/>
       <path id="ArialMT-74" d="M 1650 503 
L 1731 6 
Q 1494 -44 1306 -44 
Q 1000 -44 831 53 
Q 663 150 594 308 
Q 525 466 525 972 
L 525 2881 
L 113 2881 
L 113 3319 
L 525 3319 
L 525 4141 
L 1084 4478 
L 1084 3319 
L 1650 3319 
L 1650 2881 
L 1084 2881 
L 1084 941 
Q 1084 700 1114 631 
Q 1144 563 1211 522 
Q 1278 481 1403 481 
Q 1497 481 1650 503 
z
" transform="scale(0.015625)"/>
       <path id="ArialMT-72" d="M 416 0 
L 416 3319 
L 922 3319 
L 922 2816 
Q 1116 3169 1280 3281 
Q 1444 3394 1641 3394 
Q 1925 3394 2219 3213 
L 2025 2691 
Q 1819 2813 1613 2813 
Q 1428 2813 1281 2702 
Q 1134 2591 1072 2394 
Q 978 2094 978 1738 
L 978 0 
L 416 0 
z
" transform="scale(0.015625)"/>
      </defs>
      <use xlink:href="#ArialMT-50"/>
      <use xlink:href="#ArialMT-61" x="66.699219"/>
      <use xlink:href="#ArialMT-71" x="122.314453"/>
      <use xlink:href="#ArialMT-75" x="177.929688"/>
      <use xlink:href="#ArialMT-69" x="233.544922"/>
      <use xlink:href="#ArialMT-6d" x="255.761719"/>
      <use xlink:href="#ArialMT-65" x="339.0625"/>
      <use xlink:href="#ArialMT-74" x="394.677734"/>
      <use xlink:href="#ArialMT-72" x="422.460938"/>
      <use xlink:href="#ArialMT-69" x="455.761719"/>
      <use xlink:href="#ArialMT-61" x="477.978516"/>
      <use xlink:href="#ArialMT-20" x="533.59375"/>
      <use xlink:href="#ArialMT-28" x="561.376953"/>
      <use xlink:href="#ArialMT-41" x="594.677734"/>
      <use xlink:href="#ArialMT-55" x="661.376953"/>
      <use xlink:href="#ArialMT-43" x="733.59375"/>
      <use xlink:href="#ArialMT-20" x="805.810547"/>
      <use xlink:href="#ArialMT-3d" x="833.59375"/>
      <use xlink:href="#ArialMT-20" x="891.992188"/>
      <use xlink:href="#ArialMT-30" x="919.775391"/>
      <use xlink:href="#ArialMT-2c" x="975.390625"/>
      <use xlink:href="#ArialMT-36" x="1003.173828"/>
      <use xlink:href="#ArialMT-34" x="1058.789062"/>
      <use xlink:href="#ArialMT-29" x="1114.404297"/>
     </g>
    </g>
    <g id="line2d_32">
     <path d="M 243.46375 349.759375 
L 252.46375 349.759375 
L 261.46375 349.759375 
" style="fill: none; stroke-dasharray: 0.8,1.32; stroke-dashoffset: 0; stroke: #000000; stroke-opacity: 0.5; stroke-width: 0.8"/>
    </g>
    <g id="text_20">
     <!-- Aleatório (AUC = 0,50) -->
     <g transform="translate(268.66375 352.909375) scale(0.09 -0.09)">
      <defs>
       <path id="ArialMT-6c" d="M 409 0 
L 409 4581 
L 972 4581 
L 972 0 
L 409 0 
z
" transform="scale(0.015625)"/>
       <path id="ArialMT-f3" d="M 213 1659 
Q 213 2581 725 3025 
Q 1153 3394 1769 3394 
Q 2453 3394 2887 2945 
Q 3322 2497 3322 1706 
Q 3322 1066 3130 698 
Q 2938 331 2570 128 
Q 2203 -75 1769 -75 
Q 1072 -75 642 372 
Q 213 819 213 1659 
z
M 791 1659 
Q 791 1022 1069 705 
Q 1347 388 1769 388 
Q 2188 388 2466 706 
Q 2744 1025 2744 1678 
Q 2744 2294 2464 2611 
Q 2184 2928 1769 2928 
Q 1347 2928 1069 2612 
Q 791 2297 791 1659 
z
M 1454 3731 
L 1869 4606 
L 2607 4606 
L 1919 3731 
L 1454 3731 
z
" transform="scale(0.015625)"/>
       <path id="ArialMT-6f" d="M 213 1659 
Q 213 2581 725 3025 
Q 1153 3394 1769 3394 
Q 2453 3394 2887 2945 
Q 3322 2497 3322 1706 
Q 3322 1066 3130 698 
Q 2938 331 2570 128 
Q 2203 -75 1769 -75 
Q 1072 -75 642 372 
Q 213 819 213 1659 
z
M 791 1659 
Q 791 1022 1069 705 
Q 1347 388 1769 388 
Q 2188 388 2466 706 
Q 2744 1025 2744 1678 
Q 2744 2294 2464 2611 
Q 2184 2928 1769 2928 
Q 1347 2928 1069 2612 
Q 791 2297 791 1659 
z
" transform="scale(0.015625)"/>
       <path id="ArialMT-35" d="M 266 1200 
L 856 1250 
Q 922 819 1161 601 
Q 1400 384 1738 384 
Q 2144 384 2425 690 
Q 2706 997 2706 1503 
Q 2706 1984 2436 2262 
Q 2166 2541 1728 2541 
Q 1456 2541 1237 2417 
Q 1019 2294 894 2097 
L 366 2166 
L 809 4519 
L 3088 4519 
L 3088 3981 
L 1259 3981 
L 1013 2750 
Q 1425 3038 1878 3038 
Q 2478 3038 2890 2622 
Q 3303 2206 3303 1553 
Q 3303 931 2941 478 
Q 2500 -78 1738 -78 
Q 1113 -78 717 272 
Q 322 622 266 1200 
z
" transform="scale(0.015625)"/>
      </defs>
      <use xlink:href="#ArialMT-41"/>
      <use xlink:href="#ArialMT-6c" x="66.699219"/>
      <use xlink:href="#ArialMT-65" x="88.916016"/>
      <use xlink:href="#ArialMT-61" x="144.53125"/>
      <use xlink:href="#ArialMT-74" x="200.146484"/>
      <use xlink:href="#ArialMT-f3" x="227.929688"/>
      <use xlink:href="#ArialMT-72" x="283.544922"/>
      <use xlink:href="#ArialMT-69" x="316.845703"/>
      <use xlink:href="#ArialMT-6f" x="339.0625"/>
      <use xlink:href="#ArialMT-20" x="394.677734"/>
      <use xlink:href="#ArialMT-28" x="422.460938"/>
      <use xlink:href="#ArialMT-41" x="455.761719"/>
      <use xlink:href="#ArialMT-55" x="522.460938"/>
      <use xlink:href="#ArialMT-43" x="594.677734"/>
      <use xlink:href="#ArialMT-20" x="666.894531"/>
      <use xlink:href="#ArialMT-3d" x="694.677734"/>
      <use xlink:href="#ArialMT-20" x="753.076172"/>
      <use xlink:href="#ArialMT-30" x="780.859375"/>
      <use xlink:href="#ArialMT-2c" x="836.474609"/>
      <use xlink:href="#ArialMT-35" x="864.257812"/>
      <use xlink:href="#ArialMT-30" x="919.873047"/>
      <use xlink:href="#ArialMT-29" x="975.488281"/>
     </g>
    </g>
   </g>
  </g>
 </g>
 <defs>
  <clipPath id="p88f2c434f5">
   <rect x="47.412813" y="30.263594" width="332.64" height="332.64"/>
  </clipPath>
 </defs>
  <text x="199.2" y="400.1" text-anchor="middle" font-size="8" fill="#CCC" font-family="Arial, Helvetica, sans-serif">Figura 9.2 — Curva ROC do Índice de Coerência Axial (ICE) · Dr. Miguel Reis · Dra. Jordana Sandes</text>
</svg>
