<svg xmlns="http://www.w3.org/2000/svg" viewBox="0 0 800 370" font-family="Arial, Helvetica, sans-serif">
  <defs>
    <filter id="ds" x="-3%" y="-3%" width="106%" height="106%"><feDropShadow dx="1" dy="1.5" stdDeviation="2" flood-opacity="0.1"/></filter>
    <marker id="ar" markerWidth="8" markerHeight="6" refX="7" refY="3" orient="auto"><polygon points="0 0,8 3,0 6" fill="#555"/></marker>
  </defs>
  <rect width="800" height="370" fill="white" rx="8"/>
  <text x="400" y="25" text-anchor="middle" font-size="15" font-weight="bold" fill="#1a1a1a">Arquitetura da Plataforma de Software AVBC</text>

  <!-- ═══ INPUT LAYER ═══ -->
  <rect x="30" y="50" width="740" height="65" rx="10" fill="#E3F2FD" stroke="#0288D1" stroke-width="1.5" filter="url(#ds)"/>
  <text x="400" y="70" text-anchor="middle" font-size="12" font-weight="bold" fill="#0277BD">CAMADA DE ENTRADA</text>

  <rect x="55" y="80" width="155" height="28" rx="5" fill="white" stroke="#42A5F5" stroke-width="1"/>
  <text x="132" y="99" text-anchor="middle" font-size="9" fill="#333">📷 Pentacam/Galilei</text>

  <rect x="230" y="80" width="155" height="28" rx="5" fill="white" stroke="#42A5F5" stroke-width="1"/>
  <text x="307" y="99" text-anchor="middle" font-size="9" fill="#333">🔬 Aberrometria</text>

  <rect x="405" y="80" width="155" height="28" rx="5" fill="white" stroke="#42A5F5" stroke-width="1"/>
  <text x="482" y="99" text-anchor="middle" font-size="9" fill="#333">📋 Refração / Clínica</text>

  <rect x="580" y="80" width="170" height="28" rx="5" fill="white" stroke="#42A5F5" stroke-width="1"/>
  <text x="665" y="99" text-anchor="middle" font-size="9" fill="#333">⚡ Corvis ST (opcional)</text>

  <!-- Arrows down -->
  <line x1="400" y1="115" x2="400" y2="138" stroke="#555" stroke-width="1.5" marker-end="url(#ar)"/>

  <!-- ═══ PROCESSING LAYER ═══ -->
  <rect x="30" y="142" width="740" height="90" rx="10" fill="#E8F5E9" stroke="#2E7D32" stroke-width="1.5" filter="url(#ds)"/>
  <text x="400" y="162" text-anchor="middle" font-size="12" font-weight="bold" fill="#1B5E20">CAMADA DE PROCESSAMENTO</text>

  <rect x="50" y="172" width="145" height="48" rx="6" fill="#4FC3F7" filter="url(#ds)"/>
  <text x="122" y="192" text-anchor="middle" font-size="10" font-weight="bold" fill="white">Módulo O</text>
  <text x="122" y="210" text-anchor="middle" font-size="8" fill="#E3F2FD">ICE · Coma · HOA</text>

  <rect x="215" y="172" width="145" height="48" rx="6" fill="#66BB6A" filter="url(#ds)"/>
  <text x="287" y="192" text-anchor="middle" font-size="10" font-weight="bold" fill="white">Módulo T</text>
  <text x="287" y="210" text-anchor="middle" font-size="8" fill="#E8F5E9">Topologia · ENM</text>

  <rect x="380" y="172" width="145" height="48" rx="6" fill="#FFB74D" filter="url(#ds)"/>
  <text x="452" y="192" text-anchor="middle" font-size="10" font-weight="bold" fill="white">Módulo B</text>
  <text x="452" y="210" text-anchor="middle" font-size="8" fill="#FFF3E0">VR · VT · Vτ</text>

  <rect x="545" y="172" width="210" height="48" rx="6" fill="#7E57C2" filter="url(#ds)"/>
  <text x="650" y="192" text-anchor="middle" font-size="10" font-weight="bold" fill="white">FEM Lookup Table</text>
  <text x="650" y="210" text-anchor="middle" font-size="8" fill="#E8D5F5">377 simulações pré-computadas</text>

  <!-- Arrows down -->
  <line x1="400" y1="232" x2="400" y2="255" stroke="#555" stroke-width="1.5" marker-end="url(#ar)"/>

  <!-- ═══ OUTPUT LAYER ═══ -->
  <rect x="30" y="259" width="740" height="70" rx="10" fill="#FFF3E0" stroke="#E65100" stroke-width="1.5" filter="url(#ds)"/>
  <text x="400" y="279" text-anchor="middle" font-size="12" font-weight="bold" fill="#BF360C">CAMADA DE SAÍDA</text>

  <rect x="50" y="289" width="160" height="30" rx="5" fill="white" stroke="#E6550D" stroke-width="1"/>
  <text x="130" y="309" text-anchor="middle" font-size="9" fill="#333">🎯 Prescrição Ranqueada</text>

  <rect x="230" y="289" width="155" height="30" rx="5" fill="white" stroke="#E6550D" stroke-width="1"/>
  <text x="307" y="309" text-anchor="middle" font-size="9" fill="#333">📊 Dashboard Visual</text>

  <rect x="405" y="289" width="155" height="30" rx="5" fill="white" stroke="#E6550D" stroke-width="1"/>
  <text x="482" y="309" text-anchor="middle" font-size="9" fill="#333">⚖ Comparação Nomograma</text>

  <rect x="580" y="289" width="170" height="30" rx="5" fill="white" stroke="#E6550D" stroke-width="1"/>
  <text x="665" y="309" text-anchor="middle" font-size="9" fill="#333">🔄 Feedback CI (pós-op)</text>

  <!-- Footer -->
  <text x="400" y="360" text-anchor="middle" font-size="8" fill="#CCC">Figura 14.1 — Arquitetura da Plataforma AVBC · Dr. Miguel Reis · Dra. Jordana Sandes</text>
</svg>
