<svg xmlns="http://www.w3.org/2000/svg" viewBox="0 0 780 400" font-family="Arial, Helvetica, sans-serif">
  <defs>
    <filter id="ds" x="-3%" y="-3%" width="106%" height="106%"><feDropShadow dx="1" dy="1.5" stdDeviation="2" flood-opacity="0.1"/></filter>
  </defs>
  <rect width="780" height="400" fill="white" rx="8"/>
  <text x="390" y="25" text-anchor="middle" font-size="15" font-weight="bold" fill="#1a1a1a">Malha de Elementos Finitos — Modelo FEBio da Córnea</text>
  <text x="390" y="43" text-anchor="middle" font-size="10" fill="#888">Condições de contorno da simulação AVBC</text>

  <!-- ═══ LEFT: FRONTAL VIEW ═══ -->
  <rect x="20" y="60" width="350" height="300" rx="10" fill="#FAFAFA" stroke="#DDD" stroke-width="1" filter="url(#ds)"/>
  <text x="195" y="82" text-anchor="middle" font-size="11" font-weight="bold" fill="#333">Vista Frontal</text>

  <!-- Mesh grid (concentric circles + radial lines) -->
  <g stroke="#90CAF9" stroke-width="0.6" fill="none">
    <circle cx="195" cy="210" r="120"/><circle cx="195" cy="210" r="100"/>
    <circle cx="195" cy="210" r="80"/><circle cx="195" cy="210" r="60"/>
    <circle cx="195" cy="210" r="40"/><circle cx="195" cy="210" r="20"/>
    <!-- Radial lines -->
    <line x1="195" y1="90" x2="195" y2="330"/>
    <line x1="75" y1="210" x2="315" y2="210"/>
    <line x1="110" y1="125" x2="280" y2="295"/>
    <line x1="280" y1="125" x2="110" y2="295"/>
    <line x1="90" y1="165" x2="300" y2="255"/>
    <line x1="300" y1="165" x2="90" y2="255"/>
    <line x1="138" y1="103" x2="252" y2="317"/>
    <line x1="252" y1="103" x2="138" y2="317"/>
  </g>

  <!-- Limbus ring (fixed BC) -->
  <circle cx="195" cy="210" r="125" fill="none" stroke="#C62828" stroke-width="3"/>
  <text x="195" y="345" text-anchor="middle" font-size="8" fill="#C62828" font-weight="bold">Limbo: DOFs fixos (BC)</text>

  <!-- ICRS arc on mesh -->
  <path d="M 120 300 A 110 110 0 0 1 270 300" fill="none" stroke="#E6550D" stroke-width="6" stroke-linecap="round" opacity="0.7"/>
  <text x="195" y="315" text-anchor="middle" font-size="7" fill="#E6550D" font-weight="bold">Arco ICRS (160°)</text>

  <!-- Central node -->
  <circle cx="195" cy="210" r="3" fill="#333"/>
  <text x="195" y="200" text-anchor="middle" font-size="6" fill="#333">Ápice</text>

  <!-- Node count -->
  <text x="195" y="355" text-anchor="middle" font-size="7" fill="#777">~4.800 nós hexaédricos</text>

  <!-- ═══ RIGHT: LATERAL VIEW ═══ -->
  <rect x="400" y="60" width="360" height="300" rx="10" fill="#FAFAFA" stroke="#DDD" stroke-width="1" filter="url(#ds)"/>
  <text x="580" y="82" text-anchor="middle" font-size="11" font-weight="bold" fill="#333">Vista Lateral (Corte Sagital)</text>

  <!-- Corneal dome cross-section with mesh -->
  <path d="M 430 280 Q 450 200 500 160 Q 580 120 660 160 Q 710 200 730 280" fill="none" stroke="#90CAF9" stroke-width="1.5"/>
  <path d="M 430 290 Q 450 220 500 185 Q 580 150 660 185 Q 710 220 730 290" fill="none" stroke="#90CAF9" stroke-width="1.5"/>

  <!-- Internal mesh lines -->
  <g stroke="#B3D9F2" stroke-width="0.5">
    <path d="M 435 285 Q 450 210 500 172 Q 580 135 660 172 Q 710 210 725 285"/>
    <line x1="470" y1="195" x2="470" y2="275"/>
    <line x1="510" y1="170" x2="510" y2="265"/>
    <line x1="550" y1="150" x2="550" y2="260"/>
    <line x1="580" y1="145" x2="580" y2="258"/>
    <line x1="610" y1="150" x2="610" y2="260"/>
    <line x1="650" y1="170" x2="650" y2="265"/>
    <line x1="690" y1="195" x2="690" y2="275"/>
  </g>

  <!-- ICRS insert (prescribed displacement) -->
  <rect x="485" y="245" width="20" height="25" rx="2" fill="#E6550D" opacity="0.8"/>
  <rect x="650" y="245" width="20" height="25" rx="2" fill="#E6550D" opacity="0.8"/>
  <!-- Displacement arrows -->
  <line x1="495" y1="243" x2="495" y2="218" stroke="#E6550D" stroke-width="2"/>
  <line x1="660" y1="243" x2="660" y2="218" stroke="#E6550D" stroke-width="2"/>
  <text x="495" y="212" text-anchor="middle" font-size="6" fill="#E6550D" font-weight="bold">↑ uz=250μm</text>
  <text x="660" y="212" text-anchor="middle" font-size="6" fill="#E6550D" font-weight="bold">↑ uz=250μm</text>

  <!-- IOP arrows -->
  <g stroke="#2171B5" stroke-width="1" opacity="0.6">
    <line x1="500" y1="310" x2="500" y2="292"/>
    <line x1="540" y1="315" x2="540" y2="295"/>
    <line x1="580" y1="316" x2="580" y2="296"/>
    <line x1="620" y1="315" x2="620" y2="295"/>
    <line x1="660" y1="310" x2="660" y2="292"/>
  </g>
  <text x="580" y="328" text-anchor="middle" font-size="8" fill="#2171B5" font-weight="bold">PIO = 15 mmHg ↑</text>

  <!-- Fixed BC markers at limbus -->
  <g fill="#C62828" font-size="10" font-weight="bold">
    <text x="420" y="290">▲</text><text x="728" y="290">▲</text>
  </g>
  <text x="425" y="305" font-size="6" fill="#C62828">Fixo</text>
  <text x="728" y="305" font-size="6" fill="#C62828">Fixo</text>

  <!-- BC Legend -->
  <rect x="420" y="340" width="320" height="15" rx="3" fill="#F5F5F5"/>
  <text x="430" y="350" font-size="7" fill="#C62828" font-weight="bold">▲ Fixo</text>
  <text x="480" y="350" font-size="7" fill="#E6550D" font-weight="bold">■ uz prescrito</text>
  <text x="565" y="350" font-size="7" fill="#2171B5" font-weight="bold">↑ Pressão</text>
  <text x="640" y="350" font-size="7" fill="#555">XY livres no ICRS</text>

  <!-- Footer -->
  <text x="390" y="390" text-anchor="middle" font-size="8" fill="#CCC">Figura A.1 — Malha FEM da Córnea com Condições de Contorno AVBC · FEBio 4.12</text>
</svg>
