<svg viewBox="0 0 1200 600" xmlns="http://www.w3.org/2000/svg"><rect width="1200" height="600" fill="#0A0E17"/><defs><marker id="aB" viewBox="0 0 10 10" refX="5" refY="5" markerWidth="6" markerHeight="6" orient="auto-start-reverse"><path d="M 0 0 L 10 5 L 0 10 z" fill="#0B3D91"/></marker><marker id="aG" viewBox="0 0 10 10" refX="5" refY="5" markerWidth="6" markerHeight="6" orient="auto-start-reverse"><path d="M 0 0 L 10 5 L 0 10 z" fill="#00e676"/></marker><marker id="aR" viewBox="0 0 10 10" refX="5" refY="5" markerWidth="6" markerHeight="6" orient="auto-start-reverse"><path d="M 0 0 L 10 5 L 0 10 z" fill="#ff1744"/></marker></defs><text x="600" y="50" fill="#ffffff" font-family="Arial" font-size="28" font-weight="bold" text-anchor="middle">Figura 5.3: A Regra da Incisão Certa vs Errada (VT)</text><text x="600" y="80" fill="#cfd8dc" font-family="Arial" font-size="16" text-anchor="middle">Como a força tangencial atua nos pólos do astigmatismo</text><rect x="50" y="120" width="500" height="420" rx="15" fill="#111B24" stroke="#ff1744" stroke-width="2"/><rect x="50" y="120" width="500" height="40" rx="15" fill="#ff1744" opacity="0.1"/><text x="300" y="146" fill="#ff1744" font-family="Arial" font-size="18" font-weight="bold" text-anchor="middle">Incisão Errada (Eixo Plano)</text><ellipse cx="300" cy="300" rx="80" ry="140" fill="none" stroke="#cfd8dc" stroke-width="3" stroke-dasharray="4,4"/><text x="300" y="150" fill="#cfd8dc" font-family="Arial" font-size="14" font-weight="bold" text-anchor="middle">Meridiano Curvo</text><text x="410" y="300" fill="#cfd8dc" font-family="Arial" font-size="14" font-weight="bold" text-anchor="start">Plano</text><line x1="370" y1="300" x2="400" y2="300" stroke="#ff1744" stroke-width="4"/><path d="M 390 290 Q 310 160 230 290" fill="none" stroke="#00B4DC" stroke-width="12" opacity="0.7"/><path d="M 390 310 Q 310 440 230 310" fill="none" stroke="#00B4DC" stroke-width="12" opacity="0.7"/><path d="M 380 280 A 80 140 0 0 0 300 160" fill="none" stroke="#00B4DC" stroke-width="4" marker-end="url(#aB)"/><path d="M 380 320 A 80 140 0 0 1 300 440" fill="none" stroke="#00B4DC" stroke-width="4" marker-end="url(#aB)"/><text x="300" y="300" fill="#ff1744" font-family="Arial" font-size="16" font-weight="bold" text-anchor="middle">ATRASO / BORBOLETA</text><text x="300" y="480" fill="#ffffff" font-family="Arial" font-size="14" text-anchor="middle">Criou novo astigmatismo a 90º.</text><rect x="650" y="120" width="500" height="420" rx="15" fill="#111B24" stroke="#00e676" stroke-width="2"/><rect x="650" y="120" width="500" height="40" rx="15" fill="#00e676" opacity="0.1"/><text x="900" y="146" fill="#00e676" font-family="Arial" font-size="18" font-weight="bold" text-anchor="middle">Incisão Certa (Eixo Curvo)</text><ellipse cx="900" cy="300" rx="80" ry="140" fill="none" stroke="#cfd8dc" stroke-width="3" stroke-dasharray="4,4"/><line x1="900" y1="170" x2="900" y2="140" stroke="#00e676" stroke-width="4"/><path d="M 890 160 Q 810 300 890 440" fill="none" stroke="#00B4DC" stroke-width="12" opacity="0.8"/><path d="M 910 160 Q 990 300 910 440" fill="none" stroke="#00B4DC" stroke-width="12" opacity="0.8"/><path d="M 880 170 A 80 140 0 0 0 820 300" fill="none" stroke="#00B4DC" stroke-width="4" marker-end="url(#aB)"/><path d="M 920 170 A 80 140 0 0 1 980 300" fill="none" stroke="#00B4DC" stroke-width="4" marker-end="url(#aB)"/><circle cx="900" cy="300" r="110" fill="none" stroke="#00e676" stroke-width="3"/><text x="900" y="300" fill="#00e676" font-family="Arial" font-size="16" font-weight="bold" text-anchor="middle">ARREDONDAMENTO</text><text x="900" y="480" fill="#ffffff" font-family="Arial" font-size="14" text-anchor="middle">A elipse é forçada a virar um círculo perfeito.</text></svg>