<svg viewBox="0 0 1200 600" xmlns="http://www.w3.org/2000/svg"><rect width="1200" height="600" fill="#0A0E17"/><text x="600" y="50" fill="#ffffff" font-family="Arial" font-size="28" font-weight="bold" text-anchor="middle">Figura 16.3: O Que o Ceratocone Faz com a Malha Estromal</text><rect x="50" y="100" width="500" height="400" rx="20" fill="#111B24"/><text x="300" y="140" fill="#00e676" font-family="Arial" font-size="22" font-weight="bold" text-anchor="middle">CÓRNEA NORMAL</text><path d="M 100 240 Q 300 180 500 240 L 500 260 Q 300 200 100 260 Z" fill="#b388ff"/><text x="130" y="235" fill="#b388ff" font-family="Arial" font-size="14" font-weight="bold">Epitélio Uniforme</text><path d="M 100 260 Q 300 200 500 260" fill="none" stroke="#cfd8dc" stroke-width="4"/><path d="M 130 326 Q 150 266 170 326" fill="none" stroke="#00e676" stroke-width="3"/><path d="M 180 313 Q 200 253 220 313" fill="none" stroke="#00e676" stroke-width="3"/><path d="M 230 300 Q 250 240 270 300" fill="none" stroke="#00e676" stroke-width="3"/><path d="M 280 287 Q 300 227 320 287" fill="none" stroke="#00e676" stroke-width="3"/><path d="M 330 300 Q 350 240 370 300" fill="none" stroke="#00e676" stroke-width="3"/><path d="M 380 313 Q 400 253 420 313" fill="none" stroke="#00e676" stroke-width="3"/><path d="M 430 326 Q 450 266 470 326" fill="none" stroke="#00e676" stroke-width="3"/><path d="M 100 370 Q 300 310 500 370" fill="none" stroke="#263238" stroke-width="2"/><path d="M 100 400 Q 300 340 500 400" fill="none" stroke="#263238" stroke-width="2"/><text x="300" y="470" fill="#cfd8dc" font-family="Arial" font-size="16" text-anchor="middle">Fibras em mola suportam a superfície (Ancoragem)</text><rect x="650" y="100" width="500" height="400" rx="20" fill="#1a1114"/><text x="900" y="140" fill="#ff1744" font-family="Arial" font-size="22" font-weight="bold" text-anchor="middle">CERATOCONE (Com Ectasia)</text><path d="M 700 240 Q 900 120 1100 240 L 1100 270 Q 900 150 700 270 Z" fill="#b388ff"/><path d="M 700 240 Q 900 120 1100 240 L 1100 240 Q 900 145 700 240 Z" fill="#1a1114"/><text x="1050" y="225" fill="#b388ff" font-family="Arial" font-size="14" font-weight="bold">Epitélio Donut</text><path d="M 700 270 Q 900 150 1100 270" fill="none" stroke="#cfd8dc" stroke-width="4"/><path d="M 730 307 Q 750 247 770 307" fill="none" stroke="#00e676" stroke-width="3"/><path d="M 780 293 Q 800 233 820 293" fill="none" stroke="#00e676" stroke-width="3"/><path d="M 830 279 Q 850 219 870 279" fill="none" stroke="#00e676" stroke-width="3"/><path d="M 880 265 Q 900 225 905 215" fill="none" stroke="#ff1744" stroke-width="2" stroke-dasharray="4,2"/><circle cx="905" cy="215" r="4" fill="#ff1744"/><path d="M 930 279 Q 950 239 955 229" fill="none" stroke="#ff1744" stroke-width="2" stroke-dasharray="4,2"/><circle cx="955" cy="229" r="4" fill="#ff1744"/><path d="M 980 293 Q 1000 233 1020 293" fill="none" stroke="#00e676" stroke-width="3"/><path d="M 1030 307 Q 1050 247 1070 307" fill="none" stroke="#00e676" stroke-width="3"/><path d="M 700 370 Q 900 250 1100 370" fill="none" stroke="#263238" stroke-width="2"/><path d="M 700 400 Q 900 280 1100 400" fill="none" stroke="#263238" stroke-width="2"/><text x="900" y="470" fill="#cfd8dc" font-family="Arial" font-size="16" text-anchor="middle">Fibras degradadas (Degeneração) e Epitélio Afinado</text></svg>