<svg viewBox="0 0 1200 800" xmlns="http://www.w3.org/2000/svg"><rect width="1200" height="800" fill="#0A0E17"/><defs>
    
    <!-- Arrow heads -->
    <marker id="arrowB" viewBox="0 0 10 10" refX="5" refY="5" markerWidth="5" markerHeight="5" orient="auto-start-reverse"><path d="M 0 0 L 10 5 L 0 10 z" fill="#0288d1"/></marker>
    <marker id="arrowR" viewBox="0 0 10 10" refX="5" refY="5" markerWidth="5" markerHeight="5" orient="auto-start-reverse"><path d="M 0 0 L 10 5 L 0 10 z" fill="#ff1744"/></marker>
</defs><text x="600" y="50" fill="#ffffff" font-family="Arial" font-size="28" font-weight="bold" text-anchor="middle">Figura 16.1: Anatomia da Fibra em Mola ("Bow Spring")</text><text x="600" y="80" fill="#cfd8dc" font-family="Arial" font-size="16" text-anchor="middle">Descoberta por Winkler (2011) | Mapeamento Estrutural 3D de Alta Resolução</text><rect x="150" y="200" width="900" height="40" fill="#b388ff" opacity="0.3"/><rect x="150" y="240" width="900" height="15" fill="#cfd8dc" opacity="0.5"/><rect x="150" y="255" width="900" height="165" fill="#00e676" opacity="0.1"/><rect x="150" y="420" width="900" height="260" fill="#0288d1" opacity="0.1"/><line x1="120" y1="200" x2="140" y2="200" stroke="#ffffff" stroke-width="2"/><text x="110" y="205" fill="#ffffff" font-family="Arial" font-size="14" text-anchor="end">0 µm</text><line x1="120" y1="240" x2="140" y2="240" stroke="#ffffff" stroke-width="2"/><text x="110" y="245" fill="#ffffff" font-family="Arial" font-size="14" text-anchor="end">50 µm</text><line x1="120" y1="420" x2="140" y2="420" stroke="#ffffff" stroke-width="2"/><text x="110" y="425" fill="#ffffff" font-family="Arial" font-size="14" text-anchor="end">~165 µm (33%)</text><line x1="120" y1="580" x2="140" y2="580" stroke="#cfd8dc" stroke-width="2"/><text x="110" y="585" fill="#00e5ff" font-family="Arial" font-size="14" text-anchor="end">~400 µm (75%)</text><text x="160" y="225" fill="#b388ff" font-family="Arial" font-size="16" font-weight="bold">EPITÉLIO (Tensão de Cisalhamento Célular)</text><text x="160" y="252" fill="#ffffff" font-family="Arial" font-size="12" font-weight="bold">CAMADA DE BOWMAN (Zona de Fusão Estromal)</text><line x1="200" y1="260" x2="220" y2="275" stroke="#00e676" stroke-width="1" opacity="0.4"/><line x1="220" y1="260" x2="200" y2="275" stroke="#00e676" stroke-width="1" opacity="0.4"/><line x1="200" y1="280" x2="220" y2="295" stroke="#00e676" stroke-width="1" opacity="0.4"/><line x1="220" y1="280" x2="200" y2="295" stroke="#00e676" stroke-width="1" opacity="0.4"/><line x1="200" y1="320" x2="220" y2="335" stroke="#00e676" stroke-width="1" opacity="0.4"/><line x1="220" y1="320" x2="200" y2="335" stroke="#00e676" stroke-width="1" opacity="0.4"/><line x1="200" y1="340" x2="220" y2="355" stroke="#00e676" stroke-width="1" opacity="0.4"/><line x1="220" y1="340" x2="200" y2="355" stroke="#00e676" stroke-width="1" opacity="0.4"/><line x1="200" y1="360" x2="220" y2="375" stroke="#00e676" stroke-width="1" opacity="0.4"/><line x1="220" y1="360" x2="200" y2="375" stroke="#00e676" stroke-width="1" opacity="0.4"/><line x1="200" y1="380" x2="220" y2="395" stroke="#00e676" stroke-width="1" opacity="0.4"/><line x1="220" y1="380" x2="200" y2="395" stroke="#00e676" stroke-width="1" opacity="0.4"/><line x1="230" y1="260" x2="250" y2="275" stroke="#00e676" stroke-width="1" opacity="0.4"/><line x1="250" y1="260" x2="230" y2="275" stroke="#00e676" stroke-width="1" opacity="0.4"/><line x1="230" y1="320" x2="250" y2="335" stroke="#00e676" stroke-width="1" opacity="0.4"/><line x1="250" y1="320" x2="230" y2="335" stroke="#00e676" stroke-width="1" opacity="0.4"/><line x1="230" y1="360" x2="250" y2="375" stroke="#00e676" stroke-width="1" opacity="0.4"/><line x1="250" y1="360" x2="230" y2="375" stroke="#00e676" stroke-width="1" opacity="0.4"/><line x1="260" y1="260" x2="280" y2="275" stroke="#00e676" stroke-width="1" opacity="0.4"/><line x1="280" y1="260" x2="260" y2="275" stroke="#00e676" stroke-width="1" opacity="0.4"/><line x1="260" y1="280" x2="280" y2="295" stroke="#00e676" stroke-width="1" opacity="0.4"/><line x1="280" y1="280" x2="260" y2="295" stroke="#00e676" stroke-width="1" opacity="0.4"/><line x1="260" y1="300" x2="280" y2="315" stroke="#00e676" stroke-width="1" opacity="0.4"/><line x1="280" y1="300" x2="260" y2="315" stroke="#00e676" stroke-width="1" opacity="0.4"/><line x1="260" y1="320" x2="280" y2="335" stroke="#00e676" stroke-width="1" opacity="0.4"/><line x1="280" y1="320" x2="260" y2="335" stroke="#00e676" stroke-width="1" opacity="0.4"/><line x1="260" y1="360" x2="280" y2="375" stroke="#00e676" stroke-width="1" opacity="0.4"/><line x1="280" y1="360" x2="260" y2="375" stroke="#00e676" stroke-width="1" opacity="0.4"/><line x1="290" y1="260" x2="310" y2="275" stroke="#00e676" stroke-width="1" opacity="0.4"/><line x1="310" y1="260" x2="290" y2="275" stroke="#00e676" stroke-width="1" opacity="0.4"/><line x1="290" y1="280" x2="310" y2="295" stroke="#00e676" stroke-width="1" opacity="0.4"/><line x1="310" y1="280" x2="290" y2="295" stroke="#00e676" stroke-width="1" opacity="0.4"/><line x1="290" y1="300" x2="310" y2="315" stroke="#00e676" stroke-width="1" opacity="0.4"/><line x1="310" y1="300" x2="290" y2="315" stroke="#00e676" stroke-width="1" opacity="0.4"/><line x1="290" y1="320" x2="310" y2="335" stroke="#00e676" stroke-width="1" opacity="0.4"/><line x1="310" y1="320" x2="290" y2="335" stroke="#00e676" stroke-width="1" opacity="0.4"/><line x1="290" y1="340" x2="310" y2="355" stroke="#00e676" stroke-width="1" opacity="0.4"/><line x1="310" y1="340" x2="290" y2="355" stroke="#00e676" stroke-width="1" opacity="0.4"/><line x1="290" y1="380" x2="310" y2="395" stroke="#00e676" stroke-width="1" opacity="0.4"/><line x1="310" y1="380" x2="290" y2="395" stroke="#00e676" stroke-width="1" opacity="0.4"/><line x1="290" y1="400" x2="310" y2="415" stroke="#00e676" stroke-width="1" opacity="0.4"/><line x1="310" y1="400" x2="290" y2="415" stroke="#00e676" stroke-width="1" opacity="0.4"/><line x1="320" y1="280" x2="340" y2="295" stroke="#00e676" stroke-width="1" opacity="0.4"/><line x1="340" y1="280" x2="320" y2="295" stroke="#00e676" stroke-width="1" opacity="0.4"/><line x1="320" y1="300" x2="340" y2="315" stroke="#00e676" stroke-width="1" opacity="0.4"/><line x1="340" y1="300" x2="320" y2="315" stroke="#00e676" stroke-width="1" opacity="0.4"/><line x1="320" y1="320" x2="340" y2="335" stroke="#00e676" stroke-width="1" opacity="0.4"/><line x1="340" y1="320" x2="320" y2="335" stroke="#00e676" stroke-width="1" opacity="0.4"/><line x1="320" y1="340" x2="340" y2="355" stroke="#00e676" stroke-width="1" opacity="0.4"/><line x1="340" y1="340" x2="320" y2="355" stroke="#00e676" stroke-width="1" opacity="0.4"/><line x1="320" y1="360" x2="340" y2="375" stroke="#00e676" stroke-width="1" opacity="0.4"/><line x1="340" y1="360" x2="320" y2="375" stroke="#00e676" stroke-width="1" opacity="0.4"/><line x1="320" y1="380" x2="340" y2="395" stroke="#00e676" stroke-width="1" opacity="0.4"/><line x1="340" y1="380" x2="320" y2="395" stroke="#00e676" stroke-width="1" opacity="0.4"/><line x1="350" y1="260" x2="370" y2="275" stroke="#00e676" stroke-width="1" opacity="0.4"/><line x1="370" y1="260" x2="350" y2="275" stroke="#00e676" stroke-width="1" opacity="0.4"/><line x1="350" y1="280" x2="370" y2="295" stroke="#00e676" stroke-width="1" opacity="0.4"/><line x1="370" y1="280" x2="350" y2="295" stroke="#00e676" stroke-width="1" opacity="0.4"/><line x1="350" y1="300" x2="370" y2="315" stroke="#00e676" stroke-width="1" opacity="0.4"/><line x1="370" y1="300" x2="350" y2="315" stroke="#00e676" stroke-width="1" opacity="0.4"/><line x1="350" y1="340" x2="370" y2="355" stroke="#00e676" stroke-width="1" opacity="0.4"/><line x1="370" y1="340" x2="350" y2="355" stroke="#00e676" stroke-width="1" opacity="0.4"/><line x1="350" y1="380" x2="370" y2="395" stroke="#00e676" stroke-width="1" opacity="0.4"/><line x1="370" y1="380" x2="350" y2="395" stroke="#00e676" stroke-width="1" opacity="0.4"/><line x1="350" y1="400" x2="370" y2="415" stroke="#00e676" stroke-width="1" opacity="0.4"/><line x1="370" y1="400" x2="350" y2="415" stroke="#00e676" stroke-width="1" opacity="0.4"/><line x1="380" y1="280" x2="400" y2="295" stroke="#00e676" stroke-width="1" opacity="0.4"/><line x1="400" y1="280" x2="380" y2="295" stroke="#00e676" stroke-width="1" opacity="0.4"/><line x1="380" y1="300" x2="400" y2="315" stroke="#00e676" stroke-width="1" opacity="0.4"/><line x1="400" y1="300" x2="380" y2="315" stroke="#00e676" stroke-width="1" opacity="0.4"/><line x1="380" y1="320" x2="400" y2="335" stroke="#00e676" stroke-width="1" opacity="0.4"/><line x1="400" y1="320" x2="380" y2="335" stroke="#00e676" stroke-width="1" opacity="0.4"/><line x1="380" y1="340" x2="400" y2="355" stroke="#00e676" stroke-width="1" opacity="0.4"/><line x1="400" y1="340" x2="380" y2="355" stroke="#00e676" stroke-width="1" opacity="0.4"/><line x1="380" y1="360" x2="400" y2="375" stroke="#00e676" stroke-width="1" opacity="0.4"/><line x1="400" y1="360" x2="380" y2="375" stroke="#00e676" stroke-width="1" opacity="0.4"/><line x1="380" y1="400" x2="400" y2="415" stroke="#00e676" stroke-width="1" opacity="0.4"/><line x1="400" y1="400" x2="380" y2="415" stroke="#00e676" stroke-width="1" opacity="0.4"/><line x1="410" y1="260" x2="430" y2="275" stroke="#00e676" stroke-width="1" opacity="0.4"/><line x1="430" y1="260" x2="410" y2="275" stroke="#00e676" stroke-width="1" opacity="0.4"/><line x1="410" y1="280" x2="430" y2="295" stroke="#00e676" stroke-width="1" opacity="0.4"/><line x1="430" y1="280" x2="410" y2="295" stroke="#00e676" stroke-width="1" opacity="0.4"/><line x1="410" y1="300" x2="430" y2="315" stroke="#00e676" stroke-width="1" opacity="0.4"/><line x1="430" y1="300" x2="410" y2="315" stroke="#00e676" stroke-width="1" opacity="0.4"/><line x1="410" y1="340" x2="430" y2="355" stroke="#00e676" stroke-width="1" opacity="0.4"/><line x1="430" y1="340" x2="410" y2="355" stroke="#00e676" stroke-width="1" opacity="0.4"/><line x1="410" y1="380" x2="430" y2="395" stroke="#00e676" stroke-width="1" opacity="0.4"/><line x1="430" y1="380" x2="410" y2="395" stroke="#00e676" stroke-width="1" opacity="0.4"/><line x1="410" y1="400" x2="430" y2="415" stroke="#00e676" stroke-width="1" opacity="0.4"/><line x1="430" y1="400" x2="410" y2="415" stroke="#00e676" stroke-width="1" opacity="0.4"/><line x1="440" y1="280" x2="460" y2="295" stroke="#00e676" stroke-width="1" opacity="0.4"/><line x1="460" y1="280" x2="440" y2="295" stroke="#00e676" stroke-width="1" opacity="0.4"/><line x1="440" y1="300" x2="460" y2="315" stroke="#00e676" stroke-width="1" opacity="0.4"/><line x1="460" y1="300" x2="440" y2="315" stroke="#00e676" stroke-width="1" opacity="0.4"/><line x1="440" y1="320" x2="460" y2="335" stroke="#00e676" stroke-width="1" opacity="0.4"/><line x1="460" y1="320" x2="440" y2="335" stroke="#00e676" stroke-width="1" opacity="0.4"/><line x1="440" y1="340" x2="460" y2="355" stroke="#00e676" stroke-width="1" opacity="0.4"/><line x1="460" y1="340" x2="440" y2="355" stroke="#00e676" stroke-width="1" opacity="0.4"/><line x1="440" y1="400" x2="460" y2="415" stroke="#00e676" stroke-width="1" opacity="0.4"/><line x1="460" y1="400" x2="440" y2="415" stroke="#00e676" stroke-width="1" opacity="0.4"/><line x1="470" y1="280" x2="490" y2="295" stroke="#00e676" stroke-width="1" opacity="0.4"/><line x1="490" y1="280" x2="470" y2="295" stroke="#00e676" stroke-width="1" opacity="0.4"/><line x1="470" y1="320" x2="490" y2="335" stroke="#00e676" stroke-width="1" opacity="0.4"/><line x1="490" y1="320" x2="470" y2="335" stroke="#00e676" stroke-width="1" opacity="0.4"/><line x1="470" y1="340" x2="490" y2="355" stroke="#00e676" stroke-width="1" opacity="0.4"/><line x1="490" y1="340" x2="470" y2="355" stroke="#00e676" stroke-width="1" opacity="0.4"/><line x1="470" y1="380" x2="490" y2="395" stroke="#00e676" stroke-width="1" opacity="0.4"/><line x1="490" y1="380" x2="470" y2="395" stroke="#00e676" stroke-width="1" opacity="0.4"/><line x1="500" y1="260" x2="520" y2="275" stroke="#00e676" stroke-width="1" opacity="0.4"/><line x1="520" y1="260" x2="500" y2="275" stroke="#00e676" stroke-width="1" opacity="0.4"/><line x1="500" y1="280" x2="520" y2="295" stroke="#00e676" stroke-width="1" opacity="0.4"/><line x1="520" y1="280" x2="500" y2="295" stroke="#00e676" stroke-width="1" opacity="0.4"/><line x1="500" y1="300" x2="520" y2="315" stroke="#00e676" stroke-width="1" opacity="0.4"/><line x1="520" y1="300" x2="500" y2="315" stroke="#00e676" stroke-width="1" opacity="0.4"/><line x1="500" y1="320" x2="520" y2="335" stroke="#00e676" stroke-width="1" opacity="0.4"/><line x1="520" y1="320" x2="500" y2="335" stroke="#00e676" stroke-width="1" opacity="0.4"/><line x1="500" y1="340" x2="520" y2="355" stroke="#00e676" stroke-width="1" opacity="0.4"/><line x1="520" y1="340" x2="500" y2="355" stroke="#00e676" stroke-width="1" opacity="0.4"/><line x1="500" y1="380" x2="520" y2="395" stroke="#00e676" stroke-width="1" opacity="0.4"/><line x1="520" y1="380" x2="500" y2="395" stroke="#00e676" stroke-width="1" opacity="0.4"/><line x1="500" y1="400" x2="520" y2="415" stroke="#00e676" stroke-width="1" opacity="0.4"/><line x1="520" y1="400" x2="500" y2="415" stroke="#00e676" stroke-width="1" opacity="0.4"/><line x1="530" y1="260" x2="550" y2="275" stroke="#00e676" stroke-width="1" opacity="0.4"/><line x1="550" y1="260" x2="530" y2="275" stroke="#00e676" stroke-width="1" opacity="0.4"/><line x1="530" y1="280" x2="550" y2="295" stroke="#00e676" stroke-width="1" opacity="0.4"/><line x1="550" y1="280" x2="530" y2="295" stroke="#00e676" stroke-width="1" opacity="0.4"/><line x1="530" y1="340" x2="550" y2="355" stroke="#00e676" stroke-width="1" opacity="0.4"/><line x1="550" y1="340" x2="530" y2="355" stroke="#00e676" stroke-width="1" opacity="0.4"/><line x1="530" y1="360" x2="550" y2="375" stroke="#00e676" stroke-width="1" opacity="0.4"/><line x1="550" y1="360" x2="530" y2="375" stroke="#00e676" stroke-width="1" opacity="0.4"/><line x1="530" y1="380" x2="550" y2="395" stroke="#00e676" stroke-width="1" opacity="0.4"/><line x1="550" y1="380" x2="530" y2="395" stroke="#00e676" stroke-width="1" opacity="0.4"/><line x1="530" y1="400" x2="550" y2="415" stroke="#00e676" stroke-width="1" opacity="0.4"/><line x1="550" y1="400" x2="530" y2="415" stroke="#00e676" stroke-width="1" opacity="0.4"/><line x1="560" y1="260" x2="580" y2="275" stroke="#00e676" stroke-width="1" opacity="0.4"/><line x1="580" y1="260" x2="560" y2="275" stroke="#00e676" stroke-width="1" opacity="0.4"/><line x1="560" y1="280" x2="580" y2="295" stroke="#00e676" stroke-width="1" opacity="0.4"/><line x1="580" y1="280" x2="560" y2="295" stroke="#00e676" stroke-width="1" opacity="0.4"/><line x1="560" y1="300" x2="580" y2="315" stroke="#00e676" stroke-width="1" opacity="0.4"/><line x1="580" y1="300" x2="560" y2="315" stroke="#00e676" stroke-width="1" opacity="0.4"/><line x1="560" y1="320" x2="580" y2="335" stroke="#00e676" stroke-width="1" opacity="0.4"/><line x1="580" y1="320" x2="560" y2="335" stroke="#00e676" stroke-width="1" opacity="0.4"/><line x1="560" y1="360" x2="580" y2="375" stroke="#00e676" stroke-width="1" opacity="0.4"/><line x1="580" y1="360" x2="560" y2="375" stroke="#00e676" stroke-width="1" opacity="0.4"/><line x1="560" y1="400" x2="580" y2="415" stroke="#00e676" stroke-width="1" opacity="0.4"/><line x1="580" y1="400" x2="560" y2="415" stroke="#00e676" stroke-width="1" opacity="0.4"/><line x1="590" y1="280" x2="610" y2="295" stroke="#00e676" stroke-width="1" opacity="0.4"/><line x1="610" y1="280" x2="590" y2="295" stroke="#00e676" stroke-width="1" opacity="0.4"/><line x1="590" y1="300" x2="610" y2="315" stroke="#00e676" stroke-width="1" opacity="0.4"/><line x1="610" y1="300" x2="590" y2="315" stroke="#00e676" stroke-width="1" opacity="0.4"/><line x1="590" y1="320" x2="610" y2="335" stroke="#00e676" stroke-width="1" opacity="0.4"/><line x1="610" y1="320" x2="590" y2="335" stroke="#00e676" stroke-width="1" opacity="0.4"/><line x1="590" y1="360" x2="610" y2="375" stroke="#00e676" stroke-width="1" opacity="0.4"/><line x1="610" y1="360" x2="590" y2="375" stroke="#00e676" stroke-width="1" opacity="0.4"/><line x1="590" y1="380" x2="610" y2="395" stroke="#00e676" stroke-width="1" opacity="0.4"/><line x1="610" y1="380" x2="590" y2="395" stroke="#00e676" stroke-width="1" opacity="0.4"/><line x1="590" y1="400" x2="610" y2="415" stroke="#00e676" stroke-width="1" opacity="0.4"/><line x1="610" y1="400" x2="590" y2="415" stroke="#00e676" stroke-width="1" opacity="0.4"/><line x1="620" y1="260" x2="640" y2="275" stroke="#00e676" stroke-width="1" opacity="0.4"/><line x1="640" y1="260" x2="620" y2="275" stroke="#00e676" stroke-width="1" opacity="0.4"/><line x1="620" y1="300" x2="640" y2="315" stroke="#00e676" stroke-width="1" opacity="0.4"/><line x1="640" y1="300" x2="620" y2="315" stroke="#00e676" stroke-width="1" opacity="0.4"/><line x1="620" y1="320" x2="640" y2="335" stroke="#00e676" stroke-width="1" opacity="0.4"/><line x1="640" y1="320" x2="620" y2="335" stroke="#00e676" stroke-width="1" opacity="0.4"/><line x1="620" y1="340" x2="640" y2="355" stroke="#00e676" stroke-width="1" opacity="0.4"/><line x1="640" y1="340" x2="620" y2="355" stroke="#00e676" stroke-width="1" opacity="0.4"/><line x1="620" y1="360" x2="640" y2="375" stroke="#00e676" stroke-width="1" opacity="0.4"/><line x1="640" y1="360" x2="620" y2="375" stroke="#00e676" stroke-width="1" opacity="0.4"/><line x1="620" y1="400" x2="640" y2="415" stroke="#00e676" stroke-width="1" opacity="0.4"/><line x1="640" y1="400" x2="620" y2="415" stroke="#00e676" stroke-width="1" opacity="0.4"/><line x1="650" y1="260" x2="670" y2="275" stroke="#00e676" stroke-width="1" opacity="0.4"/><line x1="670" y1="260" x2="650" y2="275" stroke="#00e676" stroke-width="1" opacity="0.4"/><line x1="650" y1="280" x2="670" y2="295" stroke="#00e676" stroke-width="1" opacity="0.4"/><line x1="670" y1="280" x2="650" y2="295" stroke="#00e676" stroke-width="1" opacity="0.4"/><line x1="650" y1="300" x2="670" y2="315" stroke="#00e676" stroke-width="1" opacity="0.4"/><line x1="670" y1="300" x2="650" y2="315" stroke="#00e676" stroke-width="1" opacity="0.4"/><line x1="650" y1="320" x2="670" y2="335" stroke="#00e676" stroke-width="1" opacity="0.4"/><line x1="670" y1="320" x2="650" y2="335" stroke="#00e676" stroke-width="1" opacity="0.4"/><line x1="650" y1="340" x2="670" y2="355" stroke="#00e676" stroke-width="1" opacity="0.4"/><line x1="670" y1="340" x2="650" y2="355" stroke="#00e676" stroke-width="1" opacity="0.4"/><line x1="650" y1="400" x2="670" y2="415" stroke="#00e676" stroke-width="1" opacity="0.4"/><line x1="670" y1="400" x2="650" y2="415" stroke="#00e676" stroke-width="1" opacity="0.4"/><line x1="680" y1="320" x2="700" y2="335" stroke="#00e676" stroke-width="1" opacity="0.4"/><line x1="700" y1="320" x2="680" y2="335" stroke="#00e676" stroke-width="1" opacity="0.4"/><line x1="680" y1="380" x2="700" y2="395" stroke="#00e676" stroke-width="1" opacity="0.4"/><line x1="700" y1="380" x2="680" y2="395" stroke="#00e676" stroke-width="1" opacity="0.4"/><line x1="680" y1="400" x2="700" y2="415" stroke="#00e676" stroke-width="1" opacity="0.4"/><line x1="700" y1="400" x2="680" y2="415" stroke="#00e676" stroke-width="1" opacity="0.4"/><line x1="710" y1="260" x2="730" y2="275" stroke="#00e676" stroke-width="1" opacity="0.4"/><line x1="730" y1="260" x2="710" y2="275" stroke="#00e676" stroke-width="1" opacity="0.4"/><line x1="710" y1="340" x2="730" y2="355" stroke="#00e676" stroke-width="1" opacity="0.4"/><line x1="730" y1="340" x2="710" y2="355" stroke="#00e676" stroke-width="1" opacity="0.4"/><line x1="710" y1="360" x2="730" y2="375" stroke="#00e676" stroke-width="1" opacity="0.4"/><line x1="730" y1="360" x2="710" y2="375" stroke="#00e676" stroke-width="1" opacity="0.4"/><line x1="710" y1="380" x2="730" y2="395" stroke="#00e676" stroke-width="1" opacity="0.4"/><line x1="730" y1="380" x2="710" y2="395" stroke="#00e676" stroke-width="1" opacity="0.4"/><line x1="710" y1="400" x2="730" y2="415" stroke="#00e676" stroke-width="1" opacity="0.4"/><line x1="730" y1="400" x2="710" y2="415" stroke="#00e676" stroke-width="1" opacity="0.4"/><line x1="740" y1="260" x2="760" y2="275" stroke="#00e676" stroke-width="1" opacity="0.4"/><line x1="760" y1="260" x2="740" y2="275" stroke="#00e676" stroke-width="1" opacity="0.4"/><line x1="740" y1="280" x2="760" y2="295" stroke="#00e676" stroke-width="1" opacity="0.4"/><line x1="760" y1="280" x2="740" y2="295" stroke="#00e676" stroke-width="1" opacity="0.4"/><line x1="740" y1="300" x2="760" y2="315" stroke="#00e676" stroke-width="1" opacity="0.4"/><line x1="760" y1="300" x2="740" y2="315" stroke="#00e676" stroke-width="1" opacity="0.4"/><line x1="740" y1="320" x2="760" y2="335" stroke="#00e676" stroke-width="1" opacity="0.4"/><line x1="760" y1="320" x2="740" y2="335" stroke="#00e676" stroke-width="1" opacity="0.4"/><line x1="740" y1="340" x2="760" y2="355" stroke="#00e676" stroke-width="1" opacity="0.4"/><line x1="760" y1="340" x2="740" y2="355" stroke="#00e676" stroke-width="1" opacity="0.4"/><line x1="740" y1="360" x2="760" y2="375" stroke="#00e676" stroke-width="1" opacity="0.4"/><line x1="760" y1="360" x2="740" y2="375" stroke="#00e676" stroke-width="1" opacity="0.4"/><line x1="740" y1="400" x2="760" y2="415" stroke="#00e676" stroke-width="1" opacity="0.4"/><line x1="760" y1="400" x2="740" y2="415" stroke="#00e676" stroke-width="1" opacity="0.4"/><line x1="770" y1="280" x2="790" y2="295" stroke="#00e676" stroke-width="1" opacity="0.4"/><line x1="790" y1="280" x2="770" y2="295" stroke="#00e676" stroke-width="1" opacity="0.4"/><line x1="770" y1="300" x2="790" y2="315" stroke="#00e676" stroke-width="1" opacity="0.4"/><line x1="790" y1="300" x2="770" y2="315" stroke="#00e676" stroke-width="1" opacity="0.4"/><line x1="770" y1="320" x2="790" y2="335" stroke="#00e676" stroke-width="1" opacity="0.4"/><line x1="790" y1="320" x2="770" y2="335" stroke="#00e676" stroke-width="1" opacity="0.4"/><line x1="770" y1="340" x2="790" y2="355" stroke="#00e676" stroke-width="1" opacity="0.4"/><line x1="790" y1="340" x2="770" y2="355" stroke="#00e676" stroke-width="1" opacity="0.4"/><line x1="770" y1="380" x2="790" y2="395" stroke="#00e676" stroke-width="1" opacity="0.4"/><line x1="790" y1="380" x2="770" y2="395" stroke="#00e676" stroke-width="1" opacity="0.4"/><line x1="800" y1="260" x2="820" y2="275" stroke="#00e676" stroke-width="1" opacity="0.4"/><line x1="820" y1="260" x2="800" y2="275" stroke="#00e676" stroke-width="1" opacity="0.4"/><line x1="800" y1="300" x2="820" y2="315" stroke="#00e676" stroke-width="1" opacity="0.4"/><line x1="820" y1="300" x2="800" y2="315" stroke="#00e676" stroke-width="1" opacity="0.4"/><line x1="800" y1="320" x2="820" y2="335" stroke="#00e676" stroke-width="1" opacity="0.4"/><line x1="820" y1="320" x2="800" y2="335" stroke="#00e676" stroke-width="1" opacity="0.4"/><line x1="800" y1="340" x2="820" y2="355" stroke="#00e676" stroke-width="1" opacity="0.4"/><line x1="820" y1="340" x2="800" y2="355" stroke="#00e676" stroke-width="1" opacity="0.4"/><line x1="800" y1="360" x2="820" y2="375" stroke="#00e676" stroke-width="1" opacity="0.4"/><line x1="820" y1="360" x2="800" y2="375" stroke="#00e676" stroke-width="1" opacity="0.4"/><line x1="800" y1="380" x2="820" y2="395" stroke="#00e676" stroke-width="1" opacity="0.4"/><line x1="820" y1="380" x2="800" y2="395" stroke="#00e676" stroke-width="1" opacity="0.4"/><line x1="800" y1="400" x2="820" y2="415" stroke="#00e676" stroke-width="1" opacity="0.4"/><line x1="820" y1="400" x2="800" y2="415" stroke="#00e676" stroke-width="1" opacity="0.4"/><line x1="830" y1="260" x2="850" y2="275" stroke="#00e676" stroke-width="1" opacity="0.4"/><line x1="850" y1="260" x2="830" y2="275" stroke="#00e676" stroke-width="1" opacity="0.4"/><line x1="830" y1="280" x2="850" y2="295" stroke="#00e676" stroke-width="1" opacity="0.4"/><line x1="850" y1="280" x2="830" y2="295" stroke="#00e676" stroke-width="1" opacity="0.4"/><line x1="830" y1="300" x2="850" y2="315" stroke="#00e676" stroke-width="1" opacity="0.4"/><line x1="850" y1="300" x2="830" y2="315" stroke="#00e676" stroke-width="1" opacity="0.4"/><line x1="830" y1="320" x2="850" y2="335" stroke="#00e676" stroke-width="1" opacity="0.4"/><line x1="850" y1="320" x2="830" y2="335" stroke="#00e676" stroke-width="1" opacity="0.4"/><line x1="830" y1="360" x2="850" y2="375" stroke="#00e676" stroke-width="1" opacity="0.4"/><line x1="850" y1="360" x2="830" y2="375" stroke="#00e676" stroke-width="1" opacity="0.4"/><line x1="830" y1="380" x2="850" y2="395" stroke="#00e676" stroke-width="1" opacity="0.4"/><line x1="850" y1="380" x2="830" y2="395" stroke="#00e676" stroke-width="1" opacity="0.4"/><line x1="830" y1="400" x2="850" y2="415" stroke="#00e676" stroke-width="1" opacity="0.4"/><line x1="850" y1="400" x2="830" y2="415" stroke="#00e676" stroke-width="1" opacity="0.4"/><line x1="860" y1="260" x2="880" y2="275" stroke="#00e676" stroke-width="1" opacity="0.4"/><line x1="880" y1="260" x2="860" y2="275" stroke="#00e676" stroke-width="1" opacity="0.4"/><line x1="860" y1="280" x2="880" y2="295" stroke="#00e676" stroke-width="1" opacity="0.4"/><line x1="880" y1="280" x2="860" y2="295" stroke="#00e676" stroke-width="1" opacity="0.4"/><line x1="860" y1="300" x2="880" y2="315" stroke="#00e676" stroke-width="1" opacity="0.4"/><line x1="880" y1="300" x2="860" y2="315" stroke="#00e676" stroke-width="1" opacity="0.4"/><line x1="860" y1="320" x2="880" y2="335" stroke="#00e676" stroke-width="1" opacity="0.4"/><line x1="880" y1="320" x2="860" y2="335" stroke="#00e676" stroke-width="1" opacity="0.4"/><line x1="860" y1="340" x2="880" y2="355" stroke="#00e676" stroke-width="1" opacity="0.4"/><line x1="880" y1="340" x2="860" y2="355" stroke="#00e676" stroke-width="1" opacity="0.4"/><line x1="860" y1="380" x2="880" y2="395" stroke="#00e676" stroke-width="1" opacity="0.4"/><line x1="880" y1="380" x2="860" y2="395" stroke="#00e676" stroke-width="1" opacity="0.4"/><line x1="890" y1="280" x2="910" y2="295" stroke="#00e676" stroke-width="1" opacity="0.4"/><line x1="910" y1="280" x2="890" y2="295" stroke="#00e676" stroke-width="1" opacity="0.4"/><line x1="890" y1="300" x2="910" y2="315" stroke="#00e676" stroke-width="1" opacity="0.4"/><line x1="910" y1="300" x2="890" y2="315" stroke="#00e676" stroke-width="1" opacity="0.4"/><line x1="890" y1="320" x2="910" y2="335" stroke="#00e676" stroke-width="1" opacity="0.4"/><line x1="910" y1="320" x2="890" y2="335" stroke="#00e676" stroke-width="1" opacity="0.4"/><line x1="890" y1="340" x2="910" y2="355" stroke="#00e676" stroke-width="1" opacity="0.4"/><line x1="910" y1="340" x2="890" y2="355" stroke="#00e676" stroke-width="1" opacity="0.4"/><line x1="890" y1="380" x2="910" y2="395" stroke="#00e676" stroke-width="1" opacity="0.4"/><line x1="910" y1="380" x2="890" y2="395" stroke="#00e676" stroke-width="1" opacity="0.4"/><line x1="920" y1="260" x2="940" y2="275" stroke="#00e676" stroke-width="1" opacity="0.4"/><line x1="940" y1="260" x2="920" y2="275" stroke="#00e676" stroke-width="1" opacity="0.4"/><line x1="920" y1="280" x2="940" y2="295" stroke="#00e676" stroke-width="1" opacity="0.4"/><line x1="940" y1="280" x2="920" y2="295" stroke="#00e676" stroke-width="1" opacity="0.4"/><line x1="920" y1="300" x2="940" y2="315" stroke="#00e676" stroke-width="1" opacity="0.4"/><line x1="940" y1="300" x2="920" y2="315" stroke="#00e676" stroke-width="1" opacity="0.4"/><line x1="920" y1="320" x2="940" y2="335" stroke="#00e676" stroke-width="1" opacity="0.4"/><line x1="940" y1="320" x2="920" y2="335" stroke="#00e676" stroke-width="1" opacity="0.4"/><line x1="920" y1="340" x2="940" y2="355" stroke="#00e676" stroke-width="1" opacity="0.4"/><line x1="940" y1="340" x2="920" y2="355" stroke="#00e676" stroke-width="1" opacity="0.4"/><line x1="920" y1="360" x2="940" y2="375" stroke="#00e676" stroke-width="1" opacity="0.4"/><line x1="940" y1="360" x2="920" y2="375" stroke="#00e676" stroke-width="1" opacity="0.4"/><line x1="920" y1="400" x2="940" y2="415" stroke="#00e676" stroke-width="1" opacity="0.4"/><line x1="940" y1="400" x2="920" y2="415" stroke="#00e676" stroke-width="1" opacity="0.4"/><line x1="950" y1="260" x2="970" y2="275" stroke="#00e676" stroke-width="1" opacity="0.4"/><line x1="970" y1="260" x2="950" y2="275" stroke="#00e676" stroke-width="1" opacity="0.4"/><line x1="950" y1="280" x2="970" y2="295" stroke="#00e676" stroke-width="1" opacity="0.4"/><line x1="970" y1="280" x2="950" y2="295" stroke="#00e676" stroke-width="1" opacity="0.4"/><line x1="950" y1="300" x2="970" y2="315" stroke="#00e676" stroke-width="1" opacity="0.4"/><line x1="970" y1="300" x2="950" y2="315" stroke="#00e676" stroke-width="1" opacity="0.4"/><line x1="950" y1="320" x2="970" y2="335" stroke="#00e676" stroke-width="1" opacity="0.4"/><line x1="970" y1="320" x2="950" y2="335" stroke="#00e676" stroke-width="1" opacity="0.4"/><line x1="950" y1="340" x2="970" y2="355" stroke="#00e676" stroke-width="1" opacity="0.4"/><line x1="970" y1="340" x2="950" y2="355" stroke="#00e676" stroke-width="1" opacity="0.4"/><line x1="950" y1="380" x2="970" y2="395" stroke="#00e676" stroke-width="1" opacity="0.4"/><line x1="970" y1="380" x2="950" y2="395" stroke="#00e676" stroke-width="1" opacity="0.4"/><line x1="980" y1="300" x2="1000" y2="315" stroke="#00e676" stroke-width="1" opacity="0.4"/><line x1="1000" y1="300" x2="980" y2="315" stroke="#00e676" stroke-width="1" opacity="0.4"/><line x1="980" y1="320" x2="1000" y2="335" stroke="#00e676" stroke-width="1" opacity="0.4"/><line x1="1000" y1="320" x2="980" y2="335" stroke="#00e676" stroke-width="1" opacity="0.4"/><line x1="980" y1="340" x2="1000" y2="355" stroke="#00e676" stroke-width="1" opacity="0.4"/><line x1="1000" y1="340" x2="980" y2="355" stroke="#00e676" stroke-width="1" opacity="0.4"/><line x1="980" y1="360" x2="1000" y2="375" stroke="#00e676" stroke-width="1" opacity="0.4"/><line x1="1000" y1="360" x2="980" y2="375" stroke="#00e676" stroke-width="1" opacity="0.4"/><line x1="980" y1="380" x2="1000" y2="395" stroke="#00e676" stroke-width="1" opacity="0.4"/><line x1="1000" y1="380" x2="980" y2="395" stroke="#00e676" stroke-width="1" opacity="0.4"/><line x1="980" y1="400" x2="1000" y2="415" stroke="#00e676" stroke-width="1" opacity="0.4"/><line x1="1000" y1="400" x2="980" y2="415" stroke="#00e676" stroke-width="1" opacity="0.4"/><line x1="160" y1="450" x2="1040" y2="450" stroke="#0288d1" stroke-width="2" stroke-dasharray="20,5"/><line x1="160" y1="475" x2="1040" y2="475" stroke="#0288d1" stroke-width="2" stroke-dasharray="20,5"/><line x1="160" y1="500" x2="1040" y2="500" stroke="#0288d1" stroke-width="2" stroke-dasharray="20,5"/><line x1="160" y1="525" x2="1040" y2="525" stroke="#0288d1" stroke-width="1" stroke-dasharray="20,5"/><line x1="160" y1="550" x2="1040" y2="550" stroke="#0288d1" stroke-width="1" stroke-dasharray="20,5"/><line x1="160" y1="575" x2="1040" y2="575" stroke="#0288d1" stroke-width="1" stroke-dasharray="20,5"/><line x1="160" y1="600" x2="1040" y2="600" stroke="#0288d1" stroke-width="2" stroke-dasharray="20,5"/><line x1="160" y1="625" x2="1040" y2="625" stroke="#0288d1" stroke-width="2" stroke-dasharray="20,5"/><path d="M 200 410 Q 225 290 250 255" fill="none" stroke="#00e676" stroke-width="5"/><rect x="240" y="240" width="20" height="15" fill="#cfd8dc"/><path d="M 250 255 Q 275 290 300 410" fill="none" stroke="#00e676" stroke-width="5"/><path d="M 350 410 Q 375 290 400 255" fill="none" stroke="#00e676" stroke-width="5"/><rect x="390" y="240" width="20" height="15" fill="#cfd8dc"/><path d="M 400 255 Q 425 290 450 410" fill="none" stroke="#00e676" stroke-width="5"/><path d="M 380 275 A 25 25 0 0 1 400 255" fill="none" stroke="#ffffff" stroke-width="2" stroke-dasharray="3,3"/><text x="365" y="268" fill="#ffffff" font-family="Arial" font-size="12">~ 45°</text><line x1="365" y1="410" x2="365" y2="255" stroke="#ffb74d" stroke-width="2" marker-end="url(#arrowR)" marker-start="url(#arrowR)"/><text x="315" y="370" fill="#ffb74d" font-family="Arial" font-size="12">120 µm prof.</text><path d="M 500 410 Q 525 290 550 255" fill="none" stroke="#00e676" stroke-width="5"/><rect x="540" y="240" width="20" height="15" fill="#cfd8dc"/><path d="M 550 255 Q 575 290 600 410" fill="none" stroke="#00e676" stroke-width="5"/><path d="M 650 410 Q 675 290 700 255" fill="none" stroke="#00e676" stroke-width="5"/><rect x="690" y="240" width="20" height="15" fill="#cfd8dc"/><path d="M 700 255 Q 725 290 750 410" fill="none" stroke="#00e676" stroke-width="5"/><path d="M 800 410 Q 825 290 850 255" fill="none" stroke="#00e676" stroke-width="5"/><rect x="840" y="240" width="20" height="15" fill="#cfd8dc"/><path d="M 850 255 Q 875 290 900 410" fill="none" stroke="#00e676" stroke-width="5"/><path d="M 950 410 Q 975 290 1000 255" fill="none" stroke="#00e676" stroke-width="5"/><rect x="990" y="240" width="20" height="15" fill="#cfd8dc"/><path d="M 1000 255 Q 1025 290 1050 410" fill="none" stroke="#00e676" stroke-width="5"/><polygon points="570,590 630,590 600,530" fill="#ff1744" stroke="#ffffff" stroke-width="2"/><line x1="600" y1="520" x2="600" y2="460" stroke="#ff1744" stroke-width="4" marker-end="url(#arrowR)"/><text x="610" y="485" fill="#ff1744" font-family="Arial" font-size="16" font-weight="bold">ICRS Tenting</text><text x="600" y="610" fill="#cfd8dc" font-family="Arial" font-size="14" font-weight="bold" text-anchor="middle">Assentado em malha paralela</text><rect x="800" y="270" width="250" height="90" rx="10" fill="#112A22" stroke="#00e676" stroke-width="2"/><text x="810" y="290" fill="#00e676" font-family="Arial" font-size="14" font-weight="bold">ESTROMA ANTERIOR (Feltro)</text><text x="810" y="310" fill="#ffffff" font-family="Arial" font-size="12">• Densidade de Ramificação: 4x maior</text><text x="810" y="330" fill="#ffffff" font-family="Arial" font-size="12">• Módulo Elástico: 8x MAIS RÍGIDO</text><text x="810" y="350" fill="#ffffff" font-family="Arial" font-size="12">• Rico em Oblíquas + Bow Springs</text><rect x="200" y="460" width="250" height="90" rx="10" fill="#111B2A" stroke="#0288d1" stroke-width="2"/><text x="210" y="480" fill="#0288d1" font-family="Arial" font-size="14" font-weight="bold">ESTROMA POSTERIOR (Clivagem)</text><text x="210" y="500" fill="#ffffff" font-family="Arial" font-size="12">• Lamelas Radiais/Tangenciais Paralelas</text><text x="210" y="520" fill="#ffffff" font-family="Arial" font-size="12">• Sem fibras em arco (Bow Springs)</text><text x="210" y="540" fill="#ffffff" font-family="Arial" font-size="12">• Complacência Alta (fácil separação)</text></svg>