<svg viewBox="0 0 1400 700" xmlns="http://www.w3.org/2000/svg"><rect width="1400" height="700" fill="#0A0E17"/><text x="700" y="50" fill="#ffffff" font-family="Arial" font-size="28" font-weight="bold" text-anchor="middle">Figura 15.5: Perfil do Anel × Escudo CXL</text><text x="700" y="80" fill="#b0bec5" font-family="Arial" font-size="16" text-anchor="middle">Da maior para a menor penetração mecânica na barreira reticulada covalente</text><rect x="50" y="150" width="1300" height="200" fill="#112A22" opacity="0.6"/><line x1="50" y1="350" x2="1350" y2="350" stroke="#00e676" stroke-width="4" stroke-dasharray="10,5"/><text x="700" y="375" fill="#00e676" font-family="Arial" font-size="18" font-weight="bold" text-anchor="middle">Linha de Demarcação CXL (Trava Covalente - 300 µm)</text><text x="700" y="140" fill="#00e676" font-family="Arial" font-size="18" font-weight="bold" text-anchor="middle">ESPAÇO CXL (RÍGIDO)</text><line x1="150" y1="390" x2="150" y2="200" stroke="#ff1744" stroke-width="8" marker-end="url(#arrowGeneric)"/><polygon points="125,450 175,450 150,390" fill="#ff1744"/><text x="150" y="520" fill="#ffffff" font-family="Arial" font-size="20" font-weight="bold" text-anchor="middle">Triangular</text><text x="150" y="550" fill="#b0bec5" font-family="Arial" font-size="14" text-anchor="middle">Ferrara/Keraring</text><rect x="90" y="570" width="120" height="30" rx="15" fill="#112435" stroke="#ff1744"/><text x="150" y="590" fill="#ff1744" font-family="Arial" font-size="14" font-weight="bold" text-anchor="middle">~75% Eficaz</text><text x="150" y="630" fill="#cfd8dc" font-family="Arial" font-size="14" font-weight="bold" text-anchor="middle">Haze: ALTO</text><line x1="370" y1="403" x2="370" y2="240" stroke="#ffb74d" stroke-width="6" marker-end="url(#arrowGeneric)"/><path d="M 340 420 Q 370 385 400 420 Q 370 455 340 420" fill="#ffb74d"/><text x="370" y="520" fill="#ffffff" font-family="Arial" font-size="20" font-weight="bold" text-anchor="middle">Fusiforme</text><text x="370" y="550" fill="#b0bec5" font-family="Arial" font-size="14" text-anchor="middle">Ferrara HM</text><rect x="310" y="570" width="120" height="30" rx="15" fill="#112435" stroke="#ffb74d"/><text x="370" y="590" fill="#ffb74d" font-family="Arial" font-size="14" font-weight="bold" text-anchor="middle">~60% Eficaz</text><text x="370" y="630" fill="#cfd8dc" font-family="Arial" font-size="14" font-weight="bold" text-anchor="middle">Haze: MODERADO</text><line x1="590" y1="400" x2="590" y2="260" stroke="#ffd54f" stroke-width="5" marker-end="url(#arrowGeneric)"/><polygon points="560,450 620,450 600,400 575,400" fill="#ffd54f"/><text x="590" y="520" fill="#ffffff" font-family="Arial" font-size="20" font-weight="bold" text-anchor="middle">Prismático</text><text x="590" y="550" fill="#b0bec5" font-family="Arial" font-size="14" text-anchor="middle">AJL PRO</text><rect x="530" y="570" width="120" height="30" rx="15" fill="#112435" stroke="#ffd54f"/><text x="590" y="590" fill="#ffd54f" font-family="Arial" font-size="14" font-weight="bold" text-anchor="middle">~55% Eficaz</text><text x="590" y="630" fill="#cfd8dc" font-family="Arial" font-size="14" font-weight="bold" text-anchor="middle">Haze: MODERADO</text><line x1="810" y1="390" x2="810" y2="280" stroke="#4dd0e1" stroke-width="5" opacity="0.8" marker-end="url(#arrowGeneric)"/><polygon points="790,450 830,450 840,420 830,390 790,390 780,420" fill="#4dd0e1"/><text x="810" y="520" fill="#ffffff" font-family="Arial" font-size="20" font-weight="bold" text-anchor="middle">Hexagonal</text><text x="810" y="550" fill="#b0bec5" font-family="Arial" font-size="14" text-anchor="middle">Intacs</text><rect x="750" y="570" width="120" height="30" rx="15" fill="#112435" stroke="#4dd0e1"/><text x="810" y="590" fill="#4dd0e1" font-family="Arial" font-size="14" font-weight="bold" text-anchor="middle">~50% Eficaz</text><text x="810" y="630" fill="#cfd8dc" font-family="Arial" font-size="14" font-weight="bold" text-anchor="middle">Haze: MÉDIO</text><line x1="1030" y1="400" x2="1030" y2="330" stroke="#64b5f6" stroke-width="4" opacity="0.6" marker-end="url(#arrowGeneric)"/><rect x="1005" y="400" width="50" height="40" rx="20" fill="#64b5f6"/><text x="1030" y="520" fill="#ffffff" font-family="Arial" font-size="20" font-weight="bold" text-anchor="middle">Arredondado</text><text x="1030" y="550" fill="#b0bec5" font-family="Arial" font-size="14" text-anchor="middle">CornealRing</text><rect x="970" y="570" width="120" height="30" rx="15" fill="#112435" stroke="#64b5f6"/><text x="1030" y="590" fill="#64b5f6" font-family="Arial" font-size="14" font-weight="bold" text-anchor="middle">~42% Eficaz</text><text x="1030" y="630" fill="#cfd8dc" font-family="Arial" font-size="14" font-weight="bold" text-anchor="middle">Haze: BAIXO</text><line x1="1250" y1="430" x2="1250" y2="490" stroke="#b388ff" stroke-width="8" marker-end="url(#arrowGeneric)"/><rect x="1210" y="410" width="80" height="20" rx="5" fill="#b388ff"/><text x="1250" y="520" fill="#ffffff" font-family="Arial" font-size="20" font-weight="bold" text-anchor="middle">MyoRing</text><text x="1250" y="550" fill="#b0bec5" font-family="Arial" font-size="14" text-anchor="middle">Pocket 360°</text><rect x="1190" y="570" width="120" height="30" rx="15" fill="#112435" stroke="#b388ff"/><text x="1250" y="590" fill="#b388ff" font-family="Arial" font-size="14" font-weight="bold" text-anchor="middle">~37% Eficaz</text><text x="1250" y="630" fill="#cfd8dc" font-family="Arial" font-size="14" font-weight="bold" text-anchor="middle">Haze: MÍNIMO</text></svg>