<svg viewBox="0 0 1200 600" xmlns="http://www.w3.org/2000/svg"><rect width="1200" height="600" fill="#0A0E17"/><text x="600" y="50" fill="#ffffff" font-family="Arial" font-size="26" font-weight="bold" text-anchor="middle">Figura 15.3: O Fulcro Ótimo — A Engenharia da Profundidade</text><text x="200" y="120" fill="#ff1744" font-family="Arial" font-size="22" font-weight="bold" text-anchor="middle">Raso Demais (50%)</text><text x="200" y="150" fill="#b0bec5" font-family="Arial" font-size="16" text-anchor="middle">Risco de Extrusão</text><path d="M 50 230 Q 200 190 350 230" fill="none" stroke="#cfd8dc" stroke-width="6"/><path d="M 50 450 Q 200 470 350 450" fill="none" stroke="#546e7a" stroke-width="4"/><path d="M 60 254.22222222222223 Q 200 214.22222222222223 340 254.22222222222223" fill="none" stroke="#112A22" stroke-width="2"/><path d="M 60 278.44444444444446 Q 200 238.44444444444446 340 278.44444444444446" fill="none" stroke="#112A22" stroke-width="2"/><path d="M 60 302.6666666666667 Q 200 262.6666666666667 340 302.6666666666667" fill="none" stroke="#263238" stroke-width="2"/><path d="M 60 326.8888888888889 Q 200 286.8888888888889 340 326.8888888888889" fill="none" stroke="#263238" stroke-width="2"/><path d="M 60 351.1111111111111 Q 200 311.1111111111111 340 351.1111111111111" fill="none" stroke="#263238" stroke-width="2"/><path d="M 60 375.3333333333333 Q 200 335.3333333333333 340 375.3333333333333" fill="none" stroke="#263238" stroke-width="2"/><path d="M 60 399.55555555555554 Q 200 359.55555555555554 340 399.55555555555554" fill="none" stroke="#263238" stroke-width="2"/><path d="M 60 423.77777777777777 Q 200 383.77777777777777 340 423.77777777777777" fill="none" stroke="#263238" stroke-width="2"/><path d="M 60 448 Q 200 408 340 448" fill="none" stroke="#263238" stroke-width="2"/><polygon points="185,320 215,320 200,290" fill="#ff1744" stroke="#ffffff" stroke-width="2"/><line x1="200" y1="285" x2="200" y2="225" stroke="#ff1744" stroke-width="4" marker-end="url(#arrowGeneric)"/><rect x="20" y="530" width="360" height="50" rx="10" fill="#111B24"/><text x="200" y="560" fill="#cfd8dc" font-family="Arial" font-size="14" text-anchor="middle">Pouco tecido acima. O tenting pode romper a Bowman.</text><line x1="400" y1="100" x2="400" y2="550" stroke="#263238" stroke-width="2" stroke-dasharray="8,4"/><text x="600" y="120" fill="#00e676" font-family="Arial" font-size="22" font-weight="bold" text-anchor="middle">Ponto Ótimo (70-75%)</text><text x="600" y="150" fill="#b0bec5" font-family="Arial" font-size="16" text-anchor="middle">Equilíbrio FEM</text><path d="M 450 230 Q 600 190 750 230" fill="none" stroke="#cfd8dc" stroke-width="6"/><path d="M 450 450 Q 600 470 750 450" fill="none" stroke="#546e7a" stroke-width="4"/><path d="M 460 254.22222222222223 Q 600 214.22222222222223 740 254.22222222222223" fill="none" stroke="#112A22" stroke-width="2"/><path d="M 460 278.44444444444446 Q 600 238.44444444444446 740 278.44444444444446" fill="none" stroke="#112A22" stroke-width="2"/><path d="M 460 302.6666666666667 Q 600 262.6666666666667 740 302.6666666666667" fill="none" stroke="#263238" stroke-width="2"/><path d="M 460 326.8888888888889 Q 600 286.8888888888889 740 326.8888888888889" fill="none" stroke="#263238" stroke-width="2"/><path d="M 460 351.1111111111111 Q 600 311.1111111111111 740 351.1111111111111" fill="none" stroke="#263238" stroke-width="2"/><path d="M 460 375.3333333333333 Q 600 335.3333333333333 740 375.3333333333333" fill="none" stroke="#263238" stroke-width="2"/><path d="M 460 399.55555555555554 Q 600 359.55555555555554 740 399.55555555555554" fill="none" stroke="#263238" stroke-width="2"/><path d="M 460 423.77777777777777 Q 600 383.77777777777777 740 423.77777777777777" fill="none" stroke="#263238" stroke-width="2"/><path d="M 460 448 Q 600 408 740 448" fill="none" stroke="#263238" stroke-width="2"/><polygon points="585,370 615,370 600,340" fill="#00e676" stroke="#ffffff" stroke-width="2"/><line x1="600" y1="335" x2="600" y2="295" stroke="#00e676" stroke-width="4" marker-end="url(#arrowGeneric)"/><rect x="420" y="530" width="360" height="50" rx="10" fill="#111B24"/><text x="600" y="560" fill="#cfd8dc" font-family="Arial" font-size="14" text-anchor="middle">Máximo arc-shortening (encurtamento do arco). Âncora sólida abaixo.</text><line x1="800" y1="100" x2="800" y2="550" stroke="#263238" stroke-width="2" stroke-dasharray="8,4"/><text x="1000" y="120" fill="#ffb74d" font-family="Arial" font-size="22" font-weight="bold" text-anchor="middle">Profundo (85%)</text><text x="1000" y="150" fill="#b0bec5" font-family="Arial" font-size="16" text-anchor="middle">Deflexão Posterior</text><path d="M 850 230 Q 1000 190 1150 230" fill="none" stroke="#cfd8dc" stroke-width="6"/><path d="M 850 450 Q 1000 470 1150 450" fill="none" stroke="#546e7a" stroke-width="4"/><path d="M 860 254.22222222222223 Q 1000 214.22222222222223 1140 254.22222222222223" fill="none" stroke="#112A22" stroke-width="2"/><path d="M 860 278.44444444444446 Q 1000 238.44444444444446 1140 278.44444444444446" fill="none" stroke="#112A22" stroke-width="2"/><path d="M 860 302.6666666666667 Q 1000 262.6666666666667 1140 302.6666666666667" fill="none" stroke="#263238" stroke-width="2"/><path d="M 860 326.8888888888889 Q 1000 286.8888888888889 1140 326.8888888888889" fill="none" stroke="#263238" stroke-width="2"/><path d="M 860 351.1111111111111 Q 1000 311.1111111111111 1140 351.1111111111111" fill="none" stroke="#263238" stroke-width="2"/><path d="M 860 375.3333333333333 Q 1000 335.3333333333333 1140 375.3333333333333" fill="none" stroke="#263238" stroke-width="2"/><path d="M 860 399.55555555555554 Q 1000 359.55555555555554 1140 399.55555555555554" fill="none" stroke="#263238" stroke-width="2"/><path d="M 860 423.77777777777777 Q 1000 383.77777777777777 1140 423.77777777777777" fill="none" stroke="#263238" stroke-width="2"/><path d="M 860 448 Q 1000 408 1140 448" fill="none" stroke="#263238" stroke-width="2"/><polygon points="985,430 1015,430 1000,400" fill="#ffb74d" stroke="#ffffff" stroke-width="2"/><line x1="1000" y1="395" x2="1000" y2="375" stroke="#ffb74d" stroke-width="4" marker-end="url(#arrowGeneric)"/><line x1="1000" y1="435" x2="1000" y2="470" stroke="#ffb74d" stroke-width="5" marker-end="url(#arrowGeneric)"/><rect x="820" y="530" width="360" height="50" rx="10" fill="#111B24"/><text x="1000" y="560" fill="#cfd8dc" font-family="Arial" font-size="14" text-anchor="middle">Falta de âncora. O anel afunda e dissipa efeito para trás.</text></svg>