<?xml version="1.0" encoding="utf-8" standalone="no"?>
<!DOCTYPE svg PUBLIC "-//W3C//DTD SVG 1.1//EN"
  "http://www.w3.org/Graphics/SVG/1.1/DTD/svg11.dtd">
<svg xmlns:xlink="http://www.w3.org/1999/xlink" width="572.4pt" height="347.04pt" viewBox="0 0 572.4 347.04" xmlns="http://www.w3.org/2000/svg" version="1.1">
 <metadata>
  <rdf:RDF xmlns:dc="http://purl.org/dc/elements/1.1/" xmlns:cc="http://creativecommons.org/ns#" xmlns:rdf="http://www.w3.org/1999/02/22-rdf-syntax-ns#">
   <cc:Work>
    <dc:type rdf:resource="http://purl.org/dc/dcmitype/StillImage"/>
    <dc:date>2026-05-28T00:54:13.512752</dc:date>
    <dc:format>image/svg+xml</dc:format>
    <dc:creator>
     <cc:Agent>
      <dc:title>Matplotlib v3.10.9, https://matplotlib.org/</dc:title>
     </cc:Agent>
    </dc:creator>
   </cc:Work>
  </rdf:RDF>
 </metadata>
 <defs>
  <style type="text/css">*{stroke-linejoin: round; stroke-linecap: butt}</style>
 </defs>
 <g id="figure_1">
  <g id="patch_1">
   <path d="M 0 347.04 
L 572.4 347.04 
L 572.4 -0 
L 0 -0 
z
" style="fill: #0a0e27"/>
  </g>
  <g id="axes_1">
   <g id="FillBetweenPolyCollection_1">
    <defs>
     <path id="m11317128ae" d="M 53.7 -40.464 
L 53.7 -7.2 
L 58.39697 -13.852121 
L 63.093939 -20.368485 
L 67.790909 -26.749091 
L 72.487879 -32.993939 
L 77.184848 -39.10303 
L 81.881818 -45.076364 
L 86.578788 -50.913939 
L 91.275758 -56.615758 
L 95.972727 -62.181818 
L 100.669697 -67.612121 
L 105.366667 -72.906667 
L 110.063636 -78.065455 
L 114.760606 -83.088485 
L 119.457576 -87.975758 
L 124.154545 -92.727273 
L 128.851515 -97.34303 
L 133.548485 -101.82303 
L 138.245455 -106.167273 
L 142.942424 -110.375758 
L 147.639394 -114.448485 
L 152.336364 -118.385455 
L 157.033333 -122.186667 
L 161.730303 -125.852121 
L 166.427273 -129.381818 
L 171.124242 -132.775758 
L 175.821212 -136.033939 
L 180.518182 -139.156364 
L 185.215152 -142.14303 
L 189.912121 -144.993939 
L 194.609091 -147.709091 
L 199.306061 -150.288485 
L 204.00303 -152.732121 
L 208.7 -155.04 
L 213.39697 -157.212121 
L 218.093939 -159.248485 
L 222.790909 -161.149091 
L 227.487879 -162.913939 
L 232.184848 -164.54303 
L 236.881818 -166.036364 
L 241.578788 -167.393939 
L 246.275758 -168.615758 
L 250.972727 -169.701818 
L 255.669697 -170.652121 
L 260.366667 -171.466667 
L 265.063636 -172.145455 
L 269.760606 -172.688485 
L 274.457576 -173.095758 
L 279.154545 -173.367273 
L 283.851515 -173.50303 
L 288.548485 -173.50303 
L 293.245455 -173.367273 
L 297.942424 -173.095758 
L 302.639394 -172.688485 
L 307.336364 -172.145455 
L 312.033333 -171.466667 
L 316.730303 -170.652121 
L 321.427273 -169.701818 
L 326.124242 -168.615758 
L 330.821212 -167.393939 
L 335.518182 -166.036364 
L 340.215152 -164.54303 
L 344.912121 -162.913939 
L 349.609091 -161.149091 
L 354.306061 -159.248485 
L 359.00303 -157.212121 
L 363.7 -155.04 
L 368.39697 -152.732121 
L 373.093939 -150.288485 
L 377.790909 -147.709091 
L 382.487879 -144.993939 
L 387.184848 -142.14303 
L 391.881818 -139.156364 
L 396.578788 -136.033939 
L 401.275758 -132.775758 
L 405.972727 -129.381818 
L 410.669697 -125.852121 
L 415.366667 -122.186667 
L 420.063636 -118.385455 
L 424.760606 -114.448485 
L 429.457576 -110.375758 
L 434.154545 -106.167273 
L 438.851515 -101.82303 
L 443.548485 -97.34303 
L 448.245455 -92.727273 
L 452.942424 -87.975758 
L 457.639394 -83.088485 
L 462.336364 -78.065455 
L 467.033333 -72.906667 
L 471.730303 -67.612121 
L 476.427273 -62.181818 
L 481.124242 -56.615758 
L 485.821212 -50.913939 
L 490.518182 -45.076364 
L 495.215152 -39.10303 
L 499.912121 -32.993939 
L 504.609091 -26.749091 
L 509.306061 -20.368485 
L 514.00303 -13.852121 
L 518.7 -7.2 
L 518.7 -40.464 
L 518.7 -40.464 
L 514.00303 -47.116121 
L 509.306061 -53.632485 
L 504.609091 -60.013091 
L 499.912121 -66.257939 
L 495.215152 -72.36703 
L 490.518182 -78.340364 
L 485.821212 -84.177939 
L 481.124242 -89.879758 
L 476.427273 -95.445818 
L 471.730303 -100.876121 
L 467.033333 -106.170667 
L 462.336364 -111.329455 
L 457.639394 -116.352485 
L 452.942424 -121.239758 
L 448.245455 -125.991273 
L 443.548485 -130.60703 
L 438.851515 -135.08703 
L 434.154545 -139.431273 
L 429.457576 -143.639758 
L 424.760606 -147.712485 
L 420.063636 -151.649455 
L 415.366667 -155.450667 
L 410.669697 -159.116121 
L 405.972727 -162.645818 
L 401.275758 -166.039758 
L 396.578788 -169.297939 
L 391.881818 -172.420364 
L 387.184848 -175.40703 
L 382.487879 -178.257939 
L 377.790909 -180.973091 
L 373.093939 -183.552485 
L 368.39697 -185.996121 
L 363.7 -188.304 
L 359.00303 -190.476121 
L 354.306061 -192.512485 
L 349.609091 -194.413091 
L 344.912121 -196.177939 
L 340.215152 -197.80703 
L 335.518182 -199.300364 
L 330.821212 -200.657939 
L 326.124242 -201.879758 
L 321.427273 -202.965818 
L 316.730303 -203.916121 
L 312.033333 -204.730667 
L 307.336364 -205.409455 
L 302.639394 -205.952485 
L 297.942424 -206.359758 
L 293.245455 -206.631273 
L 288.548485 -206.76703 
L 283.851515 -206.76703 
L 279.154545 -206.631273 
L 274.457576 -206.359758 
L 269.760606 -205.952485 
L 265.063636 -205.409455 
L 260.366667 -204.730667 
L 255.669697 -203.916121 
L 250.972727 -202.965818 
L 246.275758 -201.879758 
L 241.578788 -200.657939 
L 236.881818 -199.300364 
L 232.184848 -197.80703 
L 227.487879 -196.177939 
L 222.790909 -194.413091 
L 218.093939 -192.512485 
L 213.39697 -190.476121 
L 208.7 -188.304 
L 204.00303 -185.996121 
L 199.306061 -183.552485 
L 194.609091 -180.973091 
L 189.912121 -178.257939 
L 185.215152 -175.40703 
L 180.518182 -172.420364 
L 175.821212 -169.297939 
L 171.124242 -166.039758 
L 166.427273 -162.645818 
L 161.730303 -159.116121 
L 157.033333 -155.450667 
L 152.336364 -151.649455 
L 147.639394 -147.712485 
L 142.942424 -143.639758 
L 138.245455 -139.431273 
L 133.548485 -135.08703 
L 128.851515 -130.60703 
L 124.154545 -125.991273 
L 119.457576 -121.239758 
L 114.760606 -116.352485 
L 110.063636 -111.329455 
L 105.366667 -106.170667 
L 100.669697 -100.876121 
L 95.972727 -95.445818 
L 91.275758 -89.879758 
L 86.578788 -84.177939 
L 81.881818 -78.340364 
L 77.184848 -72.36703 
L 72.487879 -66.257939 
L 67.790909 -60.013091 
L 63.093939 -53.632485 
L 58.39697 -47.116121 
L 53.7 -40.464 
z
" style="stroke: #fcd34d; stroke-opacity: 0.3"/>
    </defs>
    <g clip-path="url(#p9800b0bb17)">
     <use xlink:href="#m11317128ae" x="0" y="347.04" style="fill: #fcd34d; fill-opacity: 0.3; stroke: #fcd34d; stroke-opacity: 0.3"/>
    </g>
   </g>
   <g id="patch_2">
    <path d="M 123.45 240.048 
L 146.7 233.3952 
L 169.95 220.0896 
L 137.4 193.4784 
z
" clip-path="url(#p9800b0bb17)" style="fill: #e2e8f0; stroke: #e2e8f0; stroke-linejoin: miter"/>
   </g>
   <g id="patch_3">
    <path d="M 448.95 240.048 
L 425.7 233.3952 
L 402.45 220.0896 
L 435 193.4784 
z
" clip-path="url(#p9800b0bb17)" style="fill: #e2e8f0; stroke: #e2e8f0; stroke-linejoin: miter"/>
   </g>
   <g id="patch_4">
    <path d="M 146.7 106.992 
L 153.675 133.6032 
L 146.72325 133.6032 
L 146.72325 186.8256 
L 146.67675 186.8256 
L 146.67675 133.6032 
L 139.725 133.6032 
z
" clip-path="url(#p9800b0bb17)" style="fill: #3b82f6; stroke: #3b82f6; stroke-width: 3; stroke-linejoin: miter"/>
   </g>
   <g id="patch_5">
    <path d="M 425.7 106.992 
L 432.675 133.6032 
L 425.72325 133.6032 
L 425.72325 186.8256 
L 425.67675 186.8256 
L 425.67675 133.6032 
L 418.725 133.6032 
z
" clip-path="url(#p9800b0bb17)" style="fill: #3b82f6; stroke: #3b82f6; stroke-width: 3; stroke-linejoin: miter"/>
   </g>
   <g id="patch_6">
    <path d="M 286.2 173.52 
L 279.225 146.9088 
L 286.17675 146.9088 
L 286.17675 106.992 
L 286.22325 106.992 
L 286.22325 146.9088 
L 293.175 146.9088 
z
" clip-path="url(#p9800b0bb17)" style="fill: #3b82f6; stroke: #3b82f6; stroke-width: 3; stroke-linejoin: miter"/>
   </g>
   <g id="line2d_1">
    <path d="M 53.7 306.576 
L 58.39697 299.923879 
L 63.093939 293.407515 
L 67.790909 287.026909 
L 72.487879 280.782061 
L 77.184848 274.67297 
L 81.881818 268.699636 
L 86.578788 262.862061 
L 91.275758 257.160242 
L 95.972727 251.594182 
L 100.669697 246.163879 
L 105.366667 240.869333 
L 110.063636 235.710545 
L 114.760606 230.687515 
L 119.457576 225.800242 
L 124.154545 221.048727 
L 128.851515 216.43297 
L 133.548485 211.95297 
L 138.245455 207.608727 
L 142.942424 203.400242 
L 147.639394 199.327515 
L 152.336364 195.390545 
L 157.033333 191.589333 
L 161.730303 187.923879 
L 166.427273 184.394182 
L 171.124242 181.000242 
L 175.821212 177.742061 
L 180.518182 174.619636 
L 185.215152 171.63297 
L 189.912121 168.782061 
L 194.609091 166.066909 
L 199.306061 163.487515 
L 204.00303 161.043879 
L 208.7 158.736 
L 213.39697 156.563879 
L 218.093939 154.527515 
L 222.790909 152.626909 
L 227.487879 150.862061 
L 232.184848 149.23297 
L 236.881818 147.739636 
L 241.578788 146.382061 
L 246.275758 145.160242 
L 250.972727 144.074182 
L 255.669697 143.123879 
L 260.366667 142.309333 
L 265.063636 141.630545 
L 269.760606 141.087515 
L 274.457576 140.680242 
L 279.154545 140.408727 
L 283.851515 140.27297 
L 288.548485 140.27297 
L 293.245455 140.408727 
L 297.942424 140.680242 
L 302.639394 141.087515 
L 307.336364 141.630545 
L 312.033333 142.309333 
L 316.730303 143.123879 
L 321.427273 144.074182 
L 326.124242 145.160242 
L 330.821212 146.382061 
L 335.518182 147.739636 
L 340.215152 149.23297 
L 344.912121 150.862061 
L 349.609091 152.626909 
L 354.306061 154.527515 
L 359.00303 156.563879 
L 363.7 158.736 
L 368.39697 161.043879 
L 373.093939 163.487515 
L 377.790909 166.066909 
L 382.487879 168.782061 
L 387.184848 171.63297 
L 391.881818 174.619636 
L 396.578788 177.742061 
L 401.275758 181.000242 
L 405.972727 184.394182 
L 410.669697 187.923879 
L 415.366667 191.589333 
L 420.063636 195.390545 
L 424.760606 199.327515 
L 429.457576 203.400242 
L 434.154545 207.608727 
L 438.851515 211.95297 
L 443.548485 216.43297 
L 448.245455 221.048727 
L 452.942424 225.800242 
L 457.639394 230.687515 
L 462.336364 235.710545 
L 467.033333 240.869333 
L 471.730303 246.163879 
L 476.427273 251.594182 
L 481.124242 257.160242 
L 485.821212 262.862061 
L 490.518182 268.699636 
L 495.215152 274.67297 
L 499.912121 280.782061 
L 504.609091 287.026909 
L 509.306061 293.407515 
L 514.00303 299.923879 
L 518.7 306.576 
" clip-path="url(#p9800b0bb17)" style="fill: none; stroke: #fcd34d; stroke-width: 2; stroke-linecap: square"/>
   </g>
   <g id="line2d_2">
    <path d="M 53.7 339.84 
L 58.39697 333.187879 
L 63.093939 326.671515 
L 67.790909 320.290909 
L 72.487879 314.046061 
L 77.184848 307.93697 
L 81.881818 301.963636 
L 86.578788 296.126061 
L 91.275758 290.424242 
L 95.972727 284.858182 
L 100.669697 279.427879 
L 105.366667 274.133333 
L 110.063636 268.974545 
L 114.760606 263.951515 
L 119.457576 259.064242 
L 124.154545 254.312727 
L 128.851515 249.69697 
L 133.548485 245.21697 
L 138.245455 240.872727 
L 142.942424 236.664242 
L 147.639394 232.591515 
L 152.336364 228.654545 
L 157.033333 224.853333 
L 161.730303 221.187879 
L 166.427273 217.658182 
L 171.124242 214.264242 
L 175.821212 211.006061 
L 180.518182 207.883636 
L 185.215152 204.89697 
L 189.912121 202.046061 
L 194.609091 199.330909 
L 199.306061 196.751515 
L 204.00303 194.307879 
L 208.7 192 
L 213.39697 189.827879 
L 218.093939 187.791515 
L 222.790909 185.890909 
L 227.487879 184.126061 
L 232.184848 182.49697 
L 236.881818 181.003636 
L 241.578788 179.646061 
L 246.275758 178.424242 
L 250.972727 177.338182 
L 255.669697 176.387879 
L 260.366667 175.573333 
L 265.063636 174.894545 
L 269.760606 174.351515 
L 274.457576 173.944242 
L 279.154545 173.672727 
L 283.851515 173.53697 
L 288.548485 173.53697 
L 293.245455 173.672727 
L 297.942424 173.944242 
L 302.639394 174.351515 
L 307.336364 174.894545 
L 312.033333 175.573333 
L 316.730303 176.387879 
L 321.427273 177.338182 
L 326.124242 178.424242 
L 330.821212 179.646061 
L 335.518182 181.003636 
L 340.215152 182.49697 
L 344.912121 184.126061 
L 349.609091 185.890909 
L 354.306061 187.791515 
L 359.00303 189.827879 
L 363.7 192 
L 368.39697 194.307879 
L 373.093939 196.751515 
L 377.790909 199.330909 
L 382.487879 202.046061 
L 387.184848 204.89697 
L 391.881818 207.883636 
L 396.578788 211.006061 
L 401.275758 214.264242 
L 405.972727 217.658182 
L 410.669697 221.187879 
L 415.366667 224.853333 
L 420.063636 228.654545 
L 424.760606 232.591515 
L 429.457576 236.664242 
L 434.154545 240.872727 
L 438.851515 245.21697 
L 443.548485 249.69697 
L 448.245455 254.312727 
L 452.942424 259.064242 
L 457.639394 263.951515 
L 462.336364 268.974545 
L 467.033333 274.133333 
L 471.730303 279.427879 
L 476.427273 284.858182 
L 481.124242 290.424242 
L 485.821212 296.126061 
L 490.518182 301.963636 
L 495.215152 307.93697 
L 499.912121 314.046061 
L 504.609091 320.290909 
L 509.306061 326.671515 
L 514.00303 333.187879 
L 518.7 339.84 
" clip-path="url(#p9800b0bb17)" style="fill: none; stroke: #fcd34d; stroke-width: 2; stroke-linecap: square"/>
   </g>
   <g id="text_1">
    <!-- OD -->
    <g style="fill: #e8ecf4" transform="translate(30.45 73.728) scale(0.24 -0.24)">
     <defs>
      <path id="Arial-BoldMT-4f" d="M 278 2263 
Q 278 2963 488 3438 
Q 644 3788 914 4066 
Q 1184 4344 1506 4478 
Q 1934 4659 2494 4659 
Q 3506 4659 4114 4031 
Q 4722 3403 4722 2284 
Q 4722 1175 4119 548 
Q 3516 -78 2506 -78 
Q 1484 -78 881 545 
Q 278 1169 278 2263 
z
M 1231 2294 
Q 1231 1516 1590 1114 
Q 1950 713 2503 713 
Q 3056 713 3411 1111 
Q 3766 1509 3766 2306 
Q 3766 3094 3420 3481 
Q 3075 3869 2503 3869 
Q 1931 3869 1581 3476 
Q 1231 3084 1231 2294 
z
" transform="scale(0.015625)"/>
      <path id="Arial-BoldMT-44" d="M 463 4581 
L 2153 4581 
Q 2725 4581 3025 4494 
Q 3428 4375 3715 4072 
Q 4003 3769 4153 3330 
Q 4303 2891 4303 2247 
Q 4303 1681 4163 1272 
Q 3991 772 3672 463 
Q 3431 228 3022 97 
Q 2716 0 2203 0 
L 463 0 
L 463 4581 
z
M 1388 3806 
L 1388 772 
L 2078 772 
Q 2466 772 2638 816 
Q 2863 872 3011 1006 
Q 3159 1141 3253 1448 
Q 3347 1756 3347 2288 
Q 3347 2819 3253 3103 
Q 3159 3388 2990 3547 
Q 2822 3706 2563 3763 
Q 2369 3806 1803 3806 
L 1388 3806 
z
" transform="scale(0.015625)"/>
     </defs>
     <use xlink:href="#Arial-BoldMT-4f"/>
     <use xlink:href="#Arial-BoldMT-44" transform="translate(77.783203 0)"/>
    </g>
   </g>
   <g id="text_2">
    <!-- T -->
    <g style="fill: #e8ecf4" transform="translate(30.45 245.218312) scale(0.2 -0.2)">
     <defs>
      <path id="ArialMT-54" d="M 1659 0 
L 1659 4041 
L 150 4041 
L 150 4581 
L 3781 4581 
L 3781 4041 
L 2266 4041 
L 2266 0 
L 1659 0 
z
" transform="scale(0.015625)"/>
     </defs>
     <use xlink:href="#ArialMT-54"/>
    </g>
   </g>
   <g id="text_3">
    <!-- N -->
    <g style="fill: #e8ecf4" transform="translate(541.95 245.218312) scale(0.2 -0.2)">
     <defs>
      <path id="ArialMT-4e" d="M 488 0 
L 488 4581 
L 1109 4581 
L 3516 984 
L 3516 4581 
L 4097 4581 
L 4097 0 
L 3475 0 
L 1069 3600 
L 1069 0 
L 488 0 
z
" transform="scale(0.015625)"/>
     </defs>
     <use xlink:href="#ArialMT-4e"/>
    </g>
   </g>
  </g>
 </g>
 <defs>
  <clipPath id="p9800b0bb17">
   <rect x="7.2" y="7.2" width="558" height="332.64"/>
  </clipPath>
 </defs>
</svg>
