<?xml version="1.0" encoding="utf-8" standalone="no"?>
<!DOCTYPE svg PUBLIC "-//W3C//DTD SVG 1.1//EN"
  "http://www.w3.org/Graphics/SVG/1.1/DTD/svg11.dtd">
<svg xmlns:xlink="http://www.w3.org/1999/xlink" width="460.8pt" height="457.92pt" viewBox="0 0 460.8 457.92" xmlns="http://www.w3.org/2000/svg" version="1.1">
 <metadata>
  <rdf:RDF xmlns:dc="http://purl.org/dc/elements/1.1/" xmlns:cc="http://creativecommons.org/ns#" xmlns:rdf="http://www.w3.org/1999/02/22-rdf-syntax-ns#">
   <cc:Work>
    <dc:type rdf:resource="http://purl.org/dc/dcmitype/StillImage"/>
    <dc:date>2026-05-28T00:54:13.578839</dc:date>
    <dc:format>image/svg+xml</dc:format>
    <dc:creator>
     <cc:Agent>
      <dc:title>Matplotlib v3.10.9, https://matplotlib.org/</dc:title>
     </cc:Agent>
    </dc:creator>
   </cc:Work>
  </rdf:RDF>
 </metadata>
 <defs>
  <style type="text/css">*{stroke-linejoin: round; stroke-linecap: butt}</style>
 </defs>
 <g id="figure_1">
  <g id="patch_1">
   <path d="M 0 457.92 
L 460.8 457.92 
L 460.8 0 
L 0 0 
z
" style="fill: #0a0e27"/>
  </g>
  <g id="axes_1">
   <g id="patch_2">
    <path d="M 230.4 413.76 
C 279.727777 413.76 327.041856 394.288306 361.921861 359.633333 
C 396.801867 324.97836 416.4 277.969533 416.4 228.96 
C 416.4 179.950467 396.801867 132.94164 361.921861 98.286667 
C 327.041856 63.631694 279.727777 44.16 230.4 44.16 
C 181.072223 44.16 133.758144 63.631694 98.878139 98.286667 
C 63.998133 132.94164 44.4 179.950467 44.4 228.96 
C 44.4 277.969533 63.998133 324.97836 98.878139 359.633333 
C 133.758144 394.288306 181.072223 413.76 230.4 413.76 
z
" clip-path="url(#p47fb2e1f0b)" style="fill: #1e293b; stroke: #475569; stroke-width: 3; stroke-linejoin: miter"/>
   </g>
   <g id="patch_3">
    <path d="M 408.96 228.96 
L 397.8 232.656 
L 397.8 228.97848 
L 379.2 228.97848 
L 379.2 228.94152 
L 397.8 228.94152 
L 397.8 225.264 
z
" clip-path="url(#p47fb2e1f0b)" style="fill: #22c55e; stroke: #22c55e; stroke-width: 2; stroke-linejoin: miter"/>
   </g>
   <g id="patch_4">
    <path d="M 402.875716 183.043431 
L 393.05879 189.483278 
L 392.100797 185.931067 
L 374.134577 190.714043 
L 374.124949 190.678342 
L 392.091169 185.895366 
L 391.133176 182.343155 
z
" clip-path="url(#p47fb2e1f0b)" style="fill: #22c55e; stroke: #22c55e; stroke-width: 2; stroke-linejoin: miter"/>
   </g>
   <g id="patch_5">
    <path d="M 385.037496 140.256 
L 377.232653 149.00083 
L 375.381953 145.816004 
L 359.27388 155.056004 
L 359.25528 155.023996 
L 375.363353 145.783996 
L 373.512653 142.59917 
z
" clip-path="url(#p47fb2e1f0b)" style="fill: #22c55e; stroke: #22c55e; stroke-width: 2; stroke-linejoin: miter"/>
   </g>
   <g id="patch_6">
    <path d="M 356.660987 103.5136 
L 351.400112 113.967467 
L 348.782827 111.367067 
L 335.630641 124.434401 
L 335.604337 124.408266 
L 348.756523 111.340933 
L 346.139238 108.740533 
z
" clip-path="url(#p47fb2e1f0b)" style="fill: #22c55e; stroke: #22c55e; stroke-width: 2; stroke-linejoin: miter"/>
   </g>
   <g id="patch_7">
    <path d="M 319.68 75.320165 
L 317.321615 86.770655 
L 314.116108 84.931895 
L 304.816108 100.936044 
L 304.783892 100.917564 
L 314.083892 84.913415 
L 310.878385 83.074655 
z
" clip-path="url(#p47fb2e1f0b)" style="fill: #22c55e; stroke: #22c55e; stroke-width: 2; stroke-linejoin: miter"/>
   </g>
   <g id="patch_8">
    <path d="M 276.614729 57.597031 
L 277.319552 69.263812 
L 273.744274 68.312 
L 268.93024 86.162309 
L 268.894308 86.152743 
L 273.708342 68.302434 
L 270.133064 67.350621 
z
" clip-path="url(#p47fb2e1f0b)" style="fill: #22c55e; stroke: #22c55e; stroke-width: 2; stroke-linejoin: miter"/>
   </g>
   <g id="patch_9">
    <path d="M 230.4 51.552 
L 234.12 62.64 
L 230.4186 62.64 
L 230.4186 81.12 
L 230.3814 81.12 
L 230.3814 62.64 
L 226.68 62.64 
z
" clip-path="url(#p47fb2e1f0b)" style="fill: #22c55e; stroke: #22c55e; stroke-width: 2; stroke-linejoin: miter"/>
   </g>
   <g id="patch_10">
    <path d="M 184.185271 57.597031 
L 190.666936 67.350621 
L 187.091658 68.302434 
L 191.905692 86.152743 
L 191.86976 86.162309 
L 187.055726 68.312 
L 183.480448 69.263812 
z
" clip-path="url(#p47fb2e1f0b)" style="fill: #22c55e; stroke: #22c55e; stroke-width: 2; stroke-linejoin: miter"/>
   </g>
   <g id="patch_11">
    <path d="M 141.12 75.320165 
L 149.921615 83.074655 
L 146.716108 84.913415 
L 156.016108 100.917564 
L 155.983892 100.936044 
L 146.683892 84.931895 
L 143.478385 86.770655 
z
" clip-path="url(#p47fb2e1f0b)" style="fill: #22c55e; stroke: #22c55e; stroke-width: 2; stroke-linejoin: miter"/>
   </g>
   <g id="patch_12">
    <path d="M 104.139013 103.5136 
L 114.660762 108.740533 
L 112.043477 111.340933 
L 125.195663 124.408266 
L 125.169359 124.434401 
L 112.017173 111.367067 
L 109.399888 113.967467 
z
" clip-path="url(#p47fb2e1f0b)" style="fill: #22c55e; stroke: #22c55e; stroke-width: 2; stroke-linejoin: miter"/>
   </g>
   <g id="patch_13">
    <path d="M 75.762504 140.256 
L 87.287347 142.59917 
L 85.436647 145.783996 
L 101.54472 155.023996 
L 101.52612 155.056004 
L 85.418047 145.816004 
L 83.567347 149.00083 
z
" clip-path="url(#p47fb2e1f0b)" style="fill: #22c55e; stroke: #22c55e; stroke-width: 2; stroke-linejoin: miter"/>
   </g>
   <g id="patch_14">
    <path d="M 57.924284 183.043431 
L 69.666824 182.343155 
L 68.708831 185.895366 
L 86.675051 190.678342 
L 86.665423 190.714043 
L 68.699203 185.931067 
L 67.74121 189.483278 
z
" clip-path="url(#p47fb2e1f0b)" style="fill: #22c55e; stroke: #22c55e; stroke-width: 2; stroke-linejoin: miter"/>
   </g>
   <g id="patch_15">
    <path d="M 51.84 228.96 
L 63 225.264 
L 63 228.94152 
L 81.6 228.94152 
L 81.6 228.97848 
L 63 228.97848 
L 63 232.656 
z
" clip-path="url(#p47fb2e1f0b)" style="fill: #22c55e; stroke: #22c55e; stroke-width: 2; stroke-linejoin: miter"/>
   </g>
   <g id="patch_16">
    <path d="M 57.924284 274.876569 
L 67.74121 268.436722 
L 68.699203 271.988933 
L 86.665423 267.205957 
L 86.675051 267.241658 
L 68.708831 272.024634 
L 69.666824 275.576845 
z
" clip-path="url(#p47fb2e1f0b)" style="fill: #22c55e; stroke: #22c55e; stroke-width: 2; stroke-linejoin: miter"/>
   </g>
   <g id="patch_17">
    <path d="M 75.762504 317.664 
L 83.567347 308.91917 
L 85.418047 312.103996 
L 101.52612 302.863996 
L 101.54472 302.896004 
L 85.436647 312.136004 
L 87.287347 315.32083 
z
" clip-path="url(#p47fb2e1f0b)" style="fill: #22c55e; stroke: #22c55e; stroke-width: 2; stroke-linejoin: miter"/>
   </g>
   <g id="patch_18">
    <path d="M 104.139013 354.4064 
L 109.399888 343.952533 
L 112.017173 346.552933 
L 125.169359 333.485599 
L 125.195663 333.511734 
L 112.043477 346.579067 
L 114.660762 349.179467 
z
" clip-path="url(#p47fb2e1f0b)" style="fill: #22c55e; stroke: #22c55e; stroke-width: 2; stroke-linejoin: miter"/>
   </g>
   <g id="patch_19">
    <path d="M 141.12 382.599835 
L 143.478385 371.149345 
L 146.683892 372.988105 
L 155.983892 356.983956 
L 156.016108 357.002436 
L 146.716108 373.006585 
L 149.921615 374.845345 
z
" clip-path="url(#p47fb2e1f0b)" style="fill: #22c55e; stroke: #22c55e; stroke-width: 2; stroke-linejoin: miter"/>
   </g>
   <g id="patch_20">
    <path d="M 184.185271 400.322969 
L 183.480448 388.656188 
L 187.055726 389.608 
L 191.86976 371.757691 
L 191.905692 371.767257 
L 187.091658 389.617566 
L 190.666936 390.569379 
z
" clip-path="url(#p47fb2e1f0b)" style="fill: #22c55e; stroke: #22c55e; stroke-width: 2; stroke-linejoin: miter"/>
   </g>
   <g id="patch_21">
    <path d="M 230.4 406.368 
L 226.68 395.28 
L 230.3814 395.28 
L 230.3814 376.8 
L 230.4186 376.8 
L 230.4186 395.28 
L 234.12 395.28 
z
" clip-path="url(#p47fb2e1f0b)" style="fill: #22c55e; stroke: #22c55e; stroke-width: 2; stroke-linejoin: miter"/>
   </g>
   <g id="patch_22">
    <path d="M 276.614729 400.322969 
L 270.133064 390.569379 
L 273.708342 389.617566 
L 268.894308 371.767257 
L 268.93024 371.757691 
L 273.744274 389.608 
L 277.319552 388.656188 
z
" clip-path="url(#p47fb2e1f0b)" style="fill: #22c55e; stroke: #22c55e; stroke-width: 2; stroke-linejoin: miter"/>
   </g>
   <g id="patch_23">
    <path d="M 319.68 382.599835 
L 310.878385 374.845345 
L 314.083892 373.006585 
L 304.783892 357.002436 
L 304.816108 356.983956 
L 314.116108 372.988105 
L 317.321615 371.149345 
z
" clip-path="url(#p47fb2e1f0b)" style="fill: #22c55e; stroke: #22c55e; stroke-width: 2; stroke-linejoin: miter"/>
   </g>
   <g id="patch_24">
    <path d="M 356.660987 354.4064 
L 346.139238 349.179467 
L 348.756523 346.579067 
L 335.604337 333.511734 
L 335.630641 333.485599 
L 348.782827 346.552933 
L 351.400112 343.952533 
z
" clip-path="url(#p47fb2e1f0b)" style="fill: #22c55e; stroke: #22c55e; stroke-width: 2; stroke-linejoin: miter"/>
   </g>
   <g id="patch_25">
    <path d="M 385.037496 317.664 
L 373.512653 315.32083 
L 375.363353 312.136004 
L 359.25528 302.896004 
L 359.27388 302.863996 
L 375.381953 312.103996 
L 377.232653 308.91917 
z
" clip-path="url(#p47fb2e1f0b)" style="fill: #22c55e; stroke: #22c55e; stroke-width: 2; stroke-linejoin: miter"/>
   </g>
   <g id="patch_26">
    <path d="M 402.875716 274.876569 
L 391.133176 275.576845 
L 392.091169 272.024634 
L 374.124949 267.241658 
L 374.134577 267.205957 
L 392.100797 271.988933 
L 393.05879 268.436722 
z
" clip-path="url(#p47fb2e1f0b)" style="fill: #22c55e; stroke: #22c55e; stroke-width: 2; stroke-linejoin: miter"/>
   </g>
   <g id="line2d_1">
    <path d="M 100.2 228.96 
L 100.26555 233.064325 
L 100.462135 237.164518 
L 100.789556 241.25645 
L 101.247483 245.336 
L 101.835457 249.399061 
L 102.552884 253.441541 
L 103.399042 257.459371 
L 104.373079 261.448504 
L 105.474015 265.404924 
L 106.70074 269.324647 
L 108.052021 273.203726 
L 109.526495 277.038255 
L 111.122679 280.824374 
L 112.838965 284.55827 
L 114.673625 288.236183 
L 116.624811 291.85441 
L 118.69056 295.409307 
L 120.86879 298.897296 
L 123.157309 302.314864 
L 125.553812 305.65857 
L 128.055887 308.925046 
L 130.661014 312.111005 
L 133.366569 315.213238 
L 136.169828 318.228621 
L 139.06797 321.154118 
L 142.058075 323.986783 
L 145.137132 326.723765 
L 148.302043 329.362307 
L 151.549619 331.899752 
L 154.87659 334.333545 
L 158.279608 336.661236 
L 161.755244 338.880482 
L 165.3 340.989046 
L 168.910306 342.984807 
L 172.582527 344.865755 
L 176.312965 346.629995 
L 180.097865 348.275751 
L 183.933414 349.801367 
L 187.815751 351.205306 
L 191.740967 352.486154 
L 195.705109 353.642622 
L 199.704187 354.673544 
L 203.734172 355.577884 
L 207.791007 356.354731 
L 211.870608 357.003302 
L 215.968866 357.522944 
L 220.081656 357.913134 
L 224.204835 358.173479 
L 228.334252 358.303717 
L 232.465748 358.303717 
L 236.595165 358.173479 
L 240.718344 357.913134 
L 244.831134 357.522944 
L 248.929392 357.003302 
L 253.008993 356.354731 
L 257.065828 355.577884 
L 261.095813 354.673544 
L 265.094891 353.642622 
L 269.059033 352.486154 
L 272.984249 351.205306 
L 276.866586 349.801367 
L 280.702135 348.275751 
L 284.487035 346.629995 
L 288.217473 344.865755 
L 291.889694 342.984807 
L 295.5 340.989046 
L 299.044756 338.880482 
L 302.520392 336.661236 
L 305.92341 334.333545 
L 309.250381 331.899752 
L 312.497957 329.362307 
L 315.662868 326.723765 
L 318.741925 323.986783 
L 321.73203 321.154118 
L 324.630172 318.228621 
L 327.433431 315.213238 
L 330.138986 312.111005 
L 332.744113 308.925046 
L 335.246188 305.65857 
L 337.642691 302.314864 
L 339.93121 298.897296 
L 342.10944 295.409307 
L 344.175189 291.85441 
L 346.126375 288.236183 
L 347.961035 284.55827 
L 349.677321 280.824374 
L 351.273505 277.038255 
L 352.747979 273.203726 
L 354.09926 269.324647 
L 355.325985 265.404924 
L 356.426921 261.448504 
L 357.400958 257.459371 
L 358.247116 253.441541 
L 358.964543 249.399061 
L 359.552517 245.336 
L 360.010444 241.25645 
L 360.337865 237.164518 
L 360.53445 233.064325 
L 360.6 228.96 
" clip-path="url(#p47fb2e1f0b)" style="fill: none; stroke: #e2e8f0; stroke-width: 6; stroke-linecap: round"/>
   </g>
   <g id="line2d_2">
    <path d="M 125.530304 266.883193 
L 127.563255 272.02965 
L 129.851874 277.069029 
L 132.390472 281.988801 
L 135.172738 286.776735 
L 138.191753 291.420928 
L 141.440012 295.909833 
L 144.90944 300.23229 
L 148.591411 304.377553 
L 152.476771 308.335316 
L 156.555861 312.09574 
L 160.818538 315.649475 
L 165.254206 318.987686 
L 169.851837 322.102074 
L 174.6 324.984897 
L 179.486891 327.628986 
L 184.500359 330.027769 
L 189.627942 332.175281 
L 194.85689 334.066184 
L 200.174204 335.695777 
L 205.566664 337.060007 
L 211.020863 338.155484 
L 216.523243 338.979483 
L 222.060122 339.529957 
L 227.617735 339.805537 
L 233.182265 339.805537 
L 238.739878 339.529957 
L 244.276757 338.979483 
L 249.779137 338.155484 
L 255.233336 337.060007 
L 260.625796 335.695777 
L 265.94311 334.066184 
L 271.172058 332.175281 
L 276.299641 330.027769 
L 281.313109 327.628986 
L 286.2 324.984897 
L 290.948163 322.102074 
L 295.545794 318.987686 
L 299.981462 315.649475 
L 304.244139 312.09574 
L 308.323229 308.335316 
L 312.208589 304.377553 
L 315.89056 300.23229 
L 319.359988 295.909833 
L 322.608247 291.420928 
L 325.627262 286.776735 
L 328.409528 281.988801 
L 330.948126 277.069029 
L 333.236745 272.02965 
L 335.269696 266.883193 
" clip-path="url(#p47fb2e1f0b)" style="fill: none; stroke-dasharray: 7.4,3.2; stroke-dashoffset: 0; stroke: #22c55e; stroke-width: 2"/>
   </g>
   <g id="text_1">
    <!-- OD -->
    <g style="fill: #e8ecf4" transform="translate(25.8 25.68) scale(0.24 -0.24)">
     <defs>
      <path id="Arial-BoldMT-4f" d="M 278 2263 
Q 278 2963 488 3438 
Q 644 3788 914 4066 
Q 1184 4344 1506 4478 
Q 1934 4659 2494 4659 
Q 3506 4659 4114 4031 
Q 4722 3403 4722 2284 
Q 4722 1175 4119 548 
Q 3516 -78 2506 -78 
Q 1484 -78 881 545 
Q 278 1169 278 2263 
z
M 1231 2294 
Q 1231 1516 1590 1114 
Q 1950 713 2503 713 
Q 3056 713 3411 1111 
Q 3766 1509 3766 2306 
Q 3766 3094 3420 3481 
Q 3075 3869 2503 3869 
Q 1931 3869 1581 3476 
Q 1231 3084 1231 2294 
z
" transform="scale(0.015625)"/>
      <path id="Arial-BoldMT-44" d="M 463 4581 
L 2153 4581 
Q 2725 4581 3025 4494 
Q 3428 4375 3715 4072 
Q 4003 3769 4153 3330 
Q 4303 2891 4303 2247 
Q 4303 1681 4163 1272 
Q 3991 772 3672 463 
Q 3431 228 3022 97 
Q 2716 0 2203 0 
L 463 0 
L 463 4581 
z
M 1388 3806 
L 1388 772 
L 2078 772 
Q 2466 772 2638 816 
Q 2863 872 3011 1006 
Q 3159 1141 3253 1448 
Q 3347 1756 3347 2288 
Q 3347 2819 3253 3103 
Q 3159 3388 2990 3547 
Q 2822 3706 2563 3763 
Q 2369 3806 1803 3806 
L 1388 3806 
z
" transform="scale(0.015625)"/>
     </defs>
     <use xlink:href="#Arial-BoldMT-4f"/>
     <use xlink:href="#Arial-BoldMT-44" transform="translate(77.783203 0)"/>
    </g>
   </g>
   <g id="text_2">
    <!-- T -->
    <g style="fill: #e8ecf4" transform="translate(25.8 234.130312) scale(0.2 -0.2)">
     <defs>
      <path id="ArialMT-54" d="M 1659 0 
L 1659 4041 
L 150 4041 
L 150 4581 
L 3781 4581 
L 3781 4041 
L 2266 4041 
L 2266 0 
L 1659 0 
z
" transform="scale(0.015625)"/>
     </defs>
     <use xlink:href="#ArialMT-54"/>
    </g>
   </g>
   <g id="text_3">
    <!-- N -->
    <g style="fill: #e8ecf4" transform="translate(435 234.130312) scale(0.2 -0.2)">
     <defs>
      <path id="ArialMT-4e" d="M 488 0 
L 488 4581 
L 1109 4581 
L 3516 984 
L 3516 4581 
L 4097 4581 
L 4097 0 
L 3475 0 
L 1069 3600 
L 1069 0 
L 488 0 
z
" transform="scale(0.015625)"/>
     </defs>
     <use xlink:href="#ArialMT-4e"/>
    </g>
   </g>
   <g id="text_4">
    <!-- S -->
    <g style="fill: #e8ecf4" transform="translate(223.729687 25.68) scale(0.2 -0.2)">
     <defs>
      <path id="ArialMT-53" d="M 288 1472 
L 859 1522 
Q 900 1178 1048 958 
Q 1197 738 1509 602 
Q 1822 466 2213 466 
Q 2559 466 2825 569 
Q 3091 672 3220 851 
Q 3350 1031 3350 1244 
Q 3350 1459 3225 1620 
Q 3100 1781 2813 1891 
Q 2628 1963 1997 2114 
Q 1366 2266 1113 2400 
Q 784 2572 623 2826 
Q 463 3081 463 3397 
Q 463 3744 659 4045 
Q 856 4347 1234 4503 
Q 1613 4659 2075 4659 
Q 2584 4659 2973 4495 
Q 3363 4331 3572 4012 
Q 3781 3694 3797 3291 
L 3216 3247 
Q 3169 3681 2898 3903 
Q 2628 4125 2100 4125 
Q 1550 4125 1298 3923 
Q 1047 3722 1047 3438 
Q 1047 3191 1225 3031 
Q 1400 2872 2139 2705 
Q 2878 2538 3153 2413 
Q 3553 2228 3743 1945 
Q 3934 1663 3934 1294 
Q 3934 928 3725 604 
Q 3516 281 3123 101 
Q 2731 -78 2241 -78 
Q 1619 -78 1198 103 
Q 778 284 539 648 
Q 300 1013 288 1472 
z
" transform="scale(0.015625)"/>
     </defs>
     <use xlink:href="#ArialMT-53"/>
    </g>
   </g>
   <g id="text_5">
    <!-- I -->
    <g style="fill: #e8ecf4" transform="translate(227.621875 432.24) scale(0.2 -0.2)">
     <defs>
      <path id="ArialMT-49" d="M 597 0 
L 597 4581 
L 1203 4581 
L 1203 0 
L 597 0 
z
" transform="scale(0.015625)"/>
     </defs>
     <use xlink:href="#ArialMT-49"/>
    </g>
   </g>
  </g>
 </g>
 <defs>
  <clipPath id="p47fb2e1f0b">
   <rect x="7.2" y="7.2" width="446.4" height="443.52"/>
  </clipPath>
 </defs>
</svg>
