<?xml version="1.0" encoding="utf-8" standalone="no"?>
<!DOCTYPE svg PUBLIC "-//W3C//DTD SVG 1.1//EN"
  "http://www.w3.org/Graphics/SVG/1.1/DTD/svg11.dtd">
<svg xmlns:xlink="http://www.w3.org/1999/xlink" width="572.4pt" height="347.04pt" viewBox="0 0 572.4 347.04" xmlns="http://www.w3.org/2000/svg" version="1.1">
 <metadata>
  <rdf:RDF xmlns:dc="http://purl.org/dc/elements/1.1/" xmlns:cc="http://creativecommons.org/ns#" xmlns:rdf="http://www.w3.org/1999/02/22-rdf-syntax-ns#">
   <cc:Work>
    <dc:type rdf:resource="http://purl.org/dc/dcmitype/StillImage"/>
    <dc:date>2026-05-28T00:54:13.634845</dc:date>
    <dc:format>image/svg+xml</dc:format>
    <dc:creator>
     <cc:Agent>
      <dc:title>Matplotlib v3.10.9, https://matplotlib.org/</dc:title>
     </cc:Agent>
    </dc:creator>
   </cc:Work>
  </rdf:RDF>
 </metadata>
 <defs>
  <style type="text/css">*{stroke-linejoin: round; stroke-linecap: butt}</style>
 </defs>
 <g id="figure_1">
  <g id="patch_1">
   <path d="M 0 347.04 
L 572.4 347.04 
L 572.4 -0 
L 0 -0 
z
" style="fill: #0a0e27"/>
  </g>
  <g id="axes_1">
   <g id="FillBetweenPolyCollection_1">
    <defs>
     <path id="m0e6a800e41" d="M 53.7 -34.938891 
L 53.7 -7.215113 
L 58.39697 -12.767485 
L 63.093939 -18.211492 
L 67.790909 -23.549378 
L 72.487879 -28.784272 
L 77.184848 -33.920474 
L 81.881818 -38.963768 
L 86.578788 -43.921799 
L 91.275758 -48.804455 
L 95.972727 -53.624272 
L 100.669697 -58.396785 
L 105.366667 -63.140804 
L 110.063636 -67.878536 
L 114.760606 -72.635479 
L 119.457576 -77.440026 
L 124.154545 -82.322691 
L 128.851515 -87.314911 
L 133.548485 -92.447388 
L 138.245455 -97.747982 
L 142.942424 -103.239222 
L 147.639394 -108.93554 
L 152.336364 -114.840429 
L 157.033333 -120.943738 
L 161.730303 -127.219395 
L 166.427273 -133.623841 
L 171.124242 -140.095452 
L 175.821212 -146.555178 
L 180.518182 -152.908541 
L 185.215152 -159.049015 
L 189.912121 -164.862689 
L 194.609091 -170.233957 
L 199.306061 -175.051866 
L 204.00303 -179.216644 
L 208.7 -182.64587 
L 213.39697 -185.279767 
L 218.093939 -187.085142 
L 222.790909 -188.0576 
L 227.487879 -188.221844 
L 232.184848 -187.630016 
L 236.881818 -186.358245 
L 241.578788 -184.501718 
L 246.275758 -182.168713 
L 250.972727 -179.474124 
L 255.669697 -176.533006 
L 260.366667 -173.454643 
L 265.063636 -170.337544 
L 269.760606 -167.265661 
L 274.457576 -164.305973 
L 279.154545 -161.507449 
L 283.851515 -158.901283 
L 288.548485 -156.502189 
L 293.245455 -154.310498 
L 297.942424 -152.314762 
L 302.639394 -150.494583 
L 307.336364 -148.823425 
L 312.033333 -147.271198 
L 316.730303 -145.806489 
L 321.427273 -144.398361 
L 326.124242 -143.017685 
L 330.821212 -141.638038 
L 335.518182 -140.236202 
L 340.215152 -138.792352 
L 344.912121 -137.289994 
L 349.609091 -135.715727 
L 354.306061 -134.058909 
L 359.00303 -132.311264 
L 363.7 -130.46649 
L 368.39697 -128.519878 
L 373.093939 -126.467978 
L 377.790909 -124.308307 
L 382.487879 -122.039112 
L 387.184848 -119.659175 
L 391.881818 -117.167664 
L 396.578788 -114.564023 
L 401.275758 -111.847883 
L 405.972727 -109.019007 
L 410.669697 -106.077241 
L 415.366667 -103.02249 
L 420.063636 -99.854695 
L 424.760606 -96.57382 
L 429.457576 -93.179843 
L 434.154545 -89.672751 
L 438.851515 -86.052538 
L 443.548485 -82.319199 
L 448.245455 -78.472731 
L 452.942424 -74.513133 
L 457.639394 -70.440405 
L 462.336364 -66.254546 
L 467.033333 -61.955556 
L 471.730303 -57.543434 
L 476.427273 -53.018182 
L 481.124242 -48.379798 
L 485.821212 -43.628283 
L 490.518182 -38.763636 
L 495.215152 -33.785859 
L 499.912121 -28.694949 
L 504.609091 -23.490909 
L 509.306061 -18.173737 
L 514.00303 -12.743434 
L 518.7 -7.2 
L 518.7 -34.92 
L 518.7 -34.92 
L 514.00303 -40.463434 
L 509.306061 -45.893737 
L 504.609091 -51.210909 
L 499.912121 -56.414949 
L 495.215152 -61.505859 
L 490.518182 -66.483636 
L 485.821212 -71.348283 
L 481.124242 -76.099798 
L 476.427273 -80.738182 
L 471.730303 -85.263434 
L 467.033333 -89.675556 
L 462.336364 -93.974546 
L 457.639394 -98.160405 
L 452.942424 -102.233133 
L 448.245455 -106.192732 
L 443.548485 -110.0392 
L 438.851515 -113.772541 
L 434.154545 -117.392757 
L 429.457576 -120.899854 
L 424.760606 -124.29384 
L 420.063636 -127.574732 
L 415.366667 -130.742557 
L 410.669697 -133.797359 
L 405.972727 -136.739213 
L 401.275758 -139.568238 
L 396.578788 -142.284625 
L 391.881818 -144.888671 
L 387.184848 -147.380837 
L 382.487879 -149.76182 
L 377.790909 -152.032657 
L 373.093939 -154.194871 
L 368.39697 -156.250655 
L 363.7 -158.203112 
L 359.00303 -160.056555 
L 354.306061 -161.816868 
L 349.609091 -163.491932 
L 344.912121 -165.092089 
L 340.215152 -166.630642 
L 335.518182 -168.124343 
L 330.821212 -169.59381 
L 326.124242 -171.063824 
L 321.427273 -172.563405 
L 316.730303 -174.125585 
L 312.033333 -175.786775 
L 307.336364 -177.585645 
L 302.639394 -179.561462 
L 297.942424 -181.751836 
L 293.245455 -184.18994 
L 288.548485 -186.901271 
L 283.851515 -189.900139 
L 279.154545 -193.186129 
L 274.457576 -196.74085 
L 269.760606 -200.525308 
L 265.063636 -204.478293 
L 260.366667 -208.516081 
L 255.669697 -212.533732 
L 250.972727 -216.408109 
L 246.275758 -220.002609 
L 241.578788 -223.17341 
L 236.881818 -225.776898 
L 232.184848 -227.677722 
L 227.487879 -228.756901 
L 222.790909 -228.919273 
L 218.093939 -228.099659 
L 213.39697 -226.267184 
L 208.7 -223.427337 
L 204.00303 -219.621614 
L 199.306061 -214.924732 
L 194.609091 -209.439718 
L 189.912121 -203.29129 
L 185.215152 -196.618138 
L 180.518182 -189.564767 
L 175.821212 -182.273569 
L 171.124242 -174.877698 
L 166.427273 -167.495255 
L 161.730303 -160.225052 
L 157.033333 -153.144117 
L 152.336364 -146.3069 
L 147.639394 -139.745991 
L 142.942424 -133.474078 
L 138.245455 -127.486796 
L 133.548485 -121.766103 
L 128.851515 -116.283841 
L 124.154545 -111.005182 
L 119.457576 -105.89175 
L 114.760606 -100.904248 
L 110.063636 -96.004534 
L 105.366667 -91.157116 
L 100.669697 -86.330122 
L 95.972727 -81.495794 
L 91.275758 -76.630619 
L 86.578788 -71.715178 
L 81.881818 -66.733802 
L 77.184848 -61.674127 
L 72.487879 -56.526603 
L 67.790909 -51.283995 
L 63.093939 -45.940931 
L 58.39697 -40.493497 
L 53.7 -34.938891 
z
" style="stroke: #fcd34d; stroke-opacity: 0.3"/>
    </defs>
    <g clip-path="url(#pe8162f6071)">
     <use xlink:href="#m0e6a800e41" x="0" y="347.04" style="fill: #fcd34d; fill-opacity: 0.3; stroke: #fcd34d; stroke-opacity: 0.3"/>
    </g>
   </g>
   <g id="patch_2">
    <path d="M 123.45 256.68 
L 146.7 251.136 
L 169.95 217.872 
L 137.4 184.608 
z
" clip-path="url(#pe8162f6071)" style="fill: #e2e8f0; stroke: #e2e8f0; stroke-linejoin: miter"/>
   </g>
   <g id="patch_3">
    <path d="M 171.567651 127.767679 
Q 216.55733 111.486711 253.95119 137.769351 
L 255.820043 135.110425 
Q 258.815589 139.665478 261.43183 144.49694 
Q 256.224016 142.72314 251.219791 141.655475 
L 253.088643 138.996548 
Q 216.333568 113.162884 172.078079 129.178162 
L 171.567651 127.767679 
z
" clip-path="url(#pe8162f6071)" style="fill: #f97316; stroke: #f97316; stroke-linecap: round"/>
   </g>
   <g id="patch_4">
    <path d="M 261.332349 202.640321 
Q 216.34267 218.921289 178.94881 192.638649 
L 177.079957 195.297575 
Q 174.084411 190.742522 171.46817 185.91106 
Q 176.675984 187.68486 181.680209 188.752525 
L 179.811357 191.411452 
Q 216.566432 217.245116 260.821921 201.229838 
L 261.332349 202.640321 
z
" clip-path="url(#pe8162f6071)" style="fill: #f97316; stroke: #f97316; stroke-linecap: round"/>
   </g>
   <g id="line2d_1">
    <path d="M 53.7 312.101109 
L 58.39697 306.546503 
L 63.093939 301.099069 
L 67.790909 295.756005 
L 72.487879 290.513397 
L 77.184848 285.365873 
L 81.881818 280.306198 
L 86.578788 275.324822 
L 91.275758 270.409381 
L 95.972727 265.544206 
L 100.669697 260.709878 
L 105.366667 255.882884 
L 110.063636 251.035466 
L 114.760606 246.135752 
L 119.457576 241.14825 
L 124.154545 236.034818 
L 128.851515 230.756159 
L 133.548485 225.273897 
L 138.245455 219.553204 
L 142.942424 213.565922 
L 147.639394 207.294009 
L 152.336364 200.7331 
L 157.033333 193.895883 
L 161.730303 186.814948 
L 166.427273 179.544745 
L 171.124242 172.162302 
L 175.821212 164.766431 
L 180.518182 157.475233 
L 185.215152 150.421862 
L 189.912121 143.74871 
L 194.609091 137.600282 
L 199.306061 132.115268 
L 204.00303 127.418386 
L 208.7 123.612663 
L 213.39697 120.772816 
L 218.093939 118.940341 
L 222.790909 118.120727 
L 227.487879 118.283099 
L 232.184848 119.362278 
L 236.881818 121.263102 
L 241.578788 123.86659 
L 246.275758 127.037391 
L 250.972727 130.631891 
L 255.669697 134.506268 
L 260.366667 138.523919 
L 265.063636 142.561707 
L 269.760606 146.514692 
L 274.457576 150.29915 
L 279.154545 153.853871 
L 283.851515 157.139861 
L 288.548485 160.138729 
L 293.245455 162.85006 
L 297.942424 165.288164 
L 302.639394 167.478538 
L 307.336364 169.454355 
L 312.033333 171.253225 
L 316.730303 172.914415 
L 321.427273 174.476595 
L 326.124242 175.976176 
L 330.821212 177.44619 
L 335.518182 178.915657 
L 340.215152 180.409358 
L 344.912121 181.947911 
L 349.609091 183.548068 
L 354.306061 185.223132 
L 359.00303 186.983445 
L 363.7 188.836888 
L 368.39697 190.789345 
L 373.093939 192.845129 
L 377.790909 195.007343 
L 382.487879 197.27818 
L 387.184848 199.659163 
L 391.881818 202.151329 
L 396.578788 204.755375 
L 401.275758 207.471762 
L 405.972727 210.300787 
L 410.669697 213.242641 
L 415.366667 216.297443 
L 420.063636 219.465268 
L 424.760606 222.74616 
L 429.457576 226.140146 
L 434.154545 229.647243 
L 438.851515 233.267459 
L 443.548485 237.0008 
L 448.245455 240.847268 
L 452.942424 244.806867 
L 457.639394 248.879595 
L 462.336364 253.065454 
L 467.033333 257.364444 
L 471.730303 261.776566 
L 476.427273 266.301818 
L 481.124242 270.940202 
L 485.821212 275.691717 
L 490.518182 280.556364 
L 495.215152 285.534141 
L 499.912121 290.625051 
L 504.609091 295.829091 
L 509.306061 301.146263 
L 514.00303 306.576566 
L 518.7 312.12 
" clip-path="url(#pe8162f6071)" style="fill: none; stroke: #fcd34d; stroke-width: 2; stroke-linecap: square"/>
   </g>
   <g id="line2d_2">
    <path d="M 53.7 339.824887 
L 58.39697 334.272515 
L 63.093939 328.828508 
L 67.790909 323.490622 
L 72.487879 318.255728 
L 77.184848 313.119526 
L 81.881818 308.076232 
L 86.578788 303.118201 
L 91.275758 298.235545 
L 95.972727 293.415728 
L 100.669697 288.643215 
L 105.366667 283.899196 
L 110.063636 279.161464 
L 114.760606 274.404521 
L 119.457576 269.599974 
L 124.154545 264.717309 
L 128.851515 259.725089 
L 133.548485 254.592612 
L 138.245455 249.292018 
L 142.942424 243.800778 
L 147.639394 238.10446 
L 152.336364 232.199571 
L 157.033333 226.096262 
L 161.730303 219.820605 
L 166.427273 213.416159 
L 171.124242 206.944548 
L 175.821212 200.484822 
L 180.518182 194.131459 
L 185.215152 187.990985 
L 189.912121 182.177311 
L 194.609091 176.806043 
L 199.306061 171.988134 
L 204.00303 167.823356 
L 208.7 164.39413 
L 213.39697 161.760233 
L 218.093939 159.954858 
L 222.790909 158.9824 
L 227.487879 158.818156 
L 232.184848 159.409984 
L 236.881818 160.681755 
L 241.578788 162.538282 
L 246.275758 164.871287 
L 250.972727 167.565876 
L 255.669697 170.506994 
L 260.366667 173.585357 
L 265.063636 176.702456 
L 269.760606 179.774339 
L 274.457576 182.734027 
L 279.154545 185.532551 
L 283.851515 188.138717 
L 288.548485 190.537811 
L 293.245455 192.729502 
L 297.942424 194.725238 
L 302.639394 196.545417 
L 307.336364 198.216575 
L 312.033333 199.768802 
L 316.730303 201.233511 
L 321.427273 202.641639 
L 326.124242 204.022315 
L 330.821212 205.401962 
L 335.518182 206.803798 
L 340.215152 208.247648 
L 344.912121 209.750006 
L 349.609091 211.324273 
L 354.306061 212.981091 
L 359.00303 214.728736 
L 363.7 216.57351 
L 368.39697 218.520122 
L 373.093939 220.572022 
L 377.790909 222.731693 
L 382.487879 225.000888 
L 387.184848 227.380825 
L 391.881818 229.872336 
L 396.578788 232.475977 
L 401.275758 235.192117 
L 405.972727 238.020993 
L 410.669697 240.962759 
L 415.366667 244.01751 
L 420.063636 247.185305 
L 424.760606 250.46618 
L 429.457576 253.860157 
L 434.154545 257.367249 
L 438.851515 260.987462 
L 443.548485 264.720801 
L 448.245455 268.567269 
L 452.942424 272.526867 
L 457.639394 276.599595 
L 462.336364 280.785454 
L 467.033333 285.084444 
L 471.730303 289.496566 
L 476.427273 294.021818 
L 481.124242 298.660202 
L 485.821212 303.411717 
L 490.518182 308.276364 
L 495.215152 313.254141 
L 499.912121 318.345051 
L 504.609091 323.549091 
L 509.306061 328.866263 
L 514.00303 334.296566 
L 518.7 339.84 
" clip-path="url(#pe8162f6071)" style="fill: none; stroke: #fcd34d; stroke-width: 2; stroke-linecap: square"/>
   </g>
   <g id="line2d_3">
    <path d="M 216.45 118.120727 
L 286.2 173.534141 
" clip-path="url(#pe8162f6071)" style="fill: none; stroke-dasharray: 7.4,3.2; stroke-dashoffset: 0; stroke: #f97316; stroke-width: 2"/>
   </g>
   <g id="text_1">
    <!-- OD -->
    <g style="fill: #e8ecf4" transform="translate(30.45 62.64) scale(0.24 -0.24)">
     <defs>
      <path id="Arial-BoldMT-4f" d="M 278 2263 
Q 278 2963 488 3438 
Q 644 3788 914 4066 
Q 1184 4344 1506 4478 
Q 1934 4659 2494 4659 
Q 3506 4659 4114 4031 
Q 4722 3403 4722 2284 
Q 4722 1175 4119 548 
Q 3516 -78 2506 -78 
Q 1484 -78 881 545 
Q 278 1169 278 2263 
z
M 1231 2294 
Q 1231 1516 1590 1114 
Q 1950 713 2503 713 
Q 3056 713 3411 1111 
Q 3766 1509 3766 2306 
Q 3766 3094 3420 3481 
Q 3075 3869 2503 3869 
Q 1931 3869 1581 3476 
Q 1231 3084 1231 2294 
z
" transform="scale(0.015625)"/>
      <path id="Arial-BoldMT-44" d="M 463 4581 
L 2153 4581 
Q 2725 4581 3025 4494 
Q 3428 4375 3715 4072 
Q 4003 3769 4153 3330 
Q 4303 2891 4303 2247 
Q 4303 1681 4163 1272 
Q 3991 772 3672 463 
Q 3431 228 3022 97 
Q 2716 0 2203 0 
L 463 0 
L 463 4581 
z
M 1388 3806 
L 1388 772 
L 2078 772 
Q 2466 772 2638 816 
Q 2863 872 3011 1006 
Q 3159 1141 3253 1448 
Q 3347 1756 3347 2288 
Q 3347 2819 3253 3103 
Q 3159 3388 2990 3547 
Q 2822 3706 2563 3763 
Q 2369 3806 1803 3806 
L 1388 3806 
z
" transform="scale(0.015625)"/>
     </defs>
     <use xlink:href="#Arial-BoldMT-4f"/>
     <use xlink:href="#Arial-BoldMT-44" transform="translate(77.783203 0)"/>
    </g>
   </g>
   <g id="text_2">
    <!-- T -->
    <g style="fill: #e8ecf4" transform="translate(30.45 261.850312) scale(0.2 -0.2)">
     <defs>
      <path id="ArialMT-54" d="M 1659 0 
L 1659 4041 
L 150 4041 
L 150 4581 
L 3781 4581 
L 3781 4041 
L 2266 4041 
L 2266 0 
L 1659 0 
z
" transform="scale(0.015625)"/>
     </defs>
     <use xlink:href="#ArialMT-54"/>
    </g>
   </g>
   <g id="text_3">
    <!-- N -->
    <g style="fill: #e8ecf4" transform="translate(541.95 261.850312) scale(0.2 -0.2)">
     <defs>
      <path id="ArialMT-4e" d="M 488 0 
L 488 4581 
L 1109 4581 
L 3516 984 
L 3516 4581 
L 4097 4581 
L 4097 0 
L 3475 0 
L 1069 3600 
L 1069 0 
L 488 0 
z
" transform="scale(0.015625)"/>
     </defs>
     <use xlink:href="#ArialMT-4e"/>
    </g>
   </g>
  </g>
 </g>
 <defs>
  <clipPath id="pe8162f6071">
   <rect x="7.2" y="7.2" width="558" height="332.64"/>
  </clipPath>
 </defs>
</svg>
