<?xml version="1.0" encoding="utf-8" standalone="no"?>
<!DOCTYPE svg PUBLIC "-//W3C//DTD SVG 1.1//EN"
  "http://www.w3.org/Graphics/SVG/1.1/DTD/svg11.dtd">
<svg xmlns:xlink="http://www.w3.org/1999/xlink" width="460.8pt" height="457.92pt" viewBox="0 0 460.8 457.92" xmlns="http://www.w3.org/2000/svg" version="1.1">
 <metadata>
  <rdf:RDF xmlns:dc="http://purl.org/dc/elements/1.1/" xmlns:cc="http://creativecommons.org/ns#" xmlns:rdf="http://www.w3.org/1999/02/22-rdf-syntax-ns#">
   <cc:Work>
    <dc:type rdf:resource="http://purl.org/dc/dcmitype/StillImage"/>
    <dc:date>2026-05-28T00:54:13.459179</dc:date>
    <dc:format>image/svg+xml</dc:format>
    <dc:creator>
     <cc:Agent>
      <dc:title>Matplotlib v3.10.9, https://matplotlib.org/</dc:title>
     </cc:Agent>
    </dc:creator>
   </cc:Work>
  </rdf:RDF>
 </metadata>
 <defs>
  <style type="text/css">*{stroke-linejoin: round; stroke-linecap: butt}</style>
 </defs>
 <g id="figure_1">
  <g id="patch_1">
   <path d="M 0 457.92 
L 460.8 457.92 
L 460.8 0 
L 0 0 
z
" style="fill: #0a0e27"/>
  </g>
  <g id="axes_1">
   <g id="patch_2">
    <path d="M 230.4 413.76 
C 279.727777 413.76 327.041856 394.288306 361.921861 359.633333 
C 396.801867 324.97836 416.4 277.969533 416.4 228.96 
C 416.4 179.950467 396.801867 132.94164 361.921861 98.286667 
C 327.041856 63.631694 279.727777 44.16 230.4 44.16 
C 181.072223 44.16 133.758144 63.631694 98.878139 98.286667 
C 63.998133 132.94164 44.4 179.950467 44.4 228.96 
C 44.4 277.969533 63.998133 324.97836 98.878139 359.633333 
C 133.758144 394.288306 181.072223 413.76 230.4 413.76 
L 230.4 413.76 
z
" clip-path="url(#p571cae47d4)" style="fill: none; stroke: #475569; stroke-width: 3; stroke-linejoin: miter"/>
   </g>
   <g id="patch_3">
    <path d="M 230.4 358.32 
C 264.929444 358.32 298.049299 344.689814 322.465303 320.431333 
C 346.881307 296.172852 360.6 263.266673 360.6 228.96 
C 360.6 194.653327 346.881307 161.747148 322.465303 137.488667 
C 298.049299 113.230186 264.929444 99.6 230.4 99.6 
C 195.870556 99.6 162.750701 113.230186 138.334697 137.488667 
C 113.918693 161.747148 100.2 194.653327 100.2 228.96 
C 100.2 263.266673 113.918693 296.172852 138.334697 320.431333 
C 162.750701 344.689814 195.870556 358.32 230.4 358.32 
L 230.4 358.32 
z
" clip-path="url(#p571cae47d4)" style="fill: none; opacity: 0.8; stroke: #e2e8f0; stroke-width: 1.5; stroke-linejoin: miter"/>
   </g>
   <g id="patch_4">
    <path d="M 230.4 367.9296 
C 267.494488 367.9296 303.074676 353.286886 329.30444 327.226347 
C 355.534204 301.165807 370.272 265.815169 370.272 228.96 
C 370.272 192.104831 355.534204 156.754193 329.30444 130.693653 
C 303.074676 104.633114 267.494488 89.9904 230.4 89.9904 
C 193.305512 89.9904 157.725324 104.633114 131.49556 130.693653 
C 105.265796 156.754193 90.528 192.104831 90.528 228.96 
C 90.528 265.815169 105.265796 301.165807 131.49556 327.226347 
C 157.725324 353.286886 193.305512 367.9296 230.4 367.9296 
L 230.4 367.9296 
z
" clip-path="url(#p571cae47d4)" style="fill: none; opacity: 0.8; stroke: #e2e8f0; stroke-width: 1.5; stroke-linejoin: miter"/>
   </g>
   <g id="patch_5">
    <path d="M 230.4 377.5392 
C 270.059532 377.5392 308.100052 361.883958 336.143576 334.02136 
C 364.187101 306.158762 379.944 268.363664 379.944 228.96 
C 379.944 189.556336 364.187101 151.761238 336.143576 123.89864 
C 308.100052 96.036042 270.059532 80.3808 230.4 80.3808 
C 190.740468 80.3808 152.699948 96.036042 124.656424 123.89864 
C 96.612899 151.761238 80.856 189.556336 80.856 228.96 
C 80.856 268.363664 96.612899 306.158762 124.656424 334.02136 
C 152.699948 361.883958 190.740468 377.5392 230.4 377.5392 
L 230.4 377.5392 
z
" clip-path="url(#p571cae47d4)" style="fill: none; opacity: 0.8; stroke: #e2e8f0; stroke-width: 1.5; stroke-linejoin: miter"/>
   </g>
   <g id="patch_6">
    <path d="M 230.4 387.1488 
C 272.624577 387.1488 313.125429 370.48103 342.982713 340.816373 
C 372.839998 311.151716 389.616 270.91216 389.616 228.96 
C 389.616 187.00784 372.839998 146.768284 342.982713 117.103627 
C 313.125429 87.43897 272.624577 70.7712 230.4 70.7712 
C 188.175423 70.7712 147.674571 87.43897 117.817287 117.103627 
C 87.960002 146.768284 71.184 187.00784 71.184 228.96 
C 71.184 270.91216 87.960002 311.151716 117.817287 340.816373 
C 147.674571 370.48103 188.175423 387.1488 230.4 387.1488 
L 230.4 387.1488 
z
" clip-path="url(#p571cae47d4)" style="fill: none; opacity: 0.8; stroke: #e2e8f0; stroke-width: 1.5; stroke-linejoin: miter"/>
   </g>
   <g id="patch_7">
    <path d="M 230.4 396.7584 
C 275.189621 396.7584 318.150805 379.078102 349.82185 347.611387 
C 381.492895 316.144671 399.288 273.460656 399.288 228.96 
C 399.288 184.459344 381.492895 141.775329 349.82185 110.308613 
C 318.150805 78.841898 275.189621 61.1616 230.4 61.1616 
C 185.610379 61.1616 142.649195 78.841898 110.97815 110.308613 
C 79.307105 141.775329 61.512 184.459344 61.512 228.96 
C 61.512 273.460656 79.307105 316.144671 110.97815 347.611387 
C 142.649195 379.078102 185.610379 396.7584 230.4 396.7584 
L 230.4 396.7584 
z
" clip-path="url(#p571cae47d4)" style="fill: none; opacity: 0.8; stroke: #e2e8f0; stroke-width: 1.5; stroke-linejoin: miter"/>
   </g>
   <g id="patch_8">
    <path d="M 230.4 406.368 
C 277.754666 406.368 323.176182 387.675174 356.660987 354.4064 
C 390.145792 321.137626 408.96 276.009152 408.96 228.96 
C 408.96 181.910848 390.145792 136.782374 356.660987 103.5136 
C 323.176182 70.244826 277.754666 51.552 230.4 51.552 
C 183.045334 51.552 137.623818 70.244826 104.139013 103.5136 
C 70.654208 136.782374 51.84 181.910848 51.84 228.96 
C 51.84 276.009152 70.654208 321.137626 104.139013 354.4064 
C 137.623818 387.675174 183.045334 406.368 230.4 406.368 
L 230.4 406.368 
z
" clip-path="url(#p571cae47d4)" style="fill: none; opacity: 0.8; stroke: #e2e8f0; stroke-width: 1.5; stroke-linejoin: miter"/>
   </g>
   <g id="patch_9">
    <path d="M 149.859637 275.16 
L 150.607543 276.423791 
L 151.375535 277.675633 
L 152.163421 278.915212 
L 152.971004 280.142214 
L 153.798078 281.356331 
L 154.644436 282.557258 
L 155.509866 283.744693 
L 156.394149 284.918335 
L 157.297062 286.07789 
L 158.218379 287.223066 
L 159.157867 288.353575 
L 160.11529 289.469132 
L 161.090406 290.569456 
L 162.082971 291.65427 
L 163.092734 292.723301 
L 164.119442 293.77628 
L 165.162835 294.812941 
L 166.222652 295.833025 
L 167.298625 296.836274 
L 168.390483 297.822435 
L 169.497952 298.791261 
L 170.620752 299.742507 
L 171.758602 300.675933 
L 172.911214 301.591306 
L 174.078299 302.488394 
L 175.259563 303.366972 
L 176.454707 304.226818 
L 177.663433 305.067716 
L 178.885434 305.889455 
L 180.120404 306.691826 
L 181.368032 307.47463 
L 182.628003 308.237667 
L 183.9 308.980747 
L 185.183704 309.703682 
L 186.47879 310.406291 
L 187.784933 311.088395 
L 189.101805 311.749825 
L 190.429073 312.390412 
L 191.766404 313.009996 
L 193.11346 313.608421 
L 194.469903 314.185537 
L 195.835392 314.741197 
L 197.209581 315.275262 
L 198.592127 315.787598 
L 199.982679 316.278076 
L 201.38089 316.746571 
L 202.786405 317.192967 
L 204.198872 317.617151 
L 205.617935 318.019015 
L 207.043237 318.39846 
L 208.474419 318.755389 
L 209.91112 319.089712 
L 211.35298 319.401346 
L 212.799634 319.690212 
L 214.250719 319.956236 
L 215.70587 320.199353 
L 217.16472 320.419501 
L 218.626902 320.616625 
L 220.092047 320.790674 
L 221.559788 320.941606 
L 223.029754 321.069381 
L 224.501575 321.173969 
L 225.974882 321.255342 
L 227.449302 321.313481 
L 228.924465 321.348369 
L 230.4 321.36 
L 231.875535 321.348369 
L 233.350698 321.313481 
L 234.825118 321.255342 
L 236.298425 321.173969 
L 237.770246 321.069381 
L 239.240212 320.941606 
L 240.707953 320.790674 
L 242.173098 320.616625 
L 243.63528 320.419501 
L 245.09413 320.199353 
L 246.549281 319.956236 
L 248.000366 319.690212 
L 249.44702 319.401346 
L 250.88888 319.089712 
L 252.325581 318.755389 
L 253.756763 318.39846 
L 255.182065 318.019015 
L 256.601128 317.617151 
L 258.013595 317.192967 
L 259.41911 316.746571 
L 260.817321 316.278076 
L 262.207873 315.787598 
L 263.590419 315.275262 
L 264.964608 314.741197 
L 266.330097 314.185537 
L 267.68654 313.608421 
L 269.033596 313.009996 
L 270.370927 312.390412 
L 271.698195 311.749825 
L 273.015067 311.088395 
L 274.32121 310.406291 
L 275.616296 309.703682 
L 276.9 308.980747 
L 319.68 382.599835 
L 317.215289 383.98787 
L 314.728723 385.336878 
L 312.220928 386.646519 
L 309.692534 387.916464 
L 307.14418 389.146391 
L 304.576505 390.335993 
L 301.990156 391.484969 
L 299.385786 392.593031 
L 296.764048 393.659898 
L 294.125604 394.685304 
L 291.471117 395.668988 
L 288.801256 396.610705 
L 286.116692 397.510217 
L 283.418102 398.367297 
L 280.706165 399.181729 
L 277.981564 399.95331 
L 275.244985 400.681843 
L 272.497116 401.367147 
L 269.738649 402.009048 
L 266.970279 402.607384 
L 264.192702 403.162006 
L 261.406619 403.672774 
L 258.612729 404.139558 
L 255.811738 404.562242 
L 253.004349 404.940719 
L 250.191269 405.274894 
L 247.373207 405.564683 
L 244.550872 405.810012 
L 241.724975 406.01082 
L 238.896227 406.167057 
L 236.06534 406.278683 
L 233.233027 406.345669 
L 230.4 406.368 
L 227.566973 406.345669 
L 224.73466 406.278683 
L 221.903773 406.167057 
L 219.075025 406.01082 
L 216.249128 405.810012 
L 213.426793 405.564683 
L 210.608731 405.274894 
L 207.795651 404.940719 
L 204.988262 404.562242 
L 202.187271 404.139558 
L 199.393381 403.672774 
L 196.607298 403.162006 
L 193.829721 402.607384 
L 191.061351 402.009048 
L 188.302884 401.367147 
L 185.555015 400.681843 
L 182.818436 399.95331 
L 180.093835 399.181729 
L 177.381898 398.367297 
L 174.683308 397.510217 
L 171.998744 396.610705 
L 169.328883 395.668988 
L 166.674396 394.685304 
L 164.035952 393.659898 
L 161.414214 392.593031 
L 158.809844 391.484969 
L 156.223495 390.335993 
L 153.65582 389.146391 
L 151.107466 387.916464 
L 148.579072 386.646519 
L 146.071277 385.336878 
L 143.584711 383.98787 
L 141.12 382.599835 
L 138.677765 381.173121 
L 136.258621 379.708089 
L 133.863176 378.205107 
L 131.492033 376.664553 
L 129.145791 375.086815 
L 126.825038 373.472291 
L 124.53036 371.821386 
L 122.262334 370.134517 
L 120.021531 368.412107 
L 117.808516 366.654592 
L 115.623844 364.862413 
L 113.468067 363.03602 
L 111.341727 361.175875 
L 109.245359 359.282446 
L 107.179492 357.356208 
L 105.144644 355.397648 
L 103.141329 353.407257 
L 101.17005 351.385537 
L 99.231305 349.332998 
L 97.32558 347.250155 
L 95.453356 345.137533 
L 93.615104 342.995664 
L 91.811287 340.825088 
L 90.042359 338.626349 
L 88.308766 336.400003 
L 86.610943 334.14661 
L 84.949318 331.866736 
L 83.32431 329.560956 
L 81.736327 327.229851 
L 80.185769 324.874006 
L 78.673027 322.494016 
L 77.198482 320.090479 
L 75.762504 317.664 
z
" clip-path="url(#p571cae47d4)" style="fill: #ef4444; opacity: 0.4; stroke: #ef4444; stroke-linejoin: miter"/>
   </g>
   <g id="line2d_1">
    <path d="M 118.8 376.8 
L 118.8 81.12 
" clip-path="url(#p571cae47d4)" style="fill: none; stroke: #94a3b8; stroke-opacity: 0.7; stroke-width: 1.5; stroke-linecap: square"/>
   </g>
   <g id="line2d_2">
    <path d="M 81.6 339.84 
L 379.2 339.84 
" clip-path="url(#p571cae47d4)" style="fill: none; stroke: #94a3b8; stroke-opacity: 0.7; stroke-width: 1.5; stroke-linecap: square"/>
   </g>
   <g id="line2d_3">
    <path d="M 134.742857 376.8 
L 134.742857 81.12 
" clip-path="url(#p571cae47d4)" style="fill: none; stroke: #94a3b8; stroke-opacity: 0.7; stroke-width: 1.5; stroke-linecap: square"/>
   </g>
   <g id="line2d_4">
    <path d="M 81.6 324 
L 379.2 324 
" clip-path="url(#p571cae47d4)" style="fill: none; stroke: #94a3b8; stroke-opacity: 0.7; stroke-width: 1.5; stroke-linecap: square"/>
   </g>
   <g id="line2d_5">
    <path d="M 150.685714 376.8 
L 150.685714 81.12 
" clip-path="url(#p571cae47d4)" style="fill: none; stroke: #94a3b8; stroke-opacity: 0.7; stroke-width: 1.5; stroke-linecap: square"/>
   </g>
   <g id="line2d_6">
    <path d="M 81.6 308.16 
L 379.2 308.16 
" clip-path="url(#p571cae47d4)" style="fill: none; stroke: #94a3b8; stroke-opacity: 0.7; stroke-width: 1.5; stroke-linecap: square"/>
   </g>
   <g id="line2d_7">
    <path d="M 166.628571 376.8 
L 166.628571 81.12 
" clip-path="url(#p571cae47d4)" style="fill: none; stroke: #94a3b8; stroke-opacity: 0.7; stroke-width: 1.5; stroke-linecap: square"/>
   </g>
   <g id="line2d_8">
    <path d="M 81.6 292.32 
L 379.2 292.32 
" clip-path="url(#p571cae47d4)" style="fill: none; stroke: #94a3b8; stroke-opacity: 0.7; stroke-width: 1.5; stroke-linecap: square"/>
   </g>
   <g id="line2d_9">
    <path d="M 182.571429 376.8 
L 182.571429 81.12 
" clip-path="url(#p571cae47d4)" style="fill: none; stroke: #94a3b8; stroke-opacity: 0.7; stroke-width: 1.5; stroke-linecap: square"/>
   </g>
   <g id="line2d_10">
    <path d="M 81.6 276.48 
L 379.2 276.48 
" clip-path="url(#p571cae47d4)" style="fill: none; stroke: #94a3b8; stroke-opacity: 0.7; stroke-width: 1.5; stroke-linecap: square"/>
   </g>
   <g id="line2d_11">
    <path d="M 198.514286 376.8 
L 198.514286 81.12 
" clip-path="url(#p571cae47d4)" style="fill: none; stroke: #94a3b8; stroke-opacity: 0.7; stroke-width: 1.5; stroke-linecap: square"/>
   </g>
   <g id="line2d_12">
    <path d="M 81.6 260.64 
L 379.2 260.64 
" clip-path="url(#p571cae47d4)" style="fill: none; stroke: #94a3b8; stroke-opacity: 0.7; stroke-width: 1.5; stroke-linecap: square"/>
   </g>
   <g id="line2d_13">
    <path d="M 214.457143 376.8 
L 214.457143 81.12 
" clip-path="url(#p571cae47d4)" style="fill: none; stroke: #94a3b8; stroke-opacity: 0.7; stroke-width: 1.5; stroke-linecap: square"/>
   </g>
   <g id="line2d_14">
    <path d="M 81.6 244.8 
L 379.2 244.8 
" clip-path="url(#p571cae47d4)" style="fill: none; stroke: #94a3b8; stroke-opacity: 0.7; stroke-width: 1.5; stroke-linecap: square"/>
   </g>
   <g id="line2d_15">
    <path d="M 230.4 376.8 
L 230.4 81.12 
" clip-path="url(#p571cae47d4)" style="fill: none; stroke: #94a3b8; stroke-opacity: 0.7; stroke-width: 1.5; stroke-linecap: square"/>
   </g>
   <g id="line2d_16">
    <path d="M 81.6 228.96 
L 379.2 228.96 
" clip-path="url(#p571cae47d4)" style="fill: none; stroke: #94a3b8; stroke-opacity: 0.7; stroke-width: 1.5; stroke-linecap: square"/>
   </g>
   <g id="line2d_17">
    <path d="M 246.342857 376.8 
L 246.342857 81.12 
" clip-path="url(#p571cae47d4)" style="fill: none; stroke: #94a3b8; stroke-opacity: 0.7; stroke-width: 1.5; stroke-linecap: square"/>
   </g>
   <g id="line2d_18">
    <path d="M 81.6 213.12 
L 379.2 213.12 
" clip-path="url(#p571cae47d4)" style="fill: none; stroke: #94a3b8; stroke-opacity: 0.7; stroke-width: 1.5; stroke-linecap: square"/>
   </g>
   <g id="line2d_19">
    <path d="M 262.285714 376.8 
L 262.285714 81.12 
" clip-path="url(#p571cae47d4)" style="fill: none; stroke: #94a3b8; stroke-opacity: 0.7; stroke-width: 1.5; stroke-linecap: square"/>
   </g>
   <g id="line2d_20">
    <path d="M 81.6 197.28 
L 379.2 197.28 
" clip-path="url(#p571cae47d4)" style="fill: none; stroke: #94a3b8; stroke-opacity: 0.7; stroke-width: 1.5; stroke-linecap: square"/>
   </g>
   <g id="line2d_21">
    <path d="M 278.228571 376.8 
L 278.228571 81.12 
" clip-path="url(#p571cae47d4)" style="fill: none; stroke: #94a3b8; stroke-opacity: 0.7; stroke-width: 1.5; stroke-linecap: square"/>
   </g>
   <g id="line2d_22">
    <path d="M 81.6 181.44 
L 379.2 181.44 
" clip-path="url(#p571cae47d4)" style="fill: none; stroke: #94a3b8; stroke-opacity: 0.7; stroke-width: 1.5; stroke-linecap: square"/>
   </g>
   <g id="line2d_23">
    <path d="M 294.171429 376.8 
L 294.171429 81.12 
" clip-path="url(#p571cae47d4)" style="fill: none; stroke: #94a3b8; stroke-opacity: 0.7; stroke-width: 1.5; stroke-linecap: square"/>
   </g>
   <g id="line2d_24">
    <path d="M 81.6 165.6 
L 379.2 165.6 
" clip-path="url(#p571cae47d4)" style="fill: none; stroke: #94a3b8; stroke-opacity: 0.7; stroke-width: 1.5; stroke-linecap: square"/>
   </g>
   <g id="line2d_25">
    <path d="M 310.114286 376.8 
L 310.114286 81.12 
" clip-path="url(#p571cae47d4)" style="fill: none; stroke: #94a3b8; stroke-opacity: 0.7; stroke-width: 1.5; stroke-linecap: square"/>
   </g>
   <g id="line2d_26">
    <path d="M 81.6 149.76 
L 379.2 149.76 
" clip-path="url(#p571cae47d4)" style="fill: none; stroke: #94a3b8; stroke-opacity: 0.7; stroke-width: 1.5; stroke-linecap: square"/>
   </g>
   <g id="line2d_27">
    <path d="M 326.057143 376.8 
L 326.057143 81.12 
" clip-path="url(#p571cae47d4)" style="fill: none; stroke: #94a3b8; stroke-opacity: 0.7; stroke-width: 1.5; stroke-linecap: square"/>
   </g>
   <g id="line2d_28">
    <path d="M 81.6 133.92 
L 379.2 133.92 
" clip-path="url(#p571cae47d4)" style="fill: none; stroke: #94a3b8; stroke-opacity: 0.7; stroke-width: 1.5; stroke-linecap: square"/>
   </g>
   <g id="line2d_29">
    <path d="M 342 376.8 
L 342 81.12 
" clip-path="url(#p571cae47d4)" style="fill: none; stroke: #94a3b8; stroke-opacity: 0.7; stroke-width: 1.5; stroke-linecap: square"/>
   </g>
   <g id="line2d_30">
    <path d="M 81.6 118.08 
L 379.2 118.08 
" clip-path="url(#p571cae47d4)" style="fill: none; stroke: #94a3b8; stroke-opacity: 0.7; stroke-width: 1.5; stroke-linecap: square"/>
   </g>
   <g id="line2d_31">
    <path d="M 149.859637 275.16 
L 150.607543 276.423791 
L 151.375535 277.675633 
L 152.163421 278.915212 
L 152.971004 280.142214 
L 153.798078 281.356331 
L 154.644436 282.557258 
L 155.509866 283.744693 
L 156.394149 284.918335 
L 157.297062 286.07789 
L 158.218379 287.223066 
L 159.157867 288.353575 
L 160.11529 289.469132 
L 161.090406 290.569456 
L 162.082971 291.65427 
L 163.092734 292.723301 
L 164.119442 293.77628 
L 165.162835 294.812941 
L 166.222652 295.833025 
L 167.298625 296.836274 
L 168.390483 297.822435 
L 169.497952 298.791261 
L 170.620752 299.742507 
L 171.758602 300.675933 
L 172.911214 301.591306 
L 174.078299 302.488394 
L 175.259563 303.366972 
L 176.454707 304.226818 
L 177.663433 305.067716 
L 178.885434 305.889455 
L 180.120404 306.691826 
L 181.368032 307.47463 
L 182.628003 308.237667 
L 183.9 308.980747 
L 185.183704 309.703682 
L 186.47879 310.406291 
L 187.784933 311.088395 
L 189.101805 311.749825 
L 190.429073 312.390412 
L 191.766404 313.009996 
L 193.11346 313.608421 
L 194.469903 314.185537 
L 195.835392 314.741197 
L 197.209581 315.275262 
L 198.592127 315.787598 
L 199.982679 316.278076 
L 201.38089 316.746571 
L 202.786405 317.192967 
L 204.198872 317.617151 
L 205.617935 318.019015 
L 207.043237 318.39846 
L 208.474419 318.755389 
L 209.91112 319.089712 
L 211.35298 319.401346 
L 212.799634 319.690212 
L 214.250719 319.956236 
L 215.70587 320.199353 
L 217.16472 320.419501 
L 218.626902 320.616625 
L 220.092047 320.790674 
L 221.559788 320.941606 
L 223.029754 321.069381 
L 224.501575 321.173969 
L 225.974882 321.255342 
L 227.449302 321.313481 
L 228.924465 321.348369 
L 230.4 321.36 
L 231.875535 321.348369 
L 233.350698 321.313481 
L 234.825118 321.255342 
L 236.298425 321.173969 
L 237.770246 321.069381 
L 239.240212 320.941606 
L 240.707953 320.790674 
L 242.173098 320.616625 
L 243.63528 320.419501 
L 245.09413 320.199353 
L 246.549281 319.956236 
L 248.000366 319.690212 
L 249.44702 319.401346 
L 250.88888 319.089712 
L 252.325581 318.755389 
L 253.756763 318.39846 
L 255.182065 318.019015 
L 256.601128 317.617151 
L 258.013595 317.192967 
L 259.41911 316.746571 
L 260.817321 316.278076 
L 262.207873 315.787598 
L 263.590419 315.275262 
L 264.964608 314.741197 
L 266.330097 314.185537 
L 267.68654 313.608421 
L 269.033596 313.009996 
L 270.370927 312.390412 
L 271.698195 311.749825 
L 273.015067 311.088395 
L 274.32121 310.406291 
L 275.616296 309.703682 
L 276.9 308.980747 
" clip-path="url(#p571cae47d4)" style="fill: none; stroke: #ef4444; stroke-width: 2; stroke-linecap: square"/>
   </g>
   <g id="line2d_32">
    <path d="M 75.762504 317.664 
L 77.198482 320.090479 
L 78.673027 322.494016 
L 80.185769 324.874006 
L 81.736327 327.229851 
L 83.32431 329.560956 
L 84.949318 331.866736 
L 86.610943 334.14661 
L 88.308766 336.400003 
L 90.042359 338.626349 
L 91.811287 340.825088 
L 93.615104 342.995664 
L 95.453356 345.137533 
L 97.32558 347.250155 
L 99.231305 349.332998 
L 101.17005 351.385537 
L 103.141329 353.407257 
L 105.144644 355.397648 
L 107.179492 357.356208 
L 109.245359 359.282446 
L 111.341727 361.175875 
L 113.468067 363.03602 
L 115.623844 364.862413 
L 117.808516 366.654592 
L 120.021531 368.412107 
L 122.262334 370.134517 
L 124.53036 371.821386 
L 126.825038 373.472291 
L 129.145791 375.086815 
L 131.492033 376.664553 
L 133.863176 378.205107 
L 136.258621 379.708089 
L 138.677765 381.173121 
L 141.12 382.599835 
L 143.584711 383.98787 
L 146.071277 385.336878 
L 148.579072 386.646519 
L 151.107466 387.916464 
L 153.65582 389.146391 
L 156.223495 390.335993 
L 158.809844 391.484969 
L 161.414214 392.593031 
L 164.035952 393.659898 
L 166.674396 394.685304 
L 169.328883 395.668988 
L 171.998744 396.610705 
L 174.683308 397.510217 
L 177.381898 398.367297 
L 180.093835 399.181729 
L 182.818436 399.95331 
L 185.555015 400.681843 
L 188.302884 401.367147 
L 191.061351 402.009048 
L 193.829721 402.607384 
L 196.607298 403.162006 
L 199.393381 403.672774 
L 202.187271 404.139558 
L 204.988262 404.562242 
L 207.795651 404.940719 
L 210.608731 405.274894 
L 213.426793 405.564683 
L 216.249128 405.810012 
L 219.075025 406.01082 
L 221.903773 406.167057 
L 224.73466 406.278683 
L 227.566973 406.345669 
L 230.4 406.368 
L 233.233027 406.345669 
L 236.06534 406.278683 
L 238.896227 406.167057 
L 241.724975 406.01082 
L 244.550872 405.810012 
L 247.373207 405.564683 
L 250.191269 405.274894 
L 253.004349 404.940719 
L 255.811738 404.562242 
L 258.612729 404.139558 
L 261.406619 403.672774 
L 264.192702 403.162006 
L 266.970279 402.607384 
L 269.738649 402.009048 
L 272.497116 401.367147 
L 275.244985 400.681843 
L 277.981564 399.95331 
L 280.706165 399.181729 
L 283.418102 398.367297 
L 286.116692 397.510217 
L 288.801256 396.610705 
L 291.471117 395.668988 
L 294.125604 394.685304 
L 296.764048 393.659898 
L 299.385786 392.593031 
L 301.990156 391.484969 
L 304.576505 390.335993 
L 307.14418 389.146391 
L 309.692534 387.916464 
L 312.220928 386.646519 
L 314.728723 385.336878 
L 317.215289 383.98787 
L 319.68 382.599835 
" clip-path="url(#p571cae47d4)" style="fill: none; stroke: #ef4444; stroke-width: 2; stroke-linecap: square"/>
   </g>
   <g id="line2d_33">
    <path d="M 149.859637 275.16 
L 75.762504 317.664 
" clip-path="url(#p571cae47d4)" style="fill: none; stroke: #ef4444; stroke-width: 2; stroke-linecap: square"/>
   </g>
   <g id="line2d_34">
    <path d="M 276.9 308.980747 
L 319.68 382.599835 
" clip-path="url(#p571cae47d4)" style="fill: none; stroke: #ef4444; stroke-width: 2; stroke-linecap: square"/>
   </g>
   <g id="text_1">
    <!-- OD -->
    <g style="fill: #e8ecf4" transform="translate(25.8 25.68) scale(0.24 -0.24)">
     <defs>
      <path id="Arial-BoldMT-4f" d="M 278 2263 
Q 278 2963 488 3438 
Q 644 3788 914 4066 
Q 1184 4344 1506 4478 
Q 1934 4659 2494 4659 
Q 3506 4659 4114 4031 
Q 4722 3403 4722 2284 
Q 4722 1175 4119 548 
Q 3516 -78 2506 -78 
Q 1484 -78 881 545 
Q 278 1169 278 2263 
z
M 1231 2294 
Q 1231 1516 1590 1114 
Q 1950 713 2503 713 
Q 3056 713 3411 1111 
Q 3766 1509 3766 2306 
Q 3766 3094 3420 3481 
Q 3075 3869 2503 3869 
Q 1931 3869 1581 3476 
Q 1231 3084 1231 2294 
z
" transform="scale(0.015625)"/>
      <path id="Arial-BoldMT-44" d="M 463 4581 
L 2153 4581 
Q 2725 4581 3025 4494 
Q 3428 4375 3715 4072 
Q 4003 3769 4153 3330 
Q 4303 2891 4303 2247 
Q 4303 1681 4163 1272 
Q 3991 772 3672 463 
Q 3431 228 3022 97 
Q 2716 0 2203 0 
L 463 0 
L 463 4581 
z
M 1388 3806 
L 1388 772 
L 2078 772 
Q 2466 772 2638 816 
Q 2863 872 3011 1006 
Q 3159 1141 3253 1448 
Q 3347 1756 3347 2288 
Q 3347 2819 3253 3103 
Q 3159 3388 2990 3547 
Q 2822 3706 2563 3763 
Q 2369 3806 1803 3806 
L 1388 3806 
z
" transform="scale(0.015625)"/>
     </defs>
     <use xlink:href="#Arial-BoldMT-4f"/>
     <use xlink:href="#Arial-BoldMT-44" transform="translate(77.783203 0)"/>
    </g>
   </g>
   <g id="text_2">
    <!-- T -->
    <g style="fill: #e8ecf4" transform="translate(25.8 234.130312) scale(0.2 -0.2)">
     <defs>
      <path id="ArialMT-54" d="M 1659 0 
L 1659 4041 
L 150 4041 
L 150 4581 
L 3781 4581 
L 3781 4041 
L 2266 4041 
L 2266 0 
L 1659 0 
z
" transform="scale(0.015625)"/>
     </defs>
     <use xlink:href="#ArialMT-54"/>
    </g>
   </g>
   <g id="text_3">
    <!-- N -->
    <g style="fill: #e8ecf4" transform="translate(435 234.130312) scale(0.2 -0.2)">
     <defs>
      <path id="ArialMT-4e" d="M 488 0 
L 488 4581 
L 1109 4581 
L 3516 984 
L 3516 4581 
L 4097 4581 
L 4097 0 
L 3475 0 
L 1069 3600 
L 1069 0 
L 488 0 
z
" transform="scale(0.015625)"/>
     </defs>
     <use xlink:href="#ArialMT-4e"/>
    </g>
   </g>
   <g id="text_4">
    <!-- S -->
    <g style="fill: #e8ecf4" transform="translate(223.729687 25.68) scale(0.2 -0.2)">
     <defs>
      <path id="ArialMT-53" d="M 288 1472 
L 859 1522 
Q 900 1178 1048 958 
Q 1197 738 1509 602 
Q 1822 466 2213 466 
Q 2559 466 2825 569 
Q 3091 672 3220 851 
Q 3350 1031 3350 1244 
Q 3350 1459 3225 1620 
Q 3100 1781 2813 1891 
Q 2628 1963 1997 2114 
Q 1366 2266 1113 2400 
Q 784 2572 623 2826 
Q 463 3081 463 3397 
Q 463 3744 659 4045 
Q 856 4347 1234 4503 
Q 1613 4659 2075 4659 
Q 2584 4659 2973 4495 
Q 3363 4331 3572 4012 
Q 3781 3694 3797 3291 
L 3216 3247 
Q 3169 3681 2898 3903 
Q 2628 4125 2100 4125 
Q 1550 4125 1298 3923 
Q 1047 3722 1047 3438 
Q 1047 3191 1225 3031 
Q 1400 2872 2139 2705 
Q 2878 2538 3153 2413 
Q 3553 2228 3743 1945 
Q 3934 1663 3934 1294 
Q 3934 928 3725 604 
Q 3516 281 3123 101 
Q 2731 -78 2241 -78 
Q 1619 -78 1198 103 
Q 778 284 539 648 
Q 300 1013 288 1472 
z
" transform="scale(0.015625)"/>
     </defs>
     <use xlink:href="#ArialMT-53"/>
    </g>
   </g>
   <g id="text_5">
    <!-- I -->
    <g style="fill: #e8ecf4" transform="translate(227.621875 432.24) scale(0.2 -0.2)">
     <defs>
      <path id="ArialMT-49" d="M 597 0 
L 597 4581 
L 1203 4581 
L 1203 0 
L 597 0 
z
" transform="scale(0.015625)"/>
     </defs>
     <use xlink:href="#ArialMT-49"/>
    </g>
   </g>
   <g id="text_6">
    <!-- 210°-300° -->
    <g style="fill: #ef4444" transform="translate(68.915469 354.535406) scale(0.14 -0.14)">
     <defs>
      <path id="ArialMT-32" d="M 3222 541 
L 3222 0 
L 194 0 
Q 188 203 259 391 
Q 375 700 629 1000 
Q 884 1300 1366 1694 
Q 2113 2306 2375 2664 
Q 2638 3022 2638 3341 
Q 2638 3675 2398 3904 
Q 2159 4134 1775 4134 
Q 1369 4134 1125 3890 
Q 881 3647 878 3216 
L 300 3275 
Q 359 3922 746 4261 
Q 1134 4600 1788 4600 
Q 2447 4600 2831 4234 
Q 3216 3869 3216 3328 
Q 3216 3053 3103 2787 
Q 2991 2522 2730 2228 
Q 2469 1934 1863 1422 
Q 1356 997 1212 845 
Q 1069 694 975 541 
L 3222 541 
z
" transform="scale(0.015625)"/>
      <path id="ArialMT-31" d="M 2384 0 
L 1822 0 
L 1822 3584 
Q 1619 3391 1289 3197 
Q 959 3003 697 2906 
L 697 3450 
Q 1169 3672 1522 3987 
Q 1875 4303 2022 4600 
L 2384 4600 
L 2384 0 
z
" transform="scale(0.015625)"/>
      <path id="ArialMT-30" d="M 266 2259 
Q 266 3072 433 3567 
Q 600 4063 929 4331 
Q 1259 4600 1759 4600 
Q 2128 4600 2406 4451 
Q 2684 4303 2865 4023 
Q 3047 3744 3150 3342 
Q 3253 2941 3253 2259 
Q 3253 1453 3087 958 
Q 2922 463 2592 192 
Q 2263 -78 1759 -78 
Q 1097 -78 719 397 
Q 266 969 266 2259 
z
M 844 2259 
Q 844 1131 1108 757 
Q 1372 384 1759 384 
Q 2147 384 2411 759 
Q 2675 1134 2675 2259 
Q 2675 3391 2411 3762 
Q 2147 4134 1753 4134 
Q 1366 4134 1134 3806 
Q 844 3388 844 2259 
z
" transform="scale(0.015625)"/>
      <path id="ArialMT-b0" d="M 400 3794 
Q 400 4153 654 4406 
Q 909 4659 1266 4659 
Q 1628 4659 1881 4406 
Q 2134 4153 2134 3794 
Q 2134 3434 1879 3179 
Q 1625 2925 1266 2925 
Q 909 2925 654 3178 
Q 400 3431 400 3794 
z
M 741 3794 
Q 741 3575 895 3420 
Q 1050 3266 1269 3266 
Q 1484 3266 1639 3420 
Q 1794 3575 1794 3794 
Q 1794 4013 1639 4167 
Q 1484 4322 1269 4322 
Q 1050 4322 895 4167 
Q 741 4013 741 3794 
z
" transform="scale(0.015625)"/>
      <path id="ArialMT-2d" d="M 203 1375 
L 203 1941 
L 1931 1941 
L 1931 1375 
L 203 1375 
z
" transform="scale(0.015625)"/>
      <path id="ArialMT-33" d="M 269 1209 
L 831 1284 
Q 928 806 1161 595 
Q 1394 384 1728 384 
Q 2125 384 2398 659 
Q 2672 934 2672 1341 
Q 2672 1728 2419 1979 
Q 2166 2231 1775 2231 
Q 1616 2231 1378 2169 
L 1441 2663 
Q 1497 2656 1531 2656 
Q 1891 2656 2178 2843 
Q 2466 3031 2466 3422 
Q 2466 3731 2256 3934 
Q 2047 4138 1716 4138 
Q 1388 4138 1169 3931 
Q 950 3725 888 3313 
L 325 3413 
Q 428 3978 793 4289 
Q 1159 4600 1703 4600 
Q 2078 4600 2393 4439 
Q 2709 4278 2876 4000 
Q 3044 3722 3044 3409 
Q 3044 3113 2884 2869 
Q 2725 2625 2413 2481 
Q 2819 2388 3044 2092 
Q 3269 1797 3269 1353 
Q 3269 753 2831 336 
Q 2394 -81 1725 -81 
Q 1122 -81 723 278 
Q 325 638 269 1209 
z
" transform="scale(0.015625)"/>
     </defs>
     <use xlink:href="#ArialMT-32"/>
     <use xlink:href="#ArialMT-31" transform="translate(55.615234 0)"/>
     <use xlink:href="#ArialMT-30" transform="translate(111.230469 0)"/>
     <use xlink:href="#ArialMT-b0" transform="translate(166.845703 0)"/>
     <use xlink:href="#ArialMT-2d" transform="translate(206.835938 0)"/>
     <use xlink:href="#ArialMT-33" transform="translate(240.136719 0)"/>
     <use xlink:href="#ArialMT-30" transform="translate(295.751953 0)"/>
     <use xlink:href="#ArialMT-30" transform="translate(351.367188 0)"/>
     <use xlink:href="#ArialMT-b0" transform="translate(406.982422 0)"/>
    </g>
    <!-- 44% deficit -->
    <g style="fill: #ef4444" transform="translate(65.960156 369.343031) scale(0.14 -0.14)">
     <defs>
      <path id="ArialMT-34" d="M 2069 0 
L 2069 1097 
L 81 1097 
L 81 1613 
L 2172 4581 
L 2631 4581 
L 2631 1613 
L 3250 1613 
L 3250 1097 
L 2631 1097 
L 2631 0 
L 2069 0 
z
M 2069 1613 
L 2069 3678 
L 634 1613 
L 2069 1613 
z
" transform="scale(0.015625)"/>
      <path id="ArialMT-25" d="M 372 3481 
Q 372 3972 619 4315 
Q 866 4659 1334 4659 
Q 1766 4659 2048 4351 
Q 2331 4044 2331 3447 
Q 2331 2866 2045 2552 
Q 1759 2238 1341 2238 
Q 925 2238 648 2547 
Q 372 2856 372 3481 
z
M 1350 4272 
Q 1141 4272 1002 4090 
Q 863 3909 863 3425 
Q 863 2984 1003 2804 
Q 1144 2625 1350 2625 
Q 1563 2625 1702 2806 
Q 1841 2988 1841 3469 
Q 1841 3913 1700 4092 
Q 1559 4272 1350 4272 
z
M 1353 -169 
L 3859 4659 
L 4316 4659 
L 1819 -169 
L 1353 -169 
z
M 3334 1075 
Q 3334 1569 3581 1911 
Q 3828 2253 4300 2253 
Q 4731 2253 5014 1945 
Q 5297 1638 5297 1041 
Q 5297 459 5011 145 
Q 4725 -169 4303 -169 
Q 3888 -169 3611 142 
Q 3334 453 3334 1075 
z
M 4316 1866 
Q 4103 1866 3964 1684 
Q 3825 1503 3825 1019 
Q 3825 581 3965 400 
Q 4106 219 4313 219 
Q 4528 219 4667 400 
Q 4806 581 4806 1063 
Q 4806 1506 4665 1686 
Q 4525 1866 4316 1866 
z
" transform="scale(0.015625)"/>
      <path id="ArialMT-20" transform="scale(0.015625)"/>
      <path id="ArialMT-64" d="M 2575 0 
L 2575 419 
Q 2259 -75 1647 -75 
Q 1250 -75 917 144 
Q 584 363 401 755 
Q 219 1147 219 1656 
Q 219 2153 384 2558 
Q 550 2963 881 3178 
Q 1213 3394 1622 3394 
Q 1922 3394 2156 3267 
Q 2391 3141 2538 2938 
L 2538 4581 
L 3097 4581 
L 3097 0 
L 2575 0 
z
M 797 1656 
Q 797 1019 1065 703 
Q 1334 388 1700 388 
Q 2069 388 2326 689 
Q 2584 991 2584 1609 
Q 2584 2291 2321 2609 
Q 2059 2928 1675 2928 
Q 1300 2928 1048 2622 
Q 797 2316 797 1656 
z
" transform="scale(0.015625)"/>
      <path id="ArialMT-65" d="M 2694 1069 
L 3275 997 
Q 3138 488 2766 206 
Q 2394 -75 1816 -75 
Q 1088 -75 661 373 
Q 234 822 234 1631 
Q 234 2469 665 2931 
Q 1097 3394 1784 3394 
Q 2450 3394 2872 2941 
Q 3294 2488 3294 1666 
Q 3294 1616 3291 1516 
L 816 1516 
Q 847 969 1125 678 
Q 1403 388 1819 388 
Q 2128 388 2347 550 
Q 2566 713 2694 1069 
z
M 847 1978 
L 2700 1978 
Q 2663 2397 2488 2606 
Q 2219 2931 1791 2931 
Q 1403 2931 1139 2672 
Q 875 2413 847 1978 
z
" transform="scale(0.015625)"/>
      <path id="ArialMT-66" d="M 556 0 
L 556 2881 
L 59 2881 
L 59 3319 
L 556 3319 
L 556 3672 
Q 556 4006 616 4169 
Q 697 4388 901 4523 
Q 1106 4659 1475 4659 
Q 1713 4659 2000 4603 
L 1916 4113 
Q 1741 4144 1584 4144 
Q 1328 4144 1222 4034 
Q 1116 3925 1116 3625 
L 1116 3319 
L 1763 3319 
L 1763 2881 
L 1116 2881 
L 1116 0 
L 556 0 
z
" transform="scale(0.015625)"/>
      <path id="ArialMT-69" d="M 425 3934 
L 425 4581 
L 988 4581 
L 988 3934 
L 425 3934 
z
M 425 0 
L 425 3319 
L 988 3319 
L 988 0 
L 425 0 
z
" transform="scale(0.015625)"/>
      <path id="ArialMT-63" d="M 2588 1216 
L 3141 1144 
Q 3050 572 2676 248 
Q 2303 -75 1759 -75 
Q 1078 -75 664 370 
Q 250 816 250 1647 
Q 250 2184 428 2587 
Q 606 2991 970 3192 
Q 1334 3394 1763 3394 
Q 2303 3394 2647 3120 
Q 2991 2847 3088 2344 
L 2541 2259 
Q 2463 2594 2264 2762 
Q 2066 2931 1784 2931 
Q 1359 2931 1093 2626 
Q 828 2322 828 1663 
Q 828 994 1084 691 
Q 1341 388 1753 388 
Q 2084 388 2306 591 
Q 2528 794 2588 1216 
z
" transform="scale(0.015625)"/>
      <path id="ArialMT-74" d="M 1650 503 
L 1731 6 
Q 1494 -44 1306 -44 
Q 1000 -44 831 53 
Q 663 150 594 308 
Q 525 466 525 972 
L 525 2881 
L 113 2881 
L 113 3319 
L 525 3319 
L 525 4141 
L 1084 4478 
L 1084 3319 
L 1650 3319 
L 1650 2881 
L 1084 2881 
L 1084 941 
Q 1084 700 1114 631 
Q 1144 563 1211 522 
Q 1278 481 1403 481 
Q 1497 481 1650 503 
z
" transform="scale(0.015625)"/>
     </defs>
     <use xlink:href="#ArialMT-34"/>
     <use xlink:href="#ArialMT-34" transform="translate(55.615234 0)"/>
     <use xlink:href="#ArialMT-25" transform="translate(111.230469 0)"/>
     <use xlink:href="#ArialMT-20" transform="translate(200.146484 0)"/>
     <use xlink:href="#ArialMT-64" transform="translate(227.929688 0)"/>
     <use xlink:href="#ArialMT-65" transform="translate(283.544922 0)"/>
     <use xlink:href="#ArialMT-66" transform="translate(339.160156 0)"/>
     <use xlink:href="#ArialMT-69" transform="translate(366.943359 0)"/>
     <use xlink:href="#ArialMT-63" transform="translate(389.160156 0)"/>
     <use xlink:href="#ArialMT-69" transform="translate(439.160156 0)"/>
     <use xlink:href="#ArialMT-74" transform="translate(461.376953 0)"/>
    </g>
   </g>
  </g>
 </g>
 <defs>
  <clipPath id="p571cae47d4">
   <rect x="7.2" y="7.2" width="446.4" height="443.52"/>
  </clipPath>
 </defs>
</svg>
