<svg viewBox="0 0 1500 450" xmlns="http://www.w3.org/2000/svg"><rect width="1500" height="450" fill="#0D1117"/>
<defs>
    <radialGradient id="bgGrad" cx="50%" cy="50%" r="50%">
        <stop offset="0%" stop-color="#4caf50"/>
        <stop offset="60%" stop-color="#0288d1"/>
        <stop offset="100%" stop-color="#01579b"/>
    </radialGradient>
    <radialGradient id="yellowGrad" cx="50%" cy="50%" r="50%">
        <stop offset="0%" stop-color="#ffeb3b"/>
        <stop offset="100%" stop-color="#8bc34a" stop-opacity="0.2"/>
    </radialGradient>
    <radialGradient id="orangeGrad" cx="50%" cy="50%" r="50%">
        <stop offset="0%" stop-color="#ff9800"/>
        <stop offset="100%" stop-color="#ffeb3b" stop-opacity="0.3"/>
    </radialGradient>
    <radialGradient id="redGrad" cx="50%" cy="50%" r="50%">
        <stop offset="0%" stop-color="#d50000"/>
        <stop offset="100%" stop-color="#ff9800" stop-opacity="0.4"/>
    </radialGradient>
</defs>
<circle cx="150" cy="180" r="110" fill="url(#bgGrad)" opacity="0.8"/><circle cx="150" cy="180" r="60" fill="url(#yellowGrad)"/><circle cx="150" cy="180" r="35" fill="url(#orangeGrad)"/><circle cx="150" cy="180" r="18" fill="url(#redGrad)"/><line x1="40" y1="180" x2="260" y2="180" stroke="#ffffff" stroke-width="1" opacity="0.3"/><line x1="150" y1="70" x2="150" y2="290" stroke="#ffffff" stroke-width="1" opacity="0.3"/><circle cx="150" cy="180" r="10" fill="none" stroke="#222" stroke-width="0.8" opacity="0.6"/><circle cx="150" cy="180" r="25" fill="none" stroke="#222" stroke-width="0.8" opacity="0.6"/><circle cx="150" cy="180" r="40" fill="none" stroke="#222" stroke-width="0.8" opacity="0.6"/><circle cx="150" cy="180" r="55" fill="none" stroke="#222" stroke-width="0.8" opacity="0.6"/><circle cx="150" cy="180" r="70" fill="none" stroke="#222" stroke-width="0.8" opacity="0.6"/><circle cx="150" cy="180" r="85" fill="none" stroke="#222" stroke-width="0.8" opacity="0.6"/><circle cx="150" cy="180" r="100" fill="none" stroke="#222" stroke-width="0.8" opacity="0.6"/><text x="150" y="340" fill="#ffffff" font-family="Arial" font-size="18" font-weight="bold" text-anchor="middle">P1: Circular (Nipple)</text><text x="150" y="370" fill="#b0bec5" font-family="Arial" font-size="14" text-anchor="middle">VR Puro Simétrico</text><text x="150" y="390" fill="#b0bec5" font-family="Arial" font-size="14" text-anchor="middle">Kmax: 65 - 75D</text><circle cx="450" cy="180" r="110" fill="url(#bgGrad)" opacity="0.8"/><ellipse cx="450" cy="190" rx="65" ry="80" fill="url(#yellowGrad)"/><ellipse cx="450" cy="200" rx="45" ry="60" fill="url(#orangeGrad)"/><ellipse cx="450" cy="210" rx="25" ry="40" fill="url(#redGrad)"/><line x1="340" y1="180" x2="560" y2="180" stroke="#ffffff" stroke-width="1" opacity="0.3"/><line x1="450" y1="70" x2="450" y2="290" stroke="#ffffff" stroke-width="1" opacity="0.3"/><circle cx="450" cy="180" r="10" fill="none" stroke="#222" stroke-width="0.8" opacity="0.6"/><circle cx="450" cy="180" r="25" fill="none" stroke="#222" stroke-width="0.8" opacity="0.6"/><circle cx="450" cy="180" r="40" fill="none" stroke="#222" stroke-width="0.8" opacity="0.6"/><circle cx="450" cy="180" r="55" fill="none" stroke="#222" stroke-width="0.8" opacity="0.6"/><circle cx="450" cy="180" r="70" fill="none" stroke="#222" stroke-width="0.8" opacity="0.6"/><circle cx="450" cy="180" r="85" fill="none" stroke="#222" stroke-width="0.8" opacity="0.6"/><circle cx="450" cy="180" r="100" fill="none" stroke="#222" stroke-width="0.8" opacity="0.6"/><text x="450" y="340" fill="#ffffff" font-family="Arial" font-size="18" font-weight="bold" text-anchor="middle">P2: Oval (Sagging)</text><text x="450" y="370" fill="#b0bec5" font-family="Arial" font-size="14" text-anchor="middle">VT & VR Distribuído</text><text x="450" y="390" fill="#b0bec5" font-family="Arial" font-size="14" text-anchor="middle">Cone Deslocado Inferior</text><circle cx="750" cy="180" r="110" fill="url(#bgGrad)" opacity="0.8"/><path d="M 705 180 C 690 130, 790 120, 795 170 C 800 230, 780 250, 750 250 C 710 250, 720 230, 705 180" fill="url(#yellowGrad)"/><path d="M 720 180 C 700 140, 780 130, 785 170 C 790 220, 770 230, 750 230 C 720 230, 730 210, 720 180" fill="url(#orangeGrad)"/><path d="M 735 190 C 720 160, 770 150, 775 180 C 780 210, 760 220, 750 220 C 730 220, 740 200, 735 190" fill="url(#redGrad)"/><line x1="640" y1="180" x2="860" y2="180" stroke="#ffffff" stroke-width="1" opacity="0.3"/><line x1="750" y1="70" x2="750" y2="290" stroke="#ffffff" stroke-width="1" opacity="0.3"/><circle cx="750" cy="180" r="10" fill="none" stroke="#222" stroke-width="0.8" opacity="0.6"/><circle cx="750" cy="180" r="25" fill="none" stroke="#222" stroke-width="0.8" opacity="0.6"/><circle cx="750" cy="180" r="40" fill="none" stroke="#222" stroke-width="0.8" opacity="0.6"/><circle cx="750" cy="180" r="55" fill="none" stroke="#222" stroke-width="0.8" opacity="0.6"/><circle cx="750" cy="180" r="70" fill="none" stroke="#222" stroke-width="0.8" opacity="0.6"/><circle cx="750" cy="180" r="85" fill="none" stroke="#222" stroke-width="0.8" opacity="0.6"/><circle cx="750" cy="180" r="100" fill="none" stroke="#222" stroke-width="0.8" opacity="0.6"/><text x="750" y="340" fill="#ffffff" font-family="Arial" font-size="18" font-weight="bold" text-anchor="middle">P3: Pato (Duck)</text><text x="750" y="370" fill="#b0bec5" font-family="Arial" font-size="14" text-anchor="middle">Alto Coma & Torque</text><text x="750" y="390" fill="#b0bec5" font-family="Arial" font-size="14" text-anchor="middle">Assimetria Intensa</text><circle cx="1050" cy="180" r="110" fill="url(#bgGrad)" opacity="0.8"/><ellipse cx="1050" cy="180" rx="50" ry="85" fill="url(#yellowGrad)"/><ellipse cx="1050" cy="180" rx="35" ry="70" fill="url(#orangeGrad)"/><circle cx="1050" cy="150" r="22" fill="url(#redGrad)"/><circle cx="1050" cy="210" r="22" fill="url(#redGrad)"/><line x1="940" y1="180" x2="1160" y2="180" stroke="#ffffff" stroke-width="1" opacity="0.3"/><line x1="1050" y1="70" x2="1050" y2="290" stroke="#ffffff" stroke-width="1" opacity="0.3"/><circle cx="1050" cy="180" r="10" fill="none" stroke="#222" stroke-width="0.8" opacity="0.6"/><circle cx="1050" cy="180" r="25" fill="none" stroke="#222" stroke-width="0.8" opacity="0.6"/><circle cx="1050" cy="180" r="40" fill="none" stroke="#222" stroke-width="0.8" opacity="0.6"/><circle cx="1050" cy="180" r="55" fill="none" stroke="#222" stroke-width="0.8" opacity="0.6"/><circle cx="1050" cy="180" r="70" fill="none" stroke="#222" stroke-width="0.8" opacity="0.6"/><circle cx="1050" cy="180" r="85" fill="none" stroke="#222" stroke-width="0.8" opacity="0.6"/><circle cx="1050" cy="180" r="100" fill="none" stroke="#222" stroke-width="0.8" opacity="0.6"/><text x="1050" y="340" fill="#ffffff" font-family="Arial" font-size="18" font-weight="bold" text-anchor="middle">P4: Boneco (Snowman)</text><text x="1050" y="370" fill="#b0bec5" font-family="Arial" font-size="14" text-anchor="middle">Pellucid-Like</text><text x="1050" y="390" fill="#b0bec5" font-family="Arial" font-size="14" text-anchor="middle">Tração Vertical</text><circle cx="1350" cy="180" r="110" fill="url(#bgGrad)" opacity="0.8"/><circle cx="1350" cy="190" r="75" fill="url(#yellowGrad)"/><ellipse cx="1330" cy="170" rx="30" ry="40" fill="url(#orangeGrad)"/><ellipse cx="1380" cy="210" rx="25" ry="35" fill="url(#orangeGrad)"/><circle cx="1320" cy="160" r="15" fill="url(#redGrad)"/><circle cx="1385" cy="215" r="12" fill="url(#redGrad)"/><circle cx="1350" cy="135" r="10" fill="url(#redGrad)"/><line x1="1240" y1="180" x2="1460" y2="180" stroke="#ffffff" stroke-width="1" opacity="0.3"/><line x1="1350" y1="70" x2="1350" y2="290" stroke="#ffffff" stroke-width="1" opacity="0.3"/><circle cx="1350" cy="180" r="10" fill="none" stroke="#222" stroke-width="0.8" opacity="0.6"/><circle cx="1350" cy="180" r="25" fill="none" stroke="#222" stroke-width="0.8" opacity="0.6"/><circle cx="1350" cy="180" r="40" fill="none" stroke="#222" stroke-width="0.8" opacity="0.6"/><circle cx="1350" cy="180" r="55" fill="none" stroke="#222" stroke-width="0.8" opacity="0.6"/><circle cx="1350" cy="180" r="70" fill="none" stroke="#222" stroke-width="0.8" opacity="0.6"/><circle cx="1350" cy="180" r="85" fill="none" stroke="#222" stroke-width="0.8" opacity="0.6"/><circle cx="1350" cy="180" r="100" fill="none" stroke="#222" stroke-width="0.8" opacity="0.6"/><text x="1350" y="340" fill="#ffffff" font-family="Arial" font-size="18" font-weight="bold" text-anchor="middle">P5: Complexo</text><text x="1350" y="370" fill="#b0bec5" font-family="Arial" font-size="14" text-anchor="middle">Multi-Apical Caótico</text><text x="1350" y="390" fill="#b0bec5" font-family="Arial" font-size="14" text-anchor="middle">Baixa Previsibilidade CIRS</text><line x1="300" y1="50" x2="300" y2="400" stroke="#263238" stroke-width="2" stroke-dasharray="5,5"/><line x1="600" y1="50" x2="600" y2="400" stroke="#263238" stroke-width="2" stroke-dasharray="5,5"/><line x1="900" y1="50" x2="900" y2="400" stroke="#263238" stroke-width="2" stroke-dasharray="5,5"/><line x1="1200" y1="50" x2="1200" y2="400" stroke="#263238" stroke-width="2" stroke-dasharray="5,5"/><text x="750" y="50" fill="#ffffff" font-family="Arial" font-size="28" font-weight="bold" text-anchor="middle">Figura 3.1: Os 5 Padrões do Ceratocone no Plácido (Classificação Biomecânica)</text></svg>