<svg viewBox="0 0 1400 500" xmlns="http://www.w3.org/2000/svg"><rect width="1400" height="500" fill="#0A0E17"/><defs>
    <filter id="glowF" x="-20%" y="-20%" width="140%" height="140%">
        <feGaussianBlur stdDeviation="6" result="blur" />
        <feMerge><feMergeNode in="blur"/><feMergeNode in="SourceGraphic"/></feMerge>
    </filter>
</defs><text x="700" y="50" fill="#ffffff" font-family="Arial" font-size="28" font-weight="bold" text-anchor="middle">Figura 8.2: O Campo Vetorial Decomposto</text><text x="250" y="120" fill="#0288d1" font-family="Arial" font-size="22" font-weight="bold" text-anchor="middle">Fr (Força Radial)</text><text x="250" y="150" fill="#8b9ba3" font-family="Arial" font-size="14" text-anchor="middle">Aplainamento/Densidade</text><circle cx="250" cy="280" r="30" fill="none" stroke="#0288d1" stroke-width="2"/><circle cx="250" cy="280" r="50" fill="none" stroke="#0288d1" stroke-width="2"/><circle cx="250" cy="280" r="70" fill="none" stroke="#0288d1" stroke-width="2"/><circle cx="250" cy="280" r="90" fill="none" stroke="#0288d1" stroke-width="2"/><circle cx="250" cy="280" r="110" fill="none" stroke="#0288d1" stroke-width="2"/><line x1="280" y1="280" x2="380" y2="280" stroke="#0288d1" stroke-width="3" marker-end="url(#arrowB)"/><line x1="220" y1="280" x2="120" y2="280" stroke="#0288d1" stroke-width="3" marker-end="url(#arrowB)"/><text x="700" y="120" fill="#ff1744" font-family="Arial" font-size="22" font-weight="bold" text-anchor="middle">Ft (Força Tangencial)</text><text x="700" y="150" fill="#8b9ba3" font-family="Arial" font-size="14" text-anchor="middle">Elipticidade/Cisalhamento</text><ellipse cx="700" cy="280" rx="30" ry="45" fill="none" stroke="#ff1744" stroke-width="2"/><ellipse cx="700" cy="280" rx="50" ry="75" fill="none" stroke="#ff1744" stroke-width="2"/><ellipse cx="700" cy="280" rx="70" ry="105" fill="none" stroke="#ff1744" stroke-width="2"/><ellipse cx="700" cy="280" rx="90" ry="135" fill="none" stroke="#ff1744" stroke-width="2"/><ellipse cx="700" cy="280" rx="110" ry="165" fill="none" stroke="#ff1744" stroke-width="2"/><line x1="700" y1="310" x2="700" y2="460" stroke="#ff1744" stroke-width="3" marker-end="url(#arrowR)"/><line x1="700" y1="250" x2="700" y2="100" stroke="#ff1744" stroke-width="3" marker-end="url(#arrowR)"/><text x="1150" y="120" fill="#ffb74d" font-family="Arial" font-size="22" font-weight="bold" text-anchor="middle">Fτ (Força Torsional)</text><text x="1150" y="150" fill="#8b9ba3" font-family="Arial" font-size="14" text-anchor="middle">Rotação Angular/Helix</text><ellipse cx="1150" cy="280" rx="30" ry="39" fill="none" stroke="#ffb74d" stroke-width="2" transform="rotate(0 1150 280)"/><ellipse cx="1150" cy="280" rx="48" ry="62.400000000000006" fill="none" stroke="#ffb74d" stroke-width="2" transform="rotate(8 1150 280)"/><ellipse cx="1150" cy="280" rx="66" ry="85.8" fill="none" stroke="#ffb74d" stroke-width="2" transform="rotate(16 1150 280)"/><ellipse cx="1150" cy="280" rx="84" ry="109.2" fill="none" stroke="#ffb74d" stroke-width="2" transform="rotate(24 1150 280)"/><ellipse cx="1150" cy="280" rx="102" ry="132.6" fill="none" stroke="#ffb74d" stroke-width="2" transform="rotate(32 1150 280)"/><ellipse cx="1150" cy="280" rx="120" ry="156" fill="none" stroke="#ffb74d" stroke-width="2" transform="rotate(40 1150 280)"/><path d="M 1200 230 Q 1250 260 1210 360" fill="none" stroke="#ffb74d" stroke-width="3" marker-end="url(#arrowO)"/><path d="M 1100 330 Q 1050 300 1090 200" fill="none" stroke="#ffb74d" stroke-width="3" marker-end="url(#arrowO)"/></svg>