<svg viewBox="0 0 1200 600" xmlns="http://www.w3.org/2000/svg"><rect width="1200" height="600" fill="#0A0E17"/><text x="600" y="50" fill="#ffffff" font-family="Arial" font-size="28" font-weight="bold" text-anchor="middle">Figura 8.1: Do Topógrafo à Mecânica de Estruturas</text><text x="600" y="80" fill="#B0BEC5" font-family="Arial" font-size="16" text-anchor="middle">Metade 1: O mapa visual de curvatura (K-max). Metade 2: O mapa oculto de campos vetoriais e ENM.</text><rect x="50" y="120" width="500" height="430" rx="20" fill="#111B24" stroke="#ff1744" stroke-width="2"/><text x="300" y="160" fill="#ff1744" font-family="Arial" font-size="22" font-weight="bold" text-anchor="middle">Leitura Convencional (Curvatura)</text><ellipse cx="300" cy="350" rx="20" ry="20" fill="none" stroke="#b0bec5" stroke-width="2" transform="rotate(-30 300 350)"/><ellipse cx="300" cy="350" rx="40" ry="40" fill="none" stroke="#b0bec5" stroke-width="2" transform="rotate(-30 300 350)"/><ellipse cx="300" cy="350" rx="60" ry="60" fill="none" stroke="#b0bec5" stroke-width="2" transform="rotate(-30 300 350)"/><ellipse cx="300" cy="350" rx="80" ry="80" fill="none" stroke="#b0bec5" stroke-width="2" transform="rotate(-30 300 350)"/><ellipse cx="300" cy="350" rx="100" ry="100" fill="none" stroke="#b0bec5" stroke-width="2" transform="rotate(-30 300 350)"/><ellipse cx="300" cy="350" rx="120" ry="120" fill="none" stroke="#b0bec5" stroke-width="2" transform="rotate(-30 300 350)"/><ellipse cx="300" cy="350" rx="140" ry="140" fill="none" stroke="#b0bec5" stroke-width="2" transform="rotate(-30 300 350)"/><ellipse cx="270" cy="300" rx="60" ry="40" fill="#ff1744" opacity="0.6" transform="rotate(-30 270 300)"/><circle cx="270" cy="300" r="5" fill="#fff"/><text x="240" y="280" fill="#ffffff" font-family="Arial" font-size="16" font-weight="bold">K-max (A consequência)</text><rect x="650" y="120" width="500" height="430" rx="20" fill="#112435" stroke="#00e5ff" stroke-width="2"/><text x="900" y="160" fill="#00e5ff" font-family="Arial" font-size="22" font-weight="bold" text-anchor="middle">Leitura LDM (Geometria de Forças)</text><ellipse cx="900" cy="350" rx="20" ry="25.333333333333332" fill="none" stroke="#00e5ff" stroke-width="2" transform="rotate(-30 900 350)"/><ellipse cx="900" cy="350" rx="40" ry="50.666666666666664" fill="none" stroke="#00e5ff" stroke-width="2" transform="rotate(-30 900 350)"/><ellipse cx="900" cy="350" rx="60" ry="76" fill="none" stroke="#00e5ff" stroke-width="2" transform="rotate(-30 900 350)"/><ellipse cx="900" cy="350" rx="80" ry="101.33333333333333" fill="none" stroke="#00e5ff" stroke-width="2" transform="rotate(-30 900 350)"/><ellipse cx="900" cy="350" rx="100" ry="126.66666666666666" fill="none" stroke="#00e5ff" stroke-width="2" transform="rotate(-30 900 350)"/><ellipse cx="900" cy="350" rx="120" ry="152" fill="none" stroke="#00e5ff" stroke-width="2" transform="rotate(-30 900 350)"/><ellipse cx="900" cy="350" rx="140" ry="177.33333333333334" fill="none" stroke="#00e5ff" stroke-width="2" transform="rotate(-30 900 350)"/><line x1="900" y1="350" x2="840" y2="250" stroke="#00e5ff" stroke-width="4" marker-end="url(#arrowB)"/><text x="810" y="240" fill="#00e5ff" font-family="Arial" font-size="16" font-weight="bold">VResultante (A Causa)</text><line x1="780" y1="260" x2="1020" y2="440" stroke="#ffffff" stroke-width="3" stroke-dasharray="5,5"/><text x="980" y="460" fill="#ffffff" font-family="Arial" font-size="16" font-weight="bold">Linha ENM</text></svg>