<svg viewBox="0 0 1400 300" xmlns="http://www.w3.org/2000/svg"><rect width="1400" height="300" fill="#0A0E17"/><defs>
    
    <marker id="arrowFlow" viewBox="0 0 10 10" refX="5" refY="5" markerWidth="6" markerHeight="6" orient="auto-start-reverse">
      <path d="M 0 0 L 10 5 L 0 10 z" fill="#455a64" />
    </marker>
</defs><text x="700" y="40" fill="#ffffff" font-family="Arial" font-size="24" font-weight="bold" text-anchor="middle">Figura 11.1: Pipeline de Planejamento Vetorial Universal</text><rect x="50" y="100" width="220" height="120" rx="15" fill="#111B24" stroke="#0288d1" stroke-width="3"/><rect x="50" y="100" width="220" height="40" rx="15" fill="#0288d1" opacity="0.2"/><text x="160" y="125" fill="#0288d1" font-family="Arial" font-size="16" font-weight="bold" text-anchor="middle">P1: Identificar Fenótipo</text><text x="160" y="170" fill="#cfd8dc" font-family="Arial" font-size="14" text-anchor="middle">Classificar o tipo base</text><line x1="270" y1="160" x2="305" y2="160" stroke="#455a64" stroke-width="4" marker-end="url(#arrowFlow)"/><rect x="310" y="100" width="220" height="120" rx="15" fill="#111B24" stroke="#ffb74d" stroke-width="3"/><rect x="310" y="100" width="220" height="40" rx="15" fill="#ffb74d" opacity="0.2"/><text x="420" y="125" fill="#ffb74d" font-family="Arial" font-size="16" font-weight="bold" text-anchor="middle">P2: Avaliar Simetria</text><text x="420" y="170" fill="#cfd8dc" font-family="Arial" font-size="14" text-anchor="middle">Assimetria Topo vs Tomo</text><line x1="530" y1="160" x2="565" y2="160" stroke="#455a64" stroke-width="4" marker-end="url(#arrowFlow)"/><rect x="570" y="100" width="220" height="120" rx="15" fill="#111B24" stroke="#b388ff" stroke-width="3"/><rect x="570" y="100" width="220" height="40" rx="15" fill="#b388ff" opacity="0.2"/><text x="680" y="125" fill="#b388ff" font-family="Arial" font-size="16" font-weight="bold" text-anchor="middle">P3: Decompor ICE</text><text x="680" y="170" fill="#cfd8dc" font-family="Arial" font-size="14" text-anchor="middle">Coerência dos Eixos</text><line x1="790" y1="160" x2="825" y2="160" stroke="#455a64" stroke-width="4" marker-end="url(#arrowFlow)"/><rect x="830" y="100" width="220" height="120" rx="15" fill="#111B24" stroke="#ff1744" stroke-width="3"/><rect x="830" y="100" width="220" height="40" rx="15" fill="#ff1744" opacity="0.2"/><text x="940" y="125" fill="#ff1744" font-family="Arial" font-size="16" font-weight="bold" text-anchor="middle">P4: Selecionar Vetores</text><text x="940" y="170" fill="#cfd8dc" font-family="Arial" font-size="14" text-anchor="middle">Definir VR, VT e Vτ</text><line x1="1050" y1="160" x2="1085" y2="160" stroke="#455a64" stroke-width="4" marker-end="url(#arrowFlow)"/><rect x="1090" y="100" width="220" height="120" rx="15" fill="#111B24" stroke="#00e676" stroke-width="3"/><rect x="1090" y="100" width="220" height="40" rx="15" fill="#00e676" opacity="0.2"/><text x="1200" y="125" fill="#00e676" font-family="Arial" font-size="16" font-weight="bold" text-anchor="middle">P5: Eleição do Anel</text><text x="1200" y="170" fill="#cfd8dc" font-family="Arial" font-size="14" text-anchor="middle">Matching do Fabricante</text></svg>