<svg viewBox="0 0 1200 600" xmlns="http://www.w3.org/2000/svg"><rect width="1200" height="600" fill="#0A0E17"/><text x="600" y="50" fill="#ffffff" font-family="Arial" font-size="26" font-weight="bold" text-anchor="middle">Figura 7.4: O Berço Biológico da Distorção de Alta Ordem (Escala Lamelar)</text><text x="600" y="80" fill="#B0BEC5" font-family="Arial" font-size="16" text-anchor="middle">Assimetria de Tensão: Hemicórnea superior intacta (foco ok) contra hemicórnea inferior flácida e abaulada (foco errado).</text><rect x="50" y="120" width="1100" height="430" rx="10" fill="#111B24"/><line x1="100" y1="335" x2="1100" y2="335" stroke="#ffffff" stroke-width="2" stroke-dasharray="10,10"/><path d="M 300 150 Q 150 250 150 335" fill="none" stroke="#00e5ff" stroke-width="8"/><path d="M 150 335 Q 120 450 300 500" fill="none" stroke="#ff1744" stroke-width="6"/><path d="M 320 160 Q 170 260 170 335" fill="none" stroke="#4caf50" stroke-width="2"/><path d="M 170 335 Q 120 450 320 500" fill="none" stroke="#b0bec5" stroke-width="2" stroke-dasharray="4,2"/><path d="M 320 170 Q 170 265 170 335" fill="none" stroke="#4caf50" stroke-width="2"/><path d="M 170 335 Q 120 465 320 505" fill="none" stroke="#b0bec5" stroke-width="2" stroke-dasharray="4,2"/><path d="M 320 180 Q 170 270 170 335" fill="none" stroke="#4caf50" stroke-width="2"/><path d="M 170 335 Q 120 480 320 510" fill="none" stroke="#b0bec5" stroke-width="2" stroke-dasharray="4,2"/><path d="M 320 190 Q 170 275 170 335" fill="none" stroke="#4caf50" stroke-width="2"/><path d="M 170 335 Q 120 495 320 515" fill="none" stroke="#b0bec5" stroke-width="2" stroke-dasharray="4,2"/><text x="350" y="200" fill="#00e5ff" font-family="Arial" font-size="18" font-weight="bold">Lamelas Intactas</text><text x="350" y="500" fill="#ff1744" font-family="Arial" font-size="18" font-weight="bold">Lamelas Esgarçadas</text><line x1="50" y1="200" x2="148" y2="200" stroke="#fff" stroke-width="3"/><line x1="150" y1="200" x2="800" y2="335" stroke="#00e5ff" stroke-width="3"/><line x1="50" y1="280" x2="148" y2="280" stroke="#fff" stroke-width="3"/><line x1="150" y1="280" x2="800" y2="335" stroke="#00e5ff" stroke-width="3"/><circle cx="800" cy="335" r="10" fill="#00e5ff"/><text x="830" y="325" fill="#00e5ff" font-family="Arial" font-size="18" font-weight="bold">Foco 1 (Imagem Nítida)</text><line x1="50" y1="400" x2="140" y2="400" stroke="#fff" stroke-width="3"/><line x1="140" y1="400" x2="600" y2="450" stroke="#ff1744" stroke-width="3"/><line x1="50" y1="480" x2="200" y2="480" stroke="#fff" stroke-width="3"/><line x1="200" y1="480" x2="600" y2="450" stroke="#ff1744" stroke-width="3"/><circle cx="600" cy="450" r="10" fill="#ff1744"/><text x="630" y="470" fill="#ff1744" font-family="Arial" font-size="18" font-weight="bold">Foco 2 (Distorção / VComa)</text></svg>