<svg viewBox="0 0 1400 800" xmlns="http://www.w3.org/2000/svg"><rect width="1400" height="800" fill="#0A0E17"/><defs>
    
    
    <marker id="arrowFEM" viewBox="0 0 10 10" refX="5" refY="5" markerWidth="6" markerHeight="6" orient="auto-start-reverse">
      <path d="M 0 0 L 10 5 L 0 10 z" fill="#00e5ff" />
    </marker>
</defs><text x="700" y="50" fill="#ffffff" font-family="Arial" font-size="34" font-weight="bold" text-anchor="middle">Figura 13.1: O Motor de Simulação (FEM Pipeline Process)</text><text x="700" y="80" fill="#cfd8dc" font-family="Arial" font-size="16" text-anchor="middle">Metodologia Matemática HGO: Da Clínica ao Gêmeo Digital</text><rect x="50" y="200" width="250" height="300" rx="20" fill="#111B24" stroke="#ff1744" stroke-width="3"/><text x="175" y="240" fill="#ff1744" font-family="Arial" font-size="20" font-weight="bold" text-anchor="middle">1. INPUTS IN VIVO</text><circle cx="175" cy="310" r="40" fill="none" stroke="#ff1744" stroke-width="2"/><text x="175" y="315" fill="#ff1744" font-family="Arial" font-size="14" text-anchor="middle">Topografia 3D</text><circle cx="175" cy="410" r="40" fill="none" stroke="#ff1744" stroke-width="2"/><text x="175" y="415" fill="#ff1744" font-family="Arial" font-size="14" text-anchor="middle">OCT / Brillouin</text><line x1="300" y1="350" x2="380" y2="350" stroke="#00e5ff" stroke-width="5" marker-end="url(#arrowFEM)"/><rect x="400" y="150" width="350" height="400" rx="20" fill="#112435" stroke="#00e5ff" stroke-width="4"/><text x="575" y="200" fill="#00e5ff" font-family="Arial" font-size="22" font-weight="bold" text-anchor="middle">2. GÊMEO DIGITAL (HGO)</text><circle cx="575" cy="320" r="80" fill="none" stroke="#00e5ff" stroke-width="2" stroke-dasharray="8,4"/><line x1="495" y1="320" x2="655" y2="320" stroke="#00e5ff" stroke-width="1" opacity="0.5"/><line x1="505.7179676972449" y1="280" x2="644.282032302755" y2="360" stroke="#00e5ff" stroke-width="1" opacity="0.5"/><line x1="535" y1="250.71796769724492" x2="615" y2="389.28203230275506" stroke="#00e5ff" stroke-width="1" opacity="0.5"/><line x1="575" y1="240" x2="575" y2="400" stroke="#00e5ff" stroke-width="1" opacity="0.5"/><line x1="615" y1="250.7179676972449" x2="535" y2="389.2820323027551" stroke="#00e5ff" stroke-width="1" opacity="0.5"/><line x1="644.282032302755" y1="280" x2="505.7179676972449" y2="360" stroke="#00e5ff" stroke-width="1" opacity="0.5"/><text x="575" y="440" fill="#cfd8dc" font-family="Arial" font-size="16" text-anchor="middle">Material Hiperelástico Anisotrópico</text><text x="575" y="470" fill="#cfd8dc" font-family="Arial" font-size="16" text-anchor="middle">Polímero: Mooney-Rivlin (PMMA)</text><text x="575" y="500" fill="#cfd8dc" font-family="Arial" font-size="16" text-anchor="middle">Condição de Bordo: Deslocamento Nulo Escleral</text><line x1="750" y1="350" x2="830" y2="350" stroke="#00e5ff" stroke-width="5" marker-end="url(#arrowFEM)"/><rect x="850" y="100" width="500" height="500" rx="20" fill="#1E2A15" stroke="#00e676" stroke-width="4"/><text x="1100" y="150" fill="#00e676" font-family="Arial" font-size="24" font-weight="bold" text-anchor="middle">3. SOLVER & PREVISÃO</text><rect x="900" y="200" width="400" height="60" rx="10" fill="#00e676" opacity="0.2"/><text x="1100" y="235" fill="#00e676" font-family="Arial" font-size="18" font-weight="bold" text-anchor="middle">Mecânica: Pressão Intraocular (IOP) Ativada</text><rect x="900" y="280" width="400" height="60" rx="10" fill="#00e676" opacity="0.2"/><text x="1100" y="315" fill="#00e676" font-family="Arial" font-size="18" font-weight="bold" text-anchor="middle">Tensão Física: Mapas de Von Mises Estromais</text><rect x="900" y="360" width="400" height="180" rx="20" fill="#111B24" stroke="#ffb74d" stroke-width="3"/><text x="1100" y="410" fill="#ffb74d" font-family="Arial" font-size="22" font-weight="bold" text-anchor="middle">RESULTADO VIRTUAL:</text><text x="1100" y="450" fill="#ffffff" font-family="Arial" font-size="24" font-weight="bold" text-anchor="middle">VEsférico Pós-Operatório Mapeado</text><text x="1100" y="490" fill="#cfd8dc" font-family="Arial" font-size="16" text-anchor="middle">(Cirurgia Testada Sub-micrometricamente no Código)</text></svg>