<?xml version="1.0" encoding="utf-8" standalone="no"?>
<!DOCTYPE svg PUBLIC "-//W3C//DTD SVG 1.1//EN"
  "http://www.w3.org/Graphics/SVG/1.1/DTD/svg11.dtd">
<svg xmlns:xlink="http://www.w3.org/1999/xlink" width="449.75125pt" height="322.864688pt" viewBox="0 0 449.75125 322.864688" xmlns="http://www.w3.org/2000/svg" version="1.1">
 <metadata>
  <rdf:RDF xmlns:dc="http://purl.org/dc/elements/1.1/" xmlns:cc="http://creativecommons.org/ns#" xmlns:rdf="http://www.w3.org/1999/02/22-rdf-syntax-ns#">
   <cc:Work>
    <dc:type rdf:resource="http://purl.org/dc/dcmitype/StillImage"/>
    <dc:date>2026-05-28T16:13:40.239396</dc:date>
    <dc:format>image/svg+xml</dc:format>
    <dc:creator>
     <cc:Agent>
      <dc:title>Matplotlib v3.9.4, https://matplotlib.org/</dc:title>
     </cc:Agent>
    </dc:creator>
   </cc:Work>
  </rdf:RDF>
 </metadata>
 <defs>
  <style type="text/css">*{stroke-linejoin: round; stroke-linecap: butt}</style>
 </defs>
 <g id="figure_1">
  <g id="patch_1">
   <path d="M 0 322.864688 
L 449.75125 322.864688 
L 449.75125 0 
L 0 0 
z
" style="fill: #ffffff"/>
  </g>
  <g id="axes_1">
   <g id="patch_2">
    <path d="M 48.35125 279.743594 
L 438.95125 279.743594 
L 438.95125 30.263594 
L 48.35125 30.263594 
z
" style="fill: #ffffff"/>
   </g>
   <g id="PolyCollection_1">
    <defs>
     <path id="m472301240a" d="M 48.35125 -43.121094 
L 48.35125 -111.244932 
L 49.134016 -111.328873 
L 49.916781 -111.496946 
L 50.699547 -111.665448 
L 51.482312 -111.834475 
L 52.265078 -112.004125 
L 53.047843 -112.174495 
L 53.830609 -112.345684 
L 54.613374 -112.517791 
L 55.39614 -112.690918 
L 56.178905 -112.865167 
L 56.961671 -113.040641 
L 57.744436 -113.217444 
L 58.527202 -113.395684 
L 59.309967 -113.575468 
L 60.092733 -113.756906 
L 60.875498 -113.94011 
L 61.658264 -114.125192 
L 62.44103 -114.31227 
L 63.223795 -114.50146 
L 64.006561 -114.692883 
L 64.789326 -114.886661 
L 65.572092 -115.082921 
L 66.354857 -115.281789 
L 67.137623 -115.483398 
L 67.920388 -115.68788 
L 68.703154 -115.895374 
L 69.485919 -116.10602 
L 70.268685 -116.319961 
L 71.05145 -116.537346 
L 71.834216 -116.758327 
L 72.616981 -116.983058 
L 73.399747 -117.211701 
L 74.182513 -117.444419 
L 74.965278 -117.68138 
L 75.748044 -117.92276 
L 76.530809 -118.168737 
L 77.313575 -118.419495 
L 78.09634 -118.675223 
L 78.879106 -118.936118 
L 79.661871 -119.202379 
L 80.444637 -119.474215 
L 81.227402 -119.75184 
L 82.010168 -120.035475 
L 82.792933 -120.325348 
L 83.575699 -120.621694 
L 84.358464 -120.924756 
L 85.14123 -121.234786 
L 85.923995 -121.552044 
L 86.706761 -121.876796 
L 87.489527 -122.209322 
L 88.272292 -122.549908 
L 89.055058 -122.89885 
L 89.837823 -123.256457 
L 90.620589 -123.623046 
L 91.403354 -123.998947 
L 92.18612 -124.3845 
L 92.968885 -124.780059 
L 93.751651 -125.18599 
L 94.534416 -125.602671 
L 95.317182 -126.030498 
L 96.099947 -126.469876 
L 96.882713 -126.921228 
L 97.665478 -127.384994 
L 98.448244 -127.861628 
L 99.23101 -128.351602 
L 100.013775 -128.855406 
L 100.796541 -129.373548 
L 101.579306 -129.906556 
L 102.362072 -130.454979 
L 103.144837 -131.019386 
L 103.927603 -131.600368 
L 104.710368 -132.19854 
L 105.493134 -132.814541 
L 106.275899 -133.449035 
L 107.058665 -134.102712 
L 107.84143 -134.776289 
L 108.624196 -135.470513 
L 109.406961 -136.186159 
L 110.189727 -136.924036 
L 110.972492 -137.684982 
L 111.755258 -138.469874 
L 112.538024 -139.27962 
L 113.320789 -140.115167 
L 114.103555 -140.977502 
L 114.88632 -141.867652 
L 115.669086 -142.786685 
L 116.451851 -143.735717 
L 117.234617 -144.715908 
L 118.017382 -145.728467 
L 118.800148 -146.774655 
L 119.582913 -147.855785 
L 120.365679 -148.973227 
L 121.148444 -150.128409 
L 121.93121 -151.32282 
L 122.713975 -152.558014 
L 123.496741 -153.835609 
L 124.279507 -155.157297 
L 125.062272 -156.524842 
L 125.845038 -157.940084 
L 126.627803 -159.404946 
L 127.410569 -160.921432 
L 128.193334 -162.491637 
L 128.9761 -164.11775 
L 129.758865 -165.802054 
L 130.541631 -167.546936 
L 131.324396 -169.35489 
L 132.107162 -171.228521 
L 132.889927 -173.170553 
L 133.672693 -175.183833 
L 134.455458 -177.271337 
L 135.238224 -179.436176 
L 136.020989 -181.681605 
L 136.803755 -184.011029 
L 137.586521 -186.428008 
L 138.369286 -188.936268 
L 139.152052 -191.539709 
L 139.934817 -194.242412 
L 140.717583 -197.048649 
L 141.500348 -199.962893 
L 142.283114 -202.989827 
L 143.065879 -206.134358 
L 143.848645 -209.401622 
L 144.63141 -212.797004 
L 145.414176 -216.326144 
L 146.196941 -219.994953 
L 146.979707 -223.809628 
L 147.762472 -227.776665 
L 148.545238 -231.902874 
L 149.328004 -236.195398 
L 150.110769 -240.661729 
L 150.893535 -245.309726 
L 151.6763 -250.147635 
L 152.459066 -255.184108 
L 153.241831 -260.428228 
L 154.024597 -265.889529 
L 154.807362 -271.578021 
L 155.590128 -277.504214 
L 156.372893 -283.679149 
L 157.155659 -290.114422 
L 157.938424 -296.822216 
L 158.72119 -303.815336 
L 159.503955 -311.107236 
L 160.286721 -315.281094 
L 161.069486 -315.281094 
L 161.852252 -315.281094 
L 162.635018 -315.281094 
L 163.417783 -315.281094 
L 164.200549 -315.281094 
L 164.983314 -315.281094 
L 165.76608 -315.281094 
L 166.548845 -315.281094 
L 167.331611 -315.281094 
L 168.114376 -315.281094 
L 168.897142 -315.281094 
L 169.679907 -315.281094 
L 170.462673 -315.281094 
L 171.245438 -315.281094 
L 172.028204 -315.281094 
L 172.810969 -315.281094 
L 173.593735 -315.281094 
L 174.376501 -315.281094 
L 175.159266 -315.281094 
L 175.942032 -315.281094 
L 176.724797 -315.281094 
L 177.507563 -315.281094 
L 178.290328 -315.281094 
L 179.073094 -315.281094 
L 179.855859 -315.281094 
L 180.638625 -315.281094 
L 181.42139 -315.281094 
L 182.204156 -315.281094 
L 182.986921 -315.281094 
L 183.769687 -315.281094 
L 184.552452 -315.281094 
L 185.335218 -315.281094 
L 186.117983 -315.281094 
L 186.900749 -315.281094 
L 187.683515 -315.281094 
L 188.46628 -315.281094 
L 189.249046 -315.281094 
L 190.031811 -315.281094 
L 190.814577 -315.281094 
L 191.597342 -315.281094 
L 192.380108 -315.281094 
L 193.162873 -315.281094 
L 193.945639 -315.281094 
L 194.728404 -315.281094 
L 195.51117 -315.281094 
L 196.293935 -315.281094 
L 197.076701 -315.281094 
L 197.859466 -315.281094 
L 198.642232 -315.281094 
L 199.424997 -315.281094 
L 200.207763 -315.281094 
L 200.990529 -315.281094 
L 201.773294 -315.281094 
L 202.55606 -315.281094 
L 203.338825 -315.281094 
L 204.121591 -315.281094 
L 204.904356 -315.281094 
L 205.687122 -315.281094 
L 206.469887 -315.281094 
L 207.252653 -315.281094 
L 208.035418 -315.281094 
L 208.818184 -315.281094 
L 209.600949 -315.281094 
L 210.383715 -315.281094 
L 211.16648 -315.281094 
L 211.949246 -315.281094 
L 212.732012 -315.281094 
L 213.514777 -315.281094 
L 214.297543 -315.281094 
L 215.080308 -315.281094 
L 215.863074 -315.281094 
L 216.645839 -315.281094 
L 217.428605 -315.281094 
L 218.21137 -315.281094 
L 218.994136 -315.281094 
L 219.776901 -315.281094 
L 220.559667 -315.281094 
L 221.342432 -315.281094 
L 222.125198 -315.281094 
L 222.907963 -315.281094 
L 223.690729 -315.281094 
L 224.473494 -315.281094 
L 225.25626 -315.281094 
L 226.039026 -315.281094 
L 226.821791 -315.281094 
L 227.604557 -315.281094 
L 228.387322 -315.281094 
L 229.170088 -315.281094 
L 229.952853 -315.281094 
L 230.735619 -315.281094 
L 231.518384 -315.281094 
L 232.30115 -315.281094 
L 233.083915 -315.281094 
L 233.866681 -315.281094 
L 234.649446 -315.281094 
L 235.432212 -315.281094 
L 236.214977 -315.281094 
L 236.997743 -315.281094 
L 237.780509 -315.281094 
L 238.563274 -315.281094 
L 239.34604 -315.281094 
L 240.128805 -315.281094 
L 240.911571 -315.281094 
L 241.694336 -315.281094 
L 242.477102 -315.281094 
L 243.259867 -315.281094 
L 244.042633 -315.281094 
L 244.825398 -315.281094 
L 245.608164 -315.281094 
L 246.390929 -315.281094 
L 247.173695 -315.281094 
L 247.95646 -315.281094 
L 248.739226 -315.281094 
L 249.521991 -315.281094 
L 250.304757 -315.281094 
L 251.087523 -315.281094 
L 251.870288 -315.281094 
L 252.653054 -315.281094 
L 253.435819 -315.281094 
L 254.218585 -315.281094 
L 255.00135 -315.281094 
L 255.784116 -315.281094 
L 256.566881 -315.281094 
L 257.349647 -315.281094 
L 258.132412 -315.281094 
L 258.915178 -315.281094 
L 259.697943 -315.281094 
L 260.480709 -315.281094 
L 261.263474 -315.281094 
L 262.04624 -315.281094 
L 262.829006 -315.281094 
L 263.611771 -315.281094 
L 264.394537 -315.281094 
L 265.177302 -315.281094 
L 265.960068 -315.281094 
L 266.742833 -315.281094 
L 267.525599 -315.281094 
L 268.308364 -315.281094 
L 269.09113 -315.281094 
L 269.873895 -315.281094 
L 270.656661 -315.281094 
L 271.439426 -315.281094 
L 272.222192 -315.281094 
L 273.004957 -315.281094 
L 273.787723 -315.281094 
L 274.570488 -315.281094 
L 275.353254 -315.281094 
L 276.13602 -315.281094 
L 276.918785 -315.281094 
L 277.701551 -315.281094 
L 278.484316 -315.281094 
L 279.267082 -315.281094 
L 280.049847 -315.281094 
L 280.832613 -315.281094 
L 281.615378 -315.281094 
L 282.398144 -315.281094 
L 283.180909 -315.281094 
L 283.963675 -315.281094 
L 284.74644 -315.281094 
L 285.529206 -315.281094 
L 286.311971 -315.281094 
L 287.094737 -315.281094 
L 287.877503 -315.281094 
L 288.660268 -315.281094 
L 289.443034 -315.281094 
L 290.225799 -315.281094 
L 291.008565 -315.281094 
L 291.79133 -315.281094 
L 292.574096 -315.281094 
L 293.356861 -315.281094 
L 294.139627 -315.281094 
L 294.922392 -315.281094 
L 295.705158 -315.281094 
L 296.487923 -315.281094 
L 297.270689 -315.281094 
L 298.053454 -315.281094 
L 298.83622 -315.281094 
L 299.618985 -315.281094 
L 300.401751 -315.281094 
L 301.184517 -315.281094 
L 301.967282 -315.281094 
L 302.750048 -315.281094 
L 303.532813 -315.281094 
L 304.315579 -315.281094 
L 305.098344 -315.281094 
L 305.88111 -315.281094 
L 306.663875 -315.281094 
L 307.446641 -315.281094 
L 308.229406 -315.281094 
L 309.012172 -315.281094 
L 309.794937 -315.281094 
L 310.577703 -315.281094 
L 311.360468 -315.281094 
L 312.143234 -315.281094 
L 312.925999 -315.281094 
L 313.708765 -315.281094 
L 314.491531 -315.281094 
L 315.274296 -315.281094 
L 316.057062 -315.281094 
L 316.839827 -315.281094 
L 317.622593 -315.281094 
L 318.405358 -315.281094 
L 319.188124 -315.281094 
L 319.970889 -315.281094 
L 320.753655 -315.281094 
L 321.53642 -315.281094 
L 322.319186 -315.281094 
L 323.101951 -315.281094 
L 323.884717 -315.281094 
L 324.667482 -315.281094 
L 325.450248 -315.281094 
L 326.233014 -315.281094 
L 327.015779 -315.281094 
L 327.798545 -315.281094 
L 328.58131 -315.281094 
L 329.364076 -315.281094 
L 330.146841 -315.281094 
L 330.929607 -315.281094 
L 331.712372 -315.281094 
L 332.495138 -315.281094 
L 333.277903 -315.281094 
L 334.060669 -315.281094 
L 334.843434 -315.281094 
L 335.6262 -315.281094 
L 336.408965 -315.281094 
L 337.191731 -315.281094 
L 337.974496 -315.281094 
L 338.757262 -315.281094 
L 339.540028 -315.281094 
L 340.322793 -315.281094 
L 341.105559 -315.281094 
L 341.888324 -315.281094 
L 342.67109 -315.281094 
L 343.453855 -315.281094 
L 344.236621 -315.281094 
L 345.019386 -315.281094 
L 345.802152 -315.281094 
L 346.584917 -315.281094 
L 347.367683 -315.281094 
L 348.150448 -315.281094 
L 348.933214 -315.281094 
L 349.715979 -315.281094 
L 350.498745 -315.281094 
L 351.281511 -315.281094 
L 352.064276 -315.281094 
L 352.847042 -315.281094 
L 353.629807 -315.281094 
L 354.412573 -315.281094 
L 355.195338 -315.281094 
L 355.978104 -315.281094 
L 356.760869 -315.281094 
L 357.543635 -315.281094 
L 358.3264 -315.281094 
L 359.109166 -315.281094 
L 359.891931 -315.281094 
L 360.674697 -315.281094 
L 361.457462 -315.281094 
L 362.240228 -315.281094 
L 363.022993 -315.281094 
L 363.805759 -315.281094 
L 364.588525 -315.281094 
L 365.37129 -315.281094 
L 366.154056 -315.281094 
L 366.936821 -315.281094 
L 367.719587 -315.281094 
L 368.502352 -315.281094 
L 369.285118 -315.281094 
L 370.067883 -315.281094 
L 370.850649 -315.281094 
L 371.633414 -315.281094 
L 372.41618 -315.281094 
L 373.198945 -315.281094 
L 373.981711 -315.281094 
L 374.764476 -315.281094 
L 375.547242 -315.281094 
L 376.330008 -315.281094 
L 377.112773 -315.281094 
L 377.895539 -315.281094 
L 378.678304 -315.281094 
L 379.46107 -315.281094 
L 380.243835 -315.281094 
L 381.026601 -315.281094 
L 381.809366 -315.281094 
L 382.592132 -315.281094 
L 383.374897 -315.281094 
L 384.157663 -315.281094 
L 384.940428 -315.281094 
L 385.723194 -315.281094 
L 386.505959 -315.281094 
L 387.288725 -315.281094 
L 388.07149 -315.281094 
L 388.854256 -315.281094 
L 389.637022 -315.281094 
L 390.419787 -315.281094 
L 391.202553 -315.281094 
L 391.985318 -315.281094 
L 392.768084 -315.281094 
L 393.550849 -315.281094 
L 394.333615 -315.281094 
L 395.11638 -315.281094 
L 395.899146 -315.281094 
L 396.681911 -315.281094 
L 397.464677 -315.281094 
L 398.247442 -315.281094 
L 399.030208 -315.281094 
L 399.812973 -315.281094 
L 400.595739 -315.281094 
L 401.378505 -315.281094 
L 402.16127 -315.281094 
L 402.944036 -315.281094 
L 403.726801 -315.281094 
L 404.509567 -315.281094 
L 405.292332 -315.281094 
L 406.075098 -315.281094 
L 406.857863 -315.281094 
L 407.640629 -315.281094 
L 408.423394 -315.281094 
L 409.20616 -315.281094 
L 409.988925 -315.281094 
L 410.771691 -315.281094 
L 411.554456 -315.281094 
L 412.337222 -315.281094 
L 413.119987 -315.281094 
L 413.902753 -315.281094 
L 414.685519 -315.281094 
L 415.468284 -315.281094 
L 416.25105 -315.281094 
L 417.033815 -315.281094 
L 417.816581 -315.281094 
L 418.599346 -315.281094 
L 419.382112 -315.281094 
L 420.164877 -315.281094 
L 420.947643 -315.281094 
L 421.730408 -315.281094 
L 422.513174 -315.281094 
L 423.295939 -315.281094 
L 424.078705 -315.281094 
L 424.86147 -315.281094 
L 425.644236 -315.281094 
L 426.427002 -315.281094 
L 427.209767 -315.281094 
L 427.992533 -315.281094 
L 428.775298 -315.281094 
L 429.558064 -315.281094 
L 430.340829 -315.281094 
L 431.123595 -315.281094 
L 431.90636 -315.281094 
L 432.689126 -315.281094 
L 433.471891 -315.281094 
L 434.254657 -315.281094 
L 435.037422 -315.281094 
L 435.820188 -315.281094 
L 436.602953 -315.281094 
L 437.385719 -315.281094 
L 438.168484 -315.281094 
L 438.95125 -315.281094 
L 438.95125 -43.121094 
L 438.95125 -43.121094 
L 438.168484 -43.121094 
L 437.385719 -43.121094 
L 436.602953 -43.121094 
L 435.820188 -43.121094 
L 435.037422 -43.121094 
L 434.254657 -43.121094 
L 433.471891 -43.121094 
L 432.689126 -43.121094 
L 431.90636 -43.121094 
L 431.123595 -43.121094 
L 430.340829 -43.121094 
L 429.558064 -43.121094 
L 428.775298 -43.121094 
L 427.992533 -43.121094 
L 427.209767 -43.121094 
L 426.427002 -43.121094 
L 425.644236 -43.121094 
L 424.86147 -43.121094 
L 424.078705 -43.121094 
L 423.295939 -43.121094 
L 422.513174 -43.121094 
L 421.730408 -43.121094 
L 420.947643 -43.121094 
L 420.164877 -43.121094 
L 419.382112 -43.121094 
L 418.599346 -43.121094 
L 417.816581 -43.121094 
L 417.033815 -43.121094 
L 416.25105 -43.121094 
L 415.468284 -43.121094 
L 414.685519 -43.121094 
L 413.902753 -43.121094 
L 413.119987 -43.121094 
L 412.337222 -43.121094 
L 411.554456 -43.121094 
L 410.771691 -43.121094 
L 409.988925 -43.121094 
L 409.20616 -43.121094 
L 408.423394 -43.121094 
L 407.640629 -43.121094 
L 406.857863 -43.121094 
L 406.075098 -43.121094 
L 405.292332 -43.121094 
L 404.509567 -43.121094 
L 403.726801 -43.121094 
L 402.944036 -43.121094 
L 402.16127 -43.121094 
L 401.378505 -43.121094 
L 400.595739 -43.121094 
L 399.812973 -43.121094 
L 399.030208 -43.121094 
L 398.247442 -43.121094 
L 397.464677 -43.121094 
L 396.681911 -43.121094 
L 395.899146 -43.121094 
L 395.11638 -43.121094 
L 394.333615 -43.121094 
L 393.550849 -43.121094 
L 392.768084 -43.121094 
L 391.985318 -43.121094 
L 391.202553 -43.121094 
L 390.419787 -43.121094 
L 389.637022 -43.121094 
L 388.854256 -43.121094 
L 388.07149 -43.121094 
L 387.288725 -43.121094 
L 386.505959 -43.121094 
L 385.723194 -43.121094 
L 384.940428 -43.121094 
L 384.157663 -43.121094 
L 383.374897 -43.121094 
L 382.592132 -43.121094 
L 381.809366 -43.121094 
L 381.026601 -43.121094 
L 380.243835 -43.121094 
L 379.46107 -43.121094 
L 378.678304 -43.121094 
L 377.895539 -43.121094 
L 377.112773 -43.121094 
L 376.330008 -43.121094 
L 375.547242 -43.121094 
L 374.764476 -43.121094 
L 373.981711 -43.121094 
L 373.198945 -43.121094 
L 372.41618 -43.121094 
L 371.633414 -43.121094 
L 370.850649 -43.121094 
L 370.067883 -43.121094 
L 369.285118 -43.121094 
L 368.502352 -43.121094 
L 367.719587 -43.121094 
L 366.936821 -43.121094 
L 366.154056 -43.121094 
L 365.37129 -43.121094 
L 364.588525 -43.121094 
L 363.805759 -43.121094 
L 363.022993 -43.121094 
L 362.240228 -43.121094 
L 361.457462 -43.121094 
L 360.674697 -43.121094 
L 359.891931 -43.121094 
L 359.109166 -43.121094 
L 358.3264 -43.121094 
L 357.543635 -43.121094 
L 356.760869 -43.121094 
L 355.978104 -43.121094 
L 355.195338 -43.121094 
L 354.412573 -43.121094 
L 353.629807 -43.121094 
L 352.847042 -43.121094 
L 352.064276 -43.121094 
L 351.281511 -43.121094 
L 350.498745 -43.121094 
L 349.715979 -43.121094 
L 348.933214 -43.121094 
L 348.150448 -43.121094 
L 347.367683 -43.121094 
L 346.584917 -43.121094 
L 345.802152 -43.121094 
L 345.019386 -43.121094 
L 344.236621 -43.121094 
L 343.453855 -43.121094 
L 342.67109 -43.121094 
L 341.888324 -43.121094 
L 341.105559 -43.121094 
L 340.322793 -43.121094 
L 339.540028 -43.121094 
L 338.757262 -43.121094 
L 337.974496 -43.121094 
L 337.191731 -43.121094 
L 336.408965 -43.121094 
L 335.6262 -43.121094 
L 334.843434 -43.121094 
L 334.060669 -43.121094 
L 333.277903 -43.121094 
L 332.495138 -43.121094 
L 331.712372 -43.121094 
L 330.929607 -43.121094 
L 330.146841 -43.121094 
L 329.364076 -43.121094 
L 328.58131 -43.121094 
L 327.798545 -43.121094 
L 327.015779 -43.121094 
L 326.233014 -43.121094 
L 325.450248 -43.121094 
L 324.667482 -43.121094 
L 323.884717 -43.121094 
L 323.101951 -43.121094 
L 322.319186 -43.121094 
L 321.53642 -43.121094 
L 320.753655 -43.121094 
L 319.970889 -43.121094 
L 319.188124 -43.121094 
L 318.405358 -43.121094 
L 317.622593 -43.121094 
L 316.839827 -43.121094 
L 316.057062 -43.121094 
L 315.274296 -43.121094 
L 314.491531 -43.121094 
L 313.708765 -43.121094 
L 312.925999 -43.121094 
L 312.143234 -43.121094 
L 311.360468 -43.121094 
L 310.577703 -43.121094 
L 309.794937 -43.121094 
L 309.012172 -43.121094 
L 308.229406 -43.121094 
L 307.446641 -43.121094 
L 306.663875 -43.121094 
L 305.88111 -43.121094 
L 305.098344 -43.121094 
L 304.315579 -43.121094 
L 303.532813 -43.121094 
L 302.750048 -43.121094 
L 301.967282 -43.121094 
L 301.184517 -43.121094 
L 300.401751 -43.121094 
L 299.618985 -43.121094 
L 298.83622 -43.121094 
L 298.053454 -43.121094 
L 297.270689 -43.121094 
L 296.487923 -43.121094 
L 295.705158 -43.121094 
L 294.922392 -43.121094 
L 294.139627 -43.121094 
L 293.356861 -43.121094 
L 292.574096 -43.121094 
L 291.79133 -43.121094 
L 291.008565 -43.121094 
L 290.225799 -43.121094 
L 289.443034 -43.121094 
L 288.660268 -43.121094 
L 287.877503 -43.121094 
L 287.094737 -43.121094 
L 286.311971 -43.121094 
L 285.529206 -43.121094 
L 284.74644 -43.121094 
L 283.963675 -43.121094 
L 283.180909 -43.121094 
L 282.398144 -43.121094 
L 281.615378 -43.121094 
L 280.832613 -43.121094 
L 280.049847 -43.121094 
L 279.267082 -43.121094 
L 278.484316 -43.121094 
L 277.701551 -43.121094 
L 276.918785 -43.121094 
L 276.13602 -43.121094 
L 275.353254 -43.121094 
L 274.570488 -43.121094 
L 273.787723 -43.121094 
L 273.004957 -43.121094 
L 272.222192 -43.121094 
L 271.439426 -43.121094 
L 270.656661 -43.121094 
L 269.873895 -43.121094 
L 269.09113 -43.121094 
L 268.308364 -43.121094 
L 267.525599 -43.121094 
L 266.742833 -43.121094 
L 265.960068 -43.121094 
L 265.177302 -43.121094 
L 264.394537 -43.121094 
L 263.611771 -43.121094 
L 262.829006 -43.121094 
L 262.04624 -43.121094 
L 261.263474 -43.121094 
L 260.480709 -43.121094 
L 259.697943 -43.121094 
L 258.915178 -43.121094 
L 258.132412 -43.121094 
L 257.349647 -43.121094 
L 256.566881 -43.121094 
L 255.784116 -43.121094 
L 255.00135 -43.121094 
L 254.218585 -43.121094 
L 253.435819 -43.121094 
L 252.653054 -43.121094 
L 251.870288 -43.121094 
L 251.087523 -43.121094 
L 250.304757 -43.121094 
L 249.521991 -43.121094 
L 248.739226 -43.121094 
L 247.95646 -43.121094 
L 247.173695 -43.121094 
L 246.390929 -43.121094 
L 245.608164 -43.121094 
L 244.825398 -43.121094 
L 244.042633 -43.121094 
L 243.259867 -43.121094 
L 242.477102 -43.121094 
L 241.694336 -43.121094 
L 240.911571 -43.121094 
L 240.128805 -43.121094 
L 239.34604 -43.121094 
L 238.563274 -43.121094 
L 237.780509 -43.121094 
L 236.997743 -43.121094 
L 236.214977 -43.121094 
L 235.432212 -43.121094 
L 234.649446 -43.121094 
L 233.866681 -43.121094 
L 233.083915 -43.121094 
L 232.30115 -43.121094 
L 231.518384 -43.121094 
L 230.735619 -43.121094 
L 229.952853 -43.121094 
L 229.170088 -43.121094 
L 228.387322 -43.121094 
L 227.604557 -43.121094 
L 226.821791 -43.121094 
L 226.039026 -43.121094 
L 225.25626 -43.121094 
L 224.473494 -43.121094 
L 223.690729 -43.121094 
L 222.907963 -43.121094 
L 222.125198 -43.121094 
L 221.342432 -43.121094 
L 220.559667 -43.121094 
L 219.776901 -43.121094 
L 218.994136 -43.121094 
L 218.21137 -43.121094 
L 217.428605 -43.121094 
L 216.645839 -43.121094 
L 215.863074 -43.121094 
L 215.080308 -43.121094 
L 214.297543 -43.121094 
L 213.514777 -43.121094 
L 212.732012 -43.121094 
L 211.949246 -43.121094 
L 211.16648 -43.121094 
L 210.383715 -43.121094 
L 209.600949 -43.121094 
L 208.818184 -43.121094 
L 208.035418 -43.121094 
L 207.252653 -43.121094 
L 206.469887 -43.121094 
L 205.687122 -43.121094 
L 204.904356 -43.121094 
L 204.121591 -43.121094 
L 203.338825 -43.121094 
L 202.55606 -43.121094 
L 201.773294 -43.121094 
L 200.990529 -43.121094 
L 200.207763 -43.121094 
L 199.424997 -43.121094 
L 198.642232 -43.121094 
L 197.859466 -43.121094 
L 197.076701 -43.121094 
L 196.293935 -43.121094 
L 195.51117 -43.121094 
L 194.728404 -43.121094 
L 193.945639 -43.121094 
L 193.162873 -43.121094 
L 192.380108 -43.121094 
L 191.597342 -43.121094 
L 190.814577 -43.121094 
L 190.031811 -43.121094 
L 189.249046 -43.121094 
L 188.46628 -43.121094 
L 187.683515 -43.121094 
L 186.900749 -43.121094 
L 186.117983 -43.121094 
L 185.335218 -43.121094 
L 184.552452 -43.121094 
L 183.769687 -43.121094 
L 182.986921 -43.121094 
L 182.204156 -43.121094 
L 181.42139 -43.121094 
L 180.638625 -43.121094 
L 179.855859 -43.121094 
L 179.073094 -43.121094 
L 178.290328 -43.121094 
L 177.507563 -43.121094 
L 176.724797 -43.121094 
L 175.942032 -43.121094 
L 175.159266 -43.121094 
L 174.376501 -43.121094 
L 173.593735 -43.121094 
L 172.810969 -43.121094 
L 172.028204 -43.121094 
L 171.245438 -43.121094 
L 170.462673 -43.121094 
L 169.679907 -43.121094 
L 168.897142 -43.121094 
L 168.114376 -43.121094 
L 167.331611 -43.121094 
L 166.548845 -43.121094 
L 165.76608 -43.121094 
L 164.983314 -43.121094 
L 164.200549 -43.121094 
L 163.417783 -43.121094 
L 162.635018 -43.121094 
L 161.852252 -43.121094 
L 161.069486 -43.121094 
L 160.286721 -43.121094 
L 159.503955 -43.121094 
L 158.72119 -43.121094 
L 157.938424 -43.121094 
L 157.155659 -43.121094 
L 156.372893 -43.121094 
L 155.590128 -43.121094 
L 154.807362 -43.121094 
L 154.024597 -43.121094 
L 153.241831 -43.121094 
L 152.459066 -43.121094 
L 151.6763 -43.121094 
L 150.893535 -43.121094 
L 150.110769 -43.121094 
L 149.328004 -43.121094 
L 148.545238 -43.121094 
L 147.762472 -43.121094 
L 146.979707 -43.121094 
L 146.196941 -43.121094 
L 145.414176 -43.121094 
L 144.63141 -43.121094 
L 143.848645 -43.121094 
L 143.065879 -43.121094 
L 142.283114 -43.121094 
L 141.500348 -43.121094 
L 140.717583 -43.121094 
L 139.934817 -43.121094 
L 139.152052 -43.121094 
L 138.369286 -43.121094 
L 137.586521 -43.121094 
L 136.803755 -43.121094 
L 136.020989 -43.121094 
L 135.238224 -43.121094 
L 134.455458 -43.121094 
L 133.672693 -43.121094 
L 132.889927 -43.121094 
L 132.107162 -43.121094 
L 131.324396 -43.121094 
L 130.541631 -43.121094 
L 129.758865 -43.121094 
L 128.9761 -43.121094 
L 128.193334 -43.121094 
L 127.410569 -43.121094 
L 126.627803 -43.121094 
L 125.845038 -43.121094 
L 125.062272 -43.121094 
L 124.279507 -43.121094 
L 123.496741 -43.121094 
L 122.713975 -43.121094 
L 121.93121 -43.121094 
L 121.148444 -43.121094 
L 120.365679 -43.121094 
L 119.582913 -43.121094 
L 118.800148 -43.121094 
L 118.017382 -43.121094 
L 117.234617 -43.121094 
L 116.451851 -43.121094 
L 115.669086 -43.121094 
L 114.88632 -43.121094 
L 114.103555 -43.121094 
L 113.320789 -43.121094 
L 112.538024 -43.121094 
L 111.755258 -43.121094 
L 110.972492 -43.121094 
L 110.189727 -43.121094 
L 109.406961 -43.121094 
L 108.624196 -43.121094 
L 107.84143 -43.121094 
L 107.058665 -43.121094 
L 106.275899 -43.121094 
L 105.493134 -43.121094 
L 104.710368 -43.121094 
L 103.927603 -43.121094 
L 103.144837 -43.121094 
L 102.362072 -43.121094 
L 101.579306 -43.121094 
L 100.796541 -43.121094 
L 100.013775 -43.121094 
L 99.23101 -43.121094 
L 98.448244 -43.121094 
L 97.665478 -43.121094 
L 96.882713 -43.121094 
L 96.099947 -43.121094 
L 95.317182 -43.121094 
L 94.534416 -43.121094 
L 93.751651 -43.121094 
L 92.968885 -43.121094 
L 92.18612 -43.121094 
L 91.403354 -43.121094 
L 90.620589 -43.121094 
L 89.837823 -43.121094 
L 89.055058 -43.121094 
L 88.272292 -43.121094 
L 87.489527 -43.121094 
L 86.706761 -43.121094 
L 85.923995 -43.121094 
L 85.14123 -43.121094 
L 84.358464 -43.121094 
L 83.575699 -43.121094 
L 82.792933 -43.121094 
L 82.010168 -43.121094 
L 81.227402 -43.121094 
L 80.444637 -43.121094 
L 79.661871 -43.121094 
L 78.879106 -43.121094 
L 78.09634 -43.121094 
L 77.313575 -43.121094 
L 76.530809 -43.121094 
L 75.748044 -43.121094 
L 74.965278 -43.121094 
L 74.182513 -43.121094 
L 73.399747 -43.121094 
L 72.616981 -43.121094 
L 71.834216 -43.121094 
L 71.05145 -43.121094 
L 70.268685 -43.121094 
L 69.485919 -43.121094 
L 68.703154 -43.121094 
L 67.920388 -43.121094 
L 67.137623 -43.121094 
L 66.354857 -43.121094 
L 65.572092 -43.121094 
L 64.789326 -43.121094 
L 64.006561 -43.121094 
L 63.223795 -43.121094 
L 62.44103 -43.121094 
L 61.658264 -43.121094 
L 60.875498 -43.121094 
L 60.092733 -43.121094 
L 59.309967 -43.121094 
L 58.527202 -43.121094 
L 57.744436 -43.121094 
L 56.961671 -43.121094 
L 56.178905 -43.121094 
L 55.39614 -43.121094 
L 54.613374 -43.121094 
L 53.830609 -43.121094 
L 53.047843 -43.121094 
L 52.265078 -43.121094 
L 51.482312 -43.121094 
L 50.699547 -43.121094 
L 49.916781 -43.121094 
L 49.134016 -43.121094 
L 48.35125 -43.121094 
z
" style="stroke: #2171b5; stroke-opacity: 0.08"/>
    </defs>
    <g clip-path="url(#p88d0366ec2)">
     <use xlink:href="#m472301240a" x="0" y="322.864688" style="fill: #2171b5; fill-opacity: 0.08; stroke: #2171b5; stroke-opacity: 0.08"/>
    </g>
   </g>
   <g id="matplotlib.axis_1">
    <g id="xtick_1">
     <g id="line2d_1">
      <path d="M 48.35125 279.743594 
L 48.35125 30.263594 
" clip-path="url(#p88d0366ec2)" style="fill: none; stroke: #b0b0b0; stroke-opacity: 0.3; stroke-width: 0.6; stroke-linecap: square"/>
     </g>
     <g id="line2d_2">
      <defs>
       <path id="me80e29c010" d="M 0 0 
L 0 3.5 
" style="stroke: #636363; stroke-width: 0.8"/>
      </defs>
      <g>
       <use xlink:href="#me80e29c010" x="48.35125" y="279.743594" style="fill: #636363; stroke: #636363; stroke-width: 0.8"/>
      </g>
     </g>
     <g id="text_1">
      <!-- 0.00 -->
      <g style="fill: #636363" transform="translate(37.647734 294.617188) scale(0.11 -0.11)">
       <defs>
        <path id="ArialMT-30" d="M 266 2259 
Q 266 3072 433 3567 
Q 600 4063 929 4331 
Q 1259 4600 1759 4600 
Q 2128 4600 2406 4451 
Q 2684 4303 2865 4023 
Q 3047 3744 3150 3342 
Q 3253 2941 3253 2259 
Q 3253 1453 3087 958 
Q 2922 463 2592 192 
Q 2263 -78 1759 -78 
Q 1097 -78 719 397 
Q 266 969 266 2259 
z
M 844 2259 
Q 844 1131 1108 757 
Q 1372 384 1759 384 
Q 2147 384 2411 759 
Q 2675 1134 2675 2259 
Q 2675 3391 2411 3762 
Q 2147 4134 1753 4134 
Q 1366 4134 1134 3806 
Q 844 3388 844 2259 
z
" transform="scale(0.015625)"/>
        <path id="ArialMT-2e" d="M 581 0 
L 581 641 
L 1222 641 
L 1222 0 
L 581 0 
z
" transform="scale(0.015625)"/>
       </defs>
       <use xlink:href="#ArialMT-30"/>
       <use xlink:href="#ArialMT-2e" x="55.615234"/>
       <use xlink:href="#ArialMT-30" x="83.398438"/>
       <use xlink:href="#ArialMT-30" x="139.013672"/>
      </g>
     </g>
    </g>
    <g id="xtick_2">
     <g id="line2d_3">
      <path d="M 118.10125 279.743594 
L 118.10125 30.263594 
" clip-path="url(#p88d0366ec2)" style="fill: none; stroke: #b0b0b0; stroke-opacity: 0.3; stroke-width: 0.6; stroke-linecap: square"/>
     </g>
     <g id="line2d_4">
      <g>
       <use xlink:href="#me80e29c010" x="118.10125" y="279.743594" style="fill: #636363; stroke: #636363; stroke-width: 0.8"/>
      </g>
     </g>
     <g id="text_2">
      <!-- 0.05 -->
      <g style="fill: #636363" transform="translate(107.397734 294.617188) scale(0.11 -0.11)">
       <defs>
        <path id="ArialMT-35" d="M 266 1200 
L 856 1250 
Q 922 819 1161 601 
Q 1400 384 1738 384 
Q 2144 384 2425 690 
Q 2706 997 2706 1503 
Q 2706 1984 2436 2262 
Q 2166 2541 1728 2541 
Q 1456 2541 1237 2417 
Q 1019 2294 894 2097 
L 366 2166 
L 809 4519 
L 3088 4519 
L 3088 3981 
L 1259 3981 
L 1013 2750 
Q 1425 3038 1878 3038 
Q 2478 3038 2890 2622 
Q 3303 2206 3303 1553 
Q 3303 931 2941 478 
Q 2500 -78 1738 -78 
Q 1113 -78 717 272 
Q 322 622 266 1200 
z
" transform="scale(0.015625)"/>
       </defs>
       <use xlink:href="#ArialMT-30"/>
       <use xlink:href="#ArialMT-2e" x="55.615234"/>
       <use xlink:href="#ArialMT-30" x="83.398438"/>
       <use xlink:href="#ArialMT-35" x="139.013672"/>
      </g>
     </g>
    </g>
    <g id="xtick_3">
     <g id="line2d_5">
      <path d="M 187.85125 279.743594 
L 187.85125 30.263594 
" clip-path="url(#p88d0366ec2)" style="fill: none; stroke: #b0b0b0; stroke-opacity: 0.3; stroke-width: 0.6; stroke-linecap: square"/>
     </g>
     <g id="line2d_6">
      <g>
       <use xlink:href="#me80e29c010" x="187.85125" y="279.743594" style="fill: #636363; stroke: #636363; stroke-width: 0.8"/>
      </g>
     </g>
     <g id="text_3">
      <!-- 0.10 -->
      <g style="fill: #636363" transform="translate(177.147734 294.617188) scale(0.11 -0.11)">
       <defs>
        <path id="ArialMT-31" d="M 2384 0 
L 1822 0 
L 1822 3584 
Q 1619 3391 1289 3197 
Q 959 3003 697 2906 
L 697 3450 
Q 1169 3672 1522 3987 
Q 1875 4303 2022 4600 
L 2384 4600 
L 2384 0 
z
" transform="scale(0.015625)"/>
       </defs>
       <use xlink:href="#ArialMT-30"/>
       <use xlink:href="#ArialMT-2e" x="55.615234"/>
       <use xlink:href="#ArialMT-31" x="83.398438"/>
       <use xlink:href="#ArialMT-30" x="139.013672"/>
      </g>
     </g>
    </g>
    <g id="xtick_4">
     <g id="line2d_7">
      <path d="M 257.60125 279.743594 
L 257.60125 30.263594 
" clip-path="url(#p88d0366ec2)" style="fill: none; stroke: #b0b0b0; stroke-opacity: 0.3; stroke-width: 0.6; stroke-linecap: square"/>
     </g>
     <g id="line2d_8">
      <g>
       <use xlink:href="#me80e29c010" x="257.60125" y="279.743594" style="fill: #636363; stroke: #636363; stroke-width: 0.8"/>
      </g>
     </g>
     <g id="text_4">
      <!-- 0.15 -->
      <g style="fill: #636363" transform="translate(246.897734 294.617188) scale(0.11 -0.11)">
       <use xlink:href="#ArialMT-30"/>
       <use xlink:href="#ArialMT-2e" x="55.615234"/>
       <use xlink:href="#ArialMT-31" x="83.398438"/>
       <use xlink:href="#ArialMT-35" x="139.013672"/>
      </g>
     </g>
    </g>
    <g id="xtick_5">
     <g id="line2d_9">
      <path d="M 327.35125 279.743594 
L 327.35125 30.263594 
" clip-path="url(#p88d0366ec2)" style="fill: none; stroke: #b0b0b0; stroke-opacity: 0.3; stroke-width: 0.6; stroke-linecap: square"/>
     </g>
     <g id="line2d_10">
      <g>
       <use xlink:href="#me80e29c010" x="327.35125" y="279.743594" style="fill: #636363; stroke: #636363; stroke-width: 0.8"/>
      </g>
     </g>
     <g id="text_5">
      <!-- 0.20 -->
      <g style="fill: #636363" transform="translate(316.647734 294.617188) scale(0.11 -0.11)">
       <defs>
        <path id="ArialMT-32" d="M 3222 541 
L 3222 0 
L 194 0 
Q 188 203 259 391 
Q 375 700 629 1000 
Q 884 1300 1366 1694 
Q 2113 2306 2375 2664 
Q 2638 3022 2638 3341 
Q 2638 3675 2398 3904 
Q 2159 4134 1775 4134 
Q 1369 4134 1125 3890 
Q 881 3647 878 3216 
L 300 3275 
Q 359 3922 746 4261 
Q 1134 4600 1788 4600 
Q 2447 4600 2831 4234 
Q 3216 3869 3216 3328 
Q 3216 3053 3103 2787 
Q 2991 2522 2730 2228 
Q 2469 1934 1863 1422 
Q 1356 997 1212 845 
Q 1069 694 975 541 
L 3222 541 
z
" transform="scale(0.015625)"/>
       </defs>
       <use xlink:href="#ArialMT-30"/>
       <use xlink:href="#ArialMT-2e" x="55.615234"/>
       <use xlink:href="#ArialMT-32" x="83.398438"/>
       <use xlink:href="#ArialMT-30" x="139.013672"/>
      </g>
     </g>
    </g>
    <g id="xtick_6">
     <g id="line2d_11">
      <path d="M 397.10125 279.743594 
L 397.10125 30.263594 
" clip-path="url(#p88d0366ec2)" style="fill: none; stroke: #b0b0b0; stroke-opacity: 0.3; stroke-width: 0.6; stroke-linecap: square"/>
     </g>
     <g id="line2d_12">
      <g>
       <use xlink:href="#me80e29c010" x="397.10125" y="279.743594" style="fill: #636363; stroke: #636363; stroke-width: 0.8"/>
      </g>
     </g>
     <g id="text_6">
      <!-- 0.25 -->
      <g style="fill: #636363" transform="translate(386.397734 294.617188) scale(0.11 -0.11)">
       <use xlink:href="#ArialMT-30"/>
       <use xlink:href="#ArialMT-2e" x="55.615234"/>
       <use xlink:href="#ArialMT-32" x="83.398438"/>
       <use xlink:href="#ArialMT-35" x="139.013672"/>
      </g>
     </g>
    </g>
    <g id="text_7">
     <!-- Deformação (Strain) -->
     <g style="fill: #1a1a1a" transform="translate(186.308125 309.539062) scale(0.12 -0.12)">
      <defs>
       <path id="Arial-BoldMT-44" d="M 463 4581 
L 2153 4581 
Q 2725 4581 3025 4494 
Q 3428 4375 3715 4072 
Q 4003 3769 4153 3330 
Q 4303 2891 4303 2247 
Q 4303 1681 4163 1272 
Q 3991 772 3672 463 
Q 3431 228 3022 97 
Q 2716 0 2203 0 
L 463 0 
L 463 4581 
z
M 1388 3806 
L 1388 772 
L 2078 772 
Q 2466 772 2638 816 
Q 2863 872 3011 1006 
Q 3159 1141 3253 1448 
Q 3347 1756 3347 2288 
Q 3347 2819 3253 3103 
Q 3159 3388 2990 3547 
Q 2822 3706 2563 3763 
Q 2369 3806 1803 3806 
L 1388 3806 
z
" transform="scale(0.015625)"/>
       <path id="Arial-BoldMT-65" d="M 2381 1056 
L 3256 909 
Q 3088 428 2723 176 
Q 2359 -75 1813 -75 
Q 947 -75 531 491 
Q 203 944 203 1634 
Q 203 2459 634 2926 
Q 1066 3394 1725 3394 
Q 2466 3394 2894 2905 
Q 3322 2416 3303 1406 
L 1103 1406 
Q 1113 1016 1316 798 
Q 1519 581 1822 581 
Q 2028 581 2168 693 
Q 2309 806 2381 1056 
z
M 2431 1944 
Q 2422 2325 2234 2523 
Q 2047 2722 1778 2722 
Q 1491 2722 1303 2513 
Q 1116 2303 1119 1944 
L 2431 1944 
z
" transform="scale(0.015625)"/>
       <path id="Arial-BoldMT-66" d="M 75 3319 
L 563 3319 
L 563 3569 
Q 563 3988 652 4194 
Q 741 4400 980 4529 
Q 1219 4659 1584 4659 
Q 1959 4659 2319 4547 
L 2200 3934 
Q 1991 3984 1797 3984 
Q 1606 3984 1523 3895 
Q 1441 3806 1441 3553 
L 1441 3319 
L 2097 3319 
L 2097 2628 
L 1441 2628 
L 1441 0 
L 563 0 
L 563 2628 
L 75 2628 
L 75 3319 
z
" transform="scale(0.015625)"/>
       <path id="Arial-BoldMT-6f" d="M 256 1706 
Q 256 2144 472 2553 
Q 688 2963 1083 3178 
Q 1478 3394 1966 3394 
Q 2719 3394 3200 2905 
Q 3681 2416 3681 1669 
Q 3681 916 3195 420 
Q 2709 -75 1972 -75 
Q 1516 -75 1102 131 
Q 688 338 472 736 
Q 256 1134 256 1706 
z
M 1156 1659 
Q 1156 1166 1390 903 
Q 1625 641 1969 641 
Q 2313 641 2545 903 
Q 2778 1166 2778 1666 
Q 2778 2153 2545 2415 
Q 2313 2678 1969 2678 
Q 1625 2678 1390 2415 
Q 1156 2153 1156 1659 
z
" transform="scale(0.015625)"/>
       <path id="Arial-BoldMT-72" d="M 1300 0 
L 422 0 
L 422 3319 
L 1238 3319 
L 1238 2847 
Q 1447 3181 1614 3287 
Q 1781 3394 1994 3394 
Q 2294 3394 2572 3228 
L 2300 2463 
Q 2078 2606 1888 2606 
Q 1703 2606 1575 2504 
Q 1447 2403 1373 2137 
Q 1300 1872 1300 1025 
L 1300 0 
z
" transform="scale(0.015625)"/>
       <path id="Arial-BoldMT-6d" d="M 394 3319 
L 1203 3319 
L 1203 2866 
Q 1638 3394 2238 3394 
Q 2556 3394 2790 3262 
Q 3025 3131 3175 2866 
Q 3394 3131 3647 3262 
Q 3900 3394 4188 3394 
Q 4553 3394 4806 3245 
Q 5059 3097 5184 2809 
Q 5275 2597 5275 2122 
L 5275 0 
L 4397 0 
L 4397 1897 
Q 4397 2391 4306 2534 
Q 4184 2722 3931 2722 
Q 3747 2722 3584 2609 
Q 3422 2497 3350 2280 
Q 3278 2063 3278 1594 
L 3278 0 
L 2400 0 
L 2400 1819 
Q 2400 2303 2353 2443 
Q 2306 2584 2207 2653 
Q 2109 2722 1941 2722 
Q 1738 2722 1575 2612 
Q 1413 2503 1342 2297 
Q 1272 2091 1272 1613 
L 1272 0 
L 394 0 
L 394 3319 
z
" transform="scale(0.015625)"/>
       <path id="Arial-BoldMT-61" d="M 1116 2306 
L 319 2450 
Q 453 2931 781 3162 
Q 1109 3394 1756 3394 
Q 2344 3394 2631 3255 
Q 2919 3116 3036 2902 
Q 3153 2688 3153 2116 
L 3144 1091 
Q 3144 653 3186 445 
Q 3228 238 3344 0 
L 2475 0 
Q 2441 88 2391 259 
Q 2369 338 2359 363 
Q 2134 144 1878 34 
Q 1622 -75 1331 -75 
Q 819 -75 523 203 
Q 228 481 228 906 
Q 228 1188 362 1408 
Q 497 1628 739 1745 
Q 981 1863 1438 1950 
Q 2053 2066 2291 2166 
L 2291 2253 
Q 2291 2506 2166 2614 
Q 2041 2722 1694 2722 
Q 1459 2722 1328 2630 
Q 1197 2538 1116 2306 
z
M 2291 1594 
Q 2122 1538 1756 1459 
Q 1391 1381 1278 1306 
Q 1106 1184 1106 997 
Q 1106 813 1243 678 
Q 1381 544 1594 544 
Q 1831 544 2047 700 
Q 2206 819 2256 991 
Q 2291 1103 2291 1419 
L 2291 1594 
z
" transform="scale(0.015625)"/>
       <path id="Arial-BoldMT-e7" d="M 3353 2338 
L 2488 2181 
Q 2444 2441 2289 2572 
Q 2134 2703 1888 2703 
Q 1559 2703 1364 2476 
Q 1169 2250 1169 1719 
Q 1169 1128 1367 884 
Q 1566 641 1900 641 
Q 2150 641 2309 783 
Q 2469 925 2534 1272 
L 3397 1125 
Q 3263 531 2881 228 
Q 2500 -75 1859 -75 
Q 1131 -75 698 384 
Q 266 844 266 1656 
Q 266 2478 700 2936 
Q 1134 3394 1875 3394 
Q 2481 3394 2839 3133 
Q 3197 2872 3353 2338 
z
M 991 -1259 
L 991 -891 
Q 1313 -925 1581 -925 
Q 1860 -925 1994 -825 
Q 2097 -750 2097 -631 
Q 2097 -525 2000 -447 
Q 1903 -369 1700 -369 
Q 1500 -369 1291 -431 
L 1372 -122 
Q 1616 -38 1897 -38 
Q 2288 -38 2491 -209 
Q 2694 -381 2694 -628 
Q 2694 -903 2469 -1075 
Q 2166 -1309 1600 -1309 
Q 1197 -1309 991 -1259 
z
" transform="scale(0.015625)"/>
       <path id="Arial-BoldMT-e3" d="M 1116 2306 
L 319 2450 
Q 453 2931 781 3162 
Q 1109 3394 1756 3394 
Q 2344 3394 2631 3255 
Q 2919 3116 3036 2902 
Q 3153 2688 3153 2116 
L 3144 1091 
Q 3144 653 3186 445 
Q 3228 238 3344 0 
L 2475 0 
Q 2441 88 2391 259 
Q 2369 338 2359 363 
Q 2134 144 1878 34 
Q 1622 -75 1331 -75 
Q 819 -75 523 203 
Q 228 481 228 906 
Q 228 1188 362 1408 
Q 497 1628 739 1745 
Q 981 1863 1438 1950 
Q 2053 2066 2291 2166 
L 2291 2253 
Q 2291 2506 2166 2614 
Q 2041 2722 1694 2722 
Q 1459 2722 1328 2630 
Q 1197 2538 1116 2306 
z
M 2291 1594 
Q 2122 1538 1756 1459 
Q 1391 1381 1278 1306 
Q 1106 1184 1106 997 
Q 1106 813 1243 678 
Q 1381 544 1594 544 
Q 1831 544 2047 700 
Q 2206 819 2256 991 
Q 2291 1103 2291 1419 
L 2291 1594 
z
M 1107 3766 
L 707 3766 
Q 703 3838 703 3878 
Q 703 4206 862 4382 
Q 1022 4559 1272 4559 
Q 1382 4559 1475 4536 
Q 1569 4513 1817 4402 
Q 2066 4291 2207 4291 
Q 2307 4291 2374 4353 
Q 2441 4416 2460 4563 
L 2866 4563 
Q 2863 4141 2708 3959 
Q 2553 3778 2310 3778 
Q 2203 3778 2100 3800 
Q 2028 3819 1740 3928 
Q 1453 4038 1322 4038 
Q 1222 4038 1166 3977 
Q 1110 3916 1107 3766 
z
" transform="scale(0.015625)"/>
       <path id="Arial-BoldMT-20" transform="scale(0.015625)"/>
       <path id="Arial-BoldMT-28" d="M 1916 -1347 
L 1313 -1347 
Q 834 -625 584 153 
Q 334 931 334 1659 
Q 334 2563 644 3369 
Q 913 4069 1325 4659 
L 1925 4659 
Q 1497 3713 1336 3048 
Q 1175 2384 1175 1641 
Q 1175 1128 1270 590 
Q 1366 53 1531 -431 
Q 1641 -750 1916 -1347 
z
" transform="scale(0.015625)"/>
       <path id="Arial-BoldMT-53" d="M 231 1491 
L 1131 1578 
Q 1213 1125 1461 912 
Q 1709 700 2131 700 
Q 2578 700 2804 889 
Q 3031 1078 3031 1331 
Q 3031 1494 2936 1608 
Q 2841 1722 2603 1806 
Q 2441 1863 1863 2006 
Q 1119 2191 819 2459 
Q 397 2838 397 3381 
Q 397 3731 595 4036 
Q 794 4341 1167 4500 
Q 1541 4659 2069 4659 
Q 2931 4659 3367 4281 
Q 3803 3903 3825 3272 
L 2900 3231 
Q 2841 3584 2645 3739 
Q 2450 3894 2059 3894 
Q 1656 3894 1428 3728 
Q 1281 3622 1281 3444 
Q 1281 3281 1419 3166 
Q 1594 3019 2269 2859 
Q 2944 2700 3267 2529 
Q 3591 2359 3773 2064 
Q 3956 1769 3956 1334 
Q 3956 941 3737 597 
Q 3519 253 3119 86 
Q 2719 -81 2122 -81 
Q 1253 -81 787 320 
Q 322 722 231 1491 
z
" transform="scale(0.015625)"/>
       <path id="Arial-BoldMT-74" d="M 1981 3319 
L 1981 2619 
L 1381 2619 
L 1381 1281 
Q 1381 875 1398 808 
Q 1416 741 1477 697 
Q 1538 653 1625 653 
Q 1747 653 1978 738 
L 2053 56 
Q 1747 -75 1359 -75 
Q 1122 -75 931 4 
Q 741 84 652 211 
Q 563 338 528 553 
Q 500 706 500 1172 
L 500 2619 
L 97 2619 
L 97 3319 
L 500 3319 
L 500 3978 
L 1381 4491 
L 1381 3319 
L 1981 3319 
z
" transform="scale(0.015625)"/>
       <path id="Arial-BoldMT-69" d="M 459 3769 
L 459 4581 
L 1338 4581 
L 1338 3769 
L 459 3769 
z
M 459 0 
L 459 3319 
L 1338 3319 
L 1338 0 
L 459 0 
z
" transform="scale(0.015625)"/>
       <path id="Arial-BoldMT-6e" d="M 3478 0 
L 2600 0 
L 2600 1694 
Q 2600 2231 2544 2389 
Q 2488 2547 2361 2634 
Q 2234 2722 2056 2722 
Q 1828 2722 1647 2597 
Q 1466 2472 1398 2265 
Q 1331 2059 1331 1503 
L 1331 0 
L 453 0 
L 453 3319 
L 1269 3319 
L 1269 2831 
Q 1703 3394 2363 3394 
Q 2653 3394 2893 3289 
Q 3134 3184 3257 3021 
Q 3381 2859 3429 2653 
Q 3478 2447 3478 2063 
L 3478 0 
z
" transform="scale(0.015625)"/>
       <path id="Arial-BoldMT-29" d="M 216 -1347 
Q 475 -791 581 -494 
Q 688 -197 778 190 
Q 869 578 912 926 
Q 956 1275 956 1641 
Q 956 2384 797 3048 
Q 638 3713 209 4659 
L 806 4659 
Q 1278 3988 1539 3234 
Q 1800 2481 1800 1706 
Q 1800 1053 1594 306 
Q 1359 -531 822 -1347 
L 216 -1347 
z
" transform="scale(0.015625)"/>
      </defs>
      <use xlink:href="#Arial-BoldMT-44"/>
      <use xlink:href="#Arial-BoldMT-65" x="72.216797"/>
      <use xlink:href="#Arial-BoldMT-66" x="127.832031"/>
      <use xlink:href="#Arial-BoldMT-6f" x="161.132812"/>
      <use xlink:href="#Arial-BoldMT-72" x="222.216797"/>
      <use xlink:href="#Arial-BoldMT-6d" x="261.132812"/>
      <use xlink:href="#Arial-BoldMT-61" x="350.048828"/>
      <use xlink:href="#Arial-BoldMT-e7" x="405.664062"/>
      <use xlink:href="#Arial-BoldMT-e3" x="461.279297"/>
      <use xlink:href="#Arial-BoldMT-6f" x="516.894531"/>
      <use xlink:href="#Arial-BoldMT-20" x="577.978516"/>
      <use xlink:href="#Arial-BoldMT-28" x="605.761719"/>
      <use xlink:href="#Arial-BoldMT-53" x="639.0625"/>
      <use xlink:href="#Arial-BoldMT-74" x="705.761719"/>
      <use xlink:href="#Arial-BoldMT-72" x="739.0625"/>
      <use xlink:href="#Arial-BoldMT-61" x="777.978516"/>
      <use xlink:href="#Arial-BoldMT-69" x="833.59375"/>
      <use xlink:href="#Arial-BoldMT-6e" x="861.376953"/>
      <use xlink:href="#Arial-BoldMT-29" x="922.460938"/>
     </g>
    </g>
   </g>
   <g id="matplotlib.axis_2">
    <g id="ytick_1">
     <g id="line2d_13">
      <path d="M 48.35125 279.743594 
L 438.95125 279.743594 
" clip-path="url(#p88d0366ec2)" style="fill: none; stroke: #b0b0b0; stroke-opacity: 0.3; stroke-width: 0.6; stroke-linecap: square"/>
     </g>
     <g id="line2d_14">
      <defs>
       <path id="m7df3a202d2" d="M 0 0 
L -3.5 0 
" style="stroke: #636363; stroke-width: 0.8"/>
      </defs>
      <g>
       <use xlink:href="#m7df3a202d2" x="48.35125" y="279.743594" style="fill: #636363; stroke: #636363; stroke-width: 0.8"/>
      </g>
     </g>
     <g id="text_8">
      <!-- 0.0 -->
      <g style="fill: #636363" transform="translate(26.06125 283.680391) scale(0.11 -0.11)">
       <use xlink:href="#ArialMT-30"/>
       <use xlink:href="#ArialMT-2e" x="55.615234"/>
       <use xlink:href="#ArialMT-30" x="83.398438"/>
      </g>
     </g>
    </g>
    <g id="ytick_2">
     <g id="line2d_15">
      <path d="M 48.35125 234.383594 
L 438.95125 234.383594 
" clip-path="url(#p88d0366ec2)" style="fill: none; stroke: #b0b0b0; stroke-opacity: 0.3; stroke-width: 0.6; stroke-linecap: square"/>
     </g>
     <g id="line2d_16">
      <g>
       <use xlink:href="#m7df3a202d2" x="48.35125" y="234.383594" style="fill: #636363; stroke: #636363; stroke-width: 0.8"/>
      </g>
     </g>
     <g id="text_9">
      <!-- 0.1 -->
      <g style="fill: #636363" transform="translate(26.06125 238.320391) scale(0.11 -0.11)">
       <use xlink:href="#ArialMT-30"/>
       <use xlink:href="#ArialMT-2e" x="55.615234"/>
       <use xlink:href="#ArialMT-31" x="83.398438"/>
      </g>
     </g>
    </g>
    <g id="ytick_3">
     <g id="line2d_17">
      <path d="M 48.35125 189.023594 
L 438.95125 189.023594 
" clip-path="url(#p88d0366ec2)" style="fill: none; stroke: #b0b0b0; stroke-opacity: 0.3; stroke-width: 0.6; stroke-linecap: square"/>
     </g>
     <g id="line2d_18">
      <g>
       <use xlink:href="#m7df3a202d2" x="48.35125" y="189.023594" style="fill: #636363; stroke: #636363; stroke-width: 0.8"/>
      </g>
     </g>
     <g id="text_10">
      <!-- 0.2 -->
      <g style="fill: #636363" transform="translate(26.06125 192.960391) scale(0.11 -0.11)">
       <use xlink:href="#ArialMT-30"/>
       <use xlink:href="#ArialMT-2e" x="55.615234"/>
       <use xlink:href="#ArialMT-32" x="83.398438"/>
      </g>
     </g>
    </g>
    <g id="ytick_4">
     <g id="line2d_19">
      <path d="M 48.35125 143.663594 
L 438.95125 143.663594 
" clip-path="url(#p88d0366ec2)" style="fill: none; stroke: #b0b0b0; stroke-opacity: 0.3; stroke-width: 0.6; stroke-linecap: square"/>
     </g>
     <g id="line2d_20">
      <g>
       <use xlink:href="#m7df3a202d2" x="48.35125" y="143.663594" style="fill: #636363; stroke: #636363; stroke-width: 0.8"/>
      </g>
     </g>
     <g id="text_11">
      <!-- 0.3 -->
      <g style="fill: #636363" transform="translate(26.06125 147.600391) scale(0.11 -0.11)">
       <defs>
        <path id="ArialMT-33" d="M 269 1209 
L 831 1284 
Q 928 806 1161 595 
Q 1394 384 1728 384 
Q 2125 384 2398 659 
Q 2672 934 2672 1341 
Q 2672 1728 2419 1979 
Q 2166 2231 1775 2231 
Q 1616 2231 1378 2169 
L 1441 2663 
Q 1497 2656 1531 2656 
Q 1891 2656 2178 2843 
Q 2466 3031 2466 3422 
Q 2466 3731 2256 3934 
Q 2047 4138 1716 4138 
Q 1388 4138 1169 3931 
Q 950 3725 888 3313 
L 325 3413 
Q 428 3978 793 4289 
Q 1159 4600 1703 4600 
Q 2078 4600 2393 4439 
Q 2709 4278 2876 4000 
Q 3044 3722 3044 3409 
Q 3044 3113 2884 2869 
Q 2725 2625 2413 2481 
Q 2819 2388 3044 2092 
Q 3269 1797 3269 1353 
Q 3269 753 2831 336 
Q 2394 -81 1725 -81 
Q 1122 -81 723 278 
Q 325 638 269 1209 
z
" transform="scale(0.015625)"/>
       </defs>
       <use xlink:href="#ArialMT-30"/>
       <use xlink:href="#ArialMT-2e" x="55.615234"/>
       <use xlink:href="#ArialMT-33" x="83.398438"/>
      </g>
     </g>
    </g>
    <g id="ytick_5">
     <g id="line2d_21">
      <path d="M 48.35125 98.303594 
L 438.95125 98.303594 
" clip-path="url(#p88d0366ec2)" style="fill: none; stroke: #b0b0b0; stroke-opacity: 0.3; stroke-width: 0.6; stroke-linecap: square"/>
     </g>
     <g id="line2d_22">
      <g>
       <use xlink:href="#m7df3a202d2" x="48.35125" y="98.303594" style="fill: #636363; stroke: #636363; stroke-width: 0.8"/>
      </g>
     </g>
     <g id="text_12">
      <!-- 0.4 -->
      <g style="fill: #636363" transform="translate(26.06125 102.240391) scale(0.11 -0.11)">
       <defs>
        <path id="ArialMT-34" d="M 2069 0 
L 2069 1097 
L 81 1097 
L 81 1613 
L 2172 4581 
L 2631 4581 
L 2631 1613 
L 3250 1613 
L 3250 1097 
L 2631 1097 
L 2631 0 
L 2069 0 
z
M 2069 1613 
L 2069 3678 
L 634 1613 
L 2069 1613 
z
" transform="scale(0.015625)"/>
       </defs>
       <use xlink:href="#ArialMT-30"/>
       <use xlink:href="#ArialMT-2e" x="55.615234"/>
       <use xlink:href="#ArialMT-34" x="83.398438"/>
      </g>
     </g>
    </g>
    <g id="ytick_6">
     <g id="line2d_23">
      <path d="M 48.35125 52.943594 
L 438.95125 52.943594 
" clip-path="url(#p88d0366ec2)" style="fill: none; stroke: #b0b0b0; stroke-opacity: 0.3; stroke-width: 0.6; stroke-linecap: square"/>
     </g>
     <g id="line2d_24">
      <g>
       <use xlink:href="#m7df3a202d2" x="48.35125" y="52.943594" style="fill: #636363; stroke: #636363; stroke-width: 0.8"/>
      </g>
     </g>
     <g id="text_13">
      <!-- 0.5 -->
      <g style="fill: #636363" transform="translate(26.06125 56.880391) scale(0.11 -0.11)">
       <use xlink:href="#ArialMT-30"/>
       <use xlink:href="#ArialMT-2e" x="55.615234"/>
       <use xlink:href="#ArialMT-35" x="83.398438"/>
      </g>
     </g>
    </g>
    <g id="text_14">
     <!-- Tensão (Stress) — MPa -->
     <g style="fill: #1a1a1a" transform="translate(19.535625 221.242656) rotate(-90) scale(0.12 -0.12)">
      <defs>
       <path id="Arial-BoldMT-54" d="M 1497 0 
L 1497 3806 
L 138 3806 
L 138 4581 
L 3778 4581 
L 3778 3806 
L 2422 3806 
L 2422 0 
L 1497 0 
z
" transform="scale(0.015625)"/>
       <path id="Arial-BoldMT-73" d="M 150 947 
L 1031 1081 
Q 1088 825 1259 692 
Q 1431 559 1741 559 
Q 2081 559 2253 684 
Q 2369 772 2369 919 
Q 2369 1019 2306 1084 
Q 2241 1147 2013 1200 
Q 950 1434 666 1628 
Q 272 1897 272 2375 
Q 272 2806 612 3100 
Q 953 3394 1669 3394 
Q 2350 3394 2681 3172 
Q 3013 2950 3138 2516 
L 2309 2363 
Q 2256 2556 2107 2659 
Q 1959 2763 1684 2763 
Q 1338 2763 1188 2666 
Q 1088 2597 1088 2488 
Q 1088 2394 1175 2328 
Q 1294 2241 1995 2081 
Q 2697 1922 2975 1691 
Q 3250 1456 3250 1038 
Q 3250 581 2869 253 
Q 2488 -75 1741 -75 
Q 1063 -75 667 200 
Q 272 475 150 947 
z
" transform="scale(0.015625)"/>
       <path id="Arial-BoldMT-2014" d="M 0 1331 
L 0 1988 
L 6400 1988 
L 6400 1331 
L 0 1331 
z
" transform="scale(0.015625)"/>
       <path id="Arial-BoldMT-4d" d="M 453 0 
L 453 4581 
L 1838 4581 
L 2669 1456 
L 3491 4581 
L 4878 4581 
L 4878 0 
L 4019 0 
L 4019 3606 
L 3109 0 
L 2219 0 
L 1313 3606 
L 1313 0 
L 453 0 
z
" transform="scale(0.015625)"/>
       <path id="Arial-BoldMT-50" d="M 466 0 
L 466 4581 
L 1950 4581 
Q 2794 4581 3050 4513 
Q 3444 4409 3709 4064 
Q 3975 3719 3975 3172 
Q 3975 2750 3822 2462 
Q 3669 2175 3433 2011 
Q 3197 1847 2953 1794 
Q 2622 1728 1994 1728 
L 1391 1728 
L 1391 0 
L 466 0 
z
M 1391 3806 
L 1391 2506 
L 1897 2506 
Q 2444 2506 2628 2578 
Q 2813 2650 2917 2803 
Q 3022 2956 3022 3159 
Q 3022 3409 2875 3571 
Q 2728 3734 2503 3775 
Q 2338 3806 1838 3806 
L 1391 3806 
z
" transform="scale(0.015625)"/>
      </defs>
      <use xlink:href="#Arial-BoldMT-54"/>
      <use xlink:href="#Arial-BoldMT-65" x="53.708984"/>
      <use xlink:href="#Arial-BoldMT-6e" x="109.324219"/>
      <use xlink:href="#Arial-BoldMT-73" x="170.408203"/>
      <use xlink:href="#Arial-BoldMT-e3" x="226.023438"/>
      <use xlink:href="#Arial-BoldMT-6f" x="281.638672"/>
      <use xlink:href="#Arial-BoldMT-20" x="342.722656"/>
      <use xlink:href="#Arial-BoldMT-28" x="370.505859"/>
      <use xlink:href="#Arial-BoldMT-53" x="403.806641"/>
      <use xlink:href="#Arial-BoldMT-74" x="470.505859"/>
      <use xlink:href="#Arial-BoldMT-72" x="503.806641"/>
      <use xlink:href="#Arial-BoldMT-65" x="542.722656"/>
      <use xlink:href="#Arial-BoldMT-73" x="598.337891"/>
      <use xlink:href="#Arial-BoldMT-73" x="653.953125"/>
      <use xlink:href="#Arial-BoldMT-29" x="709.568359"/>
      <use xlink:href="#Arial-BoldMT-20" x="742.869141"/>
      <use xlink:href="#Arial-BoldMT-2014" x="770.652344"/>
      <use xlink:href="#Arial-BoldMT-20" x="870.652344"/>
      <use xlink:href="#Arial-BoldMT-4d" x="898.435547"/>
      <use xlink:href="#Arial-BoldMT-50" x="981.736328"/>
      <use xlink:href="#Arial-BoldMT-61" x="1048.435547"/>
     </g>
    </g>
   </g>
   <g id="line2d_25">
    <path d="M 48.35125 211.619756 
L 49.916781 211.367741 
L 61.658264 208.739495 
L 69.485919 206.758668 
L 75.748044 204.941927 
L 81.227402 203.112847 
L 85.923995 201.312644 
L 89.837823 199.60823 
L 93.751651 197.678698 
L 97.665478 195.479693 
L 100.796541 193.49114 
L 103.927603 191.26432 
L 107.058665 188.761976 
L 110.189727 185.940652 
L 113.320789 182.749521 
L 115.669086 180.078002 
L 118.017382 177.13622 
L 120.365679 173.89146 
L 122.713975 170.306674 
L 125.062272 166.339845 
L 127.410569 161.943256 
L 129.758865 157.062634 
L 132.107162 151.636166 
L 134.455458 145.593351 
L 136.803755 138.853659 
L 139.152052 131.324978 
L 141.500348 122.901794 
L 143.848645 113.463065 
L 146.196941 102.869734 
L 148.545238 90.961814 
L 150.893535 77.554962 
L 153.241831 62.436459 
L 155.590128 45.360473 
L 157.938424 26.042471 
L 159.503955 11.757452 
L 160.286721 7.583594 
L 438.95125 7.583594 
L 438.95125 7.583594 
" clip-path="url(#p88d0366ec2)" style="fill: none; stroke: #2171b5; stroke-width: 2.5; stroke-linecap: square"/>
   </g>
   <g id="patch_3">
    <path d="M 48.35125 279.743594 
L 48.35125 30.263594 
" style="fill: none; stroke: #636363; stroke-width: 1.2; stroke-linejoin: miter; stroke-linecap: square"/>
   </g>
   <g id="patch_4">
    <path d="M 438.95125 279.743594 
L 438.95125 30.263594 
" style="fill: none; stroke: #636363; stroke-width: 1.2; stroke-linejoin: miter; stroke-linecap: square"/>
   </g>
   <g id="patch_5">
    <path d="M 48.35125 279.743594 
L 438.95125 279.743594 
" style="fill: none; stroke: #636363; stroke-width: 1.2; stroke-linejoin: miter; stroke-linecap: square"/>
   </g>
   <g id="patch_6">
    <path d="M 48.35125 30.263594 
L 438.95125 30.263594 
" style="fill: none; stroke: #636363; stroke-width: 1.2; stroke-linejoin: miter; stroke-linecap: square"/>
   </g>
   <g id="patch_7">
    <path d="M 189.245653 230.066234 
Q 147.600866 249.9383 107.166927 269.232572 
" style="fill: none; stroke: #31a354; stroke-width: 1.2; stroke-linecap: round"/>
    <path d="M 111.191167 269.306715 
L 107.166927 269.232572 
L 109.640785 266.057667 
" style="fill: none; stroke: #31a354; stroke-width: 1.2; stroke-linecap: round"/>
   </g>
   <g id="text_15">
    <!-- Matriz (c = 0,05 MPa) -->
    <g style="fill: #31a354" transform="translate(159.95125 225.311594) scale(0.09 -0.09)">
     <defs>
      <path id="Arial-BoldMT-7a" d="M 106 0 
L 106 684 
L 1350 2113 
Q 1656 2463 1803 2609 
Q 1650 2600 1400 2597 
L 228 2591 
L 228 3319 
L 2972 3319 
L 2972 2697 
L 1703 1234 
L 1256 750 
Q 1622 772 1709 772 
L 3069 772 
L 3069 0 
L 106 0 
z
" transform="scale(0.015625)"/>
      <path id="Arial-BoldMT-63" d="M 3353 2338 
L 2488 2181 
Q 2444 2441 2289 2572 
Q 2134 2703 1888 2703 
Q 1559 2703 1364 2476 
Q 1169 2250 1169 1719 
Q 1169 1128 1367 884 
Q 1566 641 1900 641 
Q 2150 641 2309 783 
Q 2469 925 2534 1272 
L 3397 1125 
Q 3263 531 2881 228 
Q 2500 -75 1859 -75 
Q 1131 -75 698 384 
Q 266 844 266 1656 
Q 266 2478 700 2936 
Q 1134 3394 1875 3394 
Q 2481 3394 2839 3133 
Q 3197 2872 3353 2338 
z
" transform="scale(0.015625)"/>
      <path id="Arial-BoldMT-3d" d="M 266 2550 
L 266 3356 
L 3469 3356 
L 3469 2550 
L 266 2550 
z
M 266 1163 
L 266 1972 
L 3469 1972 
L 3469 1163 
L 266 1163 
z
" transform="scale(0.015625)"/>
      <path id="Arial-BoldMT-30" d="M 1756 4600 
Q 2422 4600 2797 4125 
Q 3244 3563 3244 2259 
Q 3244 959 2794 391 
Q 2422 -78 1756 -78 
Q 1088 -78 678 436 
Q 269 950 269 2269 
Q 269 3563 719 4131 
Q 1091 4600 1756 4600 
z
M 1756 3872 
Q 1597 3872 1472 3770 
Q 1347 3669 1278 3406 
Q 1188 3066 1188 2259 
Q 1188 1453 1269 1151 
Q 1350 850 1473 750 
Q 1597 650 1756 650 
Q 1916 650 2041 751 
Q 2166 853 2234 1116 
Q 2325 1453 2325 2259 
Q 2325 3066 2244 3367 
Q 2163 3669 2039 3770 
Q 1916 3872 1756 3872 
z
" transform="scale(0.015625)"/>
      <path id="Arial-BoldMT-2c" d="M 438 878 
L 1316 878 
L 1316 250 
Q 1316 -131 1250 -351 
Q 1184 -572 1001 -747 
Q 819 -922 538 -1022 
L 366 -659 
Q 631 -572 743 -419 
Q 856 -266 863 0 
L 438 0 
L 438 878 
z
" transform="scale(0.015625)"/>
      <path id="Arial-BoldMT-35" d="M 284 1178 
L 1159 1269 
Q 1197 972 1381 798 
Q 1566 625 1806 625 
Q 2081 625 2272 848 
Q 2463 1072 2463 1522 
Q 2463 1944 2273 2155 
Q 2084 2366 1781 2366 
Q 1403 2366 1103 2031 
L 391 2134 
L 841 4519 
L 3163 4519 
L 3163 3697 
L 1506 3697 
L 1369 2919 
Q 1663 3066 1969 3066 
Q 2553 3066 2959 2641 
Q 3366 2216 3366 1538 
Q 3366 972 3038 528 
Q 2591 -78 1797 -78 
Q 1163 -78 763 262 
Q 363 603 284 1178 
z
" transform="scale(0.015625)"/>
     </defs>
     <use xlink:href="#Arial-BoldMT-4d"/>
     <use xlink:href="#Arial-BoldMT-61" x="83.300781"/>
     <use xlink:href="#Arial-BoldMT-74" x="138.916016"/>
     <use xlink:href="#Arial-BoldMT-72" x="172.216797"/>
     <use xlink:href="#Arial-BoldMT-69" x="211.132812"/>
     <use xlink:href="#Arial-BoldMT-7a" x="238.916016"/>
     <use xlink:href="#Arial-BoldMT-20" x="288.916016"/>
     <use xlink:href="#Arial-BoldMT-28" x="316.699219"/>
     <use xlink:href="#Arial-BoldMT-63" x="350"/>
     <use xlink:href="#Arial-BoldMT-20" x="405.615234"/>
     <use xlink:href="#Arial-BoldMT-3d" x="433.398438"/>
     <use xlink:href="#Arial-BoldMT-20" x="491.796875"/>
     <use xlink:href="#Arial-BoldMT-30" x="519.580078"/>
     <use xlink:href="#Arial-BoldMT-2c" x="575.195312"/>
     <use xlink:href="#Arial-BoldMT-30" x="602.978516"/>
     <use xlink:href="#Arial-BoldMT-35" x="658.59375"/>
     <use xlink:href="#Arial-BoldMT-20" x="714.208984"/>
     <use xlink:href="#Arial-BoldMT-4d" x="741.992188"/>
     <use xlink:href="#Arial-BoldMT-50" x="825.292969"/>
     <use xlink:href="#Arial-BoldMT-61" x="891.992188"/>
     <use xlink:href="#Arial-BoldMT-29" x="947.607422"/>
    </g>
   </g>
   <g id="patch_8">
    <path d="M 289.151856 171.632763 
Q 253.167236 206.84388 218.141549 241.116675 
" style="fill: none; stroke: #e6550d; stroke-width: 1.2; stroke-linecap: round"/>
    <path d="M 221.973528 239.88544 
L 218.141549 241.116675 
L 219.455748 237.312351 
" style="fill: none; stroke: #e6550d; stroke-width: 1.2; stroke-linecap: round"/>
   </g>
   <g id="text_16">
    <!-- Recrutamento -->
    <g style="fill: #e6550d" transform="translate(271.55125 156.705437) scale(0.09 -0.09)">
     <defs>
      <path id="Arial-BoldMT-52" d="M 469 0 
L 469 4581 
L 2416 4581 
Q 3150 4581 3483 4457 
Q 3816 4334 4016 4018 
Q 4216 3703 4216 3297 
Q 4216 2781 3912 2445 
Q 3609 2109 3006 2022 
Q 3306 1847 3501 1637 
Q 3697 1428 4028 894 
L 4588 0 
L 3481 0 
L 2813 997 
Q 2456 1531 2325 1670 
Q 2194 1809 2047 1861 
Q 1900 1913 1581 1913 
L 1394 1913 
L 1394 0 
L 469 0 
z
M 1394 2644 
L 2078 2644 
Q 2744 2644 2909 2700 
Q 3075 2756 3169 2893 
Q 3263 3031 3263 3238 
Q 3263 3469 3139 3611 
Q 3016 3753 2791 3791 
Q 2678 3806 2116 3806 
L 1394 3806 
L 1394 2644 
z
" transform="scale(0.015625)"/>
      <path id="Arial-BoldMT-75" d="M 2644 0 
L 2644 497 
Q 2463 231 2167 78 
Q 1872 -75 1544 -75 
Q 1209 -75 943 72 
Q 678 219 559 484 
Q 441 750 441 1219 
L 441 3319 
L 1319 3319 
L 1319 1794 
Q 1319 1094 1367 936 
Q 1416 778 1544 686 
Q 1672 594 1869 594 
Q 2094 594 2272 717 
Q 2450 841 2515 1023 
Q 2581 1206 2581 1919 
L 2581 3319 
L 3459 3319 
L 3459 0 
L 2644 0 
z
" transform="scale(0.015625)"/>
     </defs>
     <use xlink:href="#Arial-BoldMT-52"/>
     <use xlink:href="#Arial-BoldMT-65" x="72.216797"/>
     <use xlink:href="#Arial-BoldMT-63" x="127.832031"/>
     <use xlink:href="#Arial-BoldMT-72" x="183.447266"/>
     <use xlink:href="#Arial-BoldMT-75" x="222.363281"/>
     <use xlink:href="#Arial-BoldMT-74" x="283.447266"/>
     <use xlink:href="#Arial-BoldMT-61" x="316.748047"/>
     <use xlink:href="#Arial-BoldMT-6d" x="372.363281"/>
     <use xlink:href="#Arial-BoldMT-65" x="461.279297"/>
     <use xlink:href="#Arial-BoldMT-6e" x="516.894531"/>
     <use xlink:href="#Arial-BoldMT-74" x="577.978516"/>
     <use xlink:href="#Arial-BoldMT-6f" x="611.279297"/>
    </g>
    <!-- Fibrilar (k₁) -->
    <g style="fill: #e6550d" transform="translate(271.55125 166.343594) scale(0.09 -0.09)">
     <defs>
      <path id="Arial-BoldMT-46" d="M 472 0 
L 472 4581 
L 3613 4581 
L 3613 3806 
L 1397 3806 
L 1397 2722 
L 3309 2722 
L 3309 1947 
L 1397 1947 
L 1397 0 
L 472 0 
z
" transform="scale(0.015625)"/>
      <path id="Arial-BoldMT-62" d="M 422 0 
L 422 4581 
L 1300 4581 
L 1300 2931 
Q 1706 3394 2263 3394 
Q 2869 3394 3266 2955 
Q 3663 2516 3663 1694 
Q 3663 844 3258 384 
Q 2853 -75 2275 -75 
Q 1991 -75 1714 67 
Q 1438 209 1238 488 
L 1238 0 
L 422 0 
z
M 1294 1731 
Q 1294 1216 1456 969 
Q 1684 619 2063 619 
Q 2353 619 2558 867 
Q 2763 1116 2763 1650 
Q 2763 2219 2556 2470 
Q 2350 2722 2028 2722 
Q 1713 2722 1503 2476 
Q 1294 2231 1294 1731 
z
" transform="scale(0.015625)"/>
      <path id="Arial-BoldMT-6c" d="M 459 0 
L 459 4581 
L 1338 4581 
L 1338 0 
L 459 0 
z
" transform="scale(0.015625)"/>
      <path id="Arial-BoldMT-6b" d="M 428 0 
L 428 4581 
L 1306 4581 
L 1306 2150 
L 2334 3319 
L 3416 3319 
L 2281 2106 
L 3497 0 
L 2550 0 
L 1716 1491 
L 1306 1063 
L 1306 0 
L 428 0 
z
" transform="scale(0.015625)"/>
      <path id="Arial-BoldMT-2081" d="M 800 0 
L 800 4000 
L 4000 4000 
L 4000 0 
L 800 0 
z
M 900 100 
L 3900 100 
L 3900 3900 
L 900 3900 
L 900 100 
z
" transform="scale(0.015625)"/>
     </defs>
     <use xlink:href="#Arial-BoldMT-46"/>
     <use xlink:href="#Arial-BoldMT-69" x="61.083984"/>
     <use xlink:href="#Arial-BoldMT-62" x="88.867188"/>
     <use xlink:href="#Arial-BoldMT-72" x="149.951172"/>
     <use xlink:href="#Arial-BoldMT-69" x="188.867188"/>
     <use xlink:href="#Arial-BoldMT-6c" x="216.650391"/>
     <use xlink:href="#Arial-BoldMT-61" x="244.433594"/>
     <use xlink:href="#Arial-BoldMT-72" x="300.048828"/>
     <use xlink:href="#Arial-BoldMT-20" x="338.964844"/>
     <use xlink:href="#Arial-BoldMT-28" x="366.748047"/>
     <use xlink:href="#Arial-BoldMT-6b" x="400.048828"/>
     <use xlink:href="#Arial-BoldMT-2081" x="455.664062"/>
     <use xlink:href="#Arial-BoldMT-29" x="530.664062"/>
    </g>
   </g>
   <g id="patch_9">
    <path d="M 261.719207 80.31499 
Q 307.567548 100.250276 352.185523 119.650587 
" style="fill: none; stroke: #cc3333; stroke-width: 1.2; stroke-linecap: round"/>
    <path d="M 349.601847 116.564389 
L 352.185523 119.650587 
L 348.166359 119.865809 
" style="fill: none; stroke: #cc3333; stroke-width: 1.2; stroke-linecap: round"/>
   </g>
   <g id="text_17">
    <!-- Endurecimento -->
    <g style="fill: #cc3333" transform="translate(187.85125 65.985437) scale(0.09 -0.09)">
     <defs>
      <path id="Arial-BoldMT-45" d="M 466 0 
L 466 4581 
L 3863 4581 
L 3863 3806 
L 1391 3806 
L 1391 2791 
L 3691 2791 
L 3691 2019 
L 1391 2019 
L 1391 772 
L 3950 772 
L 3950 0 
L 466 0 
z
" transform="scale(0.015625)"/>
      <path id="Arial-BoldMT-64" d="M 3503 0 
L 2688 0 
L 2688 488 
Q 2484 203 2207 64 
Q 1931 -75 1650 -75 
Q 1078 -75 670 386 
Q 263 847 263 1672 
Q 263 2516 659 2955 
Q 1056 3394 1663 3394 
Q 2219 3394 2625 2931 
L 2625 4581 
L 3503 4581 
L 3503 0 
z
M 1159 1731 
Q 1159 1200 1306 963 
Q 1519 619 1900 619 
Q 2203 619 2415 876 
Q 2628 1134 2628 1647 
Q 2628 2219 2422 2470 
Q 2216 2722 1894 2722 
Q 1581 2722 1370 2473 
Q 1159 2225 1159 1731 
z
" transform="scale(0.015625)"/>
     </defs>
     <use xlink:href="#Arial-BoldMT-45"/>
     <use xlink:href="#Arial-BoldMT-6e" x="66.699219"/>
     <use xlink:href="#Arial-BoldMT-64" x="127.783203"/>
     <use xlink:href="#Arial-BoldMT-75" x="188.867188"/>
     <use xlink:href="#Arial-BoldMT-72" x="249.951172"/>
     <use xlink:href="#Arial-BoldMT-65" x="288.867188"/>
     <use xlink:href="#Arial-BoldMT-63" x="344.482422"/>
     <use xlink:href="#Arial-BoldMT-69" x="400.097656"/>
     <use xlink:href="#Arial-BoldMT-6d" x="427.880859"/>
     <use xlink:href="#Arial-BoldMT-65" x="516.796875"/>
     <use xlink:href="#Arial-BoldMT-6e" x="572.412109"/>
     <use xlink:href="#Arial-BoldMT-74" x="633.496094"/>
     <use xlink:href="#Arial-BoldMT-6f" x="666.796875"/>
    </g>
    <!-- Exponencial (k₂=100) -->
    <g style="fill: #cc3333" transform="translate(187.85125 75.623594) scale(0.09 -0.09)">
     <defs>
      <path id="Arial-BoldMT-78" d="M 38 0 
L 1234 1709 
L 88 3319 
L 1159 3319 
L 1747 2406 
L 2366 3319 
L 3397 3319 
L 2272 1747 
L 3500 0 
L 2422 0 
L 1747 1028 
L 1066 0 
L 38 0 
z
" transform="scale(0.015625)"/>
      <path id="Arial-BoldMT-70" d="M 434 3319 
L 1253 3319 
L 1253 2831 
Q 1413 3081 1684 3237 
Q 1956 3394 2288 3394 
Q 2866 3394 3269 2941 
Q 3672 2488 3672 1678 
Q 3672 847 3265 386 
Q 2859 -75 2281 -75 
Q 2006 -75 1782 34 
Q 1559 144 1313 409 
L 1313 -1263 
L 434 -1263 
L 434 3319 
z
M 1303 1716 
Q 1303 1156 1525 889 
Q 1747 622 2066 622 
Q 2372 622 2575 867 
Q 2778 1113 2778 1672 
Q 2778 2194 2568 2447 
Q 2359 2700 2050 2700 
Q 1728 2700 1515 2451 
Q 1303 2203 1303 1716 
z
" transform="scale(0.015625)"/>
      <path id="Arial-BoldMT-2082" d="M 800 0 
L 800 4000 
L 4000 4000 
L 4000 0 
L 800 0 
z
M 900 100 
L 3900 100 
L 3900 3900 
L 900 3900 
L 900 100 
z
" transform="scale(0.015625)"/>
      <path id="Arial-BoldMT-31" d="M 2519 0 
L 1641 0 
L 1641 3309 
Q 1159 2859 506 2644 
L 506 3441 
Q 850 3553 1253 3867 
Q 1656 4181 1806 4600 
L 2519 4600 
L 2519 0 
z
" transform="scale(0.015625)"/>
     </defs>
     <use xlink:href="#Arial-BoldMT-45"/>
     <use xlink:href="#Arial-BoldMT-78" x="66.699219"/>
     <use xlink:href="#Arial-BoldMT-70" x="122.314453"/>
     <use xlink:href="#Arial-BoldMT-6f" x="183.398438"/>
     <use xlink:href="#Arial-BoldMT-6e" x="244.482422"/>
     <use xlink:href="#Arial-BoldMT-65" x="305.566406"/>
     <use xlink:href="#Arial-BoldMT-6e" x="361.181641"/>
     <use xlink:href="#Arial-BoldMT-63" x="422.265625"/>
     <use xlink:href="#Arial-BoldMT-69" x="477.880859"/>
     <use xlink:href="#Arial-BoldMT-61" x="505.664062"/>
     <use xlink:href="#Arial-BoldMT-6c" x="561.279297"/>
     <use xlink:href="#Arial-BoldMT-20" x="589.0625"/>
     <use xlink:href="#Arial-BoldMT-28" x="616.845703"/>
     <use xlink:href="#Arial-BoldMT-6b" x="650.146484"/>
     <use xlink:href="#Arial-BoldMT-2082" x="705.761719"/>
     <use xlink:href="#Arial-BoldMT-3d" x="780.761719"/>
     <use xlink:href="#Arial-BoldMT-31" x="839.160156"/>
     <use xlink:href="#Arial-BoldMT-30" x="894.775391"/>
     <use xlink:href="#Arial-BoldMT-30" x="950.390625"/>
     <use xlink:href="#Arial-BoldMT-29" x="1006.005859"/>
    </g>
   </g>
   <g id="text_18">
    <!-- Curva de Tensão-Deformação em J — Modelo HGO Corneano -->
    <g transform="translate(53.797422 20.263594) scale(0.13 -0.13)">
     <defs>
      <path id="Arial-BoldMT-43" d="M 3397 1684 
L 4294 1400 
Q 4088 650 3608 286 
Q 3128 -78 2391 -78 
Q 1478 -78 890 545 
Q 303 1169 303 2250 
Q 303 3394 893 4026 
Q 1484 4659 2447 4659 
Q 3288 4659 3813 4163 
Q 4125 3869 4281 3319 
L 3366 3100 
Q 3284 3456 3026 3662 
Q 2769 3869 2400 3869 
Q 1891 3869 1573 3503 
Q 1256 3138 1256 2319 
Q 1256 1450 1568 1081 
Q 1881 713 2381 713 
Q 2750 713 3015 947 
Q 3281 1181 3397 1684 
z
" transform="scale(0.015625)"/>
      <path id="Arial-BoldMT-76" d="M 1372 0 
L 34 3319 
L 956 3319 
L 1581 1625 
L 1763 1059 
Q 1834 1275 1853 1344 
Q 1897 1484 1947 1625 
L 2578 3319 
L 3481 3319 
L 2163 0 
L 1372 0 
z
" transform="scale(0.015625)"/>
      <path id="Arial-BoldMT-2d" d="M 359 1222 
L 359 2100 
L 2084 2100 
L 2084 1222 
L 359 1222 
z
" transform="scale(0.015625)"/>
      <path id="Arial-BoldMT-4a" d="M 2119 4581 
L 3041 4581 
L 3041 1681 
Q 3041 1113 2941 806 
Q 2806 406 2453 164 
Q 2100 -78 1522 -78 
Q 844 -78 478 301 
Q 113 681 109 1416 
L 981 1516 
Q 997 1122 1097 959 
Q 1247 713 1553 713 
Q 1863 713 1991 889 
Q 2119 1066 2119 1622 
L 2119 4581 
z
" transform="scale(0.015625)"/>
      <path id="Arial-BoldMT-48" d="M 469 0 
L 469 4581 
L 1394 4581 
L 1394 2778 
L 3206 2778 
L 3206 4581 
L 4131 4581 
L 4131 0 
L 3206 0 
L 3206 2003 
L 1394 2003 
L 1394 0 
L 469 0 
z
" transform="scale(0.015625)"/>
      <path id="Arial-BoldMT-47" d="M 2597 1684 
L 2597 2456 
L 4591 2456 
L 4591 631 
Q 4300 350 3748 136 
Q 3197 -78 2631 -78 
Q 1913 -78 1378 223 
Q 844 525 575 1086 
Q 306 1647 306 2306 
Q 306 3022 606 3578 
Q 906 4134 1484 4431 
Q 1925 4659 2581 4659 
Q 3434 4659 3914 4301 
Q 4394 3944 4531 3313 
L 3613 3141 
Q 3516 3478 3248 3673 
Q 2981 3869 2581 3869 
Q 1975 3869 1617 3484 
Q 1259 3100 1259 2344 
Q 1259 1528 1621 1120 
Q 1984 713 2572 713 
Q 2863 713 3155 827 
Q 3447 941 3656 1103 
L 3656 1684 
L 2597 1684 
z
" transform="scale(0.015625)"/>
      <path id="Arial-BoldMT-4f" d="M 278 2263 
Q 278 2963 488 3438 
Q 644 3788 914 4066 
Q 1184 4344 1506 4478 
Q 1934 4659 2494 4659 
Q 3506 4659 4114 4031 
Q 4722 3403 4722 2284 
Q 4722 1175 4119 548 
Q 3516 -78 2506 -78 
Q 1484 -78 881 545 
Q 278 1169 278 2263 
z
M 1231 2294 
Q 1231 1516 1590 1114 
Q 1950 713 2503 713 
Q 3056 713 3411 1111 
Q 3766 1509 3766 2306 
Q 3766 3094 3420 3481 
Q 3075 3869 2503 3869 
Q 1931 3869 1581 3476 
Q 1231 3084 1231 2294 
z
" transform="scale(0.015625)"/>
     </defs>
     <use xlink:href="#Arial-BoldMT-43"/>
     <use xlink:href="#Arial-BoldMT-75" x="72.216797"/>
     <use xlink:href="#Arial-BoldMT-72" x="133.300781"/>
     <use xlink:href="#Arial-BoldMT-76" x="172.216797"/>
     <use xlink:href="#Arial-BoldMT-61" x="227.832031"/>
     <use xlink:href="#Arial-BoldMT-20" x="283.447266"/>
     <use xlink:href="#Arial-BoldMT-64" x="311.230469"/>
     <use xlink:href="#Arial-BoldMT-65" x="372.314453"/>
     <use xlink:href="#Arial-BoldMT-20" x="427.929688"/>
     <use xlink:href="#Arial-BoldMT-54" x="455.712891"/>
     <use xlink:href="#Arial-BoldMT-65" x="509.421875"/>
     <use xlink:href="#Arial-BoldMT-6e" x="565.037109"/>
     <use xlink:href="#Arial-BoldMT-73" x="626.121094"/>
     <use xlink:href="#Arial-BoldMT-e3" x="681.736328"/>
     <use xlink:href="#Arial-BoldMT-6f" x="737.351562"/>
     <use xlink:href="#Arial-BoldMT-2d" x="798.435547"/>
     <use xlink:href="#Arial-BoldMT-44" x="831.736328"/>
     <use xlink:href="#Arial-BoldMT-65" x="903.953125"/>
     <use xlink:href="#Arial-BoldMT-66" x="959.568359"/>
     <use xlink:href="#Arial-BoldMT-6f" x="992.869141"/>
     <use xlink:href="#Arial-BoldMT-72" x="1053.953125"/>
     <use xlink:href="#Arial-BoldMT-6d" x="1092.869141"/>
     <use xlink:href="#Arial-BoldMT-61" x="1181.785156"/>
     <use xlink:href="#Arial-BoldMT-e7" x="1237.400391"/>
     <use xlink:href="#Arial-BoldMT-e3" x="1293.015625"/>
     <use xlink:href="#Arial-BoldMT-6f" x="1348.630859"/>
     <use xlink:href="#Arial-BoldMT-20" x="1409.714844"/>
     <use xlink:href="#Arial-BoldMT-65" x="1437.498047"/>
     <use xlink:href="#Arial-BoldMT-6d" x="1493.113281"/>
     <use xlink:href="#Arial-BoldMT-20" x="1582.029297"/>
     <use xlink:href="#Arial-BoldMT-4a" x="1609.8125"/>
     <use xlink:href="#Arial-BoldMT-20" x="1665.427734"/>
     <use xlink:href="#Arial-BoldMT-2014" x="1693.210938"/>
     <use xlink:href="#Arial-BoldMT-20" x="1793.210938"/>
     <use xlink:href="#Arial-BoldMT-4d" x="1820.994141"/>
     <use xlink:href="#Arial-BoldMT-6f" x="1904.294922"/>
     <use xlink:href="#Arial-BoldMT-64" x="1965.378906"/>
     <use xlink:href="#Arial-BoldMT-65" x="2026.462891"/>
     <use xlink:href="#Arial-BoldMT-6c" x="2082.078125"/>
     <use xlink:href="#Arial-BoldMT-6f" x="2109.861328"/>
     <use xlink:href="#Arial-BoldMT-20" x="2170.945312"/>
     <use xlink:href="#Arial-BoldMT-48" x="2198.728516"/>
     <use xlink:href="#Arial-BoldMT-47" x="2270.945312"/>
     <use xlink:href="#Arial-BoldMT-4f" x="2348.728516"/>
     <use xlink:href="#Arial-BoldMT-20" x="2426.511719"/>
     <use xlink:href="#Arial-BoldMT-43" x="2454.294922"/>
     <use xlink:href="#Arial-BoldMT-6f" x="2526.511719"/>
     <use xlink:href="#Arial-BoldMT-72" x="2587.595703"/>
     <use xlink:href="#Arial-BoldMT-6e" x="2626.511719"/>
     <use xlink:href="#Arial-BoldMT-65" x="2687.595703"/>
     <use xlink:href="#Arial-BoldMT-61" x="2743.210938"/>
     <use xlink:href="#Arial-BoldMT-6e" x="2798.826172"/>
     <use xlink:href="#Arial-BoldMT-6f" x="2859.910156"/>
    </g>
   </g>
  </g>
 </g>
 <defs>
  <clipPath id="p88d0366ec2">
   <rect x="48.35125" y="30.263594" width="390.6" height="249.48"/>
  </clipPath>
 </defs>
</svg>
