<svg viewBox="0 0 1400 650" xmlns="http://www.w3.org/2000/svg"><rect width="1400" height="650" fill="#0A0E17"/><text x="700" y="50" fill="#ffffff" font-family="Arial" font-size="28" font-weight="bold" text-anchor="middle">Figura P2.0: Os 5 Padrões de Deformação (Morfologia Plácido)</text><rect x="100" y="150" width="200" height="300" rx="10" fill="#111B24" stroke="#00B4DC" stroke-width="2"/><ellipse cx="200" cy="250" rx="20" ry="12" fill="none" stroke="#00B4DC" stroke-width="2"/><ellipse cx="200" cy="250" rx="40" ry="24" fill="none" stroke="#00B4DC" stroke-width="2"/><ellipse cx="200" cy="250" rx="60" ry="36" fill="none" stroke="#00B4DC" stroke-width="2"/><ellipse cx="200" cy="250" rx="80" ry="48" fill="none" stroke="#00B4DC" stroke-width="2"/><text x="200" y="380" fill="#ffffff" font-family="Arial" font-size="18" font-weight="bold" text-anchor="middle">P1: Curcular</text><text x="200" y="405" fill="#cfd8dc" font-family="Arial" font-size="13" text-anchor="middle">Simétrico</text><rect x="120" y="420" width="160" height="20" rx="5" fill="#00B4DC" opacity="0.3"/><text x="200" y="435" fill="#00B4DC" font-family="Arial" font-size="12" font-weight="bold" text-anchor="middle">VT dominante</text><rect x="350" y="150" width="200" height="300" rx="10" fill="#111B24" stroke="#FFD700" stroke-width="2"/><ellipse cx="450" cy="260" rx="20" ry="25" fill="none" stroke="#FFD700" stroke-width="2"/><ellipse cx="450" cy="270" rx="40" ry="50" fill="none" stroke="#FFD700" stroke-width="2"/><ellipse cx="450" cy="280" rx="60" ry="75" fill="none" stroke="#FFD700" stroke-width="2"/><ellipse cx="450" cy="290" rx="80" ry="100" fill="none" stroke="#FFD700" stroke-width="2"/><text x="450" y="380" fill="#ffffff" font-family="Arial" font-size="18" font-weight="bold" text-anchor="middle">P2: Oval</text><text x="450" y="405" fill="#cfd8dc" font-family="Arial" font-size="13" text-anchor="middle">Assimétrico Inf.</text><rect x="370" y="420" width="160" height="20" rx="5" fill="#FFD700" opacity="0.3"/><text x="450" y="435" fill="#FFD700" font-family="Arial" font-size="12" font-weight="bold" text-anchor="middle">Vτ dominante</text><rect x="600" y="150" width="200" height="300" rx="10" fill="#111B24" stroke="#ff1744" stroke-width="2"/><ellipse cx="700" cy="215" rx="10" ry="8" fill="none" stroke="#ff1744" stroke-width="1.5"/><ellipse cx="700" cy="285" rx="15" ry="15" fill="none" stroke="#ff1744" stroke-width="1.5"/><ellipse cx="700" cy="220" rx="20" ry="16" fill="none" stroke="#ff1744" stroke-width="1.5"/><ellipse cx="700" cy="290" rx="30" ry="30" fill="none" stroke="#ff1744" stroke-width="1.5"/><ellipse cx="700" cy="225" rx="30" ry="24" fill="none" stroke="#ff1744" stroke-width="1.5"/><ellipse cx="700" cy="295" rx="45" ry="45" fill="none" stroke="#ff1744" stroke-width="1.5"/><ellipse cx="700" cy="230" rx="40" ry="32" fill="none" stroke="#ff1744" stroke-width="1.5"/><ellipse cx="700" cy="300" rx="60" ry="60" fill="none" stroke="#ff1744" stroke-width="1.5"/><text x="700" y="380" fill="#ffffff" font-family="Arial" font-size="18" font-weight="bold" text-anchor="middle">P3: Duck</text><text x="700" y="405" fill="#cfd8dc" font-family="Arial" font-size="13" text-anchor="middle">Dois polos (1/2)</text><rect x="620" y="420" width="160" height="20" rx="5" fill="#ff1744" opacity="0.3"/><text x="700" y="435" fill="#ff1744" font-family="Arial" font-size="12" font-weight="bold" text-anchor="middle">Fτ / Aberrometria</text><rect x="850" y="150" width="200" height="300" rx="10" fill="#111B24" stroke="#0B3D91" stroke-width="2"/><ellipse cx="950" cy="220" rx="12" ry="12" fill="none" stroke="#0B3D91" stroke-width="1.5"/><ellipse cx="950" cy="280" rx="16" ry="16" fill="none" stroke="#0B3D91" stroke-width="1.5"/><ellipse cx="950" cy="220" rx="24" ry="24" fill="none" stroke="#0B3D91" stroke-width="1.5"/><ellipse cx="950" cy="280" rx="32" ry="32" fill="none" stroke="#0B3D91" stroke-width="1.5"/><ellipse cx="950" cy="220" rx="36" ry="36" fill="none" stroke="#0B3D91" stroke-width="1.5"/><ellipse cx="950" cy="280" rx="48" ry="48" fill="none" stroke="#0B3D91" stroke-width="1.5"/><ellipse cx="950" cy="220" rx="48" ry="48" fill="none" stroke="#0B3D91" stroke-width="1.5"/><ellipse cx="950" cy="280" rx="64" ry="64" fill="none" stroke="#0B3D91" stroke-width="1.5"/><text x="950" y="380" fill="#ffffff" font-family="Arial" font-size="18" font-weight="bold" text-anchor="middle">P4: Snowman</text><text x="950" y="405" fill="#cfd8dc" font-family="Arial" font-size="13" text-anchor="middle">Cascata Vertical</text><rect x="870" y="420" width="160" height="20" rx="5" fill="#0B3D91" opacity="0.3"/><text x="950" y="435" fill="#0B3D91" font-family="Arial" font-size="12" font-weight="bold" text-anchor="middle">Duplo VR</text><rect x="1100" y="150" width="200" height="300" rx="10" fill="#111B24" stroke="#cfd8dc" stroke-width="2"/><path d="M 1185 250 Q 1190 220 1210 240 T 1220 270" fill="none" stroke="#cfd8dc" stroke-width="1.5"/><path d="M 1170 250 Q 1180 190 1220 230 T 1240 290" fill="none" stroke="#cfd8dc" stroke-width="1.5"/><path d="M 1155 250 Q 1170 160 1230 220 T 1260 310" fill="none" stroke="#cfd8dc" stroke-width="1.5"/><path d="M 1140 250 Q 1160 130 1240 210 T 1280 330" fill="none" stroke="#cfd8dc" stroke-width="1.5"/><text x="1200" y="380" fill="#ffffff" font-family="Arial" font-size="18" font-weight="bold" text-anchor="middle">P5: Complexo</text><text x="1200" y="405" fill="#cfd8dc" font-family="Arial" font-size="13" text-anchor="middle">Caótico</text><rect x="1120" y="420" width="160" height="20" rx="5" fill="#cfd8dc" opacity="0.3"/><text x="1200" y="435" fill="#cfd8dc" font-family="Arial" font-size="12" font-weight="bold" text-anchor="middle">ICRS Personalizado</text></svg>