<svg viewBox="0 0 1200 600" xmlns="http://www.w3.org/2000/svg"><rect width="1200" height="600" fill="#0A0E17"/><defs>
    
    
</defs><text x="600" y="50" fill="#ffffff" font-family="Arial" font-size="28" font-weight="bold" text-anchor="middle">Figura 10.1: O Índice de Coerência (Analogia de Faróis)</text><text x="600" y="80" fill="#B0BEC5" font-family="Arial" font-size="16" text-anchor="middle">Como o córtex lida com Eixos Concorrentes no pós-operatório cirúrgico?</text><rect x="50" y="120" width="500" height="420" rx="15" fill="#111B24" stroke="#00e5ff" stroke-width="2"/><text x="300" y="160" fill="#00e5ff" font-family="Arial" font-size="24" font-weight="bold" text-anchor="middle">ICE Alto: Eixos Coerentes</text><text x="300" y="190" fill="#8b9ba3" font-family="Arial" font-size="16" text-anchor="middle">Topo, Coma e Astigmatismo apontam juntos</text><polygon points="200,300 450,220 450,380 200,300" fill="#00e5ff" opacity="0.3"/><path d="M 120 270 Q 180 300 120 330" fill="none" stroke="#cfd8dc" stroke-width="4"/><path d="M 140 250 Q 200 300 140 350" fill="none" stroke="#cfd8dc" stroke-width="4"/><path d="M 160 230 Q 220 300 160 370" fill="none" stroke="#cfd8dc" stroke-width="4"/><circle cx="450" cy="300" r="30" fill="#00e5ff"/><text x="300" y="450" fill="#00e5ff" font-family="Arial" font-size="20" font-weight="bold" text-anchor="middle">Neuroadaptação Imediata</text><text x="300" y="480" fill="#ffffff" font-family="Arial" font-size="16" text-anchor="middle">Média: +4.2 Linhas Acuidade (Vencedor)</text><rect x="650" y="120" width="500" height="420" rx="15" fill="#111B24" stroke="#ff1744" stroke-width="2"/><text x="900" y="160" fill="#ff1744" font-family="Arial" font-size="24" font-weight="bold" text-anchor="middle">ICE Baixo: Eixos Discordantes</text><text x="900" y="190" fill="#8b9ba3" font-family="Arial" font-size="16" text-anchor="middle">Vetores independentes apontando para direções aleatórias</text><polygon points="800,270 1050,200 1050,300" fill="#ffb74d" opacity="0.3"/><circle cx="1050" cy="250" r="20" fill="#ffb74d"/><polygon points="800,290 1050,300 1050,420" fill="#ff1744" opacity="0.3"/><circle cx="1050" cy="360" r="20" fill="#ff1744"/><polygon points="780,280 880,180 950,220" fill="#b388ff" opacity="0.3"/><circle cx="920" cy="200" r="15" fill="#b388ff"/><path d="M 720 270 Q 750 250 780 270" fill="none" stroke="#cfd8dc" stroke-width="4"/><path d="M 700 290 Q 720 330 750 350" fill="none" stroke="#cfd8dc" stroke-width="4"/><text x="900" y="450" fill="#ff1744" font-family="Arial" font-size="20" font-weight="bold" text-anchor="middle">Confusão Neurobiológica</text><text x="900" y="480" fill="#ffffff" font-family="Arial" font-size="16" text-anchor="middle">Média: +1.6 Linhas Acuidade / 35% Explante</text></svg>