<svg viewBox="0 0 800 600" xmlns="http://www.w3.org/2000/svg"><rect width="800" height="600" fill="#0A0E17"/><text x="400" y="50" fill="#ffffff" font-family="Arial" font-size="26" font-weight="bold" text-anchor="middle">Figura 10.2: A Curva ROC da Predição Cirúrgica</text><line x1="120" y1="500" x2="720" y2="500" stroke="#ffffff" stroke-width="2"/><line x1="120" y1="500" x2="120" y2="100" stroke="#ffffff" stroke-width="2"/><text x="420" y="540" fill="#cfd8dc" font-family="Arial" font-size="18" text-anchor="middle">Taxa de Falsos Positivos (1 - Especificidade)</text><text x="90" y="300" fill="#cfd8dc" font-family="Arial" font-size="18" transform="rotate(-90 90 300)" text-anchor="middle">Taxa de Verdadeiros Pos. (Sensibilidade)</text><line x1="120" y1="500" x2="720" y2="100" stroke="#455a64" stroke-dasharray="5,5" stroke-width="2"/><path d="M 120 500 Q 320 300 720 100" fill="none" stroke="#78909c" stroke-width="4"/><path d="M 120 500 Q 300 250 720 100" fill="none" stroke="#03a9f4" stroke-width="5"/><path d="M 120 500 Q 220 120 720 100" fill="none" stroke="#ffb74d" stroke-width="8"/><rect x="550" y="250" width="200" height="120" rx="10" fill="#111B24" stroke="#263238" stroke-width="2"/><line x1="560" y1="280" x2="580" y2="280" stroke="#ffb74d" stroke-width="4"/><text x="590" y="285" fill="#ffffff" font-family="Arial" font-size="16">ICE-min (AUC: 0.82)</text><line x1="560" y1="315" x2="580" y2="315" stroke="#03a9f4" stroke-width="4"/><text x="590" y="320" fill="#ffffff" font-family="Arial" font-size="16">K-max (AUC: 0.68)</text><line x1="560" y1="350" x2="580" y2="350" stroke="#78909c" stroke-width="4"/><text x="590" y="355" fill="#ffffff" font-family="Arial" font-size="16">Paquímetria (0.64)</text></svg>