<svg viewBox="0 0 1200 500" xmlns="http://www.w3.org/2000/svg"><rect width="1200" height="500" fill="#0A0E17"/><text x="600" y="50" fill="#ffffff" font-family="Arial" font-size="28" font-weight="bold" text-anchor="middle">Figura P1.2: Nascimento dos Vetores</text><defs><marker id="av1" viewBox="0 0 10 10" refX="5" refY="5" markerWidth="5" markerHeight="5" orient="auto-start-reverse"><path d="M 0 0 L 10 5 L 0 10 z" fill="#0B3D91"/></marker><marker id="av2" viewBox="0 0 10 10" refX="5" refY="5" markerWidth="5" markerHeight="5" orient="auto-start-reverse"><path d="M 0 0 L 10 5 L 0 10 z" fill="#FFD700"/></marker><marker id="av3" viewBox="0 0 10 10" refX="5" refY="5" markerWidth="5" markerHeight="5" orient="auto-start-reverse"><path d="M 0 0 L 10 5 L 0 10 z" fill="#00B4DC"/></marker></defs><rect x="100" y="150" width="250" height="250" rx="15" fill="#111B24"/><text x="225" y="190" fill="#ff1744" font-family="Arial" font-size="16" font-weight="bold" text-anchor="middle">Alargamento Central</text><text x="225" y="215" fill="#cfd8dc" font-family="Arial" font-size="14" text-anchor="middle">Frouxidão Simétrica</text><circle cx="225" cy="290" r="30" fill="none" stroke="#cfd8dc" stroke-width="2" stroke-dasharray="4,4"/><line x1="225" y1="290" x2="265" y2="290" stroke="#0B3D91" stroke-width="5" marker-end="url(#av1)"/><rect x="150" y="420" width="150" height="30" rx="15" fill="#0B3D91" opacity="0.8"/><text x="225" y="440" fill="#ffffff" font-family="Arial" font-size="14" font-weight="bold" text-anchor="middle">VR (Radial)</text><rect x="500" y="150" width="250" height="250" rx="15" fill="#111B24"/><text x="625" y="190" fill="#ff1744" font-family="Arial" font-size="16" font-weight="bold" text-anchor="middle">Deslizamento Inferior</text><text x="625" y="215" fill="#cfd8dc" font-family="Arial" font-size="14" text-anchor="middle">Ápice Caiu</text><path d="M 595 290 Q 625 330 655 290" fill="none" stroke="#cfd8dc" stroke-width="2" stroke-dasharray="4,4"/><line x1="625" y1="310" x2="625" y2="260" stroke="#FFD700" stroke-width="5" marker-end="url(#av2)"/><rect x="550" y="420" width="150" height="30" rx="15" fill="#FFD700" opacity="0.8"/><text x="625" y="440" fill="#ffffff" font-family="Arial" font-size="14" font-weight="bold" text-anchor="middle">Vτ (Torque)</text><rect x="900" y="150" width="250" height="250" rx="15" fill="#111B24"/><text x="1025" y="190" fill="#ff1744" font-family="Arial" font-size="16" font-weight="bold" text-anchor="middle">Distorção Meridional</text><text x="1025" y="215" fill="#cfd8dc" font-family="Arial" font-size="14" text-anchor="middle">Compressão Simétrica</text><ellipse cx="1025" cy="290" rx="40" ry="20" fill="none" stroke="#cfd8dc" stroke-width="2" stroke-dasharray="4,4"/><line x1="985" y1="290" x2="965" y2="290" stroke="#00B4DC" stroke-width="5" marker-end="url(#av3)"/><line x1="1065" y1="290" x2="1085" y2="290" stroke="#00B4DC" stroke-width="5" marker-end="url(#av3)"/><rect x="950" y="420" width="150" height="30" rx="15" fill="#00B4DC" opacity="0.8"/><text x="1025" y="440" fill="#ffffff" font-family="Arial" font-size="14" font-weight="bold" text-anchor="middle">VT (Tangencial)</text></svg>