<svg viewBox="0 0 1200 600" xmlns="http://www.w3.org/2000/svg"><rect width="1200" height="600" fill="#0A0E17"/><text x="600" y="50" fill="#ffffff" font-family="Arial" font-size="26" font-weight="bold" text-anchor="middle">Figura P3.1: Matriz de Decisão Vetorial (3 Passos)</text><defs>
    <marker id="arG" viewBox="0 0 10 10" refX="5" refY="5" markerWidth="6" markerHeight="6" orient="auto-start-reverse"><path d="M 0 0 L 10 5 L 0 10 z" fill="#00e676"/></marker>
    <marker id="arR" viewBox="0 0 10 10" refX="5" refY="5" markerWidth="6" markerHeight="6" orient="auto-start-reverse"><path d="M 0 0 L 10 5 L 0 10 z" fill="#ff1744"/></marker>
</defs><rect x="100" y="100" width="250" height="400" rx="10" fill="#111B24" stroke="#ffb74d" stroke-width="2"/><text x="225" y="140" fill="#ffb74d" font-family="Arial" font-size="18" font-weight="bold" text-anchor="middle">PASSO 1: O Fenótipo</text><text x="225" y="200" fill="#ffffff" font-family="Arial" font-size="14" text-anchor="middle">Identificar P1, P2, P3, P4, P5</text><rect x="450" y="200" width="300" height="200" rx="10" fill="#111B24" stroke="#b388ff" stroke-width="2"/><text x="600" y="240" fill="#b388ff" font-family="Arial" font-size="18" font-weight="bold" text-anchor="middle">PASSO 2: Coincidência Axial?</text><text x="600" y="280" fill="#ffffff" font-family="Arial" font-size="16" text-anchor="middle">K-Max = Eixo do Coma?</text><line x1="350" y1="300" x2="430" y2="300" stroke="#ffffff" stroke-width="3" marker-end="url(#aW)"/><rect x="850" y="120" width="250" height="150" rx="10" fill="#112A22" stroke="#00e676" stroke-width="2"/><text x="975" y="160" fill="#00e676" font-family="Arial" font-size="18" font-weight="bold" text-anchor="middle">PASSO 3: SIM</text><text x="975" y="200" fill="#ffffff" font-family="Arial" font-size="14" text-anchor="middle">Incisão baseada no Topo</text><text x="975" y="225" fill="#cfd8dc" font-family="Arial" font-size="12" text-anchor="middle">(Vτ p/ P2, VT p/ P1)</text><line x1="750" y1="280" x2="840" y2="200" stroke="#00e676" stroke-width="3" marker-end="url(#arG)"/><circle cx="795" cy="240" r="15" fill="#0A0E17"/><text x="795" y="245" fill="#00e676" font-family="Arial" font-size="16" font-weight="bold" text-anchor="middle">S</text><rect x="850" y="320" width="250" height="150" rx="10" fill="#2A1114" stroke="#ff1744" stroke-width="2"/><text x="975" y="360" fill="#ff1744" font-family="Arial" font-size="18" font-weight="bold" text-anchor="middle">PASSO 3: NÃO (Discordância)</text><text x="975" y="400" fill="#ffffff" font-family="Arial" font-size="14" text-anchor="middle">Incisão baseada no ENM</text><text x="975" y="425" fill="#cfd8dc" font-family="Arial" font-size="12" text-anchor="middle">(Guiado pela Aberrometria)</text><line x1="750" y1="320" x2="840" y2="400" stroke="#ff1744" stroke-width="3" marker-end="url(#arR)"/><circle cx="795" cy="360" r="15" fill="#0A0E17"/><text x="795" y="365" fill="#ff1744" font-family="Arial" font-size="16" font-weight="bold" text-anchor="middle">N</text></svg>